<?xml version="1.0" encoding="UTF-8" standalone="no"?>
<svg
   viewBox="0 0 793.7007874015749 1122.5196850393702"
   width="793.7007874015749"
   height="1122.5196850393702"
   version="1.1"
   id="svg166"
   sodipodi:docname="Plaque face-Vfinale.dxf.2025_07_04_09_58_26.0.svg"
   inkscape:version="1.2.2 (b0a8486541, 2022-12-01)"
   xmlns:inkscape="http://www.inkscape.org/namespaces/inkscape"
   xmlns:sodipodi="http://sodipodi.sourceforge.net/DTD/sodipodi-0.dtd"
   xmlns="http://www.w3.org/2000/svg"
   xmlns:svg="http://www.w3.org/2000/svg">
  <sodipodi:namedview
     id="namedview168"
     pagecolor="#ffffff"
     bordercolor="#000000"
     borderopacity="0.25"
     inkscape:showpageshadow="2"
     inkscape:pageopacity="0.0"
     inkscape:pagecheckerboard="0"
     inkscape:deskcolor="#d1d1d1"
     showgrid="false"
     inkscape:zoom="0.77593296"
     inkscape:cx="305.43876"
     inkscape:cy="459.44691"
     inkscape:window-width="1920"
     inkscape:window-height="1052"
     inkscape:window-x="0"
     inkscape:window-y="0"
     inkscape:window-maximized="1"
     inkscape:current-layer="g164" />
  <desc
     id="desc2">Plaque face-Vfinale.dxf - scale = 1.000000, origin = (0.000000, 0.000000), method = manual</desc>
  <defs
     id="defs16">
    <marker
       id="DistanceX"
       orient="auto"
       refX="0.0"
       refY="0.0"
       style="overflow:visible">
      <path
         d="M 3,-3 L -3,3 M 0,-5 L  0,5"
         style="stroke:#000000; stroke-width:0.5"
         id="path4" />
    </marker>
    <pattern
       id="Hatch"
       patternUnits="userSpaceOnUse"
       width="8"
       height="8"
       x="0"
       y="0">
      <path
         d="M8 4 l-4,4"
         stroke="#000000"
         stroke-width="0.25"
         linecap="square"
         id="path7" />
      <path
         d="M6 2 l-4,4"
         stroke="#000000"
         stroke-width="0.25"
         linecap="square"
         id="path9" />
      <path
         d="M4 0 l-4,4"
         stroke="#000000"
         stroke-width="0.25"
         linecap="square"
         id="path11" />
    </pattern>
    <symbol
       id="*MODEL_SPACE" />
    <symbol
       id="*PAPER_SPACE" />
  </defs>
  <g
     inkscape:groupmode="layer"
     inkscape:label="0"
     id="g18" />
  <g
     inkscape:groupmode="layer"
     inkscape:label="SECTION_CUTTING_LINE"
     id="g20" />
  <g
     inkscape:groupmode="layer"
     inkscape:label="DETAIL_VIEW_BORDER"
     id="g22" />
  <g
     inkscape:groupmode="layer"
     inkscape:label="DETAIL_VIEW_PARENT_BORDER"
     id="g24" />
  <g
     inkscape:groupmode="layer"
     inkscape:label="TEXT"
     id="g26" />
  <g
     inkscape:groupmode="layer"
     inkscape:label="SKETCHED_GEOMETRY"
     id="g28" />
  <g
     inkscape:groupmode="layer"
     inkscape:label="VIRTUAL_SHARPS"
     id="g30" />
  <g
     inkscape:groupmode="layer"
     inkscape:label="CENTERLINES"
     id="g32" />
  <g
     inkscape:groupmode="layer"
     inkscape:label="CENTERMARKS"
     id="g34" />
  <g
     inkscape:groupmode="layer"
     inkscape:label="TABLES"
     id="g36" />
  <g
     inkscape:groupmode="layer"
     inkscape:label="IMAGES"
     id="g38" />
  <g
     inkscape:groupmode="layer"
     inkscape:label="ANNOTATION_LINES"
     id="g40" />
  <g
     inkscape:groupmode="layer"
     inkscape:label="ANNOTATION_TEXT"
     id="g42" />
  <g
     inkscape:groupmode="layer"
     inkscape:label="SIDE_THREAD_SYMBOLS"
     id="g44" />
  <g
     inkscape:groupmode="layer"
     inkscape:label="SIDE_THREAD_SYMBOLS_HIDDEN"
     id="g46" />
  <g
     inkscape:groupmode="layer"
     inkscape:label="SURFACE_THREAD_SYMBOLS"
     id="g48" />
  <g
     inkscape:groupmode="layer"
     inkscape:label="SURFACE_THREAD_SYMBOLS_ON_"
     id="g50" />
  <g
     inkscape:groupmode="layer"
     inkscape:label="SURFACE_THREAD_SYMBOLS_HID"
     id="g52" />
  <g
     inkscape:groupmode="layer"
     inkscape:label="BLIND_THREAD_SYMBOLS"
     id="g54" />
  <g
     inkscape:groupmode="layer"
     inkscape:label="BLIND_THREAD_SYMBOLS_HIDDE"
     id="g56" />
  <g
     inkscape:groupmode="layer"
     inkscape:label="EXPLODE_LINES"
     id="g58" />
  <g
     inkscape:groupmode="layer"
     inkscape:label="HIDDEN_EXPLODE_LINES"
     id="g60" />
  <g
     inkscape:groupmode="layer"
     inkscape:label="BREAK_LINES"
     id="g62" />
  <g
     inkscape:groupmode="layer"
     inkscape:label="SHEETMETAL_BEND_LINES_UP"
     id="g64" />
  <g
     inkscape:groupmode="layer"
     inkscape:label="SHEETMETAL_BEND_LINES_DOWN"
     id="g66" />
  <g
     inkscape:groupmode="layer"
     inkscape:label="SHEETMETAL_BEND_TANGENT_LI"
     id="g68" />
  <g
     inkscape:groupmode="layer"
     inkscape:label="SHEETMETAL_CUT_LINES"
     id="g70" />
  <g
     inkscape:groupmode="layer"
     inkscape:label="SHEETMETAL_CBORE_CSINK_UP"
     id="g72" />
  <g
     inkscape:groupmode="layer"
     inkscape:label="SHEETMETAL_CBORE_CSINK_DOW"
     id="g74" />
  <g
     inkscape:groupmode="layer"
     inkscape:label="SHEETMETAL_FORM_TEAR"
     id="g76" />
  <g
     inkscape:groupmode="layer"
     inkscape:label="SHEETMETAL_FORM_UP"
     id="g78" />
  <g
     inkscape:groupmode="layer"
     inkscape:label="SHEETMETAL_FORM_DOWN"
     id="g80" />
  <g
     inkscape:groupmode="layer"
     inkscape:label="SHEETMETAL_FORM_CENTERMARK"
     id="g82" />
  <g
     inkscape:groupmode="layer"
     inkscape:label="REGION_ASSOC_POINTS"
     id="g84" />
  <g
     inkscape:groupmode="layer"
     inkscape:label="PATTERN_CENTERLINES"
     id="g86" />
  <g
     inkscape:groupmode="layer"
     inkscape:label="HIDDEN"
     id="g88" />
  <g
     inkscape:groupmode="layer"
     inkscape:label="VISIBLE"
     id="g90" />
  <g
     inkscape:groupmode="layer"
     inkscape:label="MODELSKETCH_VISIBLE"
     id="g148">
    <path
       d="m 110.44017,647.76418 a 3.779528,3.779528 0 0 0 7.55905,0"
       style="fill:none;stroke:#ff0000;stroke-opacity:1"
       id="path92" />
    <path
       style="fill:none;stroke:#ff0000;stroke-opacity:1"
       d="m 117.99925,632.64355 v 15.12"
       id="path94" />
    <path
       style="fill:none;stroke:#ff0000;stroke-opacity:1"
       d="m 110.44015,632.64355 v 15.12"
       id="path96" />
    <path
       d="m 206.37214,856.80985 a 6.614175,6.614175 0 0 0 -13.22834,0 6.614175,6.614175 0 0 0 13.22834,0 z"
       style="fill:none;stroke:#ff0000;stroke-opacity:1"
       id="path98" />
    <path
       style="fill:none;stroke:#ff0000;stroke-opacity:1"
       d="m 276.73955,910.44352 h -37.7954"
       id="path100" />
    <path
       style="fill:none;stroke:#ff0000;stroke-opacity:1"
       d="m 238.94415,443.66955 v -11.338"
       id="path102" />
    <path
       style="fill:none;stroke:#ff0000;stroke-opacity:1"
       d="M 87.762947,899.10352 H 238.94415"
       id="path104" />
    <path
       d="m 216.26694,632.64608 a 3.779535,3.779535 0 0 0 -7.55907,0"
       style="fill:none;stroke:#ff0000;stroke-opacity:1"
       id="path106" />
    <path
       d="m 264.45613,664.77206 a 6.614395,6.614395 0 0 0 -13.22879,0 6.614395,6.614395 0 0 0 13.22879,0 z"
       style="fill:none;stroke:#ff0000;stroke-opacity:1"
       id="path108" />
    <path
       style="fill:none;stroke:#ff0000;stroke-opacity:1"
       d="M 87.762947,443.66955 H 238.94415"
       id="path110" />
    <path
       style="fill:none;stroke:#ff0000;stroke-opacity:1"
       d="m 276.73955,899.10352 v 11.34"
       id="path112" />
    <path
       style="fill:none;stroke:#ff0000;stroke-opacity:1"
       d="m 208.70785,632.64355 v 15.12"
       id="path114" />
    <path
       style="fill:none;stroke:#ff0000;stroke-opacity:1"
       d="m 276.73955,432.33155 h -37.7954"
       id="path116" />
    <path
       style="fill:none;stroke:#ff0000;stroke-opacity:1"
       d="m 238.94415,899.10352 v 11.34"
       id="path118" />
    <path
       style="fill:none;stroke:#ff0000;stroke-opacity:1"
       d="m 216.26695,632.64355 v 15.12"
       id="path120" />
    <path
       style="fill:none;stroke:#ff0000;stroke-opacity:1"
       d="m 276.73955,443.66955 v -11.338"
       id="path122" />
    <path
       d="m 117.99922,632.64607 a 3.779528,3.779528 0 0 0 -7.55905,0"
       style="fill:none;stroke:#ff0000;stroke-opacity:1"
       id="path124" />
    <path
       d="m 208.70788,647.76417 a 3.77953,3.77953 0 0 0 7.55906,0"
       style="fill:none;stroke:#ff0000;stroke-opacity:1"
       id="path126" />
    <path
       d="m 82.482996,660.23662 a 6.6141735,6.6141735 0 0 0 -13.22834,0 6.6141735,6.6141735 0 0 0 13.22834,0 z"
       style="fill:none;stroke:#ff0000;stroke-opacity:1"
       id="path128" />
    <path
       style="fill:none;stroke:#ff0000;stroke-opacity:1"
       d="M 276.73955,899.10352 V 443.66956"
       id="path130" />
    <path
       style="fill:none;stroke:#ff0000;stroke-opacity:1"
       d="m 87.76295,443.66955 v -11.338"
       id="path132" />
    <path
       style="fill:none;stroke:#ff0000;stroke-opacity:1"
       d="m 49.96755,443.66955 v -11.338"
       id="path134" />
    <path
       style="fill:none;stroke:#ff0000;stroke-opacity:1"
       d="m 49.96755,432.33155 h 37.7954"
       id="path136" />
    <path
       d="m 101.01025,856.77205 a 6.61418,6.61418 0 0 0 -13.228359,0 6.61418,6.61418 0 0 0 13.228359,0 z"
       style="fill:none;stroke:#ff0000;stroke-opacity:1"
       id="path138" />
    <path
       style="fill:none;stroke:#ff0000;stroke-opacity:1"
       d="M 49.967552,899.10352 V 443.66956"
       id="path140" />
    <path
       style="fill:none;stroke:#ff0000;stroke-opacity:1"
       d="m 87.76295,899.10352 v 11.34"
       id="path142" />
    <path
       style="fill:none;stroke:#ff0000;stroke-opacity:1"
       d="m 49.96755,910.44352 h 37.7954"
       id="path144" />
    <path
       style="fill:none;stroke:#ff0000;stroke-opacity:1"
       d="m 49.96755,899.10352 v 11.34"
       id="path146" />
  </g>
  <g
     inkscape:groupmode="layer"
     inkscape:label="MODELSKETCH_POINT"
     id="g150" />
  <g
     inkscape:groupmode="layer"
     inkscape:label="MODELSKETCH_CONSTRUCTION"
     id="g152" />
  <g
     inkscape:groupmode="layer"
     inkscape:label="HIDDEN_BASE_VIEW"
     id="g154" />
  <g
     inkscape:groupmode="layer"
     inkscape:label="TANGENT_LINES"
     id="g156" />
  <g
     inkscape:groupmode="layer"
     inkscape:label="TANGENT_HIDDEN"
     id="g158" />
  <g
     inkscape:groupmode="layer"
     inkscape:label="INVISIBLE_LINES"
     id="g160" />
  <g
     inkscape:groupmode="layer"
     inkscape:label="VIEW_HATCHES"
     id="g162" />
  <g
     inkscape:groupmode="layer"
     inkscape:label="SECTION_JOG_LINES"
     id="g164">
    <path
       style="fill:none;stroke:#ff0000;stroke-opacity:1"
       d="m 202.11421,148.8278 v 26.45"
       id="path1476" />
    <path
       d="m 101.95673,296.2269 a 6.614177,6.614177 0 0 0 -13.228356,0 6.614177,6.614177 0 0 0 13.228356,0 z"
       style="fill:none;stroke:#ff0000;stroke-opacity:1"
       id="path1478" />
    <path
       d="m 328.72838,296.2269 a 6.614175,6.614175 0 0 0 -13.22835,0 6.614175,6.614175 0 0 0 13.22835,0 z"
       style="fill:none;stroke:#ff0000;stroke-opacity:1"
       id="path1480" />
    <path
       style="fill:none;stroke:#ff0000;stroke-opacity:1"
       d="m 284.31898,190.3978 v 11.34"
       id="path1482" />
    <path
       d="m 328.72838,126.1481 a 6.614175,6.614175 0 0 0 -13.22835,0 6.614175,6.614175 0 0 0 13.22835,0 z"
       style="fill:none;stroke:#ff0000;stroke-opacity:1"
       id="path1484" />
    <path
       style="fill:none;stroke:#ff0000;stroke-opacity:1"
       d="m 322.11438,190.3978 v 11.34"
       id="path1486" />
    <path
       style="fill:none;stroke:#ff0000;stroke-opacity:1"
       d="m 202.11421,247.0978 v 26.45"
       id="path1488" />
    <path
       style="fill:none;stroke:#ff0000;stroke-opacity:1"
       d="m 215.34255,247.0978 v 26.45"
       id="path1490" />
    <path
       d="m 202.11421,273.5497 a 6.614173,6.614173 0 0 0 13.22834,0"
       style="fill:none;stroke:#ff0000;stroke-opacity:1"
       id="path1492" />
    <path
       d="m 202.11421,175.282 a 6.614173,6.614173 0 0 0 13.22834,0"
       style="fill:none;stroke:#ff0000;stroke-opacity:1"
       id="path1494" />
    <path
       style="fill:none;stroke:#ff0000;stroke-opacity:1"
       d="M 95.342378,201.7378 H 133.13778"
       id="path1496" />
    <path
       d="m 215.34255,148.8253 a 6.614173,6.614173 0 0 0 -13.22834,0"
       style="fill:none;stroke:#ff0000;stroke-opacity:1"
       id="path1498" />
    <path
       style="fill:none;stroke:#ff0000;stroke-opacity:1"
       d="m 215.34255,148.8278 v 26.45"
       id="path1500" />
    <path
       d="m 215.34255,247.093 a 6.614173,6.614173 0 0 0 -13.22834,0"
       style="fill:none;stroke:#ff0000;stroke-opacity:1"
       id="path1502" />
    <path
       d="m 227.62602,323.6284 a 18.89764,18.89764 0 0 0 -37.79528,0 18.89764,18.89764 0 0 0 37.79528,0 z"
       style="fill:none;stroke:#ff0000;stroke-opacity:1"
       id="path1504" />
    <path
       style="fill:none;stroke:#ff0000;stroke-opacity:1"
       d="M 95.342378,190.3978 H 133.13778"
       id="path1506" />
    <path
       style="fill:none;stroke:#ff0000;stroke-opacity:1"
       d="m 95.342378,190.3978 v 11.34"
       id="path1508" />
    <path
       d="m 101.95673,126.1481 a 6.614177,6.614177 0 0 0 -13.228356,0 6.614177,6.614177 0 0 0 13.228356,0 z"
       style="fill:none;stroke:#ff0000;stroke-opacity:1"
       id="path1510" />
    <path
       style="fill:none;stroke:#ff0000;stroke-opacity:1"
       d="m 133.13778,190.3978 v 11.34"
       id="path1512" />
    <path
       d="m 378.80712,211.1875 a 170.07874,170.07874 0 0 0 -340.157486,0 170.07874,170.07874 0 0 0 340.157486,0 z"
       style="fill:none;stroke:#ff0000;stroke-opacity:1"
       id="path1514" />
    <path
       style="fill:none;stroke:#ff0000;stroke-opacity:1"
       d="m 322.11438,190.3978 h -37.7954"
       id="path1516" />
    <path
       style="fill:none;stroke:#ff0000;stroke-opacity:1"
       d="m 322.11438,201.7378 h -37.7954"
       id="path1518" />
    <path
       d="M 669.36008,356.46258 A 170.07874,170.07874 0 0 0 685.49162,80.347098"
       style="fill:none;stroke:#ff0000;stroke-opacity:1"
       id="path379" />
    <path
       d="M 471.68926,80.347098 A 170.07874,170.07874 0 0 0 487.8208,356.46258"
       style="fill:none;stroke:#ff0000;stroke-opacity:1"
       id="path381" />
    <path
       d="m 471.68926,80.347098 a 113.38583,113.38583 0 0 0 213.80236,0"
       style="fill:none;stroke:#ff0000;stroke-opacity:1"
       id="path383" />
    <path
       d="m 669.36008,356.46258 a 94.488189,94.488189 0 0 0 -181.53928,0"
       style="fill:none;stroke:#ff0000;stroke-opacity:1"
       id="path385" />
    <path
       style="fill:none;stroke:#ff0000;stroke-opacity:1"
       d="m 523.78724,169.17088 h 109.6064"
       id="path387" />
    <path
       style="fill:none;stroke:#ff0000;stroke-opacity:1"
       d="m 523.78724,191.84088 h 109.6064"
       id="path389" />
    <path
       style="fill:none;stroke:#ff0000;stroke-opacity:1"
       d="m 654.18104,229.64088 h -60.4725"
       id="path391" />
    <path
       style="fill:none;stroke:#ff0000;stroke-opacity:1"
       d="m 654.18104,274.99088 h -60.4725"
       id="path393" />
    <path
       style="fill:none;stroke:#ff0000;stroke-opacity:1"
       d="m 502.99984,191.84088 v 11.34"
       id="path395" />
    <path
       style="fill:none;stroke:#ff0000;stroke-opacity:1"
       d="m 633.39364,191.84088 v -22.67"
       id="path397" />
    <path
       style="fill:none;stroke:#ff0000;stroke-opacity:1"
       d="m 593.70854,229.64088 v 45.35"
       id="path399" />
    <path
       style="fill:none;stroke:#ff0000;stroke-opacity:1"
       d="m 691.97644,203.18088 h -37.7954"
       id="path401" />
    <path
       style="fill:none;stroke:#ff0000;stroke-opacity:1"
       d="m 523.78724,191.84088 v -22.67"
       id="path403" />
    <path
       style="fill:none;stroke:#ff0000;stroke-opacity:1"
       d="m 654.18104,229.64088 v 45.35"
       id="path405" />
    <path
       style="fill:none;stroke:#ff0000;stroke-opacity:1"
       d="m 691.97644,191.84088 h -37.7954"
       id="path407" />
    <path
       style="fill:none;stroke:#ff0000;stroke-opacity:1"
       d="m 691.97644,191.84088 v 11.34"
       id="path409" />
    <path
       style="fill:none;stroke:#ff0000;stroke-opacity:1"
       d="m 654.18104,191.84088 v 11.34"
       id="path411" />
    <path
       style="fill:none;stroke:#ff0000;stroke-opacity:1"
       d="m 465.20444,203.18088 h 37.7954"
       id="path413" />
    <path
       d="m 698.59044,127.59118 a 6.614175,6.614175 0 0 0 -13.22835,0 6.614175,6.614175 0 0 0 13.22835,0 z"
       style="fill:none;stroke:#ff0000;stroke-opacity:1"
       id="path415" />
    <path
       d="m 471.81879,127.59118 a 6.614175,6.614175 0 0 0 -13.22835,0 6.614175,6.614175 0 0 0 13.22835,0 z"
       style="fill:none;stroke:#ff0000;stroke-opacity:1"
       id="path417" />
    <path
       d="m 698.59044,297.66998 a 6.614175,6.614175 0 0 0 -13.22835,0 6.614175,6.614175 0 0 0 13.22835,0 z"
       style="fill:none;stroke:#ff0000;stroke-opacity:1"
       id="path419" />
    <path
       style="fill:none;stroke:#ff0000;stroke-opacity:1"
       d="m 465.20444,191.84088 v 11.34"
       id="path421" />
    <path
       d="m 471.81879,297.66998 a 6.614175,6.614175 0 0 0 -13.22835,0 6.614175,6.614175 0 0 0 13.22835,0 z"
       style="fill:none;stroke:#ff0000;stroke-opacity:1"
       id="path423" />
    <path
       style="fill:none;stroke:#ff0000;stroke-opacity:1"
       d="m 465.20444,191.84088 h 37.7954"
       id="path425" />
  </g>
</svg>
