G04 EAGLE Gerber RS-274X export*
G75*
%MOMM*%
%FSLAX34Y34*%
%LPD*%
%INBottom Copper*%
%IPPOS*%
%AMOC8*
5,1,8,0,0,1.08239X$1,22.5*%
G01*
%ADD10C,4.013200*%
%ADD11C,1.524000*%
%ADD12C,1.320800*%
%ADD13C,1.700000*%
%ADD14P,1.429621X8X292.500000*%
%ADD15P,1.429621X8X112.500000*%
%ADD16C,1.320800*%
%ADD17P,1.732040X8X112.500000*%
%ADD18C,1.600200*%
%ADD19P,1.732040X8X292.500000*%
%ADD20C,0.406400*%
%ADD21C,1.500000*%

G36*
X122859Y6098D02*
X122859Y6098D01*
X122868Y6097D01*
X123059Y6118D01*
X123251Y6137D01*
X123259Y6139D01*
X123268Y6140D01*
X123450Y6198D01*
X123635Y6255D01*
X123643Y6259D01*
X123652Y6262D01*
X123820Y6355D01*
X123989Y6447D01*
X123996Y6452D01*
X124004Y6457D01*
X124151Y6581D01*
X124299Y6704D01*
X124304Y6711D01*
X124311Y6717D01*
X124430Y6868D01*
X124551Y7018D01*
X124555Y7026D01*
X124561Y7033D01*
X124648Y7206D01*
X124737Y7375D01*
X124739Y7384D01*
X124743Y7392D01*
X124795Y7578D01*
X124848Y7762D01*
X124849Y7771D01*
X124851Y7780D01*
X124865Y7973D01*
X124881Y8164D01*
X124880Y8172D01*
X124880Y8181D01*
X124856Y8374D01*
X124834Y8563D01*
X124831Y8572D01*
X124830Y8581D01*
X124769Y8764D01*
X124709Y8946D01*
X124705Y8954D01*
X124702Y8962D01*
X124606Y9129D01*
X124511Y9297D01*
X124505Y9304D01*
X124501Y9311D01*
X124286Y9564D01*
X120967Y12883D01*
X117603Y21005D01*
X117603Y29795D01*
X120967Y37917D01*
X127183Y44133D01*
X128911Y44848D01*
X128911Y44849D01*
X133815Y46880D01*
X135305Y47497D01*
X144095Y47497D01*
X152217Y44133D01*
X158433Y37917D01*
X161797Y29795D01*
X161797Y21005D01*
X158433Y12883D01*
X155114Y9564D01*
X155108Y9557D01*
X155101Y9552D01*
X154981Y9402D01*
X154859Y9253D01*
X154855Y9245D01*
X154849Y9238D01*
X154760Y9068D01*
X154670Y8897D01*
X154668Y8888D01*
X154663Y8881D01*
X154610Y8696D01*
X154555Y8511D01*
X154555Y8502D01*
X154552Y8494D01*
X154536Y8303D01*
X154519Y8110D01*
X154520Y8101D01*
X154519Y8092D01*
X154541Y7903D01*
X154562Y7710D01*
X154565Y7701D01*
X154566Y7693D01*
X154625Y7511D01*
X154684Y7326D01*
X154688Y7318D01*
X154691Y7310D01*
X154786Y7141D01*
X154879Y6974D01*
X154884Y6967D01*
X154889Y6959D01*
X155015Y6813D01*
X155139Y6667D01*
X155146Y6661D01*
X155152Y6654D01*
X155303Y6537D01*
X155455Y6417D01*
X155463Y6413D01*
X155470Y6408D01*
X155642Y6322D01*
X155814Y6235D01*
X155823Y6232D01*
X155831Y6228D01*
X156017Y6178D01*
X156202Y6127D01*
X156211Y6126D01*
X156219Y6124D01*
X156550Y6097D01*
X266781Y6097D01*
X266790Y6098D01*
X266799Y6097D01*
X266989Y6117D01*
X267182Y6137D01*
X267190Y6139D01*
X267199Y6140D01*
X267382Y6198D01*
X267567Y6255D01*
X267574Y6259D01*
X267583Y6262D01*
X267752Y6355D01*
X267921Y6447D01*
X267927Y6452D01*
X267935Y6457D01*
X268083Y6582D01*
X268230Y6704D01*
X268235Y6711D01*
X268242Y6717D01*
X268362Y6868D01*
X268482Y7018D01*
X268486Y7026D01*
X268492Y7033D01*
X268580Y7206D01*
X268668Y7375D01*
X268670Y7384D01*
X268674Y7392D01*
X268726Y7577D01*
X268779Y7762D01*
X268780Y7771D01*
X268782Y7780D01*
X268796Y7972D01*
X268812Y8164D01*
X268811Y8172D01*
X268812Y8181D01*
X268787Y8373D01*
X268765Y8563D01*
X268762Y8572D01*
X268761Y8581D01*
X268700Y8763D01*
X268640Y8946D01*
X268636Y8954D01*
X268633Y8962D01*
X268537Y9130D01*
X268442Y9297D01*
X268436Y9304D01*
X268432Y9311D01*
X268217Y9564D01*
X267772Y10010D01*
X265683Y15052D01*
X265683Y35748D01*
X267387Y39863D01*
X267390Y39870D01*
X267393Y39875D01*
X267394Y39881D01*
X267398Y39887D01*
X267449Y40067D01*
X267504Y40248D01*
X267505Y40261D01*
X267509Y40274D01*
X267524Y40462D01*
X267542Y40649D01*
X267541Y40662D01*
X267542Y40676D01*
X267520Y40862D01*
X267500Y41049D01*
X267496Y41062D01*
X267495Y41075D01*
X267436Y41255D01*
X267381Y41434D01*
X267374Y41445D01*
X267370Y41458D01*
X267277Y41622D01*
X267187Y41787D01*
X267179Y41797D01*
X267172Y41809D01*
X267050Y41951D01*
X266928Y42095D01*
X266918Y42103D01*
X266909Y42114D01*
X266761Y42228D01*
X266613Y42346D01*
X266601Y42352D01*
X266591Y42360D01*
X266423Y42444D01*
X266255Y42530D01*
X266242Y42534D01*
X266230Y42540D01*
X266048Y42589D01*
X265868Y42640D01*
X265855Y42641D01*
X265842Y42644D01*
X265511Y42671D01*
X197691Y42671D01*
X197669Y42669D01*
X197647Y42671D01*
X197470Y42649D01*
X197291Y42631D01*
X197269Y42625D01*
X197247Y42622D01*
X197078Y42566D01*
X196906Y42513D01*
X196886Y42503D01*
X196865Y42496D01*
X196710Y42407D01*
X196552Y42321D01*
X196535Y42307D01*
X196515Y42296D01*
X196380Y42178D01*
X196243Y42064D01*
X196229Y42046D01*
X196212Y42032D01*
X196102Y41890D01*
X195990Y41750D01*
X195980Y41730D01*
X195966Y41712D01*
X195815Y41417D01*
X194407Y38018D01*
X190582Y34193D01*
X185585Y32123D01*
X180175Y32123D01*
X175178Y34193D01*
X171353Y38018D01*
X169283Y43015D01*
X169283Y48425D01*
X171353Y53422D01*
X175178Y57247D01*
X180175Y59317D01*
X185585Y59317D01*
X186148Y59083D01*
X186178Y59074D01*
X186206Y59060D01*
X186370Y59016D01*
X186533Y58967D01*
X186564Y58964D01*
X186595Y58956D01*
X186925Y58929D01*
X352137Y58929D01*
X355125Y57691D01*
X362491Y50325D01*
X363729Y47337D01*
X363729Y45131D01*
X363731Y45104D01*
X363729Y45078D01*
X363751Y44904D01*
X363769Y44730D01*
X363776Y44705D01*
X363780Y44678D01*
X363835Y44513D01*
X363887Y44345D01*
X363900Y44322D01*
X363908Y44297D01*
X363995Y44145D01*
X364079Y43991D01*
X364096Y43971D01*
X364109Y43948D01*
X364324Y43695D01*
X366864Y41155D01*
X366877Y41143D01*
X366889Y41130D01*
X367033Y41016D01*
X367175Y40900D01*
X367191Y40891D01*
X367205Y40880D01*
X367369Y40797D01*
X367531Y40711D01*
X367548Y40706D01*
X367564Y40698D01*
X367741Y40648D01*
X367917Y40596D01*
X367935Y40595D01*
X367952Y40590D01*
X368135Y40576D01*
X368318Y40560D01*
X368336Y40562D01*
X368353Y40560D01*
X368535Y40583D01*
X368718Y40603D01*
X368735Y40609D01*
X368753Y40611D01*
X368926Y40669D01*
X369102Y40725D01*
X369118Y40733D01*
X369134Y40739D01*
X369294Y40831D01*
X369454Y40920D01*
X369468Y40931D01*
X369483Y40940D01*
X369736Y41155D01*
X373230Y44648D01*
X378272Y46737D01*
X383728Y46737D01*
X388770Y44648D01*
X392628Y40790D01*
X393779Y38011D01*
X393841Y37896D01*
X393895Y37777D01*
X393936Y37719D01*
X393970Y37657D01*
X394053Y37556D01*
X394129Y37449D01*
X394181Y37401D01*
X394226Y37346D01*
X394328Y37264D01*
X394423Y37175D01*
X394484Y37137D01*
X394539Y37093D01*
X394654Y37032D01*
X394766Y36963D01*
X394832Y36938D01*
X394895Y36905D01*
X395021Y36869D01*
X395143Y36823D01*
X395213Y36812D01*
X395282Y36792D01*
X395412Y36781D01*
X395541Y36761D01*
X395612Y36764D01*
X395683Y36758D01*
X395812Y36772D01*
X395943Y36778D01*
X396012Y36795D01*
X396083Y36803D01*
X396207Y36843D01*
X396334Y36874D01*
X396398Y36904D01*
X396466Y36926D01*
X396580Y36990D01*
X396699Y37045D01*
X396756Y37088D01*
X396818Y37122D01*
X396917Y37207D01*
X397022Y37285D01*
X397069Y37338D01*
X397123Y37384D01*
X397204Y37487D01*
X397292Y37584D01*
X397335Y37654D01*
X397372Y37701D01*
X397406Y37769D01*
X397466Y37867D01*
X397710Y38345D01*
X398650Y39639D01*
X399781Y40770D01*
X401075Y41710D01*
X402500Y42436D01*
X403861Y42879D01*
X403861Y25908D01*
X403862Y25890D01*
X403861Y25873D01*
X403882Y25690D01*
X403901Y25508D01*
X403906Y25491D01*
X403908Y25473D01*
X403965Y25298D01*
X404019Y25123D01*
X404027Y25107D01*
X404033Y25090D01*
X404123Y24930D01*
X404210Y24769D01*
X404222Y24755D01*
X404231Y24739D01*
X404351Y24600D01*
X404468Y24459D01*
X404482Y24448D01*
X404494Y24435D01*
X404639Y24322D01*
X404782Y24207D01*
X404798Y24199D01*
X404812Y24188D01*
X404977Y24106D01*
X405053Y24066D01*
X405139Y23914D01*
X405227Y23752D01*
X405238Y23739D01*
X405247Y23723D01*
X405367Y23584D01*
X405485Y23443D01*
X405498Y23432D01*
X405510Y23418D01*
X405655Y23306D01*
X405798Y23191D01*
X405814Y23183D01*
X405828Y23172D01*
X405993Y23090D01*
X406156Y23005D01*
X406173Y23000D01*
X406189Y22992D01*
X406367Y22944D01*
X406542Y22894D01*
X406560Y22892D01*
X406577Y22888D01*
X406908Y22861D01*
X416561Y22861D01*
X416561Y16980D01*
X416311Y15401D01*
X415816Y13880D01*
X415090Y12455D01*
X414150Y11161D01*
X413019Y10030D01*
X412663Y9771D01*
X412537Y9659D01*
X412409Y9552D01*
X412388Y9526D01*
X412363Y9504D01*
X412262Y9369D01*
X412156Y9238D01*
X412141Y9208D01*
X412121Y9182D01*
X412048Y9030D01*
X411971Y8881D01*
X411961Y8849D01*
X411947Y8819D01*
X411906Y8655D01*
X411859Y8494D01*
X411857Y8461D01*
X411848Y8428D01*
X411840Y8260D01*
X411826Y8092D01*
X411830Y8059D01*
X411829Y8026D01*
X411854Y7860D01*
X411873Y7693D01*
X411884Y7661D01*
X411889Y7628D01*
X411946Y7470D01*
X411998Y7310D01*
X412015Y7281D01*
X412026Y7250D01*
X412113Y7106D01*
X412196Y6959D01*
X412218Y6934D01*
X412235Y6906D01*
X412349Y6782D01*
X412459Y6654D01*
X412486Y6634D01*
X412508Y6610D01*
X412644Y6511D01*
X412777Y6408D01*
X412807Y6393D01*
X412834Y6373D01*
X412987Y6303D01*
X413138Y6228D01*
X413170Y6220D01*
X413200Y6206D01*
X413364Y6168D01*
X413527Y6124D01*
X413564Y6121D01*
X413592Y6114D01*
X413679Y6111D01*
X413857Y6097D01*
X424343Y6097D01*
X424510Y6113D01*
X424678Y6125D01*
X424710Y6133D01*
X424743Y6137D01*
X424904Y6186D01*
X425067Y6230D01*
X425096Y6245D01*
X425128Y6255D01*
X425276Y6335D01*
X425427Y6410D01*
X425453Y6431D01*
X425482Y6447D01*
X425611Y6554D01*
X425744Y6658D01*
X425766Y6683D01*
X425791Y6704D01*
X425897Y6835D01*
X426007Y6963D01*
X426023Y6992D01*
X426044Y7018D01*
X426121Y7167D01*
X426204Y7314D01*
X426214Y7346D01*
X426229Y7375D01*
X426276Y7537D01*
X426328Y7697D01*
X426331Y7730D01*
X426341Y7762D01*
X426354Y7930D01*
X426374Y8097D01*
X426371Y8130D01*
X426374Y8164D01*
X426354Y8331D01*
X426340Y8498D01*
X426331Y8530D01*
X426327Y8563D01*
X426274Y8723D01*
X426228Y8885D01*
X426212Y8914D01*
X426202Y8946D01*
X426119Y9093D01*
X426041Y9242D01*
X426020Y9268D01*
X426004Y9297D01*
X425894Y9424D01*
X425788Y9555D01*
X425760Y9579D01*
X425741Y9601D01*
X425673Y9654D01*
X425537Y9771D01*
X425181Y10030D01*
X424050Y11161D01*
X423110Y12455D01*
X422384Y13880D01*
X421889Y15401D01*
X421639Y16980D01*
X421639Y22861D01*
X431292Y22861D01*
X431310Y22862D01*
X431327Y22861D01*
X431510Y22882D01*
X431692Y22901D01*
X431709Y22906D01*
X431727Y22908D01*
X431902Y22965D01*
X432077Y23019D01*
X432093Y23027D01*
X432110Y23033D01*
X432270Y23123D01*
X432431Y23210D01*
X432445Y23222D01*
X432461Y23231D01*
X432600Y23351D01*
X432741Y23468D01*
X432752Y23482D01*
X432765Y23494D01*
X432878Y23639D01*
X432993Y23782D01*
X433001Y23798D01*
X433012Y23812D01*
X433094Y23977D01*
X433134Y24053D01*
X433286Y24139D01*
X433448Y24227D01*
X433461Y24238D01*
X433477Y24247D01*
X433616Y24367D01*
X433757Y24485D01*
X433768Y24498D01*
X433782Y24510D01*
X433894Y24655D01*
X434009Y24798D01*
X434017Y24814D01*
X434028Y24828D01*
X434110Y24993D01*
X434195Y25156D01*
X434200Y25173D01*
X434208Y25189D01*
X434255Y25367D01*
X434306Y25542D01*
X434308Y25560D01*
X434312Y25577D01*
X434339Y25908D01*
X434339Y42879D01*
X435700Y42436D01*
X437125Y41710D01*
X438419Y40770D01*
X439550Y39639D01*
X440490Y38345D01*
X440734Y37867D01*
X440805Y37756D01*
X440868Y37642D01*
X440913Y37588D01*
X440952Y37528D01*
X441043Y37434D01*
X441127Y37334D01*
X441182Y37289D01*
X441232Y37238D01*
X441339Y37164D01*
X441441Y37083D01*
X441505Y37050D01*
X441563Y37010D01*
X441683Y36959D01*
X441800Y36899D01*
X441868Y36880D01*
X441933Y36852D01*
X442061Y36825D01*
X442187Y36789D01*
X442258Y36784D01*
X442327Y36769D01*
X442458Y36768D01*
X442588Y36758D01*
X442659Y36767D01*
X442730Y36766D01*
X442858Y36791D01*
X442988Y36807D01*
X443056Y36829D01*
X443125Y36842D01*
X443246Y36892D01*
X443370Y36933D01*
X443432Y36968D01*
X443498Y36995D01*
X443607Y37068D01*
X443720Y37133D01*
X443774Y37179D01*
X443833Y37219D01*
X443925Y37311D01*
X444024Y37397D01*
X444067Y37453D01*
X444117Y37504D01*
X444189Y37613D01*
X444269Y37716D01*
X444307Y37789D01*
X444340Y37839D01*
X444368Y37910D01*
X444421Y38011D01*
X445572Y40790D01*
X449430Y44648D01*
X454472Y46737D01*
X459928Y46737D01*
X464970Y44648D01*
X468828Y40790D01*
X470917Y35748D01*
X470917Y15052D01*
X468828Y10010D01*
X468383Y9564D01*
X468377Y9557D01*
X468370Y9552D01*
X468250Y9403D01*
X468128Y9253D01*
X468123Y9245D01*
X468118Y9238D01*
X468030Y9068D01*
X467939Y8897D01*
X467936Y8888D01*
X467932Y8881D01*
X467880Y8697D01*
X467824Y8511D01*
X467823Y8502D01*
X467821Y8494D01*
X467805Y8303D01*
X467788Y8110D01*
X467789Y8101D01*
X467788Y8092D01*
X467810Y7903D01*
X467831Y7710D01*
X467834Y7701D01*
X467835Y7693D01*
X467895Y7510D01*
X467953Y7326D01*
X467957Y7318D01*
X467960Y7310D01*
X468055Y7141D01*
X468147Y6974D01*
X468153Y6967D01*
X468158Y6959D01*
X468283Y6814D01*
X468408Y6667D01*
X468415Y6661D01*
X468421Y6654D01*
X468573Y6537D01*
X468724Y6417D01*
X468732Y6413D01*
X468739Y6408D01*
X468912Y6321D01*
X469083Y6235D01*
X469091Y6232D01*
X469099Y6228D01*
X469288Y6178D01*
X469471Y6127D01*
X469479Y6126D01*
X469488Y6124D01*
X469819Y6097D01*
X495381Y6097D01*
X495390Y6098D01*
X495399Y6097D01*
X495589Y6117D01*
X495782Y6137D01*
X495790Y6139D01*
X495799Y6140D01*
X495982Y6198D01*
X496167Y6255D01*
X496174Y6259D01*
X496183Y6262D01*
X496352Y6355D01*
X496521Y6447D01*
X496527Y6452D01*
X496535Y6457D01*
X496683Y6582D01*
X496830Y6704D01*
X496835Y6711D01*
X496842Y6717D01*
X496962Y6868D01*
X497082Y7018D01*
X497086Y7026D01*
X497092Y7033D01*
X497180Y7206D01*
X497268Y7375D01*
X497270Y7384D01*
X497274Y7392D01*
X497326Y7577D01*
X497379Y7762D01*
X497380Y7771D01*
X497382Y7780D01*
X497396Y7972D01*
X497412Y8164D01*
X497411Y8172D01*
X497412Y8181D01*
X497387Y8373D01*
X497365Y8563D01*
X497362Y8572D01*
X497361Y8581D01*
X497300Y8763D01*
X497240Y8946D01*
X497236Y8954D01*
X497233Y8962D01*
X497137Y9130D01*
X497042Y9297D01*
X497036Y9304D01*
X497032Y9311D01*
X496817Y9564D01*
X496372Y10010D01*
X494283Y15052D01*
X494283Y35748D01*
X496372Y40790D01*
X500230Y44648D01*
X505272Y46737D01*
X510728Y46737D01*
X515770Y44648D01*
X519264Y41155D01*
X519277Y41143D01*
X519289Y41130D01*
X519433Y41016D01*
X519575Y40900D01*
X519591Y40891D01*
X519605Y40880D01*
X519769Y40797D01*
X519931Y40711D01*
X519948Y40706D01*
X519964Y40698D01*
X520141Y40648D01*
X520317Y40596D01*
X520335Y40595D01*
X520352Y40590D01*
X520535Y40576D01*
X520718Y40560D01*
X520736Y40562D01*
X520753Y40560D01*
X520935Y40583D01*
X521118Y40603D01*
X521135Y40609D01*
X521153Y40611D01*
X521326Y40669D01*
X521502Y40725D01*
X521518Y40733D01*
X521534Y40739D01*
X521694Y40831D01*
X521854Y40920D01*
X521868Y40931D01*
X521883Y40940D01*
X522136Y41155D01*
X525630Y44648D01*
X530672Y46737D01*
X536128Y46737D01*
X541170Y44648D01*
X544664Y41155D01*
X544677Y41143D01*
X544689Y41130D01*
X544833Y41016D01*
X544975Y40900D01*
X544991Y40891D01*
X545005Y40880D01*
X545169Y40797D01*
X545331Y40711D01*
X545348Y40706D01*
X545364Y40698D01*
X545541Y40648D01*
X545717Y40596D01*
X545735Y40595D01*
X545752Y40590D01*
X545935Y40576D01*
X546118Y40560D01*
X546136Y40562D01*
X546153Y40560D01*
X546335Y40583D01*
X546518Y40603D01*
X546535Y40609D01*
X546553Y40611D01*
X546726Y40669D01*
X546902Y40725D01*
X546918Y40733D01*
X546934Y40739D01*
X547094Y40831D01*
X547254Y40920D01*
X547268Y40931D01*
X547283Y40940D01*
X547536Y41155D01*
X551030Y44648D01*
X556072Y46737D01*
X561528Y46737D01*
X566570Y44648D01*
X570064Y41155D01*
X570078Y41143D01*
X570089Y41130D01*
X570233Y41016D01*
X570375Y40900D01*
X570391Y40891D01*
X570405Y40880D01*
X570569Y40797D01*
X570731Y40711D01*
X570748Y40706D01*
X570764Y40698D01*
X570941Y40648D01*
X571117Y40596D01*
X571135Y40595D01*
X571152Y40590D01*
X571335Y40576D01*
X571518Y40560D01*
X571536Y40562D01*
X571553Y40560D01*
X571735Y40583D01*
X571918Y40603D01*
X571935Y40609D01*
X571953Y40611D01*
X572127Y40669D01*
X572302Y40725D01*
X572318Y40733D01*
X572334Y40739D01*
X572494Y40831D01*
X572654Y40920D01*
X572668Y40931D01*
X572683Y40940D01*
X572936Y41155D01*
X576430Y44648D01*
X581472Y46737D01*
X586928Y46737D01*
X591970Y44648D01*
X595464Y41155D01*
X595477Y41143D01*
X595489Y41130D01*
X595633Y41016D01*
X595775Y40900D01*
X595791Y40891D01*
X595805Y40880D01*
X595969Y40797D01*
X596131Y40711D01*
X596148Y40706D01*
X596164Y40698D01*
X596341Y40648D01*
X596517Y40596D01*
X596535Y40595D01*
X596552Y40590D01*
X596735Y40576D01*
X596918Y40560D01*
X596936Y40562D01*
X596953Y40560D01*
X597135Y40583D01*
X597318Y40603D01*
X597335Y40609D01*
X597353Y40611D01*
X597526Y40669D01*
X597702Y40725D01*
X597718Y40733D01*
X597734Y40739D01*
X597894Y40831D01*
X598054Y40920D01*
X598068Y40931D01*
X598083Y40940D01*
X598336Y41155D01*
X601830Y44648D01*
X606872Y46737D01*
X612328Y46737D01*
X617370Y44648D01*
X620864Y41155D01*
X620877Y41143D01*
X620889Y41130D01*
X621033Y41016D01*
X621175Y40900D01*
X621191Y40891D01*
X621205Y40880D01*
X621369Y40797D01*
X621531Y40711D01*
X621548Y40706D01*
X621564Y40698D01*
X621741Y40648D01*
X621917Y40596D01*
X621935Y40595D01*
X621952Y40590D01*
X622135Y40576D01*
X622318Y40560D01*
X622336Y40562D01*
X622353Y40560D01*
X622535Y40583D01*
X622718Y40603D01*
X622735Y40609D01*
X622753Y40611D01*
X622926Y40669D01*
X623102Y40725D01*
X623118Y40733D01*
X623134Y40739D01*
X623294Y40831D01*
X623454Y40920D01*
X623468Y40931D01*
X623483Y40940D01*
X623736Y41155D01*
X627230Y44648D01*
X632272Y46737D01*
X637728Y46737D01*
X642770Y44648D01*
X646628Y40790D01*
X648717Y35748D01*
X648717Y18662D01*
X648725Y18578D01*
X648724Y18494D01*
X648745Y18378D01*
X648757Y18261D01*
X648781Y18181D01*
X648797Y18098D01*
X648840Y17989D01*
X648875Y17876D01*
X648915Y17802D01*
X648946Y17724D01*
X649011Y17625D01*
X649067Y17522D01*
X649120Y17458D01*
X649167Y17387D01*
X649249Y17303D01*
X649324Y17213D01*
X649390Y17160D01*
X649449Y17100D01*
X649547Y17034D01*
X649638Y16961D01*
X649713Y16922D01*
X649783Y16875D01*
X649891Y16829D01*
X649995Y16775D01*
X650076Y16752D01*
X650154Y16719D01*
X650269Y16696D01*
X650382Y16664D01*
X650466Y16657D01*
X650549Y16640D01*
X650666Y16641D01*
X650784Y16631D01*
X650867Y16641D01*
X650952Y16641D01*
X651067Y16664D01*
X651183Y16678D01*
X651264Y16704D01*
X651346Y16721D01*
X651455Y16766D01*
X651566Y16803D01*
X651640Y16844D01*
X651717Y16877D01*
X651815Y16943D01*
X651917Y17001D01*
X651981Y17056D01*
X652050Y17103D01*
X652133Y17187D01*
X652221Y17264D01*
X652273Y17330D01*
X652332Y17391D01*
X652396Y17489D01*
X652468Y17582D01*
X652506Y17657D01*
X652552Y17728D01*
X652609Y17865D01*
X652648Y17942D01*
X652659Y17983D01*
X652680Y18034D01*
X653991Y22070D01*
X654007Y22142D01*
X654031Y22211D01*
X654058Y22379D01*
X654077Y22464D01*
X654078Y22497D01*
X654084Y22539D01*
X654297Y25241D01*
X654296Y25307D01*
X654303Y25400D01*
X654303Y26613D01*
X655231Y28854D01*
X679108Y52730D01*
X679125Y52751D01*
X679146Y52769D01*
X679253Y52907D01*
X679363Y53042D01*
X679376Y53066D01*
X679392Y53087D01*
X679470Y53244D01*
X679552Y53398D01*
X679560Y53423D01*
X679572Y53447D01*
X679617Y53617D01*
X679667Y53784D01*
X679669Y53810D01*
X679676Y53836D01*
X679703Y54167D01*
X679703Y59350D01*
X679702Y59359D01*
X679703Y59368D01*
X679682Y59559D01*
X679663Y59751D01*
X679661Y59759D01*
X679660Y59768D01*
X679602Y59950D01*
X679545Y60135D01*
X679541Y60143D01*
X679538Y60152D01*
X679445Y60320D01*
X679353Y60489D01*
X679348Y60496D01*
X679343Y60504D01*
X679219Y60651D01*
X679096Y60799D01*
X679089Y60804D01*
X679083Y60811D01*
X678932Y60930D01*
X678782Y61051D01*
X678774Y61055D01*
X678767Y61061D01*
X678594Y61148D01*
X678425Y61237D01*
X678416Y61239D01*
X678408Y61243D01*
X678222Y61295D01*
X678038Y61348D01*
X678029Y61349D01*
X678020Y61351D01*
X677827Y61365D01*
X677636Y61381D01*
X677628Y61380D01*
X677619Y61380D01*
X677426Y61356D01*
X677237Y61334D01*
X677228Y61331D01*
X677219Y61330D01*
X677036Y61269D01*
X676854Y61209D01*
X676846Y61205D01*
X676838Y61202D01*
X676671Y61106D01*
X676503Y61011D01*
X676496Y61005D01*
X676489Y61001D01*
X676236Y60786D01*
X672917Y57467D01*
X671113Y56720D01*
X666209Y54689D01*
X664795Y54103D01*
X656005Y54103D01*
X647883Y57467D01*
X641667Y63683D01*
X638303Y71805D01*
X638303Y80595D01*
X641667Y88717D01*
X647883Y94933D01*
X656005Y98297D01*
X664795Y98297D01*
X672917Y94933D01*
X676236Y91614D01*
X676243Y91608D01*
X676248Y91601D01*
X676398Y91481D01*
X676547Y91359D01*
X676555Y91355D01*
X676562Y91349D01*
X676732Y91260D01*
X676903Y91170D01*
X676912Y91168D01*
X676919Y91163D01*
X677104Y91110D01*
X677289Y91055D01*
X677298Y91055D01*
X677306Y91052D01*
X677497Y91036D01*
X677690Y91019D01*
X677699Y91020D01*
X677708Y91019D01*
X677897Y91041D01*
X678090Y91062D01*
X678099Y91065D01*
X678107Y91066D01*
X678289Y91125D01*
X678474Y91184D01*
X678482Y91188D01*
X678490Y91191D01*
X678659Y91286D01*
X678826Y91379D01*
X678833Y91384D01*
X678841Y91389D01*
X678987Y91515D01*
X679133Y91639D01*
X679139Y91646D01*
X679146Y91652D01*
X679263Y91803D01*
X679383Y91955D01*
X679387Y91963D01*
X679392Y91970D01*
X679478Y92142D01*
X679565Y92314D01*
X679568Y92323D01*
X679572Y92331D01*
X679622Y92517D01*
X679673Y92702D01*
X679674Y92711D01*
X679676Y92719D01*
X679703Y93050D01*
X679703Y114664D01*
X679702Y114672D01*
X679703Y114681D01*
X679682Y114873D01*
X679663Y115064D01*
X679661Y115073D01*
X679660Y115082D01*
X679602Y115264D01*
X679545Y115449D01*
X679541Y115457D01*
X679538Y115466D01*
X679445Y115634D01*
X679353Y115803D01*
X679348Y115810D01*
X679343Y115818D01*
X679219Y115965D01*
X679096Y116112D01*
X679089Y116118D01*
X679083Y116125D01*
X678932Y116244D01*
X678782Y116365D01*
X678774Y116369D01*
X678767Y116374D01*
X678594Y116462D01*
X678425Y116550D01*
X678416Y116553D01*
X678408Y116557D01*
X678222Y116609D01*
X678038Y116662D01*
X678029Y116662D01*
X678020Y116665D01*
X677827Y116679D01*
X677636Y116695D01*
X677628Y116694D01*
X677619Y116694D01*
X677426Y116670D01*
X677237Y116648D01*
X677228Y116645D01*
X677219Y116644D01*
X677036Y116582D01*
X676854Y116523D01*
X676846Y116518D01*
X676838Y116516D01*
X676671Y116419D01*
X676503Y116325D01*
X676496Y116319D01*
X676489Y116315D01*
X676236Y116100D01*
X672905Y112769D01*
X669995Y111564D01*
X669917Y111531D01*
X654436Y111531D01*
X654409Y111529D01*
X654382Y111531D01*
X654208Y111509D01*
X654035Y111491D01*
X654009Y111484D01*
X653983Y111480D01*
X653817Y111425D01*
X653650Y111373D01*
X653626Y111360D01*
X653601Y111352D01*
X653449Y111265D01*
X653296Y111181D01*
X653276Y111164D01*
X653252Y111151D01*
X652999Y110936D01*
X649348Y107285D01*
X643984Y105063D01*
X638176Y105063D01*
X632812Y107285D01*
X628705Y111392D01*
X626483Y116756D01*
X626483Y122564D01*
X628705Y127928D01*
X631421Y130644D01*
X631427Y130651D01*
X631433Y130656D01*
X631554Y130806D01*
X631676Y130955D01*
X631680Y130963D01*
X631686Y130970D01*
X631774Y131140D01*
X631865Y131311D01*
X631867Y131320D01*
X631871Y131327D01*
X631924Y131512D01*
X631979Y131697D01*
X631980Y131706D01*
X631983Y131714D01*
X631998Y131905D01*
X632016Y132098D01*
X632015Y132107D01*
X632015Y132116D01*
X631993Y132305D01*
X631972Y132498D01*
X631970Y132507D01*
X631969Y132515D01*
X631909Y132697D01*
X631851Y132882D01*
X631846Y132890D01*
X631844Y132898D01*
X631749Y133067D01*
X631656Y133234D01*
X631650Y133241D01*
X631646Y133249D01*
X631520Y133395D01*
X631395Y133541D01*
X631388Y133547D01*
X631383Y133554D01*
X631231Y133671D01*
X631080Y133791D01*
X631072Y133795D01*
X631065Y133800D01*
X630892Y133886D01*
X630721Y133973D01*
X630712Y133976D01*
X630704Y133980D01*
X630518Y134030D01*
X630333Y134081D01*
X630324Y134082D01*
X630315Y134084D01*
X629985Y134111D01*
X593093Y134111D01*
X593079Y134110D01*
X593066Y134111D01*
X592880Y134090D01*
X592692Y134071D01*
X592679Y134067D01*
X592666Y134066D01*
X592487Y134008D01*
X592307Y133953D01*
X592296Y133947D01*
X592283Y133943D01*
X592118Y133851D01*
X591953Y133761D01*
X591943Y133753D01*
X591931Y133746D01*
X591788Y133624D01*
X591644Y133504D01*
X591636Y133493D01*
X591625Y133485D01*
X591509Y133336D01*
X591392Y133190D01*
X591386Y133178D01*
X591377Y133168D01*
X591292Y132998D01*
X591206Y132833D01*
X591203Y132820D01*
X591196Y132808D01*
X591147Y132625D01*
X591095Y132446D01*
X591094Y132432D01*
X591090Y132419D01*
X591077Y132231D01*
X591062Y132044D01*
X591063Y132031D01*
X591063Y132018D01*
X591087Y131830D01*
X591109Y131645D01*
X591113Y131632D01*
X591115Y131619D01*
X591216Y131303D01*
X592329Y128617D01*
X592329Y69503D01*
X591091Y66515D01*
X581185Y56609D01*
X578197Y55371D01*
X577094Y55371D01*
X577068Y55369D01*
X577041Y55371D01*
X576867Y55349D01*
X576694Y55331D01*
X576668Y55324D01*
X576641Y55320D01*
X576476Y55265D01*
X576309Y55213D01*
X576285Y55200D01*
X576260Y55192D01*
X576108Y55105D01*
X575955Y55021D01*
X575934Y55004D01*
X575911Y54991D01*
X575658Y54776D01*
X571681Y50799D01*
X561159Y50799D01*
X553719Y58239D01*
X553719Y68761D01*
X559722Y74764D01*
X559733Y74777D01*
X559747Y74789D01*
X559861Y74933D01*
X559977Y75075D01*
X559986Y75091D01*
X559997Y75105D01*
X560080Y75269D01*
X560166Y75431D01*
X560171Y75448D01*
X560179Y75464D01*
X560228Y75641D01*
X560281Y75817D01*
X560282Y75835D01*
X560287Y75852D01*
X560300Y76035D01*
X560317Y76218D01*
X560315Y76236D01*
X560316Y76253D01*
X560293Y76435D01*
X560274Y76618D01*
X560268Y76635D01*
X560266Y76653D01*
X560208Y76826D01*
X560152Y77002D01*
X560143Y77018D01*
X560138Y77034D01*
X560047Y77192D01*
X559957Y77354D01*
X559946Y77368D01*
X559937Y77383D01*
X559722Y77636D01*
X555156Y82202D01*
X555143Y82213D01*
X555131Y82227D01*
X554987Y82341D01*
X554845Y82457D01*
X554829Y82466D01*
X554815Y82477D01*
X554651Y82560D01*
X554489Y82646D01*
X554472Y82651D01*
X554456Y82659D01*
X554279Y82708D01*
X554103Y82761D01*
X554085Y82762D01*
X554068Y82767D01*
X553885Y82780D01*
X553702Y82797D01*
X553684Y82795D01*
X553667Y82796D01*
X553485Y82773D01*
X553302Y82754D01*
X553285Y82748D01*
X553267Y82746D01*
X553094Y82688D01*
X552918Y82632D01*
X552902Y82623D01*
X552886Y82618D01*
X552726Y82526D01*
X552566Y82437D01*
X552552Y82426D01*
X552537Y82417D01*
X552284Y82202D01*
X546281Y76199D01*
X535759Y76199D01*
X534322Y77636D01*
X534301Y77653D01*
X534284Y77674D01*
X534146Y77781D01*
X534011Y77891D01*
X533987Y77904D01*
X533966Y77920D01*
X533809Y77998D01*
X533655Y78080D01*
X533629Y78088D01*
X533605Y78100D01*
X533436Y78145D01*
X533269Y78195D01*
X533242Y78197D01*
X533217Y78204D01*
X532886Y78231D01*
X531783Y78231D01*
X528795Y79469D01*
X521429Y86835D01*
X520191Y89823D01*
X520191Y138777D01*
X521429Y141765D01*
X528795Y149131D01*
X531783Y150369D01*
X624452Y150369D01*
X624470Y150371D01*
X624488Y150369D01*
X624670Y150390D01*
X624853Y150409D01*
X624870Y150414D01*
X624887Y150416D01*
X625062Y150473D01*
X625238Y150527D01*
X625253Y150535D01*
X625270Y150541D01*
X625430Y150631D01*
X625592Y150719D01*
X625605Y150730D01*
X625621Y150739D01*
X625760Y150859D01*
X625901Y150976D01*
X625912Y150990D01*
X625926Y151002D01*
X626038Y151147D01*
X626153Y151290D01*
X626161Y151306D01*
X626172Y151320D01*
X626254Y151485D01*
X626339Y151647D01*
X626344Y151664D01*
X626352Y151680D01*
X626399Y151859D01*
X626450Y152034D01*
X626452Y152052D01*
X626456Y152069D01*
X626483Y152400D01*
X626483Y157564D01*
X628705Y162928D01*
X632812Y167035D01*
X638176Y169257D01*
X643984Y169257D01*
X649348Y167035D01*
X653460Y162923D01*
X653539Y162776D01*
X653633Y162600D01*
X653636Y162597D01*
X653639Y162593D01*
X653763Y162444D01*
X653890Y162290D01*
X653893Y162287D01*
X653896Y162284D01*
X654049Y162161D01*
X654203Y162036D01*
X654207Y162034D01*
X654210Y162031D01*
X654383Y161942D01*
X654559Y161849D01*
X654563Y161848D01*
X654567Y161846D01*
X654756Y161792D01*
X654945Y161736D01*
X654950Y161736D01*
X654954Y161734D01*
X655153Y161718D01*
X655347Y161701D01*
X655351Y161702D01*
X655356Y161702D01*
X655553Y161725D01*
X655747Y161747D01*
X655751Y161748D01*
X655755Y161748D01*
X655944Y161810D01*
X656130Y161870D01*
X656134Y161872D01*
X656138Y161873D01*
X656312Y161971D01*
X656481Y162066D01*
X656485Y162069D01*
X656489Y162071D01*
X656637Y162199D01*
X656787Y162328D01*
X656790Y162331D01*
X656794Y162334D01*
X656912Y162487D01*
X657036Y162645D01*
X657038Y162649D01*
X657040Y162652D01*
X657127Y162827D01*
X657216Y163005D01*
X657218Y163009D01*
X657220Y163013D01*
X657272Y163206D01*
X657323Y163393D01*
X657323Y163397D01*
X657324Y163402D01*
X657351Y163733D01*
X657351Y191867D01*
X657351Y191872D01*
X657351Y191876D01*
X657331Y192073D01*
X657311Y192268D01*
X657310Y192272D01*
X657310Y192277D01*
X657250Y192467D01*
X657193Y192653D01*
X657191Y192657D01*
X657190Y192661D01*
X657095Y192835D01*
X657001Y193007D01*
X656999Y193011D01*
X656996Y193014D01*
X656871Y193163D01*
X656744Y193316D01*
X656740Y193319D01*
X656737Y193323D01*
X656583Y193446D01*
X656430Y193569D01*
X656426Y193571D01*
X656422Y193574D01*
X656245Y193664D01*
X656073Y193754D01*
X656068Y193755D01*
X656064Y193757D01*
X655874Y193811D01*
X655686Y193866D01*
X655681Y193866D01*
X655677Y193867D01*
X655483Y193882D01*
X655284Y193898D01*
X655280Y193898D01*
X655275Y193898D01*
X655079Y193874D01*
X654885Y193852D01*
X654880Y193850D01*
X654876Y193850D01*
X654688Y193787D01*
X654502Y193727D01*
X654498Y193724D01*
X654494Y193723D01*
X654322Y193625D01*
X654151Y193529D01*
X654148Y193526D01*
X654144Y193524D01*
X653994Y193393D01*
X653847Y193266D01*
X653844Y193262D01*
X653840Y193259D01*
X653719Y193102D01*
X653600Y192948D01*
X653598Y192943D01*
X653595Y192940D01*
X653460Y192677D01*
X649348Y188565D01*
X643984Y186343D01*
X638176Y186343D01*
X632812Y188565D01*
X628705Y192672D01*
X628573Y192992D01*
X628560Y193015D01*
X628552Y193041D01*
X628465Y193193D01*
X628383Y193347D01*
X628366Y193367D01*
X628352Y193390D01*
X628238Y193522D01*
X628126Y193657D01*
X628106Y193674D01*
X628088Y193694D01*
X627949Y193801D01*
X627814Y193911D01*
X627790Y193923D01*
X627769Y193939D01*
X627596Y194028D01*
X617949Y203675D01*
X616711Y206663D01*
X616711Y241452D01*
X616710Y241460D01*
X616711Y241469D01*
X616690Y241663D01*
X616671Y241852D01*
X616669Y241861D01*
X616668Y241870D01*
X616609Y242055D01*
X616553Y242237D01*
X616549Y242245D01*
X616546Y242254D01*
X616453Y242423D01*
X616361Y242591D01*
X616356Y242598D01*
X616351Y242606D01*
X616227Y242753D01*
X616104Y242900D01*
X616097Y242906D01*
X616091Y242913D01*
X615939Y243033D01*
X615790Y243153D01*
X615782Y243157D01*
X615775Y243162D01*
X615602Y243250D01*
X615433Y243338D01*
X615424Y243341D01*
X615416Y243345D01*
X615230Y243397D01*
X615046Y243450D01*
X615037Y243450D01*
X615028Y243453D01*
X614835Y243467D01*
X614644Y243483D01*
X614636Y243482D01*
X614627Y243482D01*
X614434Y243458D01*
X614245Y243436D01*
X614236Y243433D01*
X614227Y243432D01*
X614044Y243370D01*
X613862Y243311D01*
X613854Y243306D01*
X613846Y243304D01*
X613679Y243207D01*
X613511Y243113D01*
X613504Y243107D01*
X613497Y243103D01*
X613244Y242888D01*
X594637Y224281D01*
X592065Y221709D01*
X589077Y220471D01*
X555501Y220471D01*
X555368Y220458D01*
X555234Y220454D01*
X555168Y220438D01*
X555101Y220431D01*
X554973Y220392D01*
X554842Y220361D01*
X554781Y220333D01*
X554716Y220313D01*
X554598Y220249D01*
X554476Y220194D01*
X554421Y220154D01*
X554362Y220121D01*
X554259Y220036D01*
X554150Y219957D01*
X554104Y219907D01*
X554052Y219864D01*
X553969Y219759D01*
X553878Y219661D01*
X553842Y219603D01*
X553800Y219550D01*
X553738Y219431D01*
X553669Y219316D01*
X553646Y219253D01*
X553615Y219193D01*
X553578Y219064D01*
X553532Y218938D01*
X553522Y218871D01*
X553503Y218806D01*
X553492Y218672D01*
X553472Y218540D01*
X553476Y218472D01*
X553470Y218404D01*
X553486Y218271D01*
X553493Y218138D01*
X553509Y218072D01*
X553517Y218005D01*
X553559Y217877D01*
X553592Y217747D01*
X553621Y217686D01*
X553642Y217622D01*
X553708Y217505D01*
X553766Y217384D01*
X553807Y217330D01*
X553840Y217271D01*
X553928Y217170D01*
X554008Y217063D01*
X554059Y217018D01*
X554103Y216967D01*
X554209Y216884D01*
X554309Y216795D01*
X554376Y216755D01*
X554421Y216720D01*
X554491Y216685D01*
X554593Y216623D01*
X554689Y216586D01*
X554782Y216540D01*
X554877Y216515D01*
X554969Y216480D01*
X555071Y216463D01*
X555171Y216436D01*
X555289Y216426D01*
X555366Y216413D01*
X555424Y216415D01*
X555501Y216409D01*
X565497Y216409D01*
X568485Y215171D01*
X575851Y207805D01*
X577089Y204817D01*
X577089Y201174D01*
X577091Y201148D01*
X577089Y201121D01*
X577111Y200947D01*
X577129Y200774D01*
X577136Y200748D01*
X577140Y200721D01*
X577196Y200556D01*
X577247Y200389D01*
X577260Y200365D01*
X577268Y200340D01*
X577355Y200188D01*
X577439Y200035D01*
X577456Y200014D01*
X577469Y199991D01*
X577684Y199738D01*
X581661Y195761D01*
X581661Y185239D01*
X574221Y177799D01*
X563699Y177799D01*
X556259Y185239D01*
X556259Y185363D01*
X556258Y185372D01*
X556259Y185381D01*
X556238Y185572D01*
X556219Y185763D01*
X556217Y185772D01*
X556216Y185781D01*
X556158Y185963D01*
X556101Y186148D01*
X556097Y186156D01*
X556094Y186165D01*
X556001Y186333D01*
X555909Y186502D01*
X555904Y186509D01*
X555899Y186517D01*
X555775Y186664D01*
X555652Y186812D01*
X555645Y186817D01*
X555639Y186824D01*
X555488Y186943D01*
X555338Y187064D01*
X555330Y187068D01*
X555323Y187074D01*
X555150Y187161D01*
X554981Y187249D01*
X554972Y187252D01*
X554964Y187256D01*
X554778Y187308D01*
X554594Y187361D01*
X554585Y187362D01*
X554576Y187364D01*
X554383Y187378D01*
X554192Y187394D01*
X554184Y187393D01*
X554175Y187393D01*
X553982Y187369D01*
X553793Y187347D01*
X553784Y187344D01*
X553775Y187343D01*
X553592Y187282D01*
X553410Y187222D01*
X553402Y187218D01*
X553394Y187215D01*
X553227Y187119D01*
X553059Y187024D01*
X553052Y187018D01*
X553045Y187014D01*
X552792Y186799D01*
X547348Y181355D01*
X545591Y181355D01*
X545591Y190500D01*
X545590Y190517D01*
X545591Y190535D01*
X545570Y190718D01*
X545551Y190900D01*
X545546Y190917D01*
X545544Y190935D01*
X545487Y191110D01*
X545433Y191285D01*
X545425Y191301D01*
X545419Y191318D01*
X545329Y191478D01*
X545242Y191639D01*
X545230Y191653D01*
X545221Y191668D01*
X545101Y191808D01*
X544984Y191948D01*
X544984Y191949D01*
X544983Y191949D01*
X544970Y191960D01*
X544958Y191973D01*
X544958Y191974D01*
X544813Y192086D01*
X544670Y192201D01*
X544654Y192210D01*
X544640Y192220D01*
X544475Y192302D01*
X544312Y192387D01*
X544295Y192392D01*
X544279Y192400D01*
X544101Y192448D01*
X543925Y192498D01*
X543908Y192500D01*
X543890Y192504D01*
X543560Y192531D01*
X534415Y192531D01*
X534415Y194288D01*
X534933Y194806D01*
X534944Y194820D01*
X534958Y194831D01*
X535071Y194974D01*
X535188Y195117D01*
X535197Y195133D01*
X535208Y195147D01*
X535291Y195311D01*
X535377Y195473D01*
X535382Y195490D01*
X535390Y195506D01*
X535439Y195683D01*
X535492Y195859D01*
X535493Y195877D01*
X535498Y195894D01*
X535511Y196077D01*
X535528Y196260D01*
X535526Y196277D01*
X535527Y196295D01*
X535504Y196476D01*
X535485Y196660D01*
X535479Y196677D01*
X535477Y196695D01*
X535418Y196869D01*
X535363Y197044D01*
X535354Y197060D01*
X535349Y197076D01*
X535257Y197235D01*
X535168Y197396D01*
X535157Y197410D01*
X535148Y197425D01*
X534933Y197678D01*
X532033Y200578D01*
X529963Y205575D01*
X529963Y210985D01*
X532033Y215982D01*
X533055Y217004D01*
X533061Y217011D01*
X533068Y217016D01*
X533189Y217167D01*
X533310Y217315D01*
X533314Y217323D01*
X533320Y217330D01*
X533408Y217500D01*
X533499Y217671D01*
X533501Y217680D01*
X533505Y217687D01*
X533558Y217872D01*
X533614Y218057D01*
X533614Y218066D01*
X533617Y218074D01*
X533632Y218265D01*
X533650Y218458D01*
X533649Y218467D01*
X533650Y218476D01*
X533627Y218665D01*
X533607Y218858D01*
X533604Y218867D01*
X533603Y218875D01*
X533543Y219057D01*
X533485Y219242D01*
X533481Y219250D01*
X533478Y219258D01*
X533384Y219425D01*
X533290Y219594D01*
X533284Y219601D01*
X533280Y219609D01*
X533155Y219754D01*
X533030Y219901D01*
X533023Y219907D01*
X533017Y219914D01*
X532866Y220030D01*
X532714Y220151D01*
X532706Y220155D01*
X532699Y220160D01*
X532528Y220245D01*
X532355Y220333D01*
X532346Y220336D01*
X532338Y220340D01*
X532153Y220389D01*
X531967Y220441D01*
X531958Y220442D01*
X531949Y220444D01*
X531619Y220471D01*
X472440Y220471D01*
X472422Y220469D01*
X472404Y220471D01*
X472222Y220450D01*
X472039Y220431D01*
X472022Y220426D01*
X472005Y220424D01*
X471830Y220367D01*
X471654Y220313D01*
X471639Y220305D01*
X471622Y220299D01*
X471462Y220209D01*
X471300Y220121D01*
X471287Y220110D01*
X471271Y220101D01*
X471132Y219981D01*
X470991Y219864D01*
X470980Y219850D01*
X470966Y219838D01*
X470854Y219693D01*
X470739Y219550D01*
X470731Y219534D01*
X470720Y219520D01*
X470638Y219355D01*
X470553Y219193D01*
X470548Y219176D01*
X470540Y219160D01*
X470493Y218981D01*
X470442Y218806D01*
X470440Y218788D01*
X470436Y218771D01*
X470409Y218440D01*
X470409Y211334D01*
X470411Y211308D01*
X470409Y211281D01*
X470431Y211107D01*
X470449Y210934D01*
X470456Y210908D01*
X470460Y210881D01*
X470516Y210716D01*
X470567Y210549D01*
X470580Y210525D01*
X470588Y210500D01*
X470675Y210348D01*
X470759Y210195D01*
X470776Y210174D01*
X470789Y210151D01*
X471004Y209898D01*
X474981Y205921D01*
X474981Y195399D01*
X467541Y187959D01*
X457019Y187959D01*
X449579Y195399D01*
X449579Y205921D01*
X453556Y209898D01*
X453573Y209919D01*
X453594Y209936D01*
X453701Y210074D01*
X453811Y210209D01*
X453824Y210233D01*
X453840Y210254D01*
X453918Y210411D01*
X454000Y210565D01*
X454008Y210591D01*
X454020Y210615D01*
X454065Y210784D01*
X454115Y210951D01*
X454117Y210978D01*
X454124Y211003D01*
X454151Y211334D01*
X454151Y218440D01*
X454149Y218458D01*
X454151Y218476D01*
X454130Y218658D01*
X454111Y218841D01*
X454106Y218858D01*
X454104Y218875D01*
X454047Y219050D01*
X453993Y219226D01*
X453985Y219241D01*
X453979Y219258D01*
X453889Y219418D01*
X453801Y219580D01*
X453790Y219593D01*
X453781Y219609D01*
X453661Y219748D01*
X453544Y219889D01*
X453530Y219900D01*
X453518Y219914D01*
X453373Y220026D01*
X453230Y220141D01*
X453214Y220149D01*
X453200Y220160D01*
X453035Y220242D01*
X452873Y220327D01*
X452856Y220332D01*
X452840Y220340D01*
X452661Y220387D01*
X452486Y220438D01*
X452468Y220440D01*
X452451Y220444D01*
X452120Y220471D01*
X400448Y220471D01*
X400422Y220469D01*
X400395Y220471D01*
X400221Y220449D01*
X400048Y220431D01*
X400022Y220424D01*
X399996Y220420D01*
X399830Y220365D01*
X399663Y220313D01*
X399639Y220300D01*
X399614Y220292D01*
X399462Y220205D01*
X399309Y220121D01*
X399288Y220104D01*
X399265Y220091D01*
X399012Y219876D01*
X385940Y206804D01*
X385925Y206787D01*
X385908Y206772D01*
X385798Y206631D01*
X385684Y206492D01*
X385674Y206473D01*
X385660Y206455D01*
X385580Y206295D01*
X385496Y206137D01*
X385489Y206115D01*
X385479Y206095D01*
X385432Y205922D01*
X385381Y205751D01*
X385379Y205728D01*
X385373Y205707D01*
X385361Y205528D01*
X385345Y205350D01*
X385347Y205328D01*
X385346Y205305D01*
X385369Y205128D01*
X385388Y204949D01*
X385395Y204928D01*
X385398Y204906D01*
X385499Y204590D01*
X386162Y202990D01*
X386204Y202912D01*
X386237Y202830D01*
X386299Y202735D01*
X386352Y202635D01*
X386409Y202567D01*
X386457Y202493D01*
X386537Y202412D01*
X386609Y202325D01*
X386677Y202269D01*
X386740Y202206D01*
X386833Y202142D01*
X386921Y202071D01*
X387000Y202030D01*
X387073Y201980D01*
X387177Y201937D01*
X387278Y201884D01*
X387363Y201859D01*
X387445Y201825D01*
X387556Y201803D01*
X387664Y201771D01*
X387753Y201763D01*
X387840Y201746D01*
X387953Y201746D01*
X388065Y201736D01*
X388153Y201746D01*
X388242Y201747D01*
X388353Y201769D01*
X388465Y201782D01*
X388550Y201809D01*
X388637Y201826D01*
X388741Y201870D01*
X388849Y201905D01*
X388926Y201948D01*
X389008Y201983D01*
X389101Y202046D01*
X389200Y202101D01*
X389268Y202159D01*
X389341Y202209D01*
X389420Y202289D01*
X389506Y202363D01*
X389561Y202433D01*
X389623Y202496D01*
X389684Y202591D01*
X389754Y202680D01*
X389794Y202759D01*
X389842Y202834D01*
X389897Y202964D01*
X389935Y203040D01*
X389947Y203084D01*
X389970Y203140D01*
X390305Y204170D01*
X390959Y205453D01*
X391805Y206617D01*
X392823Y207635D01*
X393987Y208481D01*
X395270Y209135D01*
X396639Y209580D01*
X396749Y209597D01*
X396749Y200660D01*
X396749Y191723D01*
X396639Y191740D01*
X395270Y192185D01*
X393987Y192839D01*
X392823Y193685D01*
X391805Y194703D01*
X390959Y195867D01*
X390305Y197150D01*
X389970Y198180D01*
X389935Y198262D01*
X389908Y198346D01*
X389854Y198445D01*
X389809Y198549D01*
X389758Y198622D01*
X389715Y198699D01*
X389642Y198786D01*
X389577Y198878D01*
X389513Y198940D01*
X389456Y199007D01*
X389368Y199078D01*
X389286Y199156D01*
X389210Y199203D01*
X389141Y199258D01*
X389041Y199310D01*
X388945Y199370D01*
X388862Y199402D01*
X388783Y199442D01*
X388674Y199473D01*
X388569Y199513D01*
X388481Y199528D01*
X388396Y199552D01*
X388283Y199561D01*
X388171Y199579D01*
X388083Y199576D01*
X387994Y199583D01*
X387882Y199570D01*
X387769Y199566D01*
X387682Y199545D01*
X387594Y199535D01*
X387487Y199499D01*
X387377Y199473D01*
X387297Y199436D01*
X387212Y199408D01*
X387114Y199352D01*
X387011Y199305D01*
X386940Y199253D01*
X386863Y199209D01*
X386777Y199134D01*
X386686Y199068D01*
X386626Y199002D01*
X386559Y198944D01*
X386490Y198855D01*
X386414Y198771D01*
X386368Y198695D01*
X386314Y198625D01*
X386249Y198499D01*
X386205Y198427D01*
X386190Y198383D01*
X386162Y198330D01*
X384147Y193466D01*
X380574Y189893D01*
X375906Y187959D01*
X370854Y187959D01*
X366186Y189893D01*
X362613Y193466D01*
X362557Y193601D01*
X362552Y193609D01*
X362550Y193618D01*
X362458Y193786D01*
X362366Y193956D01*
X362361Y193963D01*
X362356Y193971D01*
X362233Y194118D01*
X362110Y194267D01*
X362103Y194272D01*
X362097Y194279D01*
X361948Y194398D01*
X361797Y194520D01*
X361789Y194525D01*
X361782Y194530D01*
X361613Y194617D01*
X361441Y194707D01*
X361432Y194710D01*
X361424Y194714D01*
X361239Y194766D01*
X361054Y194820D01*
X361046Y194821D01*
X361037Y194824D01*
X360844Y194839D01*
X360653Y194855D01*
X360644Y194854D01*
X360635Y194855D01*
X360444Y194831D01*
X360253Y194810D01*
X360245Y194807D01*
X360236Y194806D01*
X360052Y194745D01*
X359870Y194687D01*
X359862Y194682D01*
X359854Y194680D01*
X359687Y194584D01*
X359518Y194490D01*
X359512Y194484D01*
X359504Y194480D01*
X359361Y194355D01*
X359213Y194229D01*
X359207Y194221D01*
X359200Y194216D01*
X359084Y194064D01*
X358964Y193911D01*
X358960Y193903D01*
X358955Y193896D01*
X358803Y193601D01*
X358747Y193466D01*
X355174Y189893D01*
X350506Y187959D01*
X345454Y187959D01*
X341137Y189747D01*
X341124Y189751D01*
X341113Y189757D01*
X340933Y189809D01*
X340752Y189864D01*
X340739Y189865D01*
X340726Y189869D01*
X340538Y189884D01*
X340351Y189902D01*
X340338Y189900D01*
X340324Y189901D01*
X340138Y189880D01*
X339951Y189860D01*
X339938Y189856D01*
X339925Y189855D01*
X339746Y189796D01*
X339566Y189740D01*
X339555Y189734D01*
X339542Y189730D01*
X339377Y189637D01*
X339213Y189547D01*
X339203Y189538D01*
X339191Y189532D01*
X339049Y189409D01*
X338905Y189288D01*
X338897Y189277D01*
X338886Y189269D01*
X338772Y189121D01*
X338654Y188973D01*
X338648Y188961D01*
X338640Y188951D01*
X338556Y188782D01*
X338470Y188615D01*
X338466Y188602D01*
X338460Y188590D01*
X338411Y188407D01*
X338360Y188228D01*
X338359Y188214D01*
X338356Y188201D01*
X338329Y187871D01*
X338329Y179413D01*
X338330Y179400D01*
X338329Y179387D01*
X338350Y179201D01*
X338369Y179013D01*
X338373Y179000D01*
X338374Y178987D01*
X338432Y178808D01*
X338487Y178628D01*
X338493Y178616D01*
X338497Y178603D01*
X338589Y178439D01*
X338679Y178274D01*
X338687Y178264D01*
X338694Y178252D01*
X338816Y178109D01*
X338936Y177965D01*
X338947Y177956D01*
X338955Y177946D01*
X339104Y177830D01*
X339250Y177712D01*
X339262Y177706D01*
X339272Y177698D01*
X339441Y177613D01*
X339607Y177527D01*
X339620Y177523D01*
X339632Y177517D01*
X339813Y177467D01*
X339994Y177415D01*
X340008Y177414D01*
X340021Y177411D01*
X340209Y177398D01*
X340396Y177383D01*
X340409Y177384D01*
X340422Y177383D01*
X340610Y177408D01*
X340795Y177429D01*
X340808Y177434D01*
X340821Y177435D01*
X341137Y177537D01*
X345454Y179325D01*
X350506Y179325D01*
X355174Y177391D01*
X358747Y173818D01*
X358803Y173683D01*
X358808Y173675D01*
X358810Y173666D01*
X358902Y173498D01*
X358994Y173328D01*
X358999Y173321D01*
X359004Y173313D01*
X359128Y173165D01*
X359250Y173017D01*
X359257Y173012D01*
X359263Y173005D01*
X359413Y172885D01*
X359563Y172764D01*
X359571Y172760D01*
X359578Y172754D01*
X359750Y172666D01*
X359919Y172577D01*
X359928Y172574D01*
X359936Y172570D01*
X360122Y172517D01*
X360306Y172464D01*
X360315Y172463D01*
X360323Y172460D01*
X360515Y172445D01*
X360707Y172429D01*
X360716Y172430D01*
X360725Y172429D01*
X360917Y172453D01*
X361107Y172474D01*
X361115Y172477D01*
X361124Y172478D01*
X361308Y172539D01*
X361490Y172597D01*
X361498Y172602D01*
X361506Y172604D01*
X361674Y172700D01*
X361842Y172794D01*
X361848Y172799D01*
X361856Y172804D01*
X362001Y172930D01*
X362147Y173055D01*
X362153Y173063D01*
X362160Y173068D01*
X362275Y173219D01*
X362396Y173372D01*
X362400Y173381D01*
X362405Y173388D01*
X362557Y173683D01*
X362613Y173818D01*
X366186Y177391D01*
X370854Y179325D01*
X375906Y179325D01*
X380574Y177391D01*
X384147Y173818D01*
X386162Y168954D01*
X386204Y168876D01*
X386237Y168794D01*
X386299Y168699D01*
X386352Y168599D01*
X386409Y168531D01*
X386457Y168457D01*
X386537Y168376D01*
X386609Y168289D01*
X386677Y168233D01*
X386740Y168170D01*
X386833Y168106D01*
X386921Y168035D01*
X387000Y167994D01*
X387073Y167944D01*
X387178Y167901D01*
X387278Y167848D01*
X387363Y167823D01*
X387445Y167789D01*
X387556Y167767D01*
X387664Y167735D01*
X387753Y167727D01*
X387840Y167710D01*
X387953Y167710D01*
X388065Y167700D01*
X388153Y167710D01*
X388242Y167711D01*
X388353Y167733D01*
X388465Y167746D01*
X388550Y167773D01*
X388637Y167790D01*
X388741Y167834D01*
X388849Y167869D01*
X388926Y167912D01*
X389008Y167947D01*
X389101Y168010D01*
X389200Y168065D01*
X389268Y168123D01*
X389341Y168173D01*
X389420Y168253D01*
X389506Y168327D01*
X389561Y168397D01*
X389623Y168460D01*
X389684Y168555D01*
X389754Y168644D01*
X389794Y168723D01*
X389842Y168798D01*
X389897Y168928D01*
X389935Y169004D01*
X389947Y169048D01*
X389970Y169104D01*
X390305Y170134D01*
X390959Y171417D01*
X391805Y172581D01*
X392823Y173599D01*
X393987Y174445D01*
X395270Y175099D01*
X396639Y175544D01*
X396749Y175561D01*
X396749Y160020D01*
X396749Y144479D01*
X396639Y144496D01*
X395270Y144941D01*
X393987Y145595D01*
X392823Y146441D01*
X391805Y147459D01*
X390959Y148623D01*
X390305Y149906D01*
X389970Y150936D01*
X389935Y151017D01*
X389908Y151102D01*
X389854Y151201D01*
X389809Y151305D01*
X389758Y151378D01*
X389715Y151455D01*
X389642Y151542D01*
X389577Y151634D01*
X389513Y151696D01*
X389456Y151763D01*
X389368Y151834D01*
X389286Y151912D01*
X389210Y151959D01*
X389141Y152014D01*
X389041Y152066D01*
X388945Y152126D01*
X388862Y152158D01*
X388783Y152198D01*
X388674Y152229D01*
X388569Y152269D01*
X388481Y152284D01*
X388396Y152308D01*
X388283Y152317D01*
X388171Y152335D01*
X388083Y152332D01*
X387994Y152339D01*
X387882Y152326D01*
X387769Y152322D01*
X387683Y152301D01*
X387594Y152291D01*
X387487Y152255D01*
X387377Y152229D01*
X387296Y152192D01*
X387212Y152164D01*
X387114Y152108D01*
X387011Y152061D01*
X386940Y152009D01*
X386863Y151965D01*
X386777Y151890D01*
X386686Y151824D01*
X386626Y151758D01*
X386559Y151700D01*
X386490Y151610D01*
X386414Y151527D01*
X386368Y151451D01*
X386314Y151381D01*
X386249Y151255D01*
X386205Y151183D01*
X386189Y151139D01*
X386162Y151086D01*
X384147Y146222D01*
X380574Y142649D01*
X379086Y142032D01*
X375906Y140715D01*
X370854Y140715D01*
X366186Y142649D01*
X362613Y146222D01*
X362557Y146357D01*
X362552Y146365D01*
X362550Y146374D01*
X362458Y146541D01*
X362367Y146712D01*
X362361Y146719D01*
X362356Y146727D01*
X362233Y146873D01*
X362110Y147023D01*
X362103Y147028D01*
X362097Y147035D01*
X361947Y147155D01*
X361798Y147276D01*
X361790Y147280D01*
X361783Y147286D01*
X361613Y147373D01*
X361441Y147463D01*
X361432Y147466D01*
X361424Y147470D01*
X361241Y147522D01*
X361055Y147576D01*
X361046Y147577D01*
X361037Y147580D01*
X360846Y147594D01*
X360653Y147611D01*
X360645Y147610D01*
X360636Y147611D01*
X360445Y147588D01*
X360253Y147566D01*
X360245Y147563D01*
X360236Y147562D01*
X360054Y147502D01*
X359870Y147443D01*
X359862Y147438D01*
X359854Y147436D01*
X359686Y147340D01*
X359519Y147246D01*
X359512Y147241D01*
X359504Y147236D01*
X359358Y147109D01*
X359213Y146985D01*
X359207Y146978D01*
X359200Y146972D01*
X359083Y146819D01*
X358964Y146668D01*
X358960Y146660D01*
X358955Y146652D01*
X358803Y146357D01*
X358747Y146222D01*
X355174Y142649D01*
X353686Y142032D01*
X350506Y140715D01*
X345454Y140715D01*
X340786Y142649D01*
X337213Y146222D01*
X335279Y150890D01*
X335279Y157480D01*
X335277Y157498D01*
X335279Y157516D01*
X335258Y157698D01*
X335239Y157881D01*
X335234Y157898D01*
X335232Y157915D01*
X335175Y158090D01*
X335121Y158266D01*
X335113Y158281D01*
X335107Y158298D01*
X335017Y158458D01*
X334929Y158620D01*
X334918Y158633D01*
X334909Y158649D01*
X334789Y158788D01*
X334672Y158929D01*
X334658Y158940D01*
X334646Y158954D01*
X334501Y159066D01*
X334358Y159181D01*
X334342Y159189D01*
X334328Y159200D01*
X334163Y159282D01*
X334001Y159367D01*
X333984Y159372D01*
X333968Y159380D01*
X333789Y159427D01*
X333614Y159478D01*
X333596Y159480D01*
X333579Y159484D01*
X333248Y159511D01*
X128110Y159511D01*
X128092Y159509D01*
X128074Y159511D01*
X127892Y159490D01*
X127709Y159471D01*
X127692Y159466D01*
X127675Y159464D01*
X127500Y159407D01*
X127324Y159353D01*
X127309Y159345D01*
X127292Y159339D01*
X127132Y159249D01*
X126970Y159161D01*
X126957Y159150D01*
X126941Y159141D01*
X126802Y159021D01*
X126661Y158904D01*
X126650Y158890D01*
X126636Y158878D01*
X126524Y158733D01*
X126409Y158590D01*
X126401Y158574D01*
X126390Y158560D01*
X126308Y158395D01*
X126223Y158233D01*
X126218Y158216D01*
X126210Y158200D01*
X126163Y158021D01*
X126112Y157846D01*
X126110Y157828D01*
X126106Y157811D01*
X126079Y157480D01*
X126079Y106476D01*
X126094Y106322D01*
X126102Y106167D01*
X126114Y106122D01*
X126119Y106076D01*
X126164Y105927D01*
X126203Y105777D01*
X126223Y105735D01*
X126237Y105691D01*
X126311Y105554D01*
X126378Y105415D01*
X126406Y105378D01*
X126429Y105337D01*
X126528Y105218D01*
X126622Y105094D01*
X126656Y105063D01*
X126686Y105027D01*
X126807Y104930D01*
X126923Y104828D01*
X126964Y104804D01*
X127000Y104775D01*
X127138Y104704D01*
X127272Y104626D01*
X127321Y104608D01*
X127357Y104590D01*
X127440Y104566D01*
X127584Y104514D01*
X128048Y104390D01*
X134014Y100945D01*
X138885Y96074D01*
X142330Y90108D01*
X144113Y83454D01*
X144113Y76566D01*
X142330Y69912D01*
X138885Y63946D01*
X134014Y59075D01*
X128048Y55630D01*
X121394Y53847D01*
X114506Y53847D01*
X107852Y55630D01*
X101886Y59075D01*
X97015Y63946D01*
X93570Y69912D01*
X91787Y76566D01*
X91787Y83454D01*
X93570Y90108D01*
X97015Y96074D01*
X101886Y100945D01*
X107852Y104390D01*
X108316Y104514D01*
X108461Y104569D01*
X108608Y104617D01*
X108649Y104640D01*
X108692Y104656D01*
X108824Y104739D01*
X108959Y104815D01*
X108994Y104845D01*
X109034Y104870D01*
X109146Y104977D01*
X109264Y105078D01*
X109292Y105115D01*
X109326Y105147D01*
X109415Y105274D01*
X109510Y105396D01*
X109531Y105438D01*
X109558Y105476D01*
X109620Y105618D01*
X109690Y105757D01*
X109702Y105802D01*
X109720Y105844D01*
X109754Y105995D01*
X109794Y106145D01*
X109798Y106198D01*
X109807Y106238D01*
X109809Y106324D01*
X109821Y106476D01*
X109821Y165287D01*
X111059Y168275D01*
X117315Y174531D01*
X118081Y174848D01*
X118082Y174849D01*
X120303Y175769D01*
X320040Y175769D01*
X320058Y175771D01*
X320076Y175769D01*
X320258Y175790D01*
X320441Y175809D01*
X320458Y175814D01*
X320475Y175816D01*
X320650Y175873D01*
X320826Y175927D01*
X320841Y175935D01*
X320858Y175941D01*
X321018Y176031D01*
X321180Y176119D01*
X321193Y176130D01*
X321209Y176139D01*
X321348Y176259D01*
X321489Y176376D01*
X321500Y176390D01*
X321514Y176402D01*
X321626Y176547D01*
X321741Y176690D01*
X321749Y176706D01*
X321760Y176720D01*
X321842Y176885D01*
X321927Y177047D01*
X321932Y177064D01*
X321940Y177080D01*
X321987Y177259D01*
X322038Y177434D01*
X322040Y177452D01*
X322044Y177469D01*
X322071Y177800D01*
X322071Y214977D01*
X323309Y217965D01*
X325881Y220537D01*
X328103Y222759D01*
X330675Y225331D01*
X333663Y226569D01*
X360680Y226569D01*
X360698Y226571D01*
X360716Y226569D01*
X360898Y226590D01*
X361081Y226609D01*
X361098Y226614D01*
X361115Y226616D01*
X361290Y226673D01*
X361466Y226727D01*
X361481Y226735D01*
X361498Y226741D01*
X361658Y226831D01*
X361820Y226919D01*
X361833Y226930D01*
X361849Y226939D01*
X361988Y227059D01*
X362129Y227176D01*
X362140Y227190D01*
X362154Y227202D01*
X362266Y227347D01*
X362381Y227490D01*
X362389Y227506D01*
X362400Y227520D01*
X362482Y227685D01*
X362567Y227847D01*
X362572Y227864D01*
X362580Y227880D01*
X362627Y228059D01*
X362678Y228234D01*
X362680Y228252D01*
X362684Y228269D01*
X362711Y228600D01*
X362711Y248920D01*
X362709Y248938D01*
X362711Y248956D01*
X362690Y249138D01*
X362671Y249321D01*
X362666Y249338D01*
X362664Y249355D01*
X362607Y249530D01*
X362553Y249706D01*
X362545Y249721D01*
X362539Y249738D01*
X362449Y249898D01*
X362361Y250060D01*
X362350Y250073D01*
X362341Y250089D01*
X362221Y250228D01*
X362104Y250369D01*
X362090Y250380D01*
X362078Y250394D01*
X361933Y250506D01*
X361790Y250621D01*
X361774Y250629D01*
X361760Y250640D01*
X361595Y250722D01*
X361433Y250807D01*
X361416Y250812D01*
X361400Y250820D01*
X361221Y250867D01*
X361046Y250918D01*
X361028Y250920D01*
X361011Y250924D01*
X360680Y250951D01*
X172291Y250951D01*
X172278Y250950D01*
X172265Y250951D01*
X172079Y250930D01*
X171891Y250911D01*
X171878Y250907D01*
X171865Y250906D01*
X171685Y250848D01*
X171506Y250793D01*
X171494Y250787D01*
X171481Y250783D01*
X171317Y250691D01*
X171152Y250601D01*
X171142Y250593D01*
X171130Y250586D01*
X170987Y250464D01*
X170843Y250344D01*
X170834Y250333D01*
X170824Y250325D01*
X170708Y250176D01*
X170590Y250030D01*
X170584Y250018D01*
X170576Y250008D01*
X170491Y249839D01*
X170405Y249673D01*
X170401Y249660D01*
X170395Y249648D01*
X170345Y249467D01*
X170293Y249286D01*
X170292Y249272D01*
X170289Y249259D01*
X170276Y249071D01*
X170260Y248884D01*
X170262Y248871D01*
X170261Y248858D01*
X170286Y248670D01*
X170307Y248485D01*
X170311Y248472D01*
X170313Y248459D01*
X170415Y248143D01*
X171077Y246545D01*
X171077Y241135D01*
X169007Y236138D01*
X165182Y232313D01*
X162995Y231407D01*
X160185Y230243D01*
X154775Y230243D01*
X149778Y232313D01*
X145953Y236138D01*
X143883Y241135D01*
X143883Y246545D01*
X144545Y248143D01*
X144549Y248156D01*
X144555Y248167D01*
X144607Y248347D01*
X144662Y248528D01*
X144663Y248541D01*
X144667Y248554D01*
X144682Y248742D01*
X144700Y248929D01*
X144698Y248942D01*
X144700Y248956D01*
X144678Y249142D01*
X144658Y249329D01*
X144654Y249342D01*
X144653Y249355D01*
X144594Y249534D01*
X144538Y249714D01*
X144532Y249725D01*
X144528Y249738D01*
X144435Y249903D01*
X144345Y250067D01*
X144336Y250077D01*
X144330Y250089D01*
X144207Y250231D01*
X144086Y250375D01*
X144075Y250383D01*
X144067Y250394D01*
X143919Y250508D01*
X143771Y250626D01*
X143759Y250632D01*
X143749Y250640D01*
X143580Y250724D01*
X143413Y250810D01*
X143400Y250814D01*
X143388Y250820D01*
X143205Y250869D01*
X143026Y250920D01*
X143012Y250921D01*
X142999Y250924D01*
X142669Y250951D01*
X41563Y250951D01*
X38575Y252189D01*
X38376Y252388D01*
X38355Y252405D01*
X38338Y252426D01*
X38200Y252533D01*
X38064Y252643D01*
X38041Y252656D01*
X38020Y252672D01*
X37863Y252750D01*
X37709Y252832D01*
X37683Y252840D01*
X37659Y252852D01*
X37490Y252897D01*
X37323Y252947D01*
X37296Y252949D01*
X37270Y252956D01*
X36940Y252983D01*
X25212Y252983D01*
X20170Y255072D01*
X16312Y258930D01*
X14223Y263972D01*
X14223Y269428D01*
X16312Y274470D01*
X20170Y278328D01*
X22949Y279479D01*
X23064Y279541D01*
X23183Y279595D01*
X23241Y279636D01*
X23303Y279670D01*
X23404Y279753D01*
X23511Y279829D01*
X23559Y279881D01*
X23614Y279926D01*
X23696Y280028D01*
X23785Y280123D01*
X23823Y280184D01*
X23867Y280239D01*
X23928Y280354D01*
X23997Y280466D01*
X24022Y280532D01*
X24055Y280595D01*
X24091Y280721D01*
X24137Y280843D01*
X24148Y280913D01*
X24168Y280982D01*
X24179Y281112D01*
X24199Y281241D01*
X24196Y281312D01*
X24202Y281383D01*
X24188Y281512D01*
X24182Y281643D01*
X24165Y281712D01*
X24157Y281783D01*
X24117Y281907D01*
X24086Y282034D01*
X24056Y282098D01*
X24034Y282166D01*
X23970Y282280D01*
X23915Y282399D01*
X23872Y282456D01*
X23838Y282518D01*
X23753Y282617D01*
X23675Y282722D01*
X23622Y282769D01*
X23576Y282823D01*
X23473Y282904D01*
X23376Y282992D01*
X23306Y283035D01*
X23259Y283072D01*
X23191Y283106D01*
X23093Y283166D01*
X22615Y283410D01*
X21321Y284350D01*
X20190Y285481D01*
X19250Y286775D01*
X18524Y288200D01*
X18081Y289561D01*
X35052Y289561D01*
X35070Y289562D01*
X35087Y289561D01*
X35270Y289582D01*
X35452Y289601D01*
X35469Y289606D01*
X35487Y289608D01*
X35565Y289633D01*
X35702Y289594D01*
X35720Y289592D01*
X35737Y289588D01*
X36068Y289561D01*
X53039Y289561D01*
X52596Y288200D01*
X51870Y286775D01*
X50930Y285481D01*
X49799Y284350D01*
X48505Y283410D01*
X48027Y283166D01*
X47916Y283095D01*
X47802Y283032D01*
X47748Y282987D01*
X47688Y282948D01*
X47594Y282857D01*
X47494Y282773D01*
X47449Y282718D01*
X47398Y282668D01*
X47324Y282561D01*
X47243Y282459D01*
X47210Y282395D01*
X47170Y282337D01*
X47119Y282217D01*
X47059Y282100D01*
X47040Y282032D01*
X47012Y281967D01*
X46985Y281839D01*
X46949Y281713D01*
X46944Y281642D01*
X46929Y281573D01*
X46928Y281442D01*
X46918Y281312D01*
X46927Y281241D01*
X46926Y281170D01*
X46951Y281042D01*
X46967Y280912D01*
X46989Y280844D01*
X47002Y280775D01*
X47052Y280654D01*
X47093Y280530D01*
X47128Y280468D01*
X47155Y280402D01*
X47228Y280293D01*
X47293Y280180D01*
X47339Y280126D01*
X47379Y280067D01*
X47471Y279975D01*
X47557Y279876D01*
X47613Y279833D01*
X47664Y279783D01*
X47773Y279711D01*
X47876Y279631D01*
X47949Y279593D01*
X47999Y279560D01*
X48070Y279532D01*
X48171Y279479D01*
X50950Y278328D01*
X54808Y274470D01*
X56897Y269428D01*
X56897Y269240D01*
X56899Y269222D01*
X56897Y269204D01*
X56918Y269022D01*
X56937Y268839D01*
X56942Y268822D01*
X56944Y268805D01*
X57001Y268630D01*
X57055Y268454D01*
X57063Y268439D01*
X57069Y268422D01*
X57159Y268262D01*
X57247Y268100D01*
X57258Y268087D01*
X57267Y268071D01*
X57387Y267932D01*
X57504Y267791D01*
X57518Y267780D01*
X57530Y267766D01*
X57675Y267654D01*
X57818Y267539D01*
X57834Y267531D01*
X57848Y267520D01*
X58013Y267438D01*
X58175Y267353D01*
X58192Y267348D01*
X58208Y267340D01*
X58387Y267293D01*
X58562Y267242D01*
X58580Y267240D01*
X58597Y267236D01*
X58928Y267209D01*
X128035Y267209D01*
X128039Y267209D01*
X128044Y267209D01*
X128237Y267229D01*
X128435Y267249D01*
X128440Y267250D01*
X128444Y267250D01*
X128630Y267308D01*
X128820Y267367D01*
X128824Y267369D01*
X128829Y267370D01*
X129000Y267464D01*
X129174Y267559D01*
X129178Y267561D01*
X129182Y267564D01*
X129333Y267691D01*
X129484Y267816D01*
X129486Y267820D01*
X129490Y267823D01*
X129613Y267977D01*
X129736Y268130D01*
X129738Y268134D01*
X129741Y268137D01*
X129831Y268313D01*
X129921Y268487D01*
X129923Y268492D01*
X129925Y268496D01*
X129977Y268680D01*
X130033Y268874D01*
X130033Y268879D01*
X130034Y268883D01*
X130049Y269076D01*
X130066Y269276D01*
X130065Y269280D01*
X130066Y269284D01*
X130042Y269477D01*
X130019Y269675D01*
X130017Y269680D01*
X130017Y269684D01*
X129955Y269870D01*
X129894Y270058D01*
X129892Y270062D01*
X129890Y270066D01*
X129793Y270238D01*
X129696Y270409D01*
X129693Y270412D01*
X129691Y270416D01*
X129561Y270565D01*
X129433Y270713D01*
X129429Y270716D01*
X129426Y270720D01*
X129270Y270840D01*
X129115Y270960D01*
X129111Y270962D01*
X129107Y270965D01*
X128812Y271117D01*
X124378Y272953D01*
X120553Y276778D01*
X118483Y281775D01*
X118483Y287185D01*
X119275Y289096D01*
X119281Y289117D01*
X119292Y289137D01*
X119340Y289310D01*
X119391Y289481D01*
X119394Y289504D01*
X119400Y289525D01*
X119413Y289704D01*
X119430Y289882D01*
X119427Y289904D01*
X119429Y289927D01*
X119406Y290105D01*
X119388Y290283D01*
X119381Y290304D01*
X119379Y290326D01*
X119322Y290496D01*
X119268Y290667D01*
X119257Y290687D01*
X119250Y290708D01*
X119161Y290863D01*
X119075Y291020D01*
X119061Y291037D01*
X119049Y291057D01*
X118835Y291310D01*
X116737Y293407D01*
X116672Y293461D01*
X116613Y293521D01*
X116517Y293588D01*
X116426Y293662D01*
X116351Y293702D01*
X116282Y293750D01*
X116173Y293796D01*
X116070Y293851D01*
X115989Y293875D01*
X115912Y293908D01*
X115797Y293932D01*
X115684Y293966D01*
X115600Y293973D01*
X115517Y293990D01*
X115400Y293991D01*
X115283Y294002D01*
X115199Y293993D01*
X115115Y293994D01*
X115000Y293971D01*
X114883Y293959D01*
X114802Y293933D01*
X114720Y293917D01*
X114611Y293873D01*
X114499Y293837D01*
X114425Y293796D01*
X114347Y293764D01*
X114249Y293699D01*
X114147Y293642D01*
X114082Y293588D01*
X114012Y293541D01*
X113929Y293458D01*
X113840Y293382D01*
X113787Y293316D01*
X113728Y293256D01*
X113663Y293158D01*
X113590Y293066D01*
X113552Y292991D01*
X113505Y292920D01*
X113461Y292812D01*
X113408Y292707D01*
X113385Y292625D01*
X113353Y292547D01*
X113331Y292432D01*
X113300Y292319D01*
X113293Y292235D01*
X113278Y292152D01*
X113279Y292035D01*
X113270Y291917D01*
X113281Y291834D01*
X113282Y291749D01*
X113306Y291635D01*
X113321Y291518D01*
X113348Y291438D01*
X113365Y291356D01*
X113421Y291218D01*
X113449Y291136D01*
X113470Y291100D01*
X113491Y291049D01*
X113556Y290920D01*
X113999Y289559D01*
X97028Y289559D01*
X97010Y289557D01*
X96993Y289559D01*
X96810Y289538D01*
X96628Y289519D01*
X96611Y289514D01*
X96593Y289512D01*
X96515Y289487D01*
X96378Y289526D01*
X96360Y289528D01*
X96343Y289532D01*
X96012Y289559D01*
X79041Y289559D01*
X79484Y290920D01*
X80210Y292345D01*
X81150Y293639D01*
X82281Y294770D01*
X83575Y295710D01*
X84053Y295954D01*
X84163Y296025D01*
X84278Y296088D01*
X84332Y296133D01*
X84392Y296172D01*
X84486Y296263D01*
X84586Y296347D01*
X84631Y296402D01*
X84682Y296452D01*
X84756Y296559D01*
X84837Y296662D01*
X84870Y296725D01*
X84910Y296783D01*
X84961Y296903D01*
X85021Y297020D01*
X85041Y297088D01*
X85068Y297153D01*
X85095Y297281D01*
X85131Y297407D01*
X85136Y297478D01*
X85151Y297547D01*
X85152Y297678D01*
X85162Y297808D01*
X85153Y297879D01*
X85154Y297950D01*
X85129Y298078D01*
X85113Y298208D01*
X85091Y298275D01*
X85078Y298345D01*
X85028Y298466D01*
X84987Y298590D01*
X84952Y298652D01*
X84925Y298718D01*
X84852Y298826D01*
X84787Y298940D01*
X84741Y298994D01*
X84701Y299053D01*
X84609Y299145D01*
X84523Y299244D01*
X84467Y299287D01*
X84416Y299337D01*
X84307Y299409D01*
X84204Y299489D01*
X84131Y299527D01*
X84081Y299560D01*
X84010Y299588D01*
X83909Y299641D01*
X81130Y300792D01*
X77272Y304650D01*
X75183Y309692D01*
X75183Y315148D01*
X77272Y320190D01*
X80765Y323684D01*
X80777Y323697D01*
X80790Y323709D01*
X80904Y323853D01*
X81020Y323995D01*
X81029Y324011D01*
X81040Y324025D01*
X81123Y324189D01*
X81209Y324351D01*
X81214Y324368D01*
X81222Y324384D01*
X81272Y324561D01*
X81324Y324737D01*
X81325Y324755D01*
X81330Y324772D01*
X81344Y324955D01*
X81360Y325138D01*
X81358Y325156D01*
X81360Y325173D01*
X81337Y325355D01*
X81317Y325538D01*
X81311Y325555D01*
X81309Y325573D01*
X81251Y325746D01*
X81195Y325922D01*
X81187Y325938D01*
X81181Y325954D01*
X81089Y326114D01*
X81000Y326274D01*
X80989Y326288D01*
X80980Y326303D01*
X80765Y326556D01*
X77272Y330050D01*
X75183Y335092D01*
X75183Y340548D01*
X77272Y345590D01*
X80765Y349084D01*
X80777Y349097D01*
X80790Y349109D01*
X80904Y349253D01*
X81020Y349395D01*
X81029Y349411D01*
X81040Y349425D01*
X81123Y349589D01*
X81209Y349751D01*
X81214Y349768D01*
X81222Y349784D01*
X81272Y349961D01*
X81324Y350137D01*
X81325Y350155D01*
X81330Y350172D01*
X81344Y350355D01*
X81360Y350538D01*
X81358Y350556D01*
X81360Y350573D01*
X81337Y350755D01*
X81317Y350938D01*
X81311Y350955D01*
X81309Y350973D01*
X81251Y351146D01*
X81195Y351322D01*
X81187Y351338D01*
X81181Y351354D01*
X81090Y351513D01*
X81000Y351674D01*
X80989Y351688D01*
X80980Y351703D01*
X80765Y351956D01*
X77272Y355450D01*
X75183Y360492D01*
X75183Y365948D01*
X77272Y370990D01*
X80765Y374484D01*
X80777Y374497D01*
X80790Y374509D01*
X80904Y374653D01*
X81020Y374795D01*
X81029Y374811D01*
X81040Y374825D01*
X81123Y374989D01*
X81209Y375151D01*
X81214Y375168D01*
X81222Y375184D01*
X81272Y375361D01*
X81324Y375537D01*
X81325Y375555D01*
X81330Y375572D01*
X81344Y375755D01*
X81360Y375938D01*
X81358Y375956D01*
X81360Y375973D01*
X81337Y376155D01*
X81317Y376338D01*
X81311Y376355D01*
X81309Y376373D01*
X81251Y376546D01*
X81195Y376722D01*
X81187Y376738D01*
X81181Y376754D01*
X81090Y376913D01*
X81000Y377074D01*
X80989Y377088D01*
X80980Y377103D01*
X80765Y377356D01*
X77272Y380850D01*
X75183Y385892D01*
X75183Y391348D01*
X77272Y396390D01*
X80765Y399884D01*
X80777Y399897D01*
X80790Y399909D01*
X80904Y400053D01*
X81020Y400195D01*
X81029Y400211D01*
X81040Y400225D01*
X81123Y400389D01*
X81209Y400551D01*
X81214Y400568D01*
X81222Y400584D01*
X81272Y400761D01*
X81324Y400937D01*
X81325Y400955D01*
X81330Y400972D01*
X81344Y401155D01*
X81360Y401338D01*
X81358Y401356D01*
X81360Y401373D01*
X81337Y401555D01*
X81317Y401738D01*
X81311Y401755D01*
X81309Y401773D01*
X81251Y401946D01*
X81195Y402122D01*
X81187Y402138D01*
X81181Y402154D01*
X81089Y402314D01*
X81000Y402474D01*
X80989Y402488D01*
X80980Y402503D01*
X80765Y402756D01*
X77272Y406250D01*
X75183Y411292D01*
X75183Y416748D01*
X77272Y421790D01*
X80765Y425284D01*
X80777Y425297D01*
X80790Y425309D01*
X80904Y425453D01*
X81020Y425595D01*
X81029Y425611D01*
X81040Y425625D01*
X81123Y425789D01*
X81209Y425951D01*
X81214Y425968D01*
X81222Y425984D01*
X81272Y426161D01*
X81324Y426337D01*
X81325Y426355D01*
X81330Y426372D01*
X81344Y426555D01*
X81360Y426738D01*
X81358Y426756D01*
X81360Y426773D01*
X81337Y426955D01*
X81317Y427138D01*
X81311Y427155D01*
X81309Y427173D01*
X81251Y427346D01*
X81195Y427522D01*
X81187Y427538D01*
X81181Y427554D01*
X81090Y427713D01*
X81000Y427874D01*
X80989Y427888D01*
X80980Y427903D01*
X80765Y428156D01*
X77272Y431650D01*
X75183Y436692D01*
X75183Y442148D01*
X77272Y447190D01*
X81130Y451048D01*
X83909Y452199D01*
X84024Y452261D01*
X84143Y452315D01*
X84201Y452356D01*
X84263Y452390D01*
X84364Y452473D01*
X84471Y452549D01*
X84519Y452601D01*
X84574Y452646D01*
X84656Y452748D01*
X84746Y452843D01*
X84783Y452903D01*
X84828Y452959D01*
X84888Y453074D01*
X84957Y453186D01*
X84982Y453252D01*
X85015Y453315D01*
X85051Y453441D01*
X85097Y453563D01*
X85108Y453633D01*
X85128Y453702D01*
X85139Y453832D01*
X85159Y453961D01*
X85156Y454032D01*
X85162Y454103D01*
X85148Y454232D01*
X85142Y454363D01*
X85125Y454432D01*
X85117Y454503D01*
X85077Y454627D01*
X85046Y454754D01*
X85016Y454818D01*
X84994Y454886D01*
X84930Y455000D01*
X84875Y455119D01*
X84832Y455176D01*
X84798Y455238D01*
X84713Y455337D01*
X84635Y455442D01*
X84582Y455489D01*
X84536Y455543D01*
X84433Y455624D01*
X84336Y455712D01*
X84266Y455755D01*
X84219Y455792D01*
X84151Y455826D01*
X84053Y455886D01*
X83575Y456130D01*
X82281Y457070D01*
X81150Y458201D01*
X80210Y459495D01*
X79484Y460920D01*
X79041Y462281D01*
X96012Y462281D01*
X96030Y462282D01*
X96047Y462281D01*
X96230Y462302D01*
X96412Y462321D01*
X96429Y462326D01*
X96447Y462328D01*
X96525Y462353D01*
X96662Y462314D01*
X96680Y462312D01*
X96697Y462308D01*
X97028Y462281D01*
X113999Y462281D01*
X113556Y460920D01*
X112830Y459495D01*
X111890Y458201D01*
X110759Y457070D01*
X109465Y456130D01*
X108987Y455886D01*
X108877Y455815D01*
X108762Y455752D01*
X108708Y455707D01*
X108648Y455668D01*
X108554Y455577D01*
X108454Y455493D01*
X108409Y455438D01*
X108358Y455388D01*
X108284Y455281D01*
X108203Y455178D01*
X108170Y455115D01*
X108130Y455057D01*
X108079Y454937D01*
X108019Y454820D01*
X107999Y454752D01*
X107972Y454687D01*
X107945Y454559D01*
X107909Y454433D01*
X107904Y454362D01*
X107889Y454293D01*
X107888Y454162D01*
X107878Y454032D01*
X107887Y453961D01*
X107886Y453890D01*
X107911Y453762D01*
X107927Y453632D01*
X107949Y453565D01*
X107962Y453495D01*
X108012Y453374D01*
X108053Y453250D01*
X108088Y453188D01*
X108115Y453122D01*
X108188Y453014D01*
X108253Y452900D01*
X108299Y452846D01*
X108339Y452787D01*
X108431Y452695D01*
X108517Y452596D01*
X108573Y452553D01*
X108624Y452503D01*
X108733Y452431D01*
X108836Y452351D01*
X108909Y452313D01*
X108959Y452280D01*
X109030Y452252D01*
X109131Y452199D01*
X111910Y451048D01*
X114815Y448144D01*
X114835Y448127D01*
X114853Y448106D01*
X114991Y447999D01*
X115126Y447889D01*
X115150Y447876D01*
X115171Y447860D01*
X115328Y447782D01*
X115482Y447700D01*
X115507Y447692D01*
X115532Y447680D01*
X115701Y447635D01*
X115868Y447585D01*
X115894Y447583D01*
X115920Y447576D01*
X116251Y447549D01*
X143857Y447549D01*
X146845Y446311D01*
X154211Y438945D01*
X155449Y435957D01*
X155449Y359808D01*
X155451Y359782D01*
X155449Y359755D01*
X155471Y359581D01*
X155489Y359408D01*
X155496Y359382D01*
X155500Y359356D01*
X155555Y359190D01*
X155607Y359023D01*
X155620Y358999D01*
X155628Y358974D01*
X155715Y358822D01*
X155799Y358669D01*
X155816Y358648D01*
X155829Y358625D01*
X156044Y358372D01*
X200892Y313524D01*
X200913Y313507D01*
X200930Y313486D01*
X201068Y313379D01*
X201204Y313269D01*
X201227Y313256D01*
X201248Y313240D01*
X201405Y313162D01*
X201559Y313080D01*
X201585Y313072D01*
X201609Y313060D01*
X201778Y313015D01*
X201945Y312965D01*
X201972Y312963D01*
X201998Y312956D01*
X202328Y312929D01*
X279400Y312929D01*
X279418Y312931D01*
X279436Y312929D01*
X279618Y312950D01*
X279801Y312969D01*
X279818Y312974D01*
X279835Y312976D01*
X280010Y313033D01*
X280186Y313087D01*
X280201Y313095D01*
X280218Y313101D01*
X280378Y313191D01*
X280540Y313279D01*
X280553Y313290D01*
X280569Y313299D01*
X280708Y313419D01*
X280849Y313536D01*
X280860Y313550D01*
X280874Y313562D01*
X280986Y313707D01*
X281101Y313850D01*
X281109Y313866D01*
X281120Y313880D01*
X281202Y314045D01*
X281287Y314207D01*
X281292Y314224D01*
X281300Y314240D01*
X281347Y314419D01*
X281398Y314594D01*
X281400Y314612D01*
X281404Y314629D01*
X281431Y314960D01*
X281431Y318259D01*
X281429Y318285D01*
X281431Y318312D01*
X281409Y318486D01*
X281391Y318659D01*
X281384Y318685D01*
X281380Y318711D01*
X281325Y318877D01*
X281273Y319044D01*
X281260Y319068D01*
X281252Y319093D01*
X281165Y319245D01*
X281081Y319398D01*
X281064Y319419D01*
X281051Y319442D01*
X280836Y319695D01*
X278033Y322498D01*
X275963Y327495D01*
X275963Y332905D01*
X278033Y337902D01*
X281858Y341727D01*
X286855Y343797D01*
X292265Y343797D01*
X297262Y341727D01*
X298284Y340705D01*
X298297Y340694D01*
X298309Y340680D01*
X298454Y340566D01*
X298595Y340450D01*
X298611Y340442D01*
X298625Y340430D01*
X298789Y340347D01*
X298951Y340261D01*
X298968Y340256D01*
X298984Y340248D01*
X299161Y340199D01*
X299337Y340147D01*
X299355Y340145D01*
X299372Y340140D01*
X299555Y340127D01*
X299738Y340110D01*
X299756Y340112D01*
X299773Y340111D01*
X299955Y340134D01*
X300138Y340154D01*
X300155Y340159D01*
X300173Y340161D01*
X300346Y340219D01*
X300522Y340275D01*
X300538Y340284D01*
X300554Y340289D01*
X300713Y340381D01*
X300874Y340470D01*
X300888Y340481D01*
X300903Y340490D01*
X301156Y340705D01*
X302178Y341727D01*
X307175Y343797D01*
X312585Y343797D01*
X317582Y341727D01*
X318604Y340705D01*
X318618Y340694D01*
X318629Y340680D01*
X318773Y340566D01*
X318915Y340450D01*
X318931Y340442D01*
X318945Y340430D01*
X319109Y340347D01*
X319271Y340261D01*
X319288Y340256D01*
X319304Y340248D01*
X319481Y340199D01*
X319657Y340147D01*
X319675Y340145D01*
X319692Y340140D01*
X319875Y340127D01*
X320058Y340110D01*
X320076Y340112D01*
X320093Y340111D01*
X320275Y340134D01*
X320458Y340154D01*
X320475Y340159D01*
X320493Y340161D01*
X320667Y340220D01*
X320842Y340275D01*
X320858Y340284D01*
X320874Y340289D01*
X321033Y340381D01*
X321194Y340470D01*
X321208Y340481D01*
X321223Y340490D01*
X321476Y340705D01*
X322498Y341727D01*
X327495Y343797D01*
X332905Y343797D01*
X337902Y341727D01*
X341727Y337902D01*
X343797Y332905D01*
X343797Y327495D01*
X341727Y322498D01*
X338924Y319695D01*
X338907Y319674D01*
X338886Y319657D01*
X338779Y319519D01*
X338669Y319383D01*
X338656Y319360D01*
X338640Y319339D01*
X338562Y319182D01*
X338480Y319028D01*
X338472Y319002D01*
X338460Y318978D01*
X338415Y318809D01*
X338365Y318642D01*
X338363Y318615D01*
X338356Y318589D01*
X338329Y318259D01*
X338329Y303183D01*
X337091Y300195D01*
X314485Y277589D01*
X311497Y276351D01*
X181263Y276351D01*
X178275Y277589D01*
X174109Y281756D01*
X174098Y281764D01*
X174090Y281774D01*
X174081Y281781D01*
X174074Y281789D01*
X173963Y281875D01*
X173943Y281891D01*
X173797Y282011D01*
X173785Y282017D01*
X173775Y282025D01*
X173759Y282033D01*
X173756Y282036D01*
X173703Y282062D01*
X173607Y282111D01*
X173441Y282199D01*
X173428Y282203D01*
X173417Y282209D01*
X173236Y282260D01*
X173055Y282314D01*
X173042Y282315D01*
X173029Y282319D01*
X172843Y282333D01*
X172654Y282351D01*
X172641Y282349D01*
X172628Y282350D01*
X172443Y282328D01*
X172254Y282307D01*
X172241Y282303D01*
X172228Y282301D01*
X172052Y282243D01*
X171870Y282186D01*
X171858Y282179D01*
X171846Y282175D01*
X171682Y282082D01*
X171518Y281991D01*
X171508Y281982D01*
X171496Y281976D01*
X171354Y281852D01*
X171211Y281730D01*
X171203Y281720D01*
X171193Y281711D01*
X171078Y281562D01*
X171008Y281473D01*
X170969Y281425D01*
X170968Y281423D01*
X170961Y281414D01*
X170955Y281402D01*
X170947Y281392D01*
X170796Y281097D01*
X169007Y276778D01*
X165182Y272953D01*
X160748Y271117D01*
X160744Y271115D01*
X160740Y271113D01*
X160567Y271020D01*
X160393Y270926D01*
X160389Y270924D01*
X160386Y270921D01*
X160237Y270797D01*
X160083Y270670D01*
X160080Y270667D01*
X160076Y270664D01*
X159954Y270511D01*
X159829Y270357D01*
X159827Y270353D01*
X159824Y270350D01*
X159733Y270175D01*
X159642Y270001D01*
X159641Y269997D01*
X159639Y269993D01*
X159584Y269803D01*
X159529Y269614D01*
X159528Y269610D01*
X159527Y269606D01*
X159511Y269407D01*
X159494Y269213D01*
X159495Y269209D01*
X159494Y269204D01*
X159517Y269007D01*
X159539Y268813D01*
X159541Y268809D01*
X159541Y268805D01*
X159603Y268616D01*
X159662Y268430D01*
X159665Y268426D01*
X159666Y268422D01*
X159763Y268249D01*
X159859Y268078D01*
X159862Y268075D01*
X159864Y268071D01*
X159992Y267922D01*
X160121Y267773D01*
X160124Y267770D01*
X160127Y267766D01*
X160279Y267648D01*
X160438Y267524D01*
X160442Y267522D01*
X160445Y267520D01*
X160620Y267433D01*
X160797Y267344D01*
X160802Y267342D01*
X160806Y267340D01*
X160999Y267289D01*
X161186Y267237D01*
X161190Y267237D01*
X161194Y267236D01*
X161525Y267209D01*
X335191Y267209D01*
X335204Y267210D01*
X335217Y267209D01*
X335403Y267230D01*
X335591Y267249D01*
X335604Y267253D01*
X335617Y267254D01*
X335796Y267312D01*
X335976Y267367D01*
X335988Y267373D01*
X336001Y267377D01*
X336165Y267469D01*
X336330Y267559D01*
X336340Y267567D01*
X336352Y267574D01*
X336495Y267696D01*
X336639Y267816D01*
X336648Y267827D01*
X336658Y267835D01*
X336774Y267984D01*
X336892Y268130D01*
X336898Y268142D01*
X336906Y268152D01*
X336991Y268321D01*
X337077Y268487D01*
X337081Y268500D01*
X337087Y268512D01*
X337137Y268693D01*
X337189Y268874D01*
X337190Y268888D01*
X337193Y268901D01*
X337206Y269089D01*
X337221Y269276D01*
X337220Y269289D01*
X337221Y269302D01*
X337196Y269490D01*
X337175Y269675D01*
X337170Y269688D01*
X337169Y269701D01*
X337067Y270017D01*
X335279Y274334D01*
X335279Y279386D01*
X337213Y284054D01*
X340786Y287627D01*
X343131Y288598D01*
X343131Y288599D01*
X345454Y289561D01*
X350506Y289561D01*
X355174Y287627D01*
X358747Y284054D01*
X358803Y283919D01*
X358808Y283911D01*
X358810Y283902D01*
X358902Y283734D01*
X358994Y283564D01*
X358999Y283557D01*
X359004Y283549D01*
X359127Y283402D01*
X359250Y283253D01*
X359257Y283248D01*
X359263Y283241D01*
X359412Y283122D01*
X359563Y283000D01*
X359571Y282995D01*
X359578Y282990D01*
X359747Y282903D01*
X359919Y282813D01*
X359928Y282810D01*
X359936Y282806D01*
X360121Y282754D01*
X360306Y282700D01*
X360314Y282699D01*
X360323Y282696D01*
X360516Y282681D01*
X360707Y282665D01*
X360716Y282666D01*
X360725Y282665D01*
X360916Y282689D01*
X361107Y282710D01*
X361115Y282713D01*
X361124Y282714D01*
X361308Y282775D01*
X361490Y282833D01*
X361498Y282838D01*
X361506Y282840D01*
X361673Y282936D01*
X361842Y283030D01*
X361848Y283036D01*
X361856Y283040D01*
X361999Y283165D01*
X362147Y283291D01*
X362153Y283299D01*
X362160Y283304D01*
X362276Y283456D01*
X362396Y283609D01*
X362400Y283617D01*
X362405Y283624D01*
X362557Y283919D01*
X362613Y284054D01*
X364656Y286098D01*
X364673Y286119D01*
X364694Y286136D01*
X364801Y286274D01*
X364911Y286409D01*
X364924Y286433D01*
X364940Y286454D01*
X365018Y286611D01*
X365100Y286765D01*
X365108Y286791D01*
X365120Y286815D01*
X365165Y286984D01*
X365215Y287151D01*
X365217Y287178D01*
X365224Y287203D01*
X365251Y287534D01*
X365251Y310469D01*
X365249Y310496D01*
X365251Y310522D01*
X365229Y310696D01*
X365211Y310870D01*
X365204Y310895D01*
X365200Y310922D01*
X365145Y311087D01*
X365093Y311255D01*
X365080Y311278D01*
X365072Y311303D01*
X364985Y311455D01*
X364901Y311609D01*
X364884Y311629D01*
X364871Y311652D01*
X364656Y311905D01*
X361752Y314810D01*
X359663Y319852D01*
X359663Y340548D01*
X361752Y345590D01*
X365610Y349448D01*
X370652Y351537D01*
X376108Y351537D01*
X381150Y349448D01*
X385008Y345590D01*
X386159Y342811D01*
X386221Y342696D01*
X386275Y342577D01*
X386316Y342519D01*
X386350Y342457D01*
X386433Y342356D01*
X386509Y342249D01*
X386561Y342201D01*
X386606Y342146D01*
X386708Y342064D01*
X386803Y341975D01*
X386864Y341937D01*
X386919Y341893D01*
X387034Y341832D01*
X387146Y341763D01*
X387212Y341738D01*
X387275Y341705D01*
X387401Y341669D01*
X387523Y341623D01*
X387593Y341612D01*
X387662Y341592D01*
X387792Y341581D01*
X387921Y341561D01*
X387992Y341564D01*
X388063Y341558D01*
X388192Y341572D01*
X388323Y341578D01*
X388392Y341595D01*
X388463Y341603D01*
X388587Y341643D01*
X388714Y341674D01*
X388778Y341704D01*
X388846Y341726D01*
X388960Y341790D01*
X389079Y341845D01*
X389136Y341888D01*
X389198Y341922D01*
X389297Y342007D01*
X389402Y342085D01*
X389449Y342138D01*
X389503Y342184D01*
X389584Y342287D01*
X389672Y342384D01*
X389715Y342454D01*
X389752Y342501D01*
X389786Y342569D01*
X389846Y342667D01*
X390090Y343145D01*
X391030Y344439D01*
X392161Y345570D01*
X393455Y346510D01*
X394880Y347236D01*
X396241Y347679D01*
X396241Y330708D01*
X396242Y330690D01*
X396241Y330673D01*
X396262Y330490D01*
X396281Y330308D01*
X396286Y330291D01*
X396288Y330273D01*
X396313Y330195D01*
X396274Y330058D01*
X396272Y330040D01*
X396268Y330023D01*
X396241Y329692D01*
X396241Y312721D01*
X394880Y313164D01*
X393455Y313890D01*
X392161Y314830D01*
X391030Y315961D01*
X390090Y317255D01*
X389846Y317733D01*
X389775Y317844D01*
X389712Y317958D01*
X389667Y318012D01*
X389628Y318072D01*
X389537Y318166D01*
X389453Y318266D01*
X389398Y318311D01*
X389348Y318362D01*
X389241Y318436D01*
X389139Y318517D01*
X389075Y318550D01*
X389017Y318590D01*
X388897Y318641D01*
X388780Y318701D01*
X388712Y318720D01*
X388647Y318748D01*
X388519Y318775D01*
X388393Y318811D01*
X388322Y318816D01*
X388253Y318831D01*
X388122Y318832D01*
X387992Y318842D01*
X387921Y318833D01*
X387850Y318834D01*
X387722Y318809D01*
X387592Y318793D01*
X387524Y318771D01*
X387455Y318758D01*
X387334Y318708D01*
X387210Y318667D01*
X387148Y318632D01*
X387082Y318605D01*
X386973Y318532D01*
X386860Y318467D01*
X386806Y318421D01*
X386747Y318381D01*
X386655Y318289D01*
X386556Y318203D01*
X386513Y318147D01*
X386463Y318096D01*
X386391Y317987D01*
X386311Y317884D01*
X386273Y317811D01*
X386240Y317761D01*
X386212Y317690D01*
X386159Y317589D01*
X385008Y314810D01*
X382104Y311905D01*
X382087Y311885D01*
X382066Y311867D01*
X381959Y311729D01*
X381849Y311594D01*
X381836Y311570D01*
X381820Y311549D01*
X381742Y311392D01*
X381660Y311238D01*
X381652Y311213D01*
X381640Y311188D01*
X381595Y311019D01*
X381545Y310852D01*
X381543Y310826D01*
X381536Y310800D01*
X381509Y310469D01*
X381509Y287534D01*
X381511Y287508D01*
X381509Y287481D01*
X381531Y287307D01*
X381549Y287134D01*
X381556Y287108D01*
X381560Y287081D01*
X381615Y286916D01*
X381667Y286749D01*
X381680Y286725D01*
X381688Y286700D01*
X381775Y286548D01*
X381859Y286395D01*
X381876Y286374D01*
X381889Y286351D01*
X382104Y286098D01*
X384147Y284054D01*
X384203Y283919D01*
X384208Y283911D01*
X384210Y283902D01*
X384303Y283733D01*
X384393Y283564D01*
X384399Y283557D01*
X384403Y283549D01*
X384527Y283402D01*
X384650Y283253D01*
X384657Y283248D01*
X384663Y283241D01*
X384813Y283121D01*
X384963Y283000D01*
X384970Y282996D01*
X384977Y282990D01*
X385149Y282902D01*
X385319Y282813D01*
X385328Y282810D01*
X385336Y282806D01*
X385521Y282754D01*
X385705Y282700D01*
X385714Y282699D01*
X385723Y282696D01*
X385915Y282681D01*
X386107Y282665D01*
X386115Y282666D01*
X386124Y282665D01*
X386316Y282689D01*
X386507Y282710D01*
X386515Y282713D01*
X386524Y282714D01*
X386707Y282774D01*
X386890Y282833D01*
X386898Y282838D01*
X386906Y282840D01*
X387072Y282935D01*
X387241Y283030D01*
X387248Y283036D01*
X387256Y283040D01*
X387400Y283165D01*
X387547Y283291D01*
X387553Y283298D01*
X387560Y283304D01*
X387677Y283457D01*
X387796Y283608D01*
X387799Y283616D01*
X387805Y283624D01*
X387957Y283919D01*
X388013Y284054D01*
X391586Y287627D01*
X393578Y288452D01*
X393606Y288467D01*
X393635Y288477D01*
X393783Y288562D01*
X393933Y288643D01*
X393957Y288662D01*
X393984Y288678D01*
X394237Y288893D01*
X401795Y296451D01*
X404783Y297689D01*
X448657Y297689D01*
X451645Y296451D01*
X457940Y290156D01*
X457961Y290139D01*
X457978Y290118D01*
X458116Y290011D01*
X458252Y289901D01*
X458275Y289888D01*
X458296Y289872D01*
X458453Y289794D01*
X458607Y289712D01*
X458633Y289704D01*
X458657Y289692D01*
X458826Y289647D01*
X458993Y289597D01*
X459020Y289595D01*
X459046Y289588D01*
X459376Y289561D01*
X467541Y289561D01*
X471518Y285584D01*
X471539Y285567D01*
X471556Y285546D01*
X471694Y285439D01*
X471829Y285329D01*
X471853Y285316D01*
X471874Y285300D01*
X472031Y285222D01*
X472185Y285140D01*
X472211Y285132D01*
X472235Y285120D01*
X472404Y285075D01*
X472571Y285025D01*
X472598Y285023D01*
X472623Y285016D01*
X472954Y284989D01*
X514561Y284989D01*
X514583Y284991D01*
X514605Y284989D01*
X514783Y285011D01*
X514961Y285029D01*
X514983Y285035D01*
X515005Y285038D01*
X515175Y285094D01*
X515346Y285147D01*
X515366Y285157D01*
X515387Y285164D01*
X515543Y285253D01*
X515700Y285339D01*
X515717Y285353D01*
X515737Y285364D01*
X515873Y285482D01*
X516010Y285596D01*
X516023Y285614D01*
X516040Y285628D01*
X516150Y285770D01*
X516262Y285910D01*
X516272Y285930D01*
X516286Y285948D01*
X516437Y286243D01*
X516793Y287102D01*
X520618Y290927D01*
X525615Y292997D01*
X531025Y292997D01*
X536022Y290927D01*
X539847Y287102D01*
X541917Y282105D01*
X541917Y276695D01*
X539847Y271698D01*
X536022Y267873D01*
X531352Y265939D01*
X531351Y265939D01*
X531025Y265803D01*
X525615Y265803D01*
X520618Y267873D01*
X520355Y268136D01*
X520334Y268153D01*
X520317Y268174D01*
X520179Y268281D01*
X520043Y268391D01*
X520020Y268404D01*
X519999Y268420D01*
X519842Y268498D01*
X519688Y268580D01*
X519662Y268588D01*
X519638Y268600D01*
X519469Y268645D01*
X519302Y268695D01*
X519275Y268697D01*
X519249Y268704D01*
X518919Y268731D01*
X472954Y268731D01*
X472928Y268729D01*
X472901Y268731D01*
X472727Y268709D01*
X472554Y268691D01*
X472528Y268684D01*
X472501Y268680D01*
X472336Y268624D01*
X472169Y268573D01*
X472145Y268560D01*
X472120Y268552D01*
X471968Y268465D01*
X471815Y268381D01*
X471794Y268364D01*
X471771Y268351D01*
X471518Y268136D01*
X467541Y264159D01*
X457019Y264159D01*
X449579Y271599D01*
X449579Y274684D01*
X449577Y274710D01*
X449579Y274737D01*
X449557Y274911D01*
X449539Y275084D01*
X449532Y275110D01*
X449528Y275136D01*
X449473Y275302D01*
X449421Y275469D01*
X449408Y275493D01*
X449400Y275518D01*
X449313Y275670D01*
X449229Y275823D01*
X449212Y275844D01*
X449199Y275867D01*
X448984Y276120D01*
X444268Y280836D01*
X444247Y280853D01*
X444230Y280874D01*
X444092Y280981D01*
X443956Y281091D01*
X443933Y281104D01*
X443912Y281120D01*
X443755Y281198D01*
X443601Y281280D01*
X443575Y281288D01*
X443551Y281300D01*
X443382Y281345D01*
X443215Y281395D01*
X443188Y281397D01*
X443162Y281404D01*
X442832Y281431D01*
X438912Y281431D01*
X438894Y281429D01*
X438876Y281431D01*
X438694Y281410D01*
X438511Y281391D01*
X438494Y281386D01*
X438477Y281384D01*
X438302Y281327D01*
X438126Y281273D01*
X438111Y281265D01*
X438094Y281259D01*
X437934Y281169D01*
X437772Y281081D01*
X437759Y281070D01*
X437743Y281061D01*
X437604Y280941D01*
X437463Y280824D01*
X437452Y280810D01*
X437438Y280798D01*
X437326Y280653D01*
X437211Y280510D01*
X437203Y280494D01*
X437192Y280480D01*
X437110Y280315D01*
X437025Y280153D01*
X437020Y280136D01*
X437012Y280120D01*
X436965Y279941D01*
X436914Y279766D01*
X436912Y279748D01*
X436908Y279731D01*
X436881Y279400D01*
X436881Y274334D01*
X434947Y269666D01*
X431374Y266093D01*
X431002Y265939D01*
X426706Y264159D01*
X421654Y264159D01*
X416986Y266093D01*
X413413Y269666D01*
X413357Y269801D01*
X413352Y269809D01*
X413350Y269818D01*
X413258Y269985D01*
X413167Y270156D01*
X413161Y270163D01*
X413156Y270171D01*
X413033Y270317D01*
X412910Y270467D01*
X412903Y270472D01*
X412897Y270479D01*
X412747Y270599D01*
X412598Y270720D01*
X412590Y270724D01*
X412583Y270730D01*
X412413Y270817D01*
X412241Y270907D01*
X412232Y270910D01*
X412224Y270914D01*
X412041Y270966D01*
X411855Y271020D01*
X411846Y271021D01*
X411837Y271024D01*
X411646Y271038D01*
X411453Y271055D01*
X411445Y271054D01*
X411436Y271055D01*
X411245Y271032D01*
X411053Y271010D01*
X411045Y271007D01*
X411036Y271006D01*
X410854Y270946D01*
X410670Y270887D01*
X410662Y270882D01*
X410654Y270880D01*
X410486Y270784D01*
X410319Y270690D01*
X410312Y270685D01*
X410304Y270680D01*
X410158Y270553D01*
X410013Y270429D01*
X410007Y270422D01*
X410000Y270416D01*
X409883Y270263D01*
X409764Y270112D01*
X409760Y270104D01*
X409755Y270096D01*
X409603Y269801D01*
X409547Y269666D01*
X405974Y266093D01*
X405602Y265939D01*
X401306Y264159D01*
X396254Y264159D01*
X391586Y266093D01*
X388013Y269666D01*
X387957Y269801D01*
X387952Y269809D01*
X387950Y269818D01*
X387858Y269986D01*
X387766Y270156D01*
X387761Y270163D01*
X387756Y270171D01*
X387633Y270317D01*
X387510Y270467D01*
X387503Y270472D01*
X387497Y270479D01*
X387348Y270598D01*
X387197Y270720D01*
X387189Y270725D01*
X387182Y270730D01*
X387013Y270817D01*
X386841Y270907D01*
X386832Y270910D01*
X386824Y270914D01*
X386639Y270966D01*
X386454Y271020D01*
X386446Y271021D01*
X386437Y271024D01*
X386244Y271039D01*
X386053Y271055D01*
X386044Y271054D01*
X386035Y271055D01*
X385844Y271031D01*
X385653Y271010D01*
X385645Y271007D01*
X385636Y271006D01*
X385452Y270945D01*
X385270Y270887D01*
X385262Y270882D01*
X385254Y270880D01*
X385087Y270784D01*
X384918Y270690D01*
X384912Y270684D01*
X384904Y270680D01*
X384761Y270555D01*
X384613Y270429D01*
X384607Y270421D01*
X384600Y270416D01*
X384484Y270264D01*
X384364Y270111D01*
X384360Y270103D01*
X384355Y270096D01*
X384203Y269801D01*
X384147Y269666D01*
X380574Y266093D01*
X380223Y265947D01*
X380203Y265937D01*
X380182Y265930D01*
X380026Y265842D01*
X379868Y265757D01*
X379851Y265743D01*
X379831Y265732D01*
X379696Y265615D01*
X379557Y265501D01*
X379543Y265483D01*
X379526Y265469D01*
X379417Y265327D01*
X379304Y265188D01*
X379293Y265168D01*
X379280Y265151D01*
X379200Y264990D01*
X379117Y264831D01*
X379110Y264810D01*
X379100Y264790D01*
X379054Y264616D01*
X379004Y264445D01*
X379003Y264433D01*
X379002Y264431D01*
X379001Y264421D01*
X378996Y264401D01*
X378969Y264071D01*
X378969Y248920D01*
X378971Y248902D01*
X378969Y248884D01*
X378990Y248702D01*
X379009Y248519D01*
X379014Y248502D01*
X379016Y248485D01*
X379073Y248310D01*
X379127Y248134D01*
X379135Y248119D01*
X379141Y248102D01*
X379231Y247942D01*
X379319Y247780D01*
X379330Y247767D01*
X379339Y247751D01*
X379459Y247612D01*
X379576Y247471D01*
X379590Y247460D01*
X379602Y247446D01*
X379747Y247334D01*
X379890Y247219D01*
X379906Y247211D01*
X379920Y247200D01*
X380085Y247118D01*
X380247Y247033D01*
X380264Y247028D01*
X380280Y247020D01*
X380459Y246973D01*
X380634Y246922D01*
X380652Y246920D01*
X380669Y246916D01*
X381000Y246889D01*
X574912Y246889D01*
X574938Y246891D01*
X574965Y246889D01*
X575139Y246911D01*
X575312Y246929D01*
X575338Y246936D01*
X575364Y246940D01*
X575530Y246995D01*
X575697Y247047D01*
X575721Y247060D01*
X575746Y247068D01*
X575898Y247155D01*
X576051Y247239D01*
X576072Y247256D01*
X576095Y247269D01*
X576348Y247484D01*
X616116Y287252D01*
X616133Y287273D01*
X616154Y287290D01*
X616261Y287428D01*
X616371Y287564D01*
X616384Y287587D01*
X616400Y287608D01*
X616478Y287765D01*
X616560Y287919D01*
X616568Y287945D01*
X616580Y287969D01*
X616625Y288138D01*
X616675Y288305D01*
X616677Y288332D01*
X616684Y288358D01*
X616711Y288688D01*
X616711Y296257D01*
X617949Y299245D01*
X625967Y307263D01*
X628955Y308501D01*
X629817Y308501D01*
X629909Y308510D01*
X630003Y308509D01*
X630109Y308530D01*
X630217Y308541D01*
X630306Y308568D01*
X630398Y308586D01*
X630499Y308627D01*
X630602Y308659D01*
X630684Y308703D01*
X630770Y308739D01*
X630861Y308799D01*
X630956Y308851D01*
X631028Y308910D01*
X631105Y308962D01*
X631182Y309039D01*
X631266Y309108D01*
X631324Y309181D01*
X631390Y309247D01*
X631450Y309338D01*
X631518Y309422D01*
X631561Y309505D01*
X631612Y309582D01*
X631653Y309683D01*
X631703Y309779D01*
X631729Y309869D01*
X631764Y309955D01*
X631785Y310062D01*
X631815Y310166D01*
X631822Y310259D01*
X631840Y310351D01*
X631839Y310459D01*
X631848Y310568D01*
X631837Y310660D01*
X631836Y310753D01*
X631813Y310860D01*
X631801Y310967D01*
X631772Y311056D01*
X631753Y311147D01*
X631702Y311271D01*
X631676Y311350D01*
X631652Y311393D01*
X631627Y311454D01*
X630848Y312982D01*
X630364Y314471D01*
X640362Y314471D01*
X640380Y314472D01*
X640397Y314471D01*
X640580Y314492D01*
X640762Y314511D01*
X640779Y314516D01*
X640797Y314518D01*
X640972Y314575D01*
X641147Y314629D01*
X641163Y314637D01*
X641180Y314643D01*
X641340Y314733D01*
X641501Y314820D01*
X641515Y314832D01*
X641531Y314841D01*
X641670Y314961D01*
X641811Y315078D01*
X641822Y315092D01*
X641835Y315104D01*
X641948Y315249D01*
X642063Y315392D01*
X642071Y315408D01*
X642082Y315422D01*
X642164Y315587D01*
X642248Y315749D01*
X642253Y315766D01*
X642261Y315782D01*
X642309Y315961D01*
X642360Y316136D01*
X642361Y316154D01*
X642366Y316171D01*
X642393Y316502D01*
X642393Y317938D01*
X642391Y317956D01*
X642393Y317974D01*
X642371Y318156D01*
X642353Y318339D01*
X642348Y318356D01*
X642346Y318373D01*
X642289Y318548D01*
X642235Y318724D01*
X642227Y318739D01*
X642221Y318756D01*
X642131Y318916D01*
X642043Y319078D01*
X642032Y319091D01*
X642023Y319107D01*
X641903Y319246D01*
X641785Y319387D01*
X641772Y319398D01*
X641760Y319412D01*
X641615Y319524D01*
X641472Y319639D01*
X641456Y319647D01*
X641442Y319658D01*
X641277Y319740D01*
X641114Y319825D01*
X641097Y319830D01*
X641081Y319838D01*
X640903Y319885D01*
X640728Y319936D01*
X640710Y319938D01*
X640693Y319942D01*
X640362Y319969D01*
X630364Y319969D01*
X630848Y321458D01*
X631637Y323007D01*
X632305Y323926D01*
X632331Y323970D01*
X632363Y324010D01*
X632432Y324144D01*
X632508Y324274D01*
X632525Y324322D01*
X632549Y324367D01*
X632590Y324512D01*
X632639Y324654D01*
X632646Y324705D01*
X632660Y324754D01*
X632672Y324905D01*
X632692Y325054D01*
X632689Y325105D01*
X632693Y325156D01*
X632675Y325305D01*
X632665Y325455D01*
X632652Y325505D01*
X632646Y325555D01*
X632599Y325699D01*
X632560Y325844D01*
X632537Y325889D01*
X632521Y325938D01*
X632447Y326070D01*
X632380Y326204D01*
X632348Y326244D01*
X632323Y326289D01*
X632225Y326403D01*
X632132Y326521D01*
X632093Y326555D01*
X632060Y326594D01*
X631941Y326686D01*
X631827Y326784D01*
X631782Y326809D01*
X631742Y326840D01*
X631607Y326907D01*
X631476Y326981D01*
X631427Y326997D01*
X631381Y327020D01*
X631236Y327059D01*
X631093Y327105D01*
X631042Y327111D01*
X630993Y327124D01*
X630762Y327143D01*
X630693Y327151D01*
X630679Y327150D01*
X630662Y327151D01*
X613063Y327151D01*
X610075Y328389D01*
X602661Y335803D01*
X602594Y335928D01*
X602585Y335939D01*
X602579Y335951D01*
X602457Y336094D01*
X602338Y336239D01*
X602327Y336247D01*
X602318Y336258D01*
X602171Y336374D01*
X602025Y336493D01*
X602013Y336499D01*
X602002Y336507D01*
X601836Y336592D01*
X601668Y336680D01*
X601655Y336684D01*
X601644Y336690D01*
X601463Y336740D01*
X601282Y336793D01*
X601269Y336794D01*
X601256Y336798D01*
X601067Y336811D01*
X600881Y336827D01*
X600868Y336826D01*
X600854Y336827D01*
X600666Y336803D01*
X600481Y336782D01*
X600468Y336778D01*
X600455Y336777D01*
X600277Y336717D01*
X600098Y336659D01*
X600086Y336653D01*
X600073Y336648D01*
X599910Y336555D01*
X599746Y336463D01*
X599736Y336454D01*
X599724Y336447D01*
X599631Y336369D01*
X594548Y334263D01*
X573852Y334263D01*
X568810Y336352D01*
X564952Y340210D01*
X562863Y345252D01*
X562863Y350708D01*
X564952Y355750D01*
X568445Y359244D01*
X568457Y359257D01*
X568470Y359269D01*
X568584Y359413D01*
X568700Y359555D01*
X568709Y359571D01*
X568720Y359585D01*
X568803Y359749D01*
X568889Y359911D01*
X568894Y359928D01*
X568902Y359944D01*
X568952Y360121D01*
X569004Y360297D01*
X569005Y360315D01*
X569010Y360332D01*
X569024Y360515D01*
X569040Y360698D01*
X569038Y360716D01*
X569040Y360733D01*
X569017Y360915D01*
X568997Y361098D01*
X568991Y361115D01*
X568989Y361133D01*
X568931Y361306D01*
X568875Y361482D01*
X568867Y361498D01*
X568861Y361514D01*
X568769Y361674D01*
X568680Y361834D01*
X568669Y361848D01*
X568660Y361863D01*
X568445Y362116D01*
X564952Y365610D01*
X562863Y370652D01*
X562863Y376108D01*
X564952Y381150D01*
X568810Y385008D01*
X571589Y386159D01*
X571704Y386221D01*
X571823Y386275D01*
X571881Y386316D01*
X571943Y386350D01*
X572044Y386433D01*
X572151Y386509D01*
X572199Y386561D01*
X572254Y386606D01*
X572336Y386708D01*
X572426Y386803D01*
X572463Y386863D01*
X572508Y386919D01*
X572568Y387034D01*
X572637Y387146D01*
X572662Y387212D01*
X572695Y387275D01*
X572731Y387401D01*
X572777Y387523D01*
X572788Y387593D01*
X572808Y387662D01*
X572819Y387792D01*
X572839Y387921D01*
X572836Y387992D01*
X572842Y388063D01*
X572828Y388192D01*
X572822Y388323D01*
X572805Y388392D01*
X572797Y388463D01*
X572757Y388587D01*
X572726Y388714D01*
X572696Y388778D01*
X572674Y388846D01*
X572610Y388960D01*
X572555Y389079D01*
X572512Y389136D01*
X572478Y389198D01*
X572393Y389297D01*
X572315Y389402D01*
X572262Y389449D01*
X572216Y389503D01*
X572113Y389584D01*
X572016Y389672D01*
X571946Y389715D01*
X571899Y389752D01*
X571831Y389786D01*
X571733Y389846D01*
X571255Y390090D01*
X569961Y391030D01*
X568830Y392161D01*
X567890Y393455D01*
X567164Y394880D01*
X566721Y396241D01*
X583692Y396241D01*
X583710Y396242D01*
X583727Y396241D01*
X583910Y396262D01*
X584092Y396281D01*
X584109Y396286D01*
X584127Y396288D01*
X584205Y396313D01*
X584342Y396274D01*
X584360Y396272D01*
X584377Y396268D01*
X584708Y396241D01*
X601679Y396241D01*
X601236Y394880D01*
X600510Y393455D01*
X599570Y392161D01*
X598439Y391030D01*
X597145Y390090D01*
X596667Y389846D01*
X596556Y389775D01*
X596442Y389712D01*
X596388Y389667D01*
X596328Y389628D01*
X596234Y389537D01*
X596134Y389453D01*
X596089Y389398D01*
X596038Y389348D01*
X595964Y389241D01*
X595883Y389139D01*
X595850Y389075D01*
X595810Y389017D01*
X595759Y388897D01*
X595699Y388780D01*
X595680Y388712D01*
X595652Y388647D01*
X595625Y388519D01*
X595589Y388393D01*
X595584Y388322D01*
X595569Y388253D01*
X595568Y388122D01*
X595558Y387992D01*
X595567Y387921D01*
X595566Y387850D01*
X595591Y387722D01*
X595607Y387592D01*
X595629Y387524D01*
X595642Y387455D01*
X595692Y387334D01*
X595733Y387210D01*
X595768Y387148D01*
X595795Y387082D01*
X595868Y386973D01*
X595933Y386860D01*
X595979Y386806D01*
X596019Y386747D01*
X596111Y386655D01*
X596197Y386556D01*
X596253Y386513D01*
X596304Y386463D01*
X596413Y386391D01*
X596516Y386311D01*
X596589Y386273D01*
X596639Y386240D01*
X596710Y386212D01*
X596811Y386159D01*
X599590Y385008D01*
X602495Y382104D01*
X602515Y382087D01*
X602533Y382066D01*
X602671Y381959D01*
X602806Y381849D01*
X602830Y381836D01*
X602851Y381820D01*
X603008Y381742D01*
X603162Y381660D01*
X603187Y381652D01*
X603212Y381640D01*
X603381Y381595D01*
X603410Y381586D01*
X606585Y380271D01*
X616491Y370365D01*
X617729Y367377D01*
X617729Y345440D01*
X617731Y345422D01*
X617729Y345404D01*
X617750Y345222D01*
X617769Y345039D01*
X617774Y345022D01*
X617776Y345005D01*
X617833Y344830D01*
X617887Y344654D01*
X617895Y344639D01*
X617901Y344622D01*
X617991Y344462D01*
X618079Y344300D01*
X618090Y344287D01*
X618099Y344271D01*
X618219Y344132D01*
X618336Y343991D01*
X618350Y343980D01*
X618362Y343966D01*
X618507Y343854D01*
X618650Y343739D01*
X618666Y343731D01*
X618680Y343720D01*
X618845Y343638D01*
X619007Y343553D01*
X619024Y343548D01*
X619040Y343540D01*
X619219Y343493D01*
X619394Y343442D01*
X619412Y343440D01*
X619429Y343436D01*
X619760Y343409D01*
X638492Y343409D01*
X638506Y343410D01*
X638519Y343409D01*
X638705Y343430D01*
X638893Y343449D01*
X638906Y343453D01*
X638919Y343454D01*
X639098Y343512D01*
X639278Y343567D01*
X639290Y343573D01*
X639303Y343577D01*
X639467Y343669D01*
X639632Y343759D01*
X639642Y343767D01*
X639654Y343774D01*
X639797Y343896D01*
X639941Y344016D01*
X639950Y344027D01*
X639960Y344035D01*
X640076Y344183D01*
X640194Y344330D01*
X640200Y344342D01*
X640208Y344352D01*
X640293Y344521D01*
X640379Y344687D01*
X640383Y344700D01*
X640389Y344712D01*
X640439Y344894D01*
X640491Y345074D01*
X640492Y345088D01*
X640495Y345101D01*
X640508Y345288D01*
X640523Y345476D01*
X640522Y345489D01*
X640523Y345502D01*
X640498Y345690D01*
X640477Y345875D01*
X640472Y345888D01*
X640471Y345901D01*
X640369Y346217D01*
X638303Y351205D01*
X638303Y359995D01*
X641667Y368117D01*
X647883Y374333D01*
X651769Y375942D01*
X656005Y377697D01*
X664795Y377697D01*
X672917Y374333D01*
X676236Y371014D01*
X676243Y371008D01*
X676248Y371001D01*
X676398Y370881D01*
X676547Y370759D01*
X676555Y370755D01*
X676562Y370749D01*
X676732Y370660D01*
X676903Y370570D01*
X676912Y370568D01*
X676919Y370563D01*
X677104Y370510D01*
X677289Y370455D01*
X677298Y370455D01*
X677306Y370452D01*
X677497Y370436D01*
X677690Y370419D01*
X677699Y370420D01*
X677708Y370419D01*
X677897Y370441D01*
X678090Y370462D01*
X678099Y370465D01*
X678107Y370466D01*
X678289Y370525D01*
X678474Y370584D01*
X678482Y370588D01*
X678490Y370591D01*
X678659Y370686D01*
X678826Y370779D01*
X678833Y370784D01*
X678841Y370789D01*
X678987Y370915D01*
X679133Y371039D01*
X679139Y371046D01*
X679146Y371052D01*
X679263Y371203D01*
X679383Y371355D01*
X679387Y371363D01*
X679392Y371370D01*
X679478Y371542D01*
X679565Y371714D01*
X679568Y371722D01*
X679572Y371731D01*
X679622Y371917D01*
X679673Y372102D01*
X679674Y372111D01*
X679676Y372119D01*
X679703Y372450D01*
X679703Y377633D01*
X679701Y377660D01*
X679703Y377687D01*
X679681Y377860D01*
X679663Y378034D01*
X679656Y378059D01*
X679652Y378086D01*
X679597Y378252D01*
X679545Y378419D01*
X679532Y378442D01*
X679524Y378468D01*
X679437Y378619D01*
X679353Y378773D01*
X679336Y378793D01*
X679323Y378817D01*
X679108Y379070D01*
X655231Y402946D01*
X654303Y405187D01*
X654303Y508000D01*
X654297Y508066D01*
X654297Y508159D01*
X654084Y510861D01*
X654071Y510934D01*
X654068Y511007D01*
X654029Y511172D01*
X654013Y511258D01*
X654001Y511288D01*
X653991Y511330D01*
X652680Y515366D01*
X652646Y515443D01*
X652621Y515524D01*
X652565Y515627D01*
X652518Y515734D01*
X652470Y515804D01*
X652429Y515878D01*
X652354Y515968D01*
X652287Y516064D01*
X652226Y516122D01*
X652172Y516187D01*
X652080Y516260D01*
X651995Y516341D01*
X651924Y516386D01*
X651858Y516439D01*
X651754Y516493D01*
X651654Y516556D01*
X651575Y516586D01*
X651501Y516625D01*
X651388Y516657D01*
X651278Y516699D01*
X651195Y516713D01*
X651114Y516736D01*
X650997Y516746D01*
X650881Y516765D01*
X650796Y516762D01*
X650712Y516769D01*
X650596Y516755D01*
X650478Y516751D01*
X650396Y516732D01*
X650313Y516722D01*
X650201Y516686D01*
X650087Y516659D01*
X650010Y516623D01*
X649930Y516597D01*
X649827Y516539D01*
X649721Y516490D01*
X649653Y516441D01*
X649579Y516399D01*
X649490Y516323D01*
X649395Y516253D01*
X649338Y516191D01*
X649274Y516136D01*
X649203Y516044D01*
X649123Y515957D01*
X649079Y515885D01*
X649028Y515818D01*
X648975Y515713D01*
X648915Y515612D01*
X648886Y515533D01*
X648848Y515458D01*
X648818Y515344D01*
X648778Y515234D01*
X648766Y515150D01*
X648744Y515069D01*
X648732Y514920D01*
X648719Y514835D01*
X648721Y514793D01*
X648717Y514738D01*
X648717Y497652D01*
X646628Y492610D01*
X642770Y488752D01*
X637728Y486663D01*
X632272Y486663D01*
X632088Y486739D01*
X632067Y486746D01*
X632047Y486756D01*
X631874Y486804D01*
X631703Y486856D01*
X631681Y486858D01*
X631659Y486864D01*
X631480Y486877D01*
X631302Y486894D01*
X631280Y486891D01*
X631258Y486893D01*
X631079Y486871D01*
X630902Y486852D01*
X630880Y486846D01*
X630858Y486843D01*
X630688Y486785D01*
X630517Y486732D01*
X630498Y486722D01*
X630477Y486715D01*
X630322Y486625D01*
X630164Y486539D01*
X630147Y486525D01*
X630128Y486514D01*
X629875Y486299D01*
X628484Y484908D01*
X628467Y484887D01*
X628446Y484870D01*
X628339Y484732D01*
X628229Y484596D01*
X628216Y484573D01*
X628200Y484552D01*
X628122Y484395D01*
X628040Y484241D01*
X628032Y484215D01*
X628020Y484191D01*
X627975Y484022D01*
X627925Y483855D01*
X627923Y483828D01*
X627916Y483802D01*
X627889Y483472D01*
X627889Y440343D01*
X626651Y437355D01*
X624079Y434783D01*
X619285Y429989D01*
X616297Y428751D01*
X607568Y428751D01*
X607550Y428749D01*
X607532Y428751D01*
X607350Y428730D01*
X607167Y428711D01*
X607150Y428706D01*
X607133Y428704D01*
X606958Y428647D01*
X606782Y428593D01*
X606767Y428585D01*
X606750Y428579D01*
X606590Y428489D01*
X606428Y428401D01*
X606415Y428390D01*
X606399Y428381D01*
X606260Y428261D01*
X606119Y428144D01*
X606108Y428130D01*
X606094Y428118D01*
X605982Y427973D01*
X605867Y427830D01*
X605859Y427814D01*
X605848Y427800D01*
X605766Y427635D01*
X605681Y427473D01*
X605676Y427456D01*
X605668Y427440D01*
X605621Y427261D01*
X605570Y427086D01*
X605568Y427068D01*
X605564Y427051D01*
X605537Y426720D01*
X605537Y421452D01*
X603448Y416410D01*
X599590Y412552D01*
X598714Y412189D01*
X596811Y411401D01*
X596696Y411339D01*
X596577Y411285D01*
X596519Y411244D01*
X596457Y411211D01*
X596356Y411127D01*
X596249Y411051D01*
X596201Y410999D01*
X596146Y410954D01*
X596064Y410853D01*
X595975Y410757D01*
X595937Y410697D01*
X595892Y410641D01*
X595832Y410526D01*
X595763Y410414D01*
X595738Y410348D01*
X595705Y410285D01*
X595669Y410160D01*
X595623Y410037D01*
X595612Y409967D01*
X595592Y409899D01*
X595581Y409768D01*
X595561Y409639D01*
X595564Y409568D01*
X595558Y409497D01*
X595572Y409368D01*
X595578Y409237D01*
X595595Y409168D01*
X595603Y409097D01*
X595643Y408973D01*
X595674Y408846D01*
X595704Y408782D01*
X595726Y408714D01*
X595790Y408600D01*
X595845Y408482D01*
X595888Y408425D01*
X595922Y408363D01*
X596007Y408263D01*
X596085Y408158D01*
X596138Y408111D01*
X596184Y408057D01*
X596287Y407976D01*
X596384Y407888D01*
X596454Y407845D01*
X596501Y407808D01*
X596569Y407774D01*
X596667Y407714D01*
X597145Y407470D01*
X598439Y406530D01*
X599570Y405399D01*
X600510Y404105D01*
X601236Y402680D01*
X601679Y401319D01*
X584708Y401319D01*
X584690Y401317D01*
X584673Y401319D01*
X584490Y401298D01*
X584308Y401279D01*
X584291Y401274D01*
X584273Y401272D01*
X584195Y401247D01*
X584058Y401286D01*
X584040Y401288D01*
X584023Y401292D01*
X583692Y401319D01*
X566721Y401319D01*
X567164Y402680D01*
X567890Y404105D01*
X568830Y405399D01*
X569961Y406530D01*
X571255Y407470D01*
X571733Y407714D01*
X571843Y407785D01*
X571958Y407848D01*
X572012Y407893D01*
X572072Y407932D01*
X572166Y408023D01*
X572266Y408107D01*
X572311Y408162D01*
X572362Y408212D01*
X572436Y408319D01*
X572517Y408422D01*
X572550Y408485D01*
X572590Y408543D01*
X572641Y408663D01*
X572701Y408780D01*
X572721Y408848D01*
X572748Y408913D01*
X572775Y409041D01*
X572811Y409167D01*
X572816Y409238D01*
X572831Y409307D01*
X572832Y409438D01*
X572842Y409568D01*
X572833Y409639D01*
X572834Y409710D01*
X572809Y409838D01*
X572793Y409968D01*
X572771Y410035D01*
X572758Y410105D01*
X572708Y410226D01*
X572667Y410350D01*
X572632Y410412D01*
X572605Y410478D01*
X572532Y410586D01*
X572467Y410700D01*
X572421Y410754D01*
X572381Y410813D01*
X572289Y410905D01*
X572203Y411004D01*
X572147Y411047D01*
X572096Y411097D01*
X571987Y411169D01*
X571884Y411249D01*
X571811Y411287D01*
X571761Y411320D01*
X571690Y411348D01*
X571589Y411401D01*
X568810Y412552D01*
X564952Y416410D01*
X562863Y421452D01*
X562863Y426908D01*
X564952Y431950D01*
X568445Y435444D01*
X568457Y435457D01*
X568470Y435469D01*
X568584Y435613D01*
X568700Y435755D01*
X568709Y435771D01*
X568720Y435785D01*
X568803Y435949D01*
X568889Y436111D01*
X568894Y436128D01*
X568902Y436144D01*
X568952Y436321D01*
X569004Y436497D01*
X569005Y436515D01*
X569010Y436532D01*
X569024Y436715D01*
X569040Y436898D01*
X569038Y436916D01*
X569040Y436933D01*
X569017Y437115D01*
X568997Y437298D01*
X568991Y437315D01*
X568989Y437333D01*
X568931Y437506D01*
X568875Y437682D01*
X568867Y437698D01*
X568861Y437714D01*
X568769Y437874D01*
X568680Y438034D01*
X568669Y438048D01*
X568660Y438063D01*
X568445Y438316D01*
X564952Y441810D01*
X562863Y446852D01*
X562863Y452308D01*
X564952Y457350D01*
X568445Y460844D01*
X568457Y460857D01*
X568470Y460869D01*
X568584Y461013D01*
X568700Y461155D01*
X568709Y461171D01*
X568720Y461185D01*
X568803Y461349D01*
X568889Y461511D01*
X568894Y461528D01*
X568902Y461544D01*
X568952Y461721D01*
X569004Y461897D01*
X569005Y461915D01*
X569010Y461932D01*
X569024Y462115D01*
X569040Y462298D01*
X569038Y462316D01*
X569040Y462333D01*
X569017Y462515D01*
X568997Y462698D01*
X568991Y462715D01*
X568989Y462733D01*
X568931Y462906D01*
X568875Y463082D01*
X568867Y463098D01*
X568861Y463114D01*
X568769Y463274D01*
X568680Y463434D01*
X568669Y463448D01*
X568660Y463463D01*
X568445Y463716D01*
X564952Y467210D01*
X562863Y472252D01*
X562863Y477708D01*
X564952Y482750D01*
X566832Y484630D01*
X566835Y484634D01*
X566838Y484636D01*
X566963Y484790D01*
X567087Y484942D01*
X567089Y484946D01*
X567092Y484949D01*
X567185Y485127D01*
X567276Y485297D01*
X567277Y485302D01*
X567279Y485306D01*
X567334Y485495D01*
X567390Y485683D01*
X567391Y485688D01*
X567392Y485692D01*
X567408Y485883D01*
X567427Y486084D01*
X567426Y486089D01*
X567427Y486093D01*
X567405Y486280D01*
X567383Y486485D01*
X567382Y486489D01*
X567381Y486493D01*
X567323Y486676D01*
X567262Y486868D01*
X567260Y486872D01*
X567258Y486877D01*
X567163Y487048D01*
X567067Y487221D01*
X567064Y487224D01*
X567062Y487228D01*
X566934Y487378D01*
X566806Y487528D01*
X566803Y487530D01*
X566800Y487534D01*
X566645Y487656D01*
X566491Y487777D01*
X566487Y487779D01*
X566483Y487782D01*
X566306Y487871D01*
X566132Y487960D01*
X566127Y487961D01*
X566123Y487963D01*
X565934Y488015D01*
X565744Y488068D01*
X565739Y488068D01*
X565735Y488069D01*
X565539Y488083D01*
X565342Y488097D01*
X565338Y488096D01*
X565333Y488097D01*
X565137Y488071D01*
X564943Y488047D01*
X564939Y488045D01*
X564934Y488045D01*
X564618Y487943D01*
X561528Y486663D01*
X556072Y486663D01*
X555888Y486739D01*
X555867Y486746D01*
X555847Y486756D01*
X555674Y486804D01*
X555503Y486856D01*
X555481Y486858D01*
X555459Y486864D01*
X555280Y486877D01*
X555102Y486894D01*
X555080Y486891D01*
X555058Y486893D01*
X554879Y486871D01*
X554702Y486852D01*
X554680Y486846D01*
X554658Y486843D01*
X554488Y486785D01*
X554317Y486732D01*
X554298Y486722D01*
X554277Y486715D01*
X554122Y486625D01*
X553964Y486539D01*
X553947Y486525D01*
X553928Y486514D01*
X553675Y486299D01*
X552284Y484908D01*
X552267Y484887D01*
X552246Y484870D01*
X552139Y484732D01*
X552029Y484596D01*
X552016Y484573D01*
X552000Y484552D01*
X551922Y484395D01*
X551840Y484241D01*
X551832Y484215D01*
X551820Y484191D01*
X551775Y484022D01*
X551725Y483855D01*
X551723Y483828D01*
X551716Y483802D01*
X551689Y483472D01*
X551689Y335668D01*
X551691Y335650D01*
X551689Y335632D01*
X551710Y335450D01*
X551729Y335267D01*
X551734Y335250D01*
X551736Y335233D01*
X551793Y335058D01*
X551847Y334882D01*
X551855Y334867D01*
X551861Y334850D01*
X551951Y334690D01*
X552039Y334528D01*
X552050Y334515D01*
X552059Y334499D01*
X552179Y334360D01*
X552296Y334219D01*
X552310Y334208D01*
X552322Y334194D01*
X552467Y334082D01*
X552610Y333967D01*
X552626Y333959D01*
X552640Y333948D01*
X552805Y333866D01*
X552967Y333781D01*
X552984Y333776D01*
X553000Y333768D01*
X553179Y333721D01*
X553354Y333670D01*
X553372Y333668D01*
X553389Y333664D01*
X553720Y333637D01*
X556425Y333637D01*
X561422Y331567D01*
X565247Y327742D01*
X567317Y322745D01*
X567317Y317335D01*
X565247Y312338D01*
X561422Y308513D01*
X556425Y306443D01*
X551015Y306443D01*
X546018Y308513D01*
X542456Y312075D01*
X542442Y312086D01*
X542431Y312100D01*
X542287Y312213D01*
X542145Y312330D01*
X542129Y312338D01*
X542115Y312350D01*
X541951Y312433D01*
X541789Y312519D01*
X541772Y312524D01*
X541756Y312532D01*
X541579Y312581D01*
X541403Y312633D01*
X541385Y312635D01*
X541368Y312640D01*
X541185Y312653D01*
X541002Y312670D01*
X540984Y312668D01*
X540967Y312669D01*
X540785Y312646D01*
X540602Y312626D01*
X540585Y312621D01*
X540567Y312619D01*
X540393Y312560D01*
X540218Y312505D01*
X540202Y312496D01*
X540186Y312491D01*
X540026Y312399D01*
X539866Y312310D01*
X539852Y312299D01*
X539837Y312290D01*
X539584Y312075D01*
X536022Y308513D01*
X531025Y306443D01*
X525615Y306443D01*
X520618Y308513D01*
X516793Y312338D01*
X515766Y314819D01*
X515761Y314827D01*
X515759Y314836D01*
X515666Y315005D01*
X515575Y315174D01*
X515570Y315181D01*
X515565Y315189D01*
X515442Y315336D01*
X515319Y315484D01*
X515312Y315490D01*
X515306Y315497D01*
X515155Y315618D01*
X515006Y315738D01*
X514998Y315742D01*
X514991Y315748D01*
X514818Y315837D01*
X514650Y315925D01*
X514641Y315928D01*
X514633Y315932D01*
X514447Y315985D01*
X514263Y316038D01*
X514254Y316039D01*
X514246Y316042D01*
X514055Y316056D01*
X513862Y316073D01*
X513853Y316072D01*
X513844Y316073D01*
X513653Y316049D01*
X513462Y316028D01*
X513454Y316025D01*
X513445Y316024D01*
X513262Y315964D01*
X513079Y315905D01*
X513071Y315900D01*
X513063Y315897D01*
X512896Y315802D01*
X512727Y315708D01*
X512721Y315702D01*
X512713Y315698D01*
X512568Y315572D01*
X512422Y315446D01*
X512416Y315439D01*
X512409Y315434D01*
X512292Y315281D01*
X512173Y315129D01*
X512169Y315121D01*
X512164Y315114D01*
X512012Y314819D01*
X512008Y314810D01*
X508150Y310952D01*
X503108Y308863D01*
X497652Y308863D01*
X492610Y310952D01*
X488752Y314810D01*
X487601Y317589D01*
X487539Y317704D01*
X487485Y317823D01*
X487444Y317881D01*
X487410Y317943D01*
X487327Y318044D01*
X487251Y318151D01*
X487199Y318199D01*
X487154Y318254D01*
X487052Y318336D01*
X486957Y318426D01*
X486897Y318463D01*
X486841Y318508D01*
X486726Y318568D01*
X486614Y318637D01*
X486548Y318662D01*
X486485Y318695D01*
X486359Y318731D01*
X486237Y318777D01*
X486167Y318788D01*
X486098Y318808D01*
X485968Y318819D01*
X485839Y318839D01*
X485768Y318836D01*
X485697Y318842D01*
X485568Y318828D01*
X485437Y318822D01*
X485368Y318805D01*
X485297Y318797D01*
X485173Y318757D01*
X485046Y318726D01*
X484982Y318696D01*
X484914Y318674D01*
X484800Y318610D01*
X484681Y318555D01*
X484624Y318512D01*
X484562Y318478D01*
X484463Y318393D01*
X484358Y318315D01*
X484311Y318262D01*
X484257Y318216D01*
X484176Y318113D01*
X484088Y318016D01*
X484045Y317946D01*
X484008Y317899D01*
X483974Y317831D01*
X483914Y317733D01*
X483670Y317255D01*
X482730Y315961D01*
X481599Y314830D01*
X480305Y313890D01*
X478880Y313164D01*
X477519Y312721D01*
X477519Y329692D01*
X477517Y329710D01*
X477519Y329727D01*
X477498Y329910D01*
X477479Y330092D01*
X477474Y330109D01*
X477472Y330127D01*
X477447Y330205D01*
X477486Y330342D01*
X477488Y330360D01*
X477492Y330377D01*
X477519Y330708D01*
X477519Y347679D01*
X478880Y347236D01*
X480305Y346510D01*
X481599Y345570D01*
X482730Y344439D01*
X483670Y343145D01*
X483914Y342667D01*
X483985Y342557D01*
X484048Y342442D01*
X484093Y342388D01*
X484132Y342328D01*
X484223Y342234D01*
X484307Y342134D01*
X484362Y342089D01*
X484412Y342038D01*
X484519Y341964D01*
X484622Y341883D01*
X484685Y341850D01*
X484743Y341810D01*
X484863Y341759D01*
X484980Y341699D01*
X485048Y341679D01*
X485113Y341652D01*
X485241Y341625D01*
X485367Y341589D01*
X485438Y341584D01*
X485507Y341569D01*
X485638Y341568D01*
X485768Y341558D01*
X485839Y341567D01*
X485910Y341566D01*
X486038Y341591D01*
X486168Y341607D01*
X486235Y341629D01*
X486305Y341642D01*
X486426Y341692D01*
X486550Y341733D01*
X486612Y341768D01*
X486678Y341795D01*
X486786Y341868D01*
X486900Y341933D01*
X486954Y341979D01*
X487013Y342019D01*
X487105Y342111D01*
X487204Y342197D01*
X487247Y342253D01*
X487297Y342304D01*
X487369Y342413D01*
X487449Y342516D01*
X487487Y342589D01*
X487520Y342639D01*
X487548Y342710D01*
X487601Y342811D01*
X488752Y345590D01*
X492610Y349448D01*
X497652Y351537D01*
X503108Y351537D01*
X508150Y349448D01*
X512008Y345590D01*
X514097Y340548D01*
X514097Y329949D01*
X514098Y329940D01*
X514097Y329931D01*
X514118Y329740D01*
X514137Y329549D01*
X514139Y329540D01*
X514140Y329531D01*
X514198Y329349D01*
X514255Y329164D01*
X514259Y329156D01*
X514262Y329147D01*
X514355Y328979D01*
X514447Y328810D01*
X514452Y328803D01*
X514457Y328795D01*
X514581Y328648D01*
X514704Y328500D01*
X514711Y328495D01*
X514717Y328488D01*
X514868Y328369D01*
X515018Y328248D01*
X515026Y328244D01*
X515033Y328238D01*
X515206Y328151D01*
X515375Y328063D01*
X515384Y328060D01*
X515392Y328056D01*
X515578Y328004D01*
X515762Y327951D01*
X515771Y327950D01*
X515780Y327948D01*
X515973Y327934D01*
X516164Y327918D01*
X516172Y327919D01*
X516181Y327919D01*
X516374Y327943D01*
X516563Y327965D01*
X516572Y327968D01*
X516581Y327969D01*
X516764Y328031D01*
X516946Y328090D01*
X516954Y328095D01*
X516962Y328097D01*
X517129Y328193D01*
X517297Y328288D01*
X517304Y328294D01*
X517311Y328298D01*
X517564Y328513D01*
X520618Y331567D01*
X524017Y332975D01*
X524037Y332985D01*
X524058Y332992D01*
X524214Y333080D01*
X524372Y333165D01*
X524389Y333179D01*
X524409Y333190D01*
X524544Y333307D01*
X524683Y333421D01*
X524697Y333439D01*
X524714Y333453D01*
X524823Y333595D01*
X524936Y333734D01*
X524947Y333754D01*
X524960Y333771D01*
X525040Y333932D01*
X525123Y334091D01*
X525130Y334112D01*
X525140Y334132D01*
X525186Y334306D01*
X525236Y334477D01*
X525238Y334499D01*
X525244Y334521D01*
X525271Y334851D01*
X525271Y472440D01*
X525269Y472458D01*
X525271Y472476D01*
X525250Y472658D01*
X525231Y472841D01*
X525226Y472858D01*
X525224Y472875D01*
X525167Y473050D01*
X525113Y473226D01*
X525105Y473241D01*
X525099Y473258D01*
X525009Y473418D01*
X524921Y473580D01*
X524910Y473593D01*
X524901Y473609D01*
X524781Y473748D01*
X524664Y473889D01*
X524650Y473900D01*
X524638Y473914D01*
X524493Y474026D01*
X524350Y474141D01*
X524334Y474149D01*
X524320Y474160D01*
X524155Y474242D01*
X523993Y474327D01*
X523976Y474332D01*
X523960Y474340D01*
X523781Y474387D01*
X523606Y474438D01*
X523588Y474440D01*
X523571Y474444D01*
X523240Y474471D01*
X514269Y474471D01*
X514256Y474470D01*
X514243Y474471D01*
X514056Y474450D01*
X513869Y474431D01*
X513856Y474427D01*
X513842Y474426D01*
X513663Y474368D01*
X513484Y474313D01*
X513472Y474307D01*
X513459Y474303D01*
X513294Y474211D01*
X513130Y474121D01*
X513119Y474113D01*
X513108Y474106D01*
X512965Y473984D01*
X512820Y473864D01*
X512812Y473853D01*
X512802Y473845D01*
X512686Y473697D01*
X512568Y473550D01*
X512562Y473538D01*
X512554Y473528D01*
X512469Y473359D01*
X512383Y473193D01*
X512379Y473180D01*
X512373Y473168D01*
X512323Y472987D01*
X512271Y472806D01*
X512270Y472792D01*
X512266Y472779D01*
X512254Y472591D01*
X512238Y472404D01*
X512240Y472391D01*
X512239Y472378D01*
X512263Y472190D01*
X512285Y472005D01*
X512289Y471992D01*
X512291Y471979D01*
X512393Y471663D01*
X514097Y467548D01*
X514097Y446852D01*
X512008Y441810D01*
X508150Y437952D01*
X503108Y435863D01*
X497652Y435863D01*
X492610Y437952D01*
X489116Y441445D01*
X489102Y441457D01*
X489091Y441470D01*
X488947Y441584D01*
X488805Y441700D01*
X488789Y441709D01*
X488775Y441720D01*
X488611Y441803D01*
X488449Y441889D01*
X488432Y441894D01*
X488416Y441902D01*
X488239Y441952D01*
X488063Y442004D01*
X488045Y442005D01*
X488028Y442010D01*
X487845Y442024D01*
X487662Y442040D01*
X487644Y442038D01*
X487627Y442040D01*
X487445Y442017D01*
X487262Y441997D01*
X487245Y441991D01*
X487227Y441989D01*
X487053Y441931D01*
X486878Y441875D01*
X486862Y441867D01*
X486846Y441861D01*
X486686Y441769D01*
X486526Y441680D01*
X486512Y441669D01*
X486497Y441660D01*
X486244Y441445D01*
X482750Y437952D01*
X477708Y435863D01*
X472252Y435863D01*
X467210Y437952D01*
X463716Y441445D01*
X463702Y441457D01*
X463691Y441470D01*
X463547Y441584D01*
X463405Y441700D01*
X463389Y441709D01*
X463375Y441720D01*
X463211Y441803D01*
X463049Y441889D01*
X463032Y441894D01*
X463016Y441902D01*
X462839Y441952D01*
X462663Y442004D01*
X462645Y442005D01*
X462628Y442010D01*
X462445Y442024D01*
X462262Y442040D01*
X462244Y442038D01*
X462227Y442040D01*
X462045Y442017D01*
X461862Y441997D01*
X461845Y441991D01*
X461827Y441989D01*
X461653Y441931D01*
X461478Y441875D01*
X461462Y441867D01*
X461446Y441861D01*
X461286Y441769D01*
X461126Y441680D01*
X461112Y441669D01*
X461097Y441660D01*
X460844Y441445D01*
X457350Y437952D01*
X452308Y435863D01*
X446852Y435863D01*
X441810Y437952D01*
X438316Y441445D01*
X438302Y441457D01*
X438291Y441470D01*
X438147Y441584D01*
X438005Y441700D01*
X437989Y441709D01*
X437975Y441720D01*
X437811Y441803D01*
X437649Y441889D01*
X437632Y441894D01*
X437616Y441902D01*
X437439Y441952D01*
X437263Y442004D01*
X437245Y442005D01*
X437228Y442010D01*
X437045Y442024D01*
X436862Y442040D01*
X436844Y442038D01*
X436827Y442040D01*
X436645Y442017D01*
X436462Y441997D01*
X436445Y441991D01*
X436427Y441989D01*
X436253Y441931D01*
X436078Y441875D01*
X436062Y441867D01*
X436046Y441861D01*
X435886Y441769D01*
X435726Y441680D01*
X435712Y441669D01*
X435697Y441660D01*
X435444Y441445D01*
X431950Y437952D01*
X426908Y435863D01*
X421452Y435863D01*
X416410Y437952D01*
X412916Y441445D01*
X412902Y441457D01*
X412891Y441470D01*
X412747Y441584D01*
X412605Y441700D01*
X412589Y441709D01*
X412575Y441720D01*
X412411Y441803D01*
X412249Y441889D01*
X412232Y441894D01*
X412216Y441902D01*
X412039Y441952D01*
X411863Y442004D01*
X411845Y442005D01*
X411828Y442010D01*
X411645Y442024D01*
X411462Y442040D01*
X411444Y442038D01*
X411427Y442040D01*
X411245Y442017D01*
X411062Y441997D01*
X411045Y441991D01*
X411027Y441989D01*
X410853Y441931D01*
X410678Y441875D01*
X410662Y441867D01*
X410646Y441861D01*
X410486Y441769D01*
X410326Y441680D01*
X410312Y441669D01*
X410297Y441660D01*
X410044Y441445D01*
X406550Y437952D01*
X401508Y435863D01*
X396052Y435863D01*
X391010Y437952D01*
X387516Y441445D01*
X387502Y441457D01*
X387491Y441470D01*
X387347Y441584D01*
X387205Y441700D01*
X387189Y441709D01*
X387175Y441720D01*
X387011Y441803D01*
X386849Y441889D01*
X386832Y441894D01*
X386816Y441902D01*
X386639Y441952D01*
X386463Y442004D01*
X386445Y442005D01*
X386428Y442010D01*
X386245Y442024D01*
X386062Y442040D01*
X386044Y442038D01*
X386027Y442040D01*
X385845Y442017D01*
X385662Y441997D01*
X385645Y441991D01*
X385627Y441989D01*
X385453Y441931D01*
X385278Y441875D01*
X385262Y441867D01*
X385246Y441861D01*
X385086Y441769D01*
X384926Y441680D01*
X384912Y441669D01*
X384897Y441660D01*
X384644Y441445D01*
X381150Y437952D01*
X376108Y435863D01*
X370652Y435863D01*
X365610Y437952D01*
X361752Y441810D01*
X359663Y446852D01*
X359663Y467548D01*
X361752Y472590D01*
X365610Y476448D01*
X370652Y478537D01*
X376108Y478537D01*
X381150Y476448D01*
X384644Y472955D01*
X384657Y472943D01*
X384669Y472930D01*
X384813Y472816D01*
X384955Y472700D01*
X384971Y472691D01*
X384985Y472680D01*
X385149Y472597D01*
X385311Y472511D01*
X385328Y472506D01*
X385344Y472498D01*
X385521Y472448D01*
X385697Y472396D01*
X385715Y472395D01*
X385732Y472390D01*
X385915Y472376D01*
X386098Y472360D01*
X386116Y472362D01*
X386133Y472360D01*
X386315Y472383D01*
X386498Y472403D01*
X386515Y472409D01*
X386533Y472411D01*
X386706Y472469D01*
X386882Y472525D01*
X386898Y472533D01*
X386914Y472539D01*
X387074Y472631D01*
X387234Y472720D01*
X387248Y472731D01*
X387263Y472740D01*
X387516Y472955D01*
X391010Y476448D01*
X396052Y478537D01*
X401508Y478537D01*
X406550Y476448D01*
X410044Y472955D01*
X410057Y472943D01*
X410069Y472930D01*
X410213Y472816D01*
X410355Y472700D01*
X410371Y472691D01*
X410385Y472680D01*
X410549Y472597D01*
X410711Y472511D01*
X410728Y472506D01*
X410744Y472498D01*
X410921Y472448D01*
X411097Y472396D01*
X411115Y472395D01*
X411132Y472390D01*
X411315Y472376D01*
X411498Y472360D01*
X411516Y472362D01*
X411533Y472360D01*
X411715Y472383D01*
X411898Y472403D01*
X411915Y472409D01*
X411933Y472411D01*
X412106Y472469D01*
X412282Y472525D01*
X412298Y472533D01*
X412314Y472539D01*
X412474Y472631D01*
X412634Y472720D01*
X412648Y472731D01*
X412663Y472740D01*
X412916Y472955D01*
X416410Y476448D01*
X421452Y478537D01*
X426908Y478537D01*
X431950Y476448D01*
X435444Y472955D01*
X435457Y472943D01*
X435469Y472930D01*
X435613Y472816D01*
X435755Y472700D01*
X435771Y472691D01*
X435785Y472680D01*
X435949Y472597D01*
X436111Y472511D01*
X436128Y472506D01*
X436144Y472498D01*
X436321Y472448D01*
X436497Y472396D01*
X436515Y472395D01*
X436532Y472390D01*
X436715Y472376D01*
X436898Y472360D01*
X436916Y472362D01*
X436933Y472360D01*
X437115Y472383D01*
X437298Y472403D01*
X437315Y472409D01*
X437333Y472411D01*
X437506Y472469D01*
X437682Y472525D01*
X437698Y472533D01*
X437714Y472539D01*
X437874Y472631D01*
X438034Y472720D01*
X438048Y472731D01*
X438063Y472740D01*
X438316Y472955D01*
X441810Y476448D01*
X446852Y478537D01*
X452308Y478537D01*
X457350Y476448D01*
X460844Y472955D01*
X460857Y472943D01*
X460869Y472930D01*
X461013Y472816D01*
X461155Y472700D01*
X461171Y472691D01*
X461185Y472680D01*
X461349Y472597D01*
X461511Y472511D01*
X461528Y472506D01*
X461544Y472498D01*
X461721Y472448D01*
X461897Y472396D01*
X461915Y472395D01*
X461932Y472390D01*
X462115Y472376D01*
X462298Y472360D01*
X462316Y472362D01*
X462333Y472360D01*
X462515Y472383D01*
X462698Y472403D01*
X462715Y472409D01*
X462733Y472411D01*
X462906Y472469D01*
X463082Y472525D01*
X463098Y472533D01*
X463114Y472539D01*
X463274Y472631D01*
X463434Y472720D01*
X463448Y472731D01*
X463463Y472740D01*
X463716Y472955D01*
X466256Y475495D01*
X466273Y475515D01*
X466294Y475533D01*
X466401Y475671D01*
X466511Y475806D01*
X466524Y475830D01*
X466540Y475851D01*
X466618Y476008D01*
X466700Y476162D01*
X466708Y476187D01*
X466720Y476212D01*
X466765Y476381D01*
X466815Y476548D01*
X466817Y476574D01*
X466824Y476600D01*
X466851Y476931D01*
X466851Y481677D01*
X468089Y484665D01*
X470343Y486919D01*
X472067Y488642D01*
X472078Y488656D01*
X472092Y488668D01*
X472205Y488812D01*
X472322Y488954D01*
X472330Y488970D01*
X472341Y488984D01*
X472424Y489148D01*
X472510Y489310D01*
X472515Y489327D01*
X472524Y489343D01*
X472573Y489520D01*
X472625Y489695D01*
X472627Y489713D01*
X472632Y489730D01*
X472645Y489914D01*
X472662Y490096D01*
X472660Y490114D01*
X472661Y490132D01*
X472638Y490314D01*
X472618Y490497D01*
X472613Y490514D01*
X472610Y490531D01*
X472552Y490705D01*
X472497Y490881D01*
X472488Y490896D01*
X472482Y490913D01*
X472391Y491072D01*
X472302Y491233D01*
X472290Y491247D01*
X472281Y491262D01*
X472067Y491515D01*
X471336Y492245D01*
X471323Y492257D01*
X471311Y492270D01*
X471167Y492384D01*
X471025Y492500D01*
X471009Y492509D01*
X470995Y492520D01*
X470831Y492603D01*
X470669Y492689D01*
X470652Y492694D01*
X470636Y492702D01*
X470459Y492752D01*
X470283Y492804D01*
X470265Y492805D01*
X470248Y492810D01*
X470065Y492824D01*
X469882Y492840D01*
X469864Y492838D01*
X469847Y492840D01*
X469665Y492817D01*
X469482Y492797D01*
X469465Y492791D01*
X469447Y492789D01*
X469274Y492731D01*
X469098Y492675D01*
X469082Y492667D01*
X469066Y492661D01*
X468906Y492569D01*
X468746Y492480D01*
X468732Y492469D01*
X468717Y492460D01*
X468464Y492245D01*
X464970Y488752D01*
X459928Y486663D01*
X454472Y486663D01*
X449430Y488752D01*
X445572Y492610D01*
X443483Y497652D01*
X443483Y518348D01*
X445572Y523390D01*
X446017Y523836D01*
X446023Y523843D01*
X446030Y523848D01*
X446150Y523997D01*
X446272Y524147D01*
X446277Y524155D01*
X446282Y524162D01*
X446370Y524331D01*
X446461Y524503D01*
X446464Y524512D01*
X446468Y524519D01*
X446520Y524703D01*
X446576Y524889D01*
X446577Y524898D01*
X446579Y524906D01*
X446595Y525097D01*
X446612Y525290D01*
X446611Y525299D01*
X446612Y525308D01*
X446590Y525497D01*
X446569Y525690D01*
X446566Y525699D01*
X446565Y525707D01*
X446505Y525890D01*
X446447Y526074D01*
X446443Y526082D01*
X446440Y526090D01*
X446345Y526259D01*
X446253Y526426D01*
X446247Y526433D01*
X446242Y526441D01*
X446117Y526586D01*
X445992Y526733D01*
X445985Y526739D01*
X445979Y526746D01*
X445827Y526863D01*
X445676Y526983D01*
X445668Y526987D01*
X445661Y526992D01*
X445488Y527079D01*
X445317Y527165D01*
X445309Y527168D01*
X445301Y527172D01*
X445112Y527222D01*
X444929Y527273D01*
X444921Y527274D01*
X444912Y527276D01*
X444581Y527303D01*
X429179Y527303D01*
X429170Y527302D01*
X429161Y527303D01*
X428971Y527283D01*
X428778Y527263D01*
X428770Y527261D01*
X428761Y527260D01*
X428578Y527202D01*
X428393Y527145D01*
X428386Y527141D01*
X428377Y527138D01*
X428208Y527045D01*
X428039Y526953D01*
X428033Y526948D01*
X428025Y526943D01*
X427877Y526818D01*
X427730Y526696D01*
X427725Y526689D01*
X427718Y526683D01*
X427598Y526531D01*
X427478Y526382D01*
X427474Y526374D01*
X427468Y526367D01*
X427380Y526194D01*
X427292Y526025D01*
X427290Y526016D01*
X427286Y526008D01*
X427234Y525823D01*
X427181Y525638D01*
X427180Y525629D01*
X427178Y525620D01*
X427164Y525428D01*
X427148Y525236D01*
X427149Y525228D01*
X427148Y525219D01*
X427173Y525027D01*
X427195Y524837D01*
X427198Y524828D01*
X427199Y524819D01*
X427260Y524637D01*
X427320Y524454D01*
X427324Y524446D01*
X427327Y524438D01*
X427423Y524270D01*
X427518Y524103D01*
X427524Y524096D01*
X427528Y524089D01*
X427743Y523836D01*
X428188Y523390D01*
X430277Y518348D01*
X430277Y497652D01*
X428188Y492610D01*
X424330Y488752D01*
X419288Y486663D01*
X413832Y486663D01*
X408790Y488752D01*
X405296Y492245D01*
X405283Y492257D01*
X405271Y492270D01*
X405127Y492384D01*
X404985Y492500D01*
X404969Y492509D01*
X404955Y492520D01*
X404791Y492603D01*
X404629Y492689D01*
X404612Y492694D01*
X404596Y492702D01*
X404419Y492752D01*
X404243Y492804D01*
X404225Y492805D01*
X404208Y492810D01*
X404025Y492824D01*
X403842Y492840D01*
X403824Y492838D01*
X403807Y492840D01*
X403625Y492817D01*
X403442Y492797D01*
X403425Y492791D01*
X403407Y492789D01*
X403234Y492731D01*
X403058Y492675D01*
X403042Y492667D01*
X403026Y492661D01*
X402866Y492569D01*
X402706Y492480D01*
X402692Y492469D01*
X402677Y492460D01*
X402424Y492245D01*
X398930Y488752D01*
X393888Y486663D01*
X388432Y486663D01*
X383390Y488752D01*
X379896Y492245D01*
X379883Y492257D01*
X379871Y492270D01*
X379727Y492384D01*
X379585Y492500D01*
X379569Y492509D01*
X379555Y492520D01*
X379391Y492603D01*
X379229Y492689D01*
X379212Y492694D01*
X379196Y492702D01*
X379019Y492752D01*
X378843Y492804D01*
X378825Y492805D01*
X378808Y492810D01*
X378625Y492824D01*
X378442Y492840D01*
X378424Y492838D01*
X378407Y492840D01*
X378225Y492817D01*
X378042Y492797D01*
X378025Y492791D01*
X378007Y492789D01*
X377834Y492731D01*
X377658Y492675D01*
X377642Y492667D01*
X377626Y492661D01*
X377466Y492569D01*
X377306Y492480D01*
X377292Y492469D01*
X377277Y492460D01*
X377024Y492245D01*
X373530Y488752D01*
X368488Y486663D01*
X363032Y486663D01*
X362848Y486739D01*
X362827Y486746D01*
X362807Y486756D01*
X362634Y486804D01*
X362463Y486856D01*
X362441Y486858D01*
X362419Y486864D01*
X362240Y486877D01*
X362062Y486894D01*
X362040Y486892D01*
X362018Y486893D01*
X361839Y486871D01*
X361662Y486852D01*
X361640Y486846D01*
X361618Y486843D01*
X361448Y486785D01*
X361277Y486732D01*
X361258Y486722D01*
X361237Y486715D01*
X361081Y486625D01*
X360924Y486539D01*
X360907Y486525D01*
X360888Y486514D01*
X360635Y486299D01*
X355157Y480821D01*
X352585Y478249D01*
X350025Y477189D01*
X349597Y477011D01*
X342028Y477011D01*
X342002Y477009D01*
X341975Y477011D01*
X341801Y476989D01*
X341628Y476971D01*
X341602Y476964D01*
X341576Y476960D01*
X341410Y476905D01*
X341243Y476853D01*
X341219Y476840D01*
X341194Y476832D01*
X341042Y476745D01*
X340889Y476661D01*
X340868Y476644D01*
X340845Y476631D01*
X340592Y476416D01*
X338924Y474748D01*
X338907Y474727D01*
X338886Y474710D01*
X338779Y474572D01*
X338669Y474436D01*
X338656Y474413D01*
X338640Y474392D01*
X338562Y474235D01*
X338480Y474081D01*
X338472Y474055D01*
X338460Y474031D01*
X338415Y473862D01*
X338365Y473695D01*
X338363Y473668D01*
X338356Y473642D01*
X338329Y473312D01*
X338329Y423421D01*
X338331Y423395D01*
X338329Y423368D01*
X338351Y423194D01*
X338369Y423021D01*
X338376Y422995D01*
X338380Y422969D01*
X338436Y422803D01*
X338487Y422636D01*
X338500Y422612D01*
X338508Y422587D01*
X338595Y422435D01*
X338679Y422282D01*
X338696Y422261D01*
X338709Y422238D01*
X338924Y421985D01*
X341727Y419182D01*
X343797Y414185D01*
X343797Y408775D01*
X341727Y403778D01*
X337902Y399953D01*
X333114Y397970D01*
X332905Y397883D01*
X327495Y397883D01*
X322498Y399953D01*
X321476Y400975D01*
X321463Y400986D01*
X321451Y401000D01*
X321306Y401114D01*
X321165Y401230D01*
X321149Y401238D01*
X321135Y401250D01*
X320971Y401333D01*
X320809Y401419D01*
X320792Y401424D01*
X320776Y401432D01*
X320599Y401481D01*
X320423Y401533D01*
X320405Y401535D01*
X320388Y401540D01*
X320205Y401553D01*
X320022Y401570D01*
X320004Y401568D01*
X319987Y401569D01*
X319805Y401546D01*
X319622Y401526D01*
X319605Y401521D01*
X319587Y401519D01*
X319414Y401461D01*
X319238Y401405D01*
X319222Y401396D01*
X319206Y401391D01*
X319047Y401299D01*
X318886Y401210D01*
X318872Y401199D01*
X318857Y401190D01*
X318604Y400975D01*
X317582Y399953D01*
X312794Y397970D01*
X312585Y397883D01*
X307175Y397883D01*
X302178Y399953D01*
X301156Y400975D01*
X301142Y400986D01*
X301131Y401000D01*
X300987Y401114D01*
X300845Y401230D01*
X300829Y401238D01*
X300815Y401250D01*
X300651Y401333D01*
X300489Y401419D01*
X300472Y401424D01*
X300456Y401432D01*
X300279Y401481D01*
X300103Y401533D01*
X300085Y401535D01*
X300068Y401540D01*
X299885Y401553D01*
X299702Y401570D01*
X299684Y401568D01*
X299667Y401569D01*
X299485Y401546D01*
X299302Y401526D01*
X299285Y401521D01*
X299267Y401519D01*
X299093Y401460D01*
X298918Y401405D01*
X298902Y401396D01*
X298886Y401391D01*
X298727Y401299D01*
X298566Y401210D01*
X298552Y401199D01*
X298537Y401190D01*
X298284Y400975D01*
X297262Y399953D01*
X292474Y397970D01*
X292265Y397883D01*
X286855Y397883D01*
X281858Y399953D01*
X280836Y400975D01*
X280822Y400986D01*
X280811Y401000D01*
X280667Y401114D01*
X280525Y401230D01*
X280509Y401238D01*
X280495Y401250D01*
X280331Y401333D01*
X280169Y401419D01*
X280152Y401424D01*
X280136Y401432D01*
X279959Y401481D01*
X279783Y401533D01*
X279765Y401535D01*
X279748Y401540D01*
X279565Y401553D01*
X279382Y401570D01*
X279364Y401568D01*
X279347Y401569D01*
X279165Y401546D01*
X278982Y401526D01*
X278965Y401521D01*
X278947Y401519D01*
X278773Y401460D01*
X278598Y401405D01*
X278582Y401396D01*
X278566Y401391D01*
X278407Y401299D01*
X278246Y401210D01*
X278232Y401199D01*
X278217Y401190D01*
X277964Y400975D01*
X276942Y399953D01*
X272154Y397970D01*
X271945Y397883D01*
X266535Y397883D01*
X261538Y399953D01*
X257713Y403778D01*
X255643Y408775D01*
X255643Y414185D01*
X257713Y419182D01*
X261538Y423007D01*
X265607Y424692D01*
X266535Y425077D01*
X270500Y425077D01*
X270526Y425079D01*
X270553Y425077D01*
X270727Y425099D01*
X270900Y425117D01*
X270926Y425124D01*
X270952Y425128D01*
X271118Y425183D01*
X271285Y425235D01*
X271309Y425248D01*
X271334Y425256D01*
X271486Y425343D01*
X271639Y425427D01*
X271660Y425444D01*
X271683Y425457D01*
X271936Y425672D01*
X290996Y444732D01*
X291013Y444753D01*
X291034Y444770D01*
X291141Y444908D01*
X291251Y445044D01*
X291264Y445067D01*
X291280Y445088D01*
X291358Y445245D01*
X291440Y445399D01*
X291448Y445425D01*
X291460Y445449D01*
X291505Y445618D01*
X291555Y445785D01*
X291557Y445812D01*
X291564Y445838D01*
X291591Y446168D01*
X291591Y484632D01*
X291589Y484650D01*
X291591Y484668D01*
X291570Y484850D01*
X291551Y485033D01*
X291546Y485050D01*
X291544Y485067D01*
X291487Y485242D01*
X291433Y485418D01*
X291425Y485433D01*
X291419Y485450D01*
X291329Y485610D01*
X291241Y485772D01*
X291230Y485785D01*
X291221Y485801D01*
X291101Y485940D01*
X290984Y486081D01*
X290970Y486092D01*
X290958Y486106D01*
X290813Y486218D01*
X290670Y486333D01*
X290654Y486341D01*
X290640Y486352D01*
X290475Y486434D01*
X290313Y486519D01*
X290296Y486524D01*
X290280Y486532D01*
X290101Y486579D01*
X289926Y486630D01*
X289908Y486632D01*
X289891Y486636D01*
X289560Y486663D01*
X286832Y486663D01*
X281790Y488752D01*
X277932Y492610D01*
X276781Y495389D01*
X276719Y495504D01*
X276665Y495623D01*
X276624Y495681D01*
X276590Y495743D01*
X276507Y495844D01*
X276431Y495951D01*
X276379Y495999D01*
X276334Y496054D01*
X276232Y496136D01*
X276137Y496226D01*
X276077Y496263D01*
X276021Y496308D01*
X275906Y496368D01*
X275794Y496437D01*
X275728Y496462D01*
X275665Y496495D01*
X275539Y496531D01*
X275417Y496577D01*
X275347Y496588D01*
X275278Y496608D01*
X275148Y496619D01*
X275019Y496639D01*
X274948Y496636D01*
X274877Y496642D01*
X274748Y496628D01*
X274617Y496622D01*
X274548Y496605D01*
X274477Y496597D01*
X274353Y496557D01*
X274226Y496526D01*
X274162Y496496D01*
X274094Y496474D01*
X273980Y496410D01*
X273861Y496355D01*
X273804Y496312D01*
X273742Y496278D01*
X273643Y496193D01*
X273538Y496115D01*
X273491Y496062D01*
X273437Y496016D01*
X273356Y495913D01*
X273268Y495816D01*
X273225Y495746D01*
X273188Y495699D01*
X273154Y495631D01*
X273094Y495533D01*
X272850Y495055D01*
X271910Y493761D01*
X270779Y492630D01*
X269485Y491690D01*
X268060Y490964D01*
X266699Y490521D01*
X266699Y507492D01*
X266697Y507510D01*
X266699Y507527D01*
X266678Y507710D01*
X266659Y507892D01*
X266654Y507909D01*
X266652Y507927D01*
X266595Y508102D01*
X266541Y508277D01*
X266533Y508293D01*
X266527Y508310D01*
X266437Y508470D01*
X266349Y508631D01*
X266338Y508645D01*
X266329Y508661D01*
X266209Y508800D01*
X266092Y508941D01*
X266078Y508952D01*
X266066Y508965D01*
X265921Y509078D01*
X265778Y509193D01*
X265762Y509201D01*
X265748Y509212D01*
X265583Y509294D01*
X265421Y509378D01*
X265404Y509383D01*
X265388Y509391D01*
X265209Y509439D01*
X265034Y509490D01*
X265016Y509491D01*
X264999Y509496D01*
X264668Y509523D01*
X263652Y509523D01*
X263634Y509521D01*
X263616Y509523D01*
X263434Y509501D01*
X263251Y509483D01*
X263234Y509478D01*
X263217Y509476D01*
X263042Y509419D01*
X262866Y509365D01*
X262851Y509357D01*
X262834Y509351D01*
X262674Y509261D01*
X262512Y509173D01*
X262499Y509162D01*
X262483Y509153D01*
X262344Y509033D01*
X262203Y508915D01*
X262192Y508902D01*
X262178Y508890D01*
X262066Y508745D01*
X261951Y508602D01*
X261943Y508586D01*
X261932Y508572D01*
X261850Y508407D01*
X261765Y508244D01*
X261760Y508227D01*
X261752Y508211D01*
X261704Y508033D01*
X261654Y507858D01*
X261652Y507840D01*
X261648Y507823D01*
X261621Y507492D01*
X261621Y490521D01*
X260260Y490964D01*
X258835Y491690D01*
X257541Y492630D01*
X256410Y493761D01*
X255470Y495055D01*
X255226Y495533D01*
X255155Y495644D01*
X255092Y495758D01*
X255047Y495812D01*
X255008Y495872D01*
X254917Y495966D01*
X254833Y496066D01*
X254778Y496111D01*
X254728Y496162D01*
X254621Y496236D01*
X254519Y496317D01*
X254455Y496350D01*
X254397Y496390D01*
X254277Y496441D01*
X254160Y496501D01*
X254092Y496520D01*
X254027Y496548D01*
X253899Y496575D01*
X253773Y496611D01*
X253702Y496616D01*
X253633Y496631D01*
X253502Y496632D01*
X253372Y496642D01*
X253301Y496633D01*
X253230Y496634D01*
X253102Y496609D01*
X252972Y496593D01*
X252904Y496571D01*
X252835Y496558D01*
X252714Y496508D01*
X252590Y496467D01*
X252528Y496432D01*
X252462Y496405D01*
X252353Y496332D01*
X252240Y496267D01*
X252186Y496221D01*
X252127Y496181D01*
X252035Y496089D01*
X251936Y496003D01*
X251893Y495947D01*
X251843Y495896D01*
X251771Y495787D01*
X251691Y495684D01*
X251653Y495611D01*
X251620Y495561D01*
X251592Y495490D01*
X251539Y495389D01*
X250388Y492610D01*
X246530Y488752D01*
X241488Y486663D01*
X236032Y486663D01*
X230990Y488752D01*
X227496Y492245D01*
X227483Y492257D01*
X227471Y492270D01*
X227327Y492384D01*
X227185Y492500D01*
X227169Y492509D01*
X227155Y492520D01*
X226991Y492603D01*
X226829Y492689D01*
X226812Y492694D01*
X226796Y492702D01*
X226619Y492752D01*
X226443Y492804D01*
X226425Y492805D01*
X226408Y492810D01*
X226225Y492824D01*
X226042Y492840D01*
X226024Y492838D01*
X226007Y492840D01*
X225825Y492817D01*
X225642Y492797D01*
X225625Y492791D01*
X225607Y492789D01*
X225434Y492731D01*
X225258Y492675D01*
X225242Y492667D01*
X225226Y492661D01*
X225066Y492569D01*
X224906Y492480D01*
X224892Y492469D01*
X224877Y492460D01*
X224624Y492245D01*
X221130Y488752D01*
X216088Y486663D01*
X213360Y486663D01*
X213342Y486661D01*
X213324Y486663D01*
X213142Y486642D01*
X212959Y486623D01*
X212942Y486618D01*
X212925Y486616D01*
X212750Y486559D01*
X212574Y486505D01*
X212559Y486497D01*
X212542Y486491D01*
X212382Y486401D01*
X212220Y486313D01*
X212207Y486302D01*
X212191Y486293D01*
X212052Y486173D01*
X211911Y486056D01*
X211900Y486042D01*
X211886Y486030D01*
X211774Y485885D01*
X211659Y485742D01*
X211651Y485726D01*
X211640Y485712D01*
X211558Y485547D01*
X211473Y485385D01*
X211468Y485368D01*
X211460Y485352D01*
X211413Y485173D01*
X211362Y484998D01*
X211360Y484980D01*
X211356Y484963D01*
X211329Y484632D01*
X211329Y391160D01*
X211331Y391142D01*
X211329Y391124D01*
X211350Y390942D01*
X211369Y390759D01*
X211374Y390742D01*
X211376Y390725D01*
X211433Y390550D01*
X211487Y390374D01*
X211495Y390359D01*
X211501Y390342D01*
X211591Y390182D01*
X211679Y390020D01*
X211690Y390007D01*
X211699Y389991D01*
X211819Y389852D01*
X211936Y389711D01*
X211950Y389700D01*
X211962Y389686D01*
X212107Y389574D01*
X212250Y389459D01*
X212266Y389451D01*
X212280Y389440D01*
X212445Y389358D01*
X212607Y389273D01*
X212624Y389268D01*
X212640Y389260D01*
X212819Y389213D01*
X212994Y389162D01*
X213012Y389160D01*
X213029Y389156D01*
X213360Y389129D01*
X433417Y389129D01*
X436405Y387891D01*
X441199Y383097D01*
X443771Y380525D01*
X445009Y377537D01*
X445009Y353568D01*
X445011Y353550D01*
X445009Y353532D01*
X445030Y353350D01*
X445049Y353167D01*
X445054Y353150D01*
X445056Y353133D01*
X445113Y352958D01*
X445167Y352782D01*
X445175Y352767D01*
X445181Y352750D01*
X445271Y352590D01*
X445359Y352428D01*
X445370Y352415D01*
X445379Y352399D01*
X445499Y352260D01*
X445616Y352119D01*
X445630Y352108D01*
X445642Y352094D01*
X445787Y351982D01*
X445930Y351867D01*
X445946Y351859D01*
X445960Y351848D01*
X446125Y351766D01*
X446287Y351681D01*
X446304Y351676D01*
X446320Y351668D01*
X446499Y351621D01*
X446674Y351570D01*
X446692Y351568D01*
X446709Y351564D01*
X447040Y351537D01*
X452308Y351537D01*
X457350Y349448D01*
X461208Y345590D01*
X462359Y342811D01*
X462421Y342696D01*
X462475Y342577D01*
X462516Y342519D01*
X462550Y342457D01*
X462633Y342356D01*
X462709Y342249D01*
X462761Y342201D01*
X462806Y342146D01*
X462908Y342064D01*
X463003Y341974D01*
X463063Y341937D01*
X463119Y341892D01*
X463234Y341832D01*
X463346Y341763D01*
X463412Y341738D01*
X463475Y341705D01*
X463601Y341669D01*
X463723Y341623D01*
X463793Y341612D01*
X463862Y341592D01*
X463992Y341581D01*
X464121Y341561D01*
X464192Y341564D01*
X464263Y341558D01*
X464392Y341572D01*
X464523Y341578D01*
X464592Y341595D01*
X464663Y341603D01*
X464787Y341643D01*
X464914Y341674D01*
X464978Y341704D01*
X465046Y341726D01*
X465160Y341790D01*
X465279Y341845D01*
X465336Y341888D01*
X465398Y341922D01*
X465497Y342007D01*
X465602Y342085D01*
X465649Y342138D01*
X465703Y342184D01*
X465784Y342287D01*
X465872Y342384D01*
X465915Y342454D01*
X465952Y342501D01*
X465986Y342569D01*
X466046Y342667D01*
X466290Y343145D01*
X467230Y344439D01*
X468361Y345570D01*
X469655Y346510D01*
X471080Y347236D01*
X472441Y347679D01*
X472441Y330708D01*
X472442Y330690D01*
X472441Y330673D01*
X472462Y330490D01*
X472481Y330308D01*
X472486Y330291D01*
X472488Y330273D01*
X472513Y330195D01*
X472474Y330058D01*
X472472Y330040D01*
X472468Y330023D01*
X472441Y329692D01*
X472441Y312721D01*
X471080Y313164D01*
X469655Y313890D01*
X468361Y314830D01*
X467230Y315961D01*
X466290Y317255D01*
X466046Y317733D01*
X465975Y317843D01*
X465912Y317958D01*
X465867Y318012D01*
X465828Y318072D01*
X465737Y318166D01*
X465653Y318266D01*
X465598Y318311D01*
X465548Y318362D01*
X465441Y318436D01*
X465338Y318517D01*
X465275Y318550D01*
X465217Y318590D01*
X465097Y318641D01*
X464980Y318701D01*
X464912Y318721D01*
X464847Y318748D01*
X464719Y318775D01*
X464593Y318811D01*
X464522Y318816D01*
X464453Y318831D01*
X464322Y318832D01*
X464192Y318842D01*
X464121Y318833D01*
X464050Y318834D01*
X463922Y318809D01*
X463792Y318793D01*
X463725Y318771D01*
X463655Y318758D01*
X463534Y318708D01*
X463410Y318667D01*
X463348Y318632D01*
X463282Y318605D01*
X463174Y318532D01*
X463060Y318467D01*
X463006Y318421D01*
X462947Y318381D01*
X462855Y318289D01*
X462756Y318203D01*
X462713Y318147D01*
X462663Y318096D01*
X462591Y317987D01*
X462511Y317884D01*
X462473Y317811D01*
X462440Y317761D01*
X462412Y317690D01*
X462359Y317589D01*
X461208Y314810D01*
X457350Y310952D01*
X452308Y308863D01*
X446852Y308863D01*
X441810Y310952D01*
X438316Y314445D01*
X438302Y314457D01*
X438291Y314470D01*
X438147Y314584D01*
X438005Y314700D01*
X437989Y314709D01*
X437975Y314720D01*
X437811Y314803D01*
X437649Y314889D01*
X437632Y314894D01*
X437616Y314902D01*
X437439Y314952D01*
X437263Y315004D01*
X437245Y315005D01*
X437228Y315010D01*
X437045Y315024D01*
X436862Y315040D01*
X436844Y315038D01*
X436827Y315040D01*
X436645Y315017D01*
X436462Y314997D01*
X436445Y314991D01*
X436427Y314989D01*
X436253Y314931D01*
X436078Y314875D01*
X436062Y314867D01*
X436046Y314861D01*
X435886Y314769D01*
X435726Y314680D01*
X435712Y314669D01*
X435697Y314660D01*
X435444Y314445D01*
X431950Y310952D01*
X426908Y308863D01*
X421452Y308863D01*
X416410Y310952D01*
X412552Y314810D01*
X411401Y317589D01*
X411339Y317704D01*
X411285Y317823D01*
X411244Y317881D01*
X411211Y317943D01*
X411127Y318044D01*
X411051Y318151D01*
X410999Y318199D01*
X410954Y318254D01*
X410853Y318336D01*
X410757Y318425D01*
X410697Y318463D01*
X410641Y318508D01*
X410526Y318568D01*
X410414Y318637D01*
X410348Y318662D01*
X410285Y318695D01*
X410160Y318731D01*
X410037Y318777D01*
X409967Y318788D01*
X409899Y318808D01*
X409768Y318819D01*
X409639Y318839D01*
X409568Y318836D01*
X409497Y318842D01*
X409368Y318828D01*
X409237Y318822D01*
X409168Y318805D01*
X409097Y318797D01*
X408973Y318757D01*
X408846Y318726D01*
X408782Y318696D01*
X408714Y318674D01*
X408600Y318610D01*
X408482Y318555D01*
X408425Y318512D01*
X408363Y318478D01*
X408263Y318393D01*
X408158Y318315D01*
X408111Y318262D01*
X408057Y318216D01*
X407976Y318113D01*
X407888Y318016D01*
X407845Y317946D01*
X407808Y317899D01*
X407774Y317831D01*
X407714Y317733D01*
X407470Y317255D01*
X406530Y315961D01*
X405399Y314830D01*
X404105Y313890D01*
X402680Y313164D01*
X401319Y312721D01*
X401319Y329692D01*
X401317Y329710D01*
X401319Y329727D01*
X401298Y329910D01*
X401279Y330092D01*
X401274Y330109D01*
X401272Y330127D01*
X401247Y330205D01*
X401286Y330342D01*
X401288Y330360D01*
X401292Y330377D01*
X401319Y330708D01*
X401319Y347679D01*
X402680Y347236D01*
X404105Y346510D01*
X405399Y345570D01*
X406530Y344439D01*
X407470Y343145D01*
X407714Y342667D01*
X407785Y342556D01*
X407848Y342442D01*
X407893Y342388D01*
X407932Y342328D01*
X408023Y342234D01*
X408107Y342134D01*
X408162Y342089D01*
X408212Y342038D01*
X408319Y341964D01*
X408422Y341883D01*
X408485Y341850D01*
X408543Y341810D01*
X408664Y341758D01*
X408780Y341699D01*
X408848Y341680D01*
X408913Y341652D01*
X409041Y341625D01*
X409167Y341589D01*
X409238Y341584D01*
X409307Y341569D01*
X409438Y341568D01*
X409568Y341558D01*
X409639Y341567D01*
X409710Y341566D01*
X409838Y341591D01*
X409968Y341607D01*
X410036Y341629D01*
X410105Y341642D01*
X410226Y341692D01*
X410350Y341733D01*
X410412Y341768D01*
X410478Y341795D01*
X410586Y341868D01*
X410700Y341933D01*
X410754Y341979D01*
X410813Y342019D01*
X410905Y342111D01*
X411004Y342197D01*
X411047Y342253D01*
X411097Y342304D01*
X411169Y342413D01*
X411249Y342516D01*
X411287Y342589D01*
X411320Y342639D01*
X411348Y342710D01*
X411401Y342811D01*
X412552Y345590D01*
X415456Y348495D01*
X415473Y348515D01*
X415494Y348533D01*
X415601Y348671D01*
X415711Y348806D01*
X415724Y348830D01*
X415740Y348851D01*
X415818Y349008D01*
X415900Y349162D01*
X415908Y349187D01*
X415920Y349211D01*
X415965Y349381D01*
X416015Y349548D01*
X416017Y349574D01*
X416024Y349600D01*
X416051Y349931D01*
X416051Y360680D01*
X416049Y360698D01*
X416051Y360716D01*
X416030Y360898D01*
X416011Y361081D01*
X416006Y361098D01*
X416004Y361115D01*
X415947Y361290D01*
X415893Y361466D01*
X415885Y361481D01*
X415879Y361498D01*
X415789Y361658D01*
X415701Y361820D01*
X415690Y361833D01*
X415681Y361849D01*
X415561Y361988D01*
X415444Y362129D01*
X415430Y362140D01*
X415418Y362154D01*
X415273Y362266D01*
X415130Y362381D01*
X415114Y362389D01*
X415100Y362400D01*
X414935Y362482D01*
X414773Y362567D01*
X414756Y362572D01*
X414740Y362580D01*
X414561Y362627D01*
X414386Y362678D01*
X414368Y362680D01*
X414351Y362684D01*
X414020Y362711D01*
X191423Y362711D01*
X188435Y363949D01*
X181069Y371315D01*
X179831Y374303D01*
X179831Y440179D01*
X179829Y440205D01*
X179831Y440232D01*
X179809Y440406D01*
X179791Y440579D01*
X179784Y440605D01*
X179780Y440631D01*
X179725Y440797D01*
X179673Y440964D01*
X179660Y440988D01*
X179652Y441013D01*
X179565Y441165D01*
X179481Y441318D01*
X179464Y441339D01*
X179451Y441362D01*
X179236Y441615D01*
X176433Y444418D01*
X174363Y449415D01*
X174363Y454825D01*
X176433Y459822D01*
X177455Y460844D01*
X177461Y460851D01*
X177468Y460856D01*
X177589Y461007D01*
X177710Y461155D01*
X177714Y461163D01*
X177720Y461170D01*
X177808Y461340D01*
X177899Y461511D01*
X177901Y461520D01*
X177905Y461527D01*
X177958Y461710D01*
X178014Y461897D01*
X178014Y461906D01*
X178017Y461914D01*
X178032Y462105D01*
X178050Y462298D01*
X178049Y462307D01*
X178050Y462316D01*
X178027Y462505D01*
X178007Y462698D01*
X178004Y462707D01*
X178003Y462715D01*
X177943Y462897D01*
X177885Y463082D01*
X177881Y463090D01*
X177878Y463098D01*
X177784Y463265D01*
X177690Y463434D01*
X177684Y463441D01*
X177680Y463449D01*
X177556Y463592D01*
X177430Y463741D01*
X177423Y463747D01*
X177417Y463754D01*
X177266Y463870D01*
X177114Y463991D01*
X177106Y463995D01*
X177099Y464000D01*
X176928Y464085D01*
X176755Y464173D01*
X176746Y464176D01*
X176738Y464180D01*
X176553Y464229D01*
X176367Y464281D01*
X176358Y464282D01*
X176349Y464284D01*
X176019Y464311D01*
X135543Y464311D01*
X132555Y465549D01*
X98828Y499276D01*
X98807Y499293D01*
X98790Y499314D01*
X98652Y499421D01*
X98516Y499531D01*
X98493Y499544D01*
X98472Y499560D01*
X98315Y499638D01*
X98161Y499720D01*
X98135Y499728D01*
X98111Y499740D01*
X97942Y499785D01*
X97775Y499835D01*
X97748Y499837D01*
X97722Y499844D01*
X97392Y499871D01*
X32656Y499871D01*
X32638Y499869D01*
X32620Y499871D01*
X32438Y499850D01*
X32255Y499831D01*
X32238Y499826D01*
X32221Y499824D01*
X32046Y499767D01*
X31870Y499713D01*
X31855Y499705D01*
X31838Y499699D01*
X31678Y499609D01*
X31516Y499521D01*
X31503Y499510D01*
X31487Y499501D01*
X31348Y499381D01*
X31207Y499264D01*
X31196Y499250D01*
X31182Y499238D01*
X31070Y499093D01*
X30955Y498950D01*
X30947Y498934D01*
X30936Y498920D01*
X30854Y498755D01*
X30769Y498593D01*
X30764Y498576D01*
X30756Y498560D01*
X30709Y498381D01*
X30658Y498206D01*
X30656Y498188D01*
X30652Y498171D01*
X30625Y497840D01*
X30625Y360172D01*
X30627Y360146D01*
X30625Y360119D01*
X30647Y359945D01*
X30665Y359772D01*
X30672Y359746D01*
X30676Y359720D01*
X30732Y359554D01*
X30783Y359387D01*
X30795Y359363D01*
X30804Y359338D01*
X30891Y359186D01*
X30975Y359033D01*
X30992Y359012D01*
X31005Y358989D01*
X31220Y358736D01*
X32744Y357212D01*
X32765Y357195D01*
X32782Y357174D01*
X32921Y357067D01*
X33056Y356957D01*
X33079Y356944D01*
X33100Y356928D01*
X33257Y356850D01*
X33411Y356768D01*
X33437Y356760D01*
X33461Y356748D01*
X33630Y356703D01*
X33797Y356653D01*
X33824Y356651D01*
X33850Y356644D01*
X34180Y356617D01*
X45908Y356617D01*
X50950Y354528D01*
X54808Y350670D01*
X56897Y345628D01*
X56897Y340172D01*
X54808Y335130D01*
X51315Y331636D01*
X51303Y331622D01*
X51290Y331611D01*
X51176Y331467D01*
X51060Y331325D01*
X51051Y331309D01*
X51040Y331295D01*
X50957Y331131D01*
X50871Y330969D01*
X50866Y330952D01*
X50858Y330936D01*
X50808Y330759D01*
X50756Y330583D01*
X50755Y330565D01*
X50750Y330548D01*
X50736Y330365D01*
X50720Y330182D01*
X50722Y330164D01*
X50720Y330147D01*
X50743Y329965D01*
X50763Y329782D01*
X50769Y329765D01*
X50771Y329747D01*
X50829Y329573D01*
X50885Y329398D01*
X50893Y329382D01*
X50899Y329366D01*
X50991Y329206D01*
X51080Y329046D01*
X51091Y329032D01*
X51100Y329017D01*
X51315Y328764D01*
X54808Y325270D01*
X56897Y320228D01*
X56897Y314772D01*
X54808Y309730D01*
X50950Y305872D01*
X48171Y304721D01*
X48056Y304659D01*
X47937Y304605D01*
X47879Y304564D01*
X47817Y304530D01*
X47716Y304447D01*
X47609Y304371D01*
X47561Y304319D01*
X47506Y304274D01*
X47424Y304172D01*
X47335Y304077D01*
X47297Y304016D01*
X47253Y303961D01*
X47192Y303846D01*
X47123Y303734D01*
X47098Y303668D01*
X47065Y303605D01*
X47029Y303479D01*
X46983Y303357D01*
X46972Y303287D01*
X46952Y303218D01*
X46941Y303088D01*
X46921Y302959D01*
X46924Y302888D01*
X46918Y302817D01*
X46932Y302688D01*
X46938Y302557D01*
X46955Y302488D01*
X46963Y302417D01*
X47003Y302293D01*
X47034Y302166D01*
X47064Y302101D01*
X47086Y302034D01*
X47150Y301920D01*
X47205Y301801D01*
X47248Y301744D01*
X47282Y301682D01*
X47367Y301583D01*
X47445Y301478D01*
X47498Y301431D01*
X47544Y301377D01*
X47647Y301296D01*
X47744Y301208D01*
X47814Y301165D01*
X47861Y301128D01*
X47929Y301094D01*
X48027Y301034D01*
X48505Y300790D01*
X49799Y299850D01*
X50930Y298719D01*
X51870Y297425D01*
X52596Y296000D01*
X53039Y294639D01*
X36068Y294639D01*
X36050Y294637D01*
X36033Y294639D01*
X35850Y294618D01*
X35668Y294599D01*
X35651Y294594D01*
X35633Y294592D01*
X35555Y294567D01*
X35418Y294606D01*
X35400Y294608D01*
X35383Y294612D01*
X35052Y294639D01*
X18081Y294639D01*
X18524Y296000D01*
X19250Y297425D01*
X20190Y298719D01*
X21321Y299850D01*
X22615Y300790D01*
X23093Y301034D01*
X23204Y301105D01*
X23318Y301168D01*
X23372Y301213D01*
X23432Y301252D01*
X23526Y301343D01*
X23626Y301427D01*
X23671Y301482D01*
X23722Y301532D01*
X23796Y301639D01*
X23877Y301741D01*
X23910Y301805D01*
X23950Y301863D01*
X24001Y301983D01*
X24061Y302100D01*
X24080Y302168D01*
X24108Y302233D01*
X24135Y302361D01*
X24171Y302487D01*
X24176Y302558D01*
X24191Y302627D01*
X24192Y302758D01*
X24202Y302888D01*
X24193Y302959D01*
X24194Y303030D01*
X24169Y303158D01*
X24153Y303288D01*
X24131Y303356D01*
X24118Y303425D01*
X24068Y303546D01*
X24027Y303670D01*
X23992Y303732D01*
X23965Y303798D01*
X23892Y303907D01*
X23827Y304020D01*
X23781Y304074D01*
X23741Y304133D01*
X23649Y304225D01*
X23563Y304324D01*
X23507Y304367D01*
X23456Y304417D01*
X23347Y304489D01*
X23244Y304569D01*
X23171Y304607D01*
X23121Y304640D01*
X23050Y304668D01*
X22949Y304721D01*
X20170Y305872D01*
X17265Y308776D01*
X17245Y308793D01*
X17227Y308814D01*
X17089Y308921D01*
X16954Y309031D01*
X16930Y309044D01*
X16909Y309060D01*
X16752Y309138D01*
X16598Y309220D01*
X16573Y309228D01*
X16548Y309240D01*
X16379Y309285D01*
X16350Y309294D01*
X13175Y310609D01*
X9564Y314220D01*
X9557Y314226D01*
X9552Y314232D01*
X9402Y314353D01*
X9253Y314475D01*
X9245Y314479D01*
X9238Y314485D01*
X9068Y314573D01*
X8897Y314664D01*
X8888Y314666D01*
X8881Y314670D01*
X8696Y314723D01*
X8511Y314778D01*
X8502Y314779D01*
X8494Y314782D01*
X8303Y314797D01*
X8110Y314815D01*
X8101Y314814D01*
X8092Y314815D01*
X7903Y314792D01*
X7710Y314771D01*
X7701Y314769D01*
X7693Y314768D01*
X7511Y314708D01*
X7326Y314650D01*
X7318Y314646D01*
X7310Y314643D01*
X7141Y314548D01*
X6974Y314455D01*
X6967Y314449D01*
X6959Y314445D01*
X6813Y314319D01*
X6667Y314195D01*
X6661Y314188D01*
X6654Y314182D01*
X6537Y314030D01*
X6417Y313879D01*
X6413Y313871D01*
X6408Y313864D01*
X6322Y313692D01*
X6235Y313520D01*
X6232Y313511D01*
X6228Y313503D01*
X6178Y313317D01*
X6127Y313132D01*
X6126Y313123D01*
X6124Y313114D01*
X6097Y312784D01*
X6097Y26159D01*
X6101Y26116D01*
X6099Y26072D01*
X6132Y25807D01*
X6137Y25758D01*
X6139Y25752D01*
X6140Y25743D01*
X6632Y23388D01*
X6641Y23360D01*
X6646Y23330D01*
X6749Y23015D01*
X8925Y17858D01*
X8971Y17774D01*
X9007Y17686D01*
X9079Y17576D01*
X9118Y17504D01*
X9151Y17465D01*
X9188Y17407D01*
X12605Y12974D01*
X12671Y12904D01*
X12728Y12829D01*
X12785Y12777D01*
X12810Y12748D01*
X12840Y12725D01*
X12881Y12681D01*
X12923Y12651D01*
X12974Y12605D01*
X17407Y9188D01*
X17488Y9137D01*
X17563Y9079D01*
X17679Y9018D01*
X17749Y8975D01*
X17797Y8957D01*
X17857Y8925D01*
X23015Y6749D01*
X23043Y6740D01*
X23070Y6727D01*
X23388Y6632D01*
X25743Y6140D01*
X25786Y6135D01*
X25828Y6124D01*
X26095Y6102D01*
X26143Y6097D01*
X26150Y6097D01*
X26159Y6097D01*
X122850Y6097D01*
X122859Y6098D01*
G37*
%LPC*%
G36*
X345454Y64515D02*
X345454Y64515D01*
X340786Y66449D01*
X337213Y70022D01*
X335279Y74690D01*
X335279Y92950D01*
X337213Y97618D01*
X337218Y97624D01*
X337224Y97631D01*
X337231Y97636D01*
X337352Y97787D01*
X337473Y97935D01*
X337477Y97943D01*
X337483Y97950D01*
X337571Y98120D01*
X337662Y98291D01*
X337664Y98299D01*
X337669Y98307D01*
X337722Y98492D01*
X337777Y98677D01*
X337777Y98686D01*
X337780Y98694D01*
X337796Y98886D01*
X337813Y99078D01*
X337812Y99087D01*
X337813Y99096D01*
X337790Y99286D01*
X337770Y99478D01*
X337767Y99486D01*
X337766Y99495D01*
X337706Y99679D01*
X337648Y99862D01*
X337644Y99870D01*
X337641Y99878D01*
X337546Y100046D01*
X337453Y100214D01*
X337448Y100221D01*
X337443Y100229D01*
X337318Y100374D01*
X337193Y100521D01*
X337186Y100527D01*
X337180Y100534D01*
X337029Y100651D01*
X336877Y100771D01*
X336869Y100775D01*
X336862Y100780D01*
X336690Y100866D01*
X336518Y100953D01*
X336509Y100956D01*
X336501Y100960D01*
X336315Y101010D01*
X336130Y101061D01*
X336121Y101062D01*
X336113Y101064D01*
X335782Y101091D01*
X302210Y101091D01*
X302183Y101089D01*
X302157Y101091D01*
X301983Y101069D01*
X301809Y101051D01*
X301784Y101044D01*
X301757Y101040D01*
X301591Y100985D01*
X301424Y100933D01*
X301401Y100920D01*
X301375Y100912D01*
X301224Y100825D01*
X301070Y100741D01*
X301050Y100724D01*
X301027Y100711D01*
X300774Y100496D01*
X297546Y97269D01*
X292364Y95122D01*
X286756Y95122D01*
X281574Y97269D01*
X277609Y101234D01*
X275462Y106416D01*
X275462Y112024D01*
X277609Y117206D01*
X280887Y120484D01*
X280898Y120498D01*
X280911Y120509D01*
X281025Y120653D01*
X281142Y120795D01*
X281150Y120811D01*
X281161Y120825D01*
X281245Y120989D01*
X281330Y121151D01*
X281335Y121168D01*
X281343Y121184D01*
X281393Y121361D01*
X281445Y121537D01*
X281447Y121555D01*
X281451Y121572D01*
X281465Y121755D01*
X281481Y121938D01*
X281479Y121956D01*
X281481Y121973D01*
X281458Y122155D01*
X281438Y122338D01*
X281433Y122355D01*
X281430Y122373D01*
X281372Y122547D01*
X281316Y122722D01*
X281308Y122738D01*
X281302Y122754D01*
X281210Y122914D01*
X281122Y123074D01*
X281110Y123088D01*
X281101Y123103D01*
X280887Y123356D01*
X275462Y128781D01*
X275462Y140459D01*
X283721Y148718D01*
X295399Y148718D01*
X303658Y140459D01*
X303658Y137160D01*
X303660Y137142D01*
X303658Y137124D01*
X303679Y136942D01*
X303698Y136759D01*
X303703Y136742D01*
X303705Y136725D01*
X303762Y136550D01*
X303816Y136374D01*
X303824Y136359D01*
X303830Y136342D01*
X303920Y136182D01*
X304008Y136020D01*
X304019Y136007D01*
X304028Y135991D01*
X304148Y135852D01*
X304265Y135711D01*
X304279Y135700D01*
X304291Y135686D01*
X304436Y135574D01*
X304579Y135459D01*
X304595Y135451D01*
X304609Y135440D01*
X304774Y135358D01*
X304936Y135273D01*
X304953Y135268D01*
X304969Y135260D01*
X305148Y135213D01*
X305323Y135162D01*
X305341Y135160D01*
X305358Y135156D01*
X305689Y135129D01*
X418177Y135129D01*
X421165Y133891D01*
X431071Y123985D01*
X432309Y120997D01*
X432309Y101098D01*
X432311Y101072D01*
X432309Y101045D01*
X432331Y100871D01*
X432349Y100698D01*
X432356Y100672D01*
X432360Y100645D01*
X432416Y100480D01*
X432467Y100313D01*
X432480Y100289D01*
X432488Y100264D01*
X432575Y100112D01*
X432659Y99959D01*
X432676Y99938D01*
X432689Y99915D01*
X432904Y99662D01*
X434947Y97618D01*
X436881Y92950D01*
X436881Y74690D01*
X434947Y70022D01*
X431374Y66449D01*
X426706Y64515D01*
X421654Y64515D01*
X416986Y66449D01*
X413413Y70022D01*
X411398Y74886D01*
X411356Y74964D01*
X411323Y75046D01*
X411261Y75141D01*
X411208Y75241D01*
X411151Y75309D01*
X411103Y75383D01*
X411023Y75464D01*
X410951Y75551D01*
X410883Y75607D01*
X410820Y75670D01*
X410727Y75734D01*
X410639Y75805D01*
X410560Y75846D01*
X410487Y75896D01*
X410382Y75939D01*
X410282Y75992D01*
X410197Y76017D01*
X410115Y76051D01*
X410004Y76073D01*
X409896Y76105D01*
X409807Y76113D01*
X409720Y76130D01*
X409607Y76130D01*
X409495Y76140D01*
X409407Y76130D01*
X409318Y76129D01*
X409207Y76107D01*
X409095Y76094D01*
X409010Y76067D01*
X408923Y76050D01*
X408819Y76006D01*
X408711Y75971D01*
X408634Y75928D01*
X408552Y75893D01*
X408459Y75830D01*
X408360Y75775D01*
X408292Y75717D01*
X408219Y75667D01*
X408140Y75587D01*
X408054Y75513D01*
X407999Y75443D01*
X407937Y75380D01*
X407876Y75285D01*
X407806Y75196D01*
X407766Y75117D01*
X407718Y75042D01*
X407663Y74912D01*
X407625Y74836D01*
X407613Y74792D01*
X407590Y74736D01*
X407255Y73706D01*
X406601Y72423D01*
X405755Y71259D01*
X404737Y70241D01*
X403573Y69395D01*
X402290Y68741D01*
X400921Y68296D01*
X400811Y68279D01*
X400811Y83820D01*
X400811Y99361D01*
X400921Y99344D01*
X402290Y98899D01*
X403573Y98245D01*
X404737Y97399D01*
X405755Y96381D01*
X406601Y95217D01*
X407255Y93934D01*
X407590Y92904D01*
X407625Y92823D01*
X407652Y92738D01*
X407706Y92639D01*
X407751Y92535D01*
X407802Y92462D01*
X407845Y92385D01*
X407918Y92298D01*
X407983Y92206D01*
X408047Y92144D01*
X408104Y92077D01*
X408192Y92006D01*
X408274Y91928D01*
X408350Y91881D01*
X408419Y91826D01*
X408519Y91774D01*
X408615Y91714D01*
X408698Y91682D01*
X408777Y91642D01*
X408886Y91611D01*
X408991Y91571D01*
X409079Y91556D01*
X409164Y91532D01*
X409277Y91523D01*
X409389Y91505D01*
X409477Y91508D01*
X409566Y91501D01*
X409678Y91514D01*
X409791Y91518D01*
X409877Y91539D01*
X409966Y91549D01*
X410073Y91585D01*
X410183Y91611D01*
X410264Y91648D01*
X410348Y91676D01*
X410446Y91732D01*
X410549Y91779D01*
X410620Y91831D01*
X410697Y91875D01*
X410783Y91950D01*
X410874Y92016D01*
X410934Y92082D01*
X411001Y92140D01*
X411070Y92230D01*
X411146Y92313D01*
X411192Y92389D01*
X411246Y92459D01*
X411311Y92585D01*
X411355Y92657D01*
X411371Y92701D01*
X411398Y92754D01*
X413413Y97618D01*
X415456Y99662D01*
X415473Y99683D01*
X415494Y99700D01*
X415601Y99838D01*
X415711Y99973D01*
X415724Y99997D01*
X415740Y100018D01*
X415818Y100175D01*
X415900Y100329D01*
X415908Y100355D01*
X415920Y100379D01*
X415965Y100548D01*
X416015Y100715D01*
X416017Y100742D01*
X416024Y100767D01*
X416051Y101098D01*
X416051Y115172D01*
X416049Y115198D01*
X416051Y115225D01*
X416029Y115399D01*
X416011Y115572D01*
X416004Y115598D01*
X416000Y115624D01*
X415945Y115790D01*
X415893Y115957D01*
X415880Y115981D01*
X415872Y116006D01*
X415785Y116158D01*
X415701Y116311D01*
X415684Y116332D01*
X415671Y116355D01*
X415456Y116608D01*
X413788Y118276D01*
X413767Y118293D01*
X413750Y118314D01*
X413612Y118421D01*
X413476Y118531D01*
X413453Y118544D01*
X413432Y118560D01*
X413275Y118638D01*
X413121Y118720D01*
X413095Y118728D01*
X413071Y118740D01*
X412902Y118785D01*
X412735Y118835D01*
X412708Y118837D01*
X412682Y118844D01*
X412352Y118871D01*
X380128Y118871D01*
X380120Y118870D01*
X380111Y118871D01*
X379919Y118850D01*
X379728Y118831D01*
X379719Y118829D01*
X379710Y118828D01*
X379528Y118770D01*
X379343Y118713D01*
X379335Y118709D01*
X379326Y118706D01*
X379158Y118613D01*
X378989Y118521D01*
X378982Y118516D01*
X378974Y118511D01*
X378826Y118386D01*
X378680Y118264D01*
X378674Y118257D01*
X378667Y118251D01*
X378547Y118099D01*
X378427Y117950D01*
X378423Y117942D01*
X378418Y117935D01*
X378330Y117763D01*
X378242Y117593D01*
X378239Y117584D01*
X378235Y117576D01*
X378183Y117390D01*
X378130Y117206D01*
X378130Y117197D01*
X378127Y117188D01*
X378113Y116996D01*
X378097Y116804D01*
X378098Y116796D01*
X378098Y116787D01*
X378122Y116594D01*
X378144Y116405D01*
X378147Y116396D01*
X378148Y116387D01*
X378210Y116204D01*
X378269Y116022D01*
X378274Y116014D01*
X378276Y116006D01*
X378372Y115840D01*
X378467Y115671D01*
X378473Y115664D01*
X378477Y115657D01*
X378692Y115404D01*
X380239Y113857D01*
X382811Y111285D01*
X384049Y108297D01*
X384049Y98260D01*
X384052Y98229D01*
X384050Y98198D01*
X384072Y98028D01*
X384089Y97859D01*
X384098Y97830D01*
X384102Y97799D01*
X384203Y97483D01*
X386162Y92754D01*
X386204Y92676D01*
X386237Y92594D01*
X386299Y92499D01*
X386352Y92399D01*
X386409Y92331D01*
X386457Y92257D01*
X386537Y92176D01*
X386609Y92089D01*
X386677Y92033D01*
X386740Y91970D01*
X386833Y91906D01*
X386921Y91835D01*
X387000Y91794D01*
X387073Y91744D01*
X387178Y91701D01*
X387278Y91648D01*
X387363Y91623D01*
X387445Y91589D01*
X387556Y91567D01*
X387664Y91535D01*
X387753Y91527D01*
X387840Y91510D01*
X387953Y91510D01*
X388065Y91500D01*
X388153Y91510D01*
X388242Y91511D01*
X388353Y91533D01*
X388465Y91546D01*
X388550Y91573D01*
X388637Y91590D01*
X388741Y91634D01*
X388849Y91669D01*
X388926Y91712D01*
X389008Y91747D01*
X389101Y91810D01*
X389200Y91865D01*
X389268Y91923D01*
X389341Y91973D01*
X389420Y92053D01*
X389506Y92127D01*
X389561Y92197D01*
X389623Y92260D01*
X389684Y92355D01*
X389754Y92444D01*
X389794Y92523D01*
X389842Y92598D01*
X389897Y92728D01*
X389935Y92804D01*
X389947Y92848D01*
X389970Y92904D01*
X390305Y93934D01*
X390959Y95217D01*
X391805Y96381D01*
X392823Y97399D01*
X393987Y98245D01*
X395270Y98899D01*
X396639Y99344D01*
X396749Y99361D01*
X396749Y83820D01*
X396749Y68279D01*
X396639Y68296D01*
X395270Y68741D01*
X393987Y69395D01*
X392823Y70241D01*
X391805Y71259D01*
X390959Y72423D01*
X390305Y73706D01*
X389970Y74736D01*
X389935Y74817D01*
X389908Y74902D01*
X389854Y75001D01*
X389809Y75105D01*
X389758Y75178D01*
X389715Y75255D01*
X389642Y75342D01*
X389577Y75434D01*
X389513Y75496D01*
X389456Y75563D01*
X389368Y75634D01*
X389286Y75712D01*
X389210Y75759D01*
X389141Y75814D01*
X389041Y75866D01*
X388945Y75926D01*
X388862Y75958D01*
X388783Y75998D01*
X388674Y76029D01*
X388569Y76069D01*
X388481Y76084D01*
X388396Y76108D01*
X388283Y76117D01*
X388171Y76135D01*
X388083Y76132D01*
X387994Y76139D01*
X387882Y76126D01*
X387769Y76122D01*
X387683Y76101D01*
X387594Y76091D01*
X387487Y76055D01*
X387377Y76029D01*
X387296Y75992D01*
X387212Y75964D01*
X387114Y75908D01*
X387011Y75861D01*
X386940Y75809D01*
X386863Y75765D01*
X386777Y75690D01*
X386686Y75624D01*
X386626Y75558D01*
X386559Y75500D01*
X386490Y75410D01*
X386414Y75327D01*
X386368Y75251D01*
X386314Y75181D01*
X386249Y75055D01*
X386205Y74983D01*
X386189Y74939D01*
X386162Y74886D01*
X384147Y70022D01*
X380574Y66449D01*
X375906Y64515D01*
X370854Y64515D01*
X366186Y66449D01*
X362613Y70022D01*
X362557Y70157D01*
X362552Y70165D01*
X362550Y70174D01*
X362458Y70342D01*
X362366Y70512D01*
X362361Y70519D01*
X362356Y70527D01*
X362233Y70673D01*
X362110Y70823D01*
X362103Y70828D01*
X362097Y70835D01*
X361947Y70955D01*
X361797Y71076D01*
X361789Y71080D01*
X361782Y71086D01*
X361610Y71174D01*
X361441Y71263D01*
X361432Y71266D01*
X361424Y71270D01*
X361238Y71323D01*
X361054Y71376D01*
X361045Y71377D01*
X361037Y71380D01*
X360845Y71395D01*
X360653Y71411D01*
X360644Y71410D01*
X360635Y71411D01*
X360443Y71387D01*
X360253Y71366D01*
X360245Y71363D01*
X360236Y71362D01*
X360052Y71301D01*
X359870Y71243D01*
X359862Y71238D01*
X359854Y71236D01*
X359686Y71140D01*
X359518Y71046D01*
X359512Y71041D01*
X359504Y71036D01*
X359359Y70910D01*
X359213Y70785D01*
X359207Y70777D01*
X359200Y70772D01*
X359085Y70621D01*
X358964Y70468D01*
X358960Y70459D01*
X358955Y70452D01*
X358803Y70157D01*
X358747Y70022D01*
X355174Y66449D01*
X350506Y64515D01*
X345454Y64515D01*
G37*
%LPD*%
%LPC*%
G36*
X476761Y95122D02*
X476761Y95122D01*
X468502Y103381D01*
X468502Y115059D01*
X476535Y123092D01*
X476648Y123230D01*
X476763Y123364D01*
X476775Y123385D01*
X476790Y123404D01*
X476873Y123560D01*
X476960Y123715D01*
X476968Y123738D01*
X476979Y123760D01*
X477029Y123929D01*
X477084Y124098D01*
X477087Y124122D01*
X477094Y124146D01*
X477110Y124323D01*
X477130Y124498D01*
X477128Y124522D01*
X477130Y124547D01*
X477111Y124723D01*
X477096Y124899D01*
X477089Y124923D01*
X477087Y124947D01*
X477033Y125116D01*
X476984Y125286D01*
X476973Y125307D01*
X476965Y125331D01*
X476879Y125486D01*
X476798Y125643D01*
X476782Y125662D01*
X476770Y125683D01*
X476656Y125818D01*
X476544Y125956D01*
X476524Y125973D01*
X476510Y125990D01*
X476446Y126041D01*
X476293Y126172D01*
X475732Y126579D01*
X474559Y127753D01*
X473584Y129095D01*
X472831Y130573D01*
X472318Y132151D01*
X472249Y132589D01*
X482600Y132589D01*
X482617Y132590D01*
X482635Y132589D01*
X482818Y132610D01*
X483000Y132628D01*
X483017Y132634D01*
X483035Y132636D01*
X483210Y132693D01*
X483385Y132747D01*
X483401Y132755D01*
X483418Y132761D01*
X483578Y132851D01*
X483739Y132938D01*
X483753Y132950D01*
X483768Y132959D01*
X483908Y133079D01*
X484048Y133196D01*
X484049Y133196D01*
X484049Y133197D01*
X484060Y133210D01*
X484073Y133222D01*
X484074Y133222D01*
X484186Y133367D01*
X484301Y133510D01*
X484310Y133526D01*
X484320Y133540D01*
X484402Y133705D01*
X484487Y133868D01*
X484492Y133885D01*
X484500Y133901D01*
X484548Y134079D01*
X484598Y134255D01*
X484600Y134272D01*
X484604Y134290D01*
X484631Y134620D01*
X484631Y144971D01*
X485069Y144902D01*
X486647Y144389D01*
X488125Y143636D01*
X489467Y142661D01*
X490641Y141488D01*
X491117Y140832D01*
X491229Y140707D01*
X491336Y140578D01*
X491362Y140557D01*
X491384Y140532D01*
X491519Y140431D01*
X491650Y140325D01*
X491680Y140310D01*
X491706Y140290D01*
X491858Y140217D01*
X492007Y140140D01*
X492039Y140130D01*
X492069Y140116D01*
X492233Y140075D01*
X492394Y140028D01*
X492428Y140026D01*
X492460Y140017D01*
X492628Y140009D01*
X492796Y139995D01*
X492829Y139999D01*
X492862Y139998D01*
X493028Y140023D01*
X493195Y140042D01*
X493227Y140053D01*
X493260Y140058D01*
X493418Y140115D01*
X493578Y140167D01*
X493607Y140184D01*
X493639Y140195D01*
X493782Y140282D01*
X493929Y140365D01*
X493954Y140387D01*
X493982Y140404D01*
X494106Y140518D01*
X494234Y140628D01*
X494254Y140655D01*
X494278Y140677D01*
X494377Y140813D01*
X494480Y140946D01*
X494495Y140976D01*
X494515Y141003D01*
X494585Y141156D01*
X494660Y141307D01*
X494668Y141339D01*
X494682Y141369D01*
X494720Y141533D01*
X494764Y141696D01*
X494767Y141733D01*
X494774Y141761D01*
X494777Y141848D01*
X494791Y142026D01*
X494791Y147320D01*
X494789Y147338D01*
X494791Y147356D01*
X494770Y147538D01*
X494751Y147721D01*
X494746Y147738D01*
X494744Y147755D01*
X494687Y147930D01*
X494633Y148106D01*
X494625Y148121D01*
X494619Y148138D01*
X494529Y148298D01*
X494441Y148460D01*
X494430Y148473D01*
X494421Y148489D01*
X494301Y148628D01*
X494184Y148769D01*
X494170Y148780D01*
X494158Y148794D01*
X494013Y148906D01*
X493870Y149021D01*
X493854Y149029D01*
X493840Y149040D01*
X493675Y149122D01*
X493513Y149207D01*
X493496Y149212D01*
X493480Y149220D01*
X493301Y149267D01*
X493126Y149318D01*
X493108Y149320D01*
X493091Y149324D01*
X492760Y149351D01*
X437601Y149351D01*
X437578Y149349D01*
X437556Y149351D01*
X437379Y149329D01*
X437200Y149311D01*
X437179Y149305D01*
X437157Y149302D01*
X436987Y149246D01*
X436815Y149193D01*
X436795Y149183D01*
X436774Y149176D01*
X436619Y149087D01*
X436461Y149001D01*
X436444Y148987D01*
X436425Y148976D01*
X436289Y148858D01*
X436152Y148744D01*
X436138Y148726D01*
X436121Y148712D01*
X436012Y148570D01*
X435900Y148430D01*
X435889Y148410D01*
X435876Y148392D01*
X435724Y148097D01*
X434947Y146222D01*
X431374Y142649D01*
X429886Y142032D01*
X426706Y140715D01*
X421654Y140715D01*
X416986Y142649D01*
X413413Y146222D01*
X411398Y151086D01*
X411356Y151164D01*
X411323Y151246D01*
X411261Y151341D01*
X411208Y151441D01*
X411151Y151509D01*
X411103Y151583D01*
X411023Y151664D01*
X410951Y151751D01*
X410883Y151807D01*
X410820Y151870D01*
X410727Y151934D01*
X410639Y152005D01*
X410560Y152046D01*
X410487Y152096D01*
X410382Y152139D01*
X410282Y152192D01*
X410197Y152217D01*
X410115Y152251D01*
X410004Y152273D01*
X409896Y152305D01*
X409807Y152313D01*
X409720Y152330D01*
X409607Y152330D01*
X409495Y152340D01*
X409407Y152330D01*
X409318Y152329D01*
X409207Y152307D01*
X409095Y152294D01*
X409010Y152267D01*
X408923Y152250D01*
X408819Y152206D01*
X408711Y152171D01*
X408634Y152128D01*
X408552Y152093D01*
X408459Y152030D01*
X408360Y151975D01*
X408292Y151917D01*
X408219Y151867D01*
X408140Y151787D01*
X408054Y151713D01*
X407999Y151643D01*
X407937Y151580D01*
X407876Y151485D01*
X407806Y151396D01*
X407766Y151317D01*
X407718Y151242D01*
X407663Y151112D01*
X407625Y151036D01*
X407613Y150992D01*
X407590Y150936D01*
X407255Y149906D01*
X406601Y148623D01*
X405755Y147459D01*
X404737Y146441D01*
X403573Y145595D01*
X402290Y144941D01*
X400921Y144496D01*
X400811Y144479D01*
X400811Y160020D01*
X400811Y175561D01*
X400921Y175544D01*
X402290Y175099D01*
X403573Y174445D01*
X404737Y173599D01*
X405755Y172581D01*
X406601Y171417D01*
X407255Y170134D01*
X407590Y169104D01*
X407625Y169023D01*
X407652Y168938D01*
X407706Y168839D01*
X407751Y168735D01*
X407802Y168662D01*
X407845Y168585D01*
X407918Y168498D01*
X407983Y168406D01*
X408047Y168344D01*
X408104Y168277D01*
X408192Y168206D01*
X408274Y168128D01*
X408350Y168081D01*
X408419Y168026D01*
X408519Y167974D01*
X408615Y167914D01*
X408698Y167882D01*
X408777Y167842D01*
X408886Y167811D01*
X408991Y167771D01*
X409079Y167756D01*
X409164Y167732D01*
X409277Y167723D01*
X409389Y167705D01*
X409477Y167708D01*
X409566Y167701D01*
X409678Y167714D01*
X409791Y167718D01*
X409877Y167739D01*
X409966Y167749D01*
X410073Y167785D01*
X410183Y167811D01*
X410264Y167848D01*
X410348Y167876D01*
X410446Y167932D01*
X410549Y167979D01*
X410620Y168031D01*
X410697Y168075D01*
X410783Y168150D01*
X410874Y168216D01*
X410934Y168282D01*
X411001Y168340D01*
X411070Y168430D01*
X411146Y168513D01*
X411192Y168589D01*
X411246Y168659D01*
X411311Y168785D01*
X411355Y168857D01*
X411371Y168901D01*
X411398Y168954D01*
X413413Y173818D01*
X415456Y175862D01*
X415473Y175883D01*
X415494Y175900D01*
X415601Y176038D01*
X415711Y176173D01*
X415724Y176197D01*
X415740Y176218D01*
X415818Y176375D01*
X415900Y176529D01*
X415908Y176555D01*
X415920Y176579D01*
X415965Y176748D01*
X416015Y176915D01*
X416017Y176942D01*
X416024Y176967D01*
X416051Y177298D01*
X416051Y189986D01*
X416049Y190012D01*
X416051Y190039D01*
X416029Y190213D01*
X416011Y190386D01*
X416004Y190412D01*
X416000Y190439D01*
X415945Y190604D01*
X415893Y190771D01*
X415880Y190795D01*
X415872Y190820D01*
X415785Y190972D01*
X415701Y191125D01*
X415684Y191146D01*
X415671Y191169D01*
X415456Y191422D01*
X413413Y193466D01*
X411398Y198330D01*
X411356Y198408D01*
X411323Y198490D01*
X411261Y198585D01*
X411208Y198685D01*
X411151Y198753D01*
X411103Y198827D01*
X411023Y198908D01*
X410951Y198995D01*
X410882Y199051D01*
X410820Y199114D01*
X410727Y199177D01*
X410639Y199249D01*
X410560Y199290D01*
X410487Y199340D01*
X410382Y199383D01*
X410282Y199436D01*
X410197Y199461D01*
X410115Y199495D01*
X410004Y199517D01*
X409896Y199549D01*
X409807Y199557D01*
X409720Y199574D01*
X409607Y199574D01*
X409495Y199583D01*
X409407Y199574D01*
X409318Y199573D01*
X409207Y199551D01*
X409095Y199538D01*
X409010Y199511D01*
X408923Y199494D01*
X408819Y199450D01*
X408711Y199415D01*
X408634Y199372D01*
X408552Y199337D01*
X408458Y199274D01*
X408360Y199219D01*
X408292Y199161D01*
X408219Y199111D01*
X408140Y199030D01*
X408054Y198957D01*
X407999Y198887D01*
X407937Y198824D01*
X407875Y198729D01*
X407806Y198640D01*
X407766Y198561D01*
X407718Y198486D01*
X407663Y198356D01*
X407625Y198280D01*
X407613Y198236D01*
X407590Y198180D01*
X407255Y197150D01*
X406601Y195867D01*
X405755Y194703D01*
X404737Y193685D01*
X403573Y192839D01*
X402290Y192185D01*
X400921Y191740D01*
X400811Y191723D01*
X400811Y200660D01*
X400811Y209597D01*
X400921Y209580D01*
X402290Y209135D01*
X403573Y208481D01*
X404737Y207635D01*
X405755Y206617D01*
X406601Y205453D01*
X407255Y204170D01*
X407590Y203140D01*
X407625Y203058D01*
X407652Y202974D01*
X407706Y202875D01*
X407751Y202771D01*
X407802Y202698D01*
X407845Y202621D01*
X407918Y202534D01*
X407983Y202442D01*
X408047Y202380D01*
X408104Y202313D01*
X408192Y202242D01*
X408274Y202164D01*
X408350Y202117D01*
X408419Y202062D01*
X408519Y202010D01*
X408615Y201950D01*
X408698Y201918D01*
X408777Y201878D01*
X408886Y201847D01*
X408991Y201807D01*
X409079Y201792D01*
X409164Y201768D01*
X409277Y201759D01*
X409389Y201741D01*
X409477Y201744D01*
X409566Y201737D01*
X409678Y201750D01*
X409791Y201754D01*
X409878Y201775D01*
X409966Y201785D01*
X410073Y201821D01*
X410183Y201847D01*
X410263Y201884D01*
X410348Y201912D01*
X410446Y201968D01*
X410549Y202015D01*
X410620Y202067D01*
X410697Y202111D01*
X410783Y202186D01*
X410874Y202252D01*
X410934Y202318D01*
X411001Y202376D01*
X411070Y202465D01*
X411146Y202549D01*
X411192Y202625D01*
X411246Y202695D01*
X411311Y202821D01*
X411355Y202893D01*
X411370Y202937D01*
X411398Y202990D01*
X413413Y207854D01*
X416986Y211427D01*
X421654Y213361D01*
X426706Y213361D01*
X431374Y211427D01*
X434947Y207854D01*
X436881Y203186D01*
X436881Y198134D01*
X434947Y193466D01*
X432904Y191422D01*
X432887Y191401D01*
X432866Y191384D01*
X432759Y191246D01*
X432649Y191111D01*
X432636Y191087D01*
X432620Y191066D01*
X432542Y190909D01*
X432460Y190755D01*
X432452Y190729D01*
X432440Y190705D01*
X432395Y190535D01*
X432345Y190369D01*
X432343Y190342D01*
X432336Y190317D01*
X432309Y189986D01*
X432309Y177298D01*
X432311Y177272D01*
X432309Y177245D01*
X432331Y177071D01*
X432349Y176898D01*
X432356Y176872D01*
X432360Y176845D01*
X432415Y176680D01*
X432467Y176513D01*
X432480Y176489D01*
X432488Y176464D01*
X432575Y176312D01*
X432659Y176159D01*
X432676Y176138D01*
X432689Y176115D01*
X432904Y175862D01*
X434947Y173818D01*
X436881Y169150D01*
X436881Y167640D01*
X436883Y167622D01*
X436881Y167604D01*
X436902Y167422D01*
X436921Y167239D01*
X436926Y167222D01*
X436928Y167205D01*
X436985Y167030D01*
X437039Y166854D01*
X437047Y166839D01*
X437053Y166822D01*
X437143Y166662D01*
X437231Y166500D01*
X437242Y166487D01*
X437251Y166471D01*
X437371Y166332D01*
X437488Y166191D01*
X437502Y166180D01*
X437514Y166166D01*
X437659Y166054D01*
X437802Y165939D01*
X437818Y165931D01*
X437832Y165920D01*
X437997Y165838D01*
X438159Y165753D01*
X438176Y165748D01*
X438192Y165740D01*
X438371Y165693D01*
X438546Y165642D01*
X438564Y165640D01*
X438581Y165636D01*
X438912Y165609D01*
X499457Y165609D01*
X502445Y164371D01*
X509811Y157005D01*
X511049Y154017D01*
X511049Y110143D01*
X509811Y107155D01*
X502445Y99789D01*
X501449Y99376D01*
X501448Y99376D01*
X499457Y98551D01*
X492710Y98551D01*
X492683Y98549D01*
X492657Y98551D01*
X492483Y98529D01*
X492309Y98511D01*
X492284Y98504D01*
X492257Y98500D01*
X492091Y98445D01*
X491924Y98393D01*
X491901Y98380D01*
X491875Y98372D01*
X491724Y98285D01*
X491570Y98201D01*
X491550Y98184D01*
X491527Y98171D01*
X491274Y97956D01*
X488439Y95122D01*
X476761Y95122D01*
G37*
%LPD*%
%LPC*%
G36*
X62013Y84073D02*
X62013Y84073D01*
X62013Y102271D01*
X64218Y101767D01*
X66615Y100929D01*
X68903Y99827D01*
X71052Y98476D01*
X73038Y96893D01*
X74833Y95098D01*
X76416Y93112D01*
X77767Y90963D01*
X78869Y88675D01*
X79707Y86278D01*
X80211Y84073D01*
X62013Y84073D01*
G37*
%LPD*%
%LPC*%
G36*
X92013Y37073D02*
X92013Y37073D01*
X92013Y55271D01*
X94218Y54767D01*
X96615Y53929D01*
X98903Y52827D01*
X101052Y51476D01*
X103038Y49893D01*
X104833Y48098D01*
X106416Y46112D01*
X107767Y43963D01*
X108869Y41675D01*
X109707Y39278D01*
X110211Y37073D01*
X92013Y37073D01*
G37*
%LPD*%
%LPC*%
G36*
X35689Y84073D02*
X35689Y84073D01*
X36193Y86278D01*
X37031Y88675D01*
X38133Y90963D01*
X39484Y93112D01*
X41067Y95098D01*
X42862Y96893D01*
X44848Y98476D01*
X46997Y99827D01*
X49285Y100929D01*
X51682Y101767D01*
X53887Y102271D01*
X53887Y84073D01*
X35689Y84073D01*
G37*
%LPD*%
%LPC*%
G36*
X62013Y75947D02*
X62013Y75947D01*
X80211Y75947D01*
X79707Y73742D01*
X78869Y71345D01*
X77767Y69057D01*
X76416Y66908D01*
X74833Y64922D01*
X73038Y63127D01*
X71052Y61544D01*
X68903Y60193D01*
X66615Y59091D01*
X64218Y58253D01*
X62013Y57749D01*
X62013Y75947D01*
G37*
%LPD*%
%LPC*%
G36*
X65689Y37073D02*
X65689Y37073D01*
X66193Y39278D01*
X67031Y41675D01*
X68133Y43963D01*
X69484Y46112D01*
X71067Y48098D01*
X72862Y49893D01*
X74848Y51476D01*
X76997Y52827D01*
X79285Y53929D01*
X81682Y54767D01*
X83887Y55271D01*
X83887Y37073D01*
X65689Y37073D01*
G37*
%LPD*%
%LPC*%
G36*
X92013Y28947D02*
X92013Y28947D01*
X110211Y28947D01*
X109707Y26742D01*
X108869Y24345D01*
X107767Y22057D01*
X106416Y19908D01*
X104833Y17922D01*
X103038Y16127D01*
X101052Y14544D01*
X98903Y13193D01*
X96615Y12091D01*
X94218Y11253D01*
X92013Y10749D01*
X92013Y28947D01*
G37*
%LPD*%
%LPC*%
G36*
X51682Y58253D02*
X51682Y58253D01*
X49285Y59091D01*
X46997Y60193D01*
X44848Y61544D01*
X42862Y63127D01*
X41067Y64922D01*
X39484Y66908D01*
X38133Y69057D01*
X37031Y71345D01*
X36193Y73742D01*
X35689Y75947D01*
X53887Y75947D01*
X53887Y57749D01*
X51682Y58253D01*
G37*
%LPD*%
%LPC*%
G36*
X81682Y11253D02*
X81682Y11253D01*
X79285Y12091D01*
X76997Y13193D01*
X74848Y14544D01*
X72862Y16127D01*
X71067Y17922D01*
X69484Y19908D01*
X68133Y22057D01*
X67031Y24345D01*
X66193Y26742D01*
X65689Y28947D01*
X83887Y28947D01*
X83887Y10749D01*
X81682Y11253D01*
G37*
%LPD*%
%LPC*%
G36*
X99059Y467359D02*
X99059Y467359D01*
X99059Y474981D01*
X104940Y474981D01*
X106519Y474731D01*
X108040Y474236D01*
X109465Y473510D01*
X110759Y472570D01*
X111890Y471439D01*
X112830Y470145D01*
X113556Y468720D01*
X113999Y467359D01*
X99059Y467359D01*
G37*
%LPD*%
%LPC*%
G36*
X408939Y27939D02*
X408939Y27939D01*
X408939Y42879D01*
X410300Y42436D01*
X411725Y41710D01*
X413019Y40770D01*
X414150Y39639D01*
X415090Y38345D01*
X415816Y36920D01*
X416311Y35399D01*
X416561Y33820D01*
X416561Y27939D01*
X408939Y27939D01*
G37*
%LPD*%
%LPC*%
G36*
X79041Y467359D02*
X79041Y467359D01*
X79484Y468720D01*
X80210Y470145D01*
X81150Y471439D01*
X82281Y472570D01*
X83575Y473510D01*
X85000Y474236D01*
X86521Y474731D01*
X88100Y474981D01*
X93981Y474981D01*
X93981Y467359D01*
X79041Y467359D01*
G37*
%LPD*%
%LPC*%
G36*
X421639Y27939D02*
X421639Y27939D01*
X421639Y33820D01*
X421889Y35399D01*
X422384Y36920D01*
X423110Y38345D01*
X424050Y39639D01*
X425181Y40770D01*
X426475Y41710D01*
X427900Y42436D01*
X429261Y42879D01*
X429261Y27939D01*
X421639Y27939D01*
G37*
%LPD*%
%LPC*%
G36*
X99059Y276859D02*
X99059Y276859D01*
X99059Y284481D01*
X113999Y284481D01*
X113556Y283120D01*
X112830Y281695D01*
X111890Y280401D01*
X110759Y279270D01*
X109465Y278330D01*
X108040Y277604D01*
X106519Y277109D01*
X104940Y276859D01*
X99059Y276859D01*
G37*
%LPD*%
%LPC*%
G36*
X88100Y276859D02*
X88100Y276859D01*
X86521Y277109D01*
X85000Y277604D01*
X83575Y278330D01*
X82281Y279270D01*
X81150Y280401D01*
X80210Y281695D01*
X79484Y283120D01*
X79041Y284481D01*
X93981Y284481D01*
X93981Y276859D01*
X88100Y276859D01*
G37*
%LPD*%
%LPC*%
G36*
X472249Y136651D02*
X472249Y136651D01*
X472318Y137089D01*
X472831Y138667D01*
X473584Y140145D01*
X474559Y141487D01*
X475733Y142661D01*
X477075Y143636D01*
X478553Y144389D01*
X480131Y144902D01*
X480569Y144971D01*
X480569Y136651D01*
X472249Y136651D01*
G37*
%LPD*%
%LPC*%
G36*
X539772Y181355D02*
X539772Y181355D01*
X534415Y186712D01*
X534415Y188469D01*
X541529Y188469D01*
X541529Y181355D01*
X539772Y181355D01*
G37*
%LPD*%
%LPC*%
G36*
X57949Y80009D02*
X57949Y80009D01*
X57949Y80011D01*
X57951Y80011D01*
X57951Y80009D01*
X57949Y80009D01*
G37*
%LPD*%
%LPC*%
G36*
X87949Y33009D02*
X87949Y33009D01*
X87949Y33011D01*
X87951Y33011D01*
X87951Y33009D01*
X87949Y33009D01*
G37*
%LPD*%
D10*
X117950Y80010D03*
X57950Y80010D03*
X87950Y33010D03*
D11*
X279400Y33020D02*
X279400Y17780D01*
X304800Y17780D02*
X304800Y33020D01*
X330200Y33020D02*
X330200Y17780D01*
X355600Y17780D02*
X355600Y33020D01*
X381000Y33020D02*
X381000Y17780D01*
X406400Y17780D02*
X406400Y33020D01*
X431800Y33020D02*
X431800Y17780D01*
X457200Y17780D02*
X457200Y33020D01*
X508000Y33020D02*
X508000Y17780D01*
X533400Y17780D02*
X533400Y33020D01*
X558800Y33020D02*
X558800Y17780D01*
X584200Y17780D02*
X584200Y33020D01*
X609600Y33020D02*
X609600Y17780D01*
X635000Y17780D02*
X635000Y33020D01*
X635000Y500380D02*
X635000Y515620D01*
X609600Y515620D02*
X609600Y500380D01*
X584200Y500380D02*
X584200Y515620D01*
X558800Y515620D02*
X558800Y500380D01*
X533400Y500380D02*
X533400Y515620D01*
X508000Y515620D02*
X508000Y500380D01*
X482600Y500380D02*
X482600Y515620D01*
X457200Y515620D02*
X457200Y500380D01*
X416560Y500380D02*
X416560Y515620D01*
X391160Y515620D02*
X391160Y500380D01*
X365760Y500380D02*
X365760Y515620D01*
X340360Y515620D02*
X340360Y500380D01*
X314960Y500380D02*
X314960Y515620D01*
X289560Y515620D02*
X289560Y500380D01*
X264160Y500380D02*
X264160Y515620D01*
X238760Y515620D02*
X238760Y500380D01*
X213360Y500380D02*
X213360Y515620D01*
X187960Y515620D02*
X187960Y500380D01*
D12*
X347980Y200660D03*
X373380Y200660D03*
X373380Y276860D03*
X347980Y276860D03*
X398780Y200660D03*
X424180Y200660D03*
X398780Y276860D03*
X424180Y276860D03*
D13*
X641080Y282220D03*
X641080Y317220D03*
D14*
X462280Y276860D03*
X462280Y200660D03*
D13*
X641080Y200940D03*
X641080Y235940D03*
X641080Y119660D03*
X641080Y154660D03*
D14*
X568960Y190500D03*
X568960Y114300D03*
D15*
X566420Y63500D03*
X566420Y88900D03*
X541020Y88900D03*
D14*
X543560Y190500D03*
X543560Y114300D03*
D11*
X373380Y449580D02*
X373380Y464820D01*
X398780Y464820D02*
X398780Y449580D01*
X424180Y449580D02*
X424180Y464820D01*
X449580Y464820D02*
X449580Y449580D01*
X474980Y449580D02*
X474980Y464820D01*
X500380Y464820D02*
X500380Y449580D01*
X373380Y337820D02*
X373380Y322580D01*
X398780Y322580D02*
X398780Y337820D01*
X424180Y337820D02*
X424180Y322580D01*
X449580Y322580D02*
X449580Y337820D01*
X474980Y337820D02*
X474980Y322580D01*
X500380Y322580D02*
X500380Y337820D01*
D16*
X347980Y90424D02*
X347980Y77216D01*
X373380Y77216D02*
X373380Y90424D01*
X373380Y153416D02*
X373380Y166624D01*
X347980Y166624D02*
X347980Y153416D01*
X398780Y90424D02*
X398780Y77216D01*
X424180Y77216D02*
X424180Y90424D01*
X398780Y153416D02*
X398780Y166624D01*
X424180Y166624D02*
X424180Y153416D01*
D17*
X289560Y134620D03*
D18*
X289560Y109220D03*
D19*
X482600Y109220D03*
D18*
X482600Y134620D03*
D11*
X576580Y347980D02*
X591820Y347980D01*
X591820Y373380D02*
X576580Y373380D01*
X576580Y398780D02*
X591820Y398780D01*
X591820Y424180D02*
X576580Y424180D01*
X576580Y449580D02*
X591820Y449580D01*
X591820Y474980D02*
X576580Y474980D01*
X104140Y287020D02*
X88900Y287020D01*
X88900Y312420D02*
X104140Y312420D01*
X104140Y337820D02*
X88900Y337820D01*
X88900Y363220D02*
X104140Y363220D01*
X104140Y388620D02*
X88900Y388620D01*
X88900Y414020D02*
X104140Y414020D01*
X104140Y439420D02*
X88900Y439420D01*
X88900Y464820D02*
X104140Y464820D01*
X43180Y266700D02*
X27940Y266700D01*
X27940Y292100D02*
X43180Y292100D01*
X43180Y317500D02*
X27940Y317500D01*
X27940Y342900D02*
X43180Y342900D01*
D20*
X57950Y80010D02*
X87950Y50010D01*
X87950Y33010D01*
X105740Y50800D01*
X406400Y25400D02*
X431800Y25400D01*
X398780Y160020D02*
X398780Y200660D01*
X398780Y160020D02*
X429260Y129540D01*
X398780Y200660D02*
X398780Y205740D01*
X411480Y218440D01*
X431800Y218440D01*
X436880Y213360D01*
X474980Y307340D02*
X474980Y330200D01*
X474980Y307340D02*
X477520Y304800D01*
X406400Y304800D01*
X398780Y312420D02*
X398780Y330200D01*
X398780Y312420D02*
X406400Y304800D01*
X477520Y304800D02*
X568960Y304800D01*
X566420Y398780D02*
X584200Y398780D01*
X566420Y398780D02*
X558800Y391160D01*
X558800Y340360D01*
X574040Y325120D01*
X574040Y314960D01*
X574040Y309880D01*
X360680Y355600D02*
X350520Y345440D01*
X96520Y269240D02*
X71120Y269240D01*
X96520Y269240D02*
X314960Y269240D01*
X350520Y304800D02*
X350520Y345440D01*
X350520Y304800D02*
X314960Y269240D01*
X96520Y269240D02*
X96520Y287020D01*
X264160Y492760D02*
X264160Y508000D01*
X96520Y464820D02*
X73660Y464820D01*
X66040Y457200D01*
X66040Y294640D01*
X436880Y182880D02*
X447040Y172720D01*
X538480Y172720D01*
X543560Y177800D01*
X543560Y190500D01*
X436880Y182880D02*
X436880Y213360D01*
X137160Y50800D02*
X105740Y50800D01*
X137160Y50800D02*
X147320Y60960D01*
X396240Y60960D01*
X431800Y60960D01*
X452120Y60960D01*
X398780Y63500D02*
X396240Y60960D01*
X431800Y60960D02*
X431800Y25400D01*
X398780Y63500D02*
X398780Y83820D01*
X71120Y269240D02*
X66040Y274320D01*
X66040Y294640D01*
X64980Y293580D01*
X213360Y441960D02*
X264160Y492760D01*
X213360Y441960D02*
X213360Y396240D01*
X57950Y80010D02*
X16510Y80010D01*
X15240Y81280D01*
X15240Y289560D01*
X213360Y396240D02*
X218440Y391160D01*
X350520Y350520D02*
X350520Y345440D01*
X350520Y350520D02*
X355600Y355600D01*
X360680Y355600D01*
X396240Y355600D02*
X401320Y350520D01*
X401320Y332740D01*
X398780Y330200D01*
X396240Y355600D02*
X360680Y355600D01*
X472440Y391160D02*
X474980Y388620D01*
X472440Y391160D02*
X218440Y391160D01*
X474980Y388620D02*
X474980Y330200D01*
X576300Y317220D02*
X641080Y317220D01*
X576300Y317220D02*
X574040Y314960D01*
X574040Y309880D02*
X568960Y304800D01*
X482600Y134620D02*
X477520Y129540D01*
X457200Y129540D01*
X429260Y129540D01*
X457200Y129540D02*
X457200Y66040D01*
X452120Y60960D01*
X20320Y294640D02*
X15240Y289560D01*
X20320Y294640D02*
X33020Y294640D01*
X34080Y293580D02*
X35560Y292100D01*
X34080Y293580D02*
X64980Y293580D01*
X34080Y293580D02*
X33020Y294640D01*
X203200Y497840D02*
X213360Y508000D01*
X203200Y497840D02*
X203200Y472440D01*
X137160Y472440D02*
X101600Y508000D01*
X137160Y472440D02*
X203200Y472440D01*
X101600Y508000D02*
X25400Y508000D01*
X203200Y472440D02*
X203200Y385260D01*
X207460Y381000D01*
X431800Y381000D01*
X25400Y508000D02*
X22496Y505096D01*
X431800Y381000D02*
X436880Y375920D01*
X436880Y342900D02*
X449580Y330200D01*
X436880Y342900D02*
X436880Y375920D01*
X35560Y342900D02*
X22496Y355964D01*
X22496Y505096D01*
X15240Y518160D02*
X110273Y518160D01*
X143037Y485396D02*
X165356Y485396D01*
X143037Y485396D02*
X110273Y518160D01*
X165356Y485396D02*
X187960Y508000D01*
X187960Y452120D02*
X187960Y375920D01*
D21*
X187960Y452120D03*
D20*
X10160Y513080D02*
X10160Y325120D01*
X10160Y513080D02*
X15240Y518160D01*
X187960Y375920D02*
X193040Y370840D01*
X421640Y370840D02*
X424180Y368300D01*
X421640Y370840D02*
X193040Y370840D01*
X424180Y368300D02*
X424180Y330200D01*
X35560Y317500D02*
X17780Y317500D01*
X10160Y325120D01*
X558800Y502920D02*
X558800Y508000D01*
D21*
X553720Y320040D03*
X543560Y208280D03*
D20*
X563880Y208280D01*
X568960Y203200D01*
X568960Y190500D01*
X553720Y320040D02*
X548640Y320040D01*
X543560Y325120D01*
X543560Y487680D01*
X558800Y502920D01*
X373380Y276860D02*
X370840Y274320D01*
X624840Y243840D02*
X660400Y279400D01*
X630572Y300372D02*
X624840Y294640D01*
X370840Y274320D02*
X370840Y259080D01*
X370840Y238760D01*
X641080Y119660D02*
X668300Y119660D01*
X675640Y127000D01*
X675640Y294640D01*
X117950Y163670D02*
X117950Y80010D01*
X373380Y276860D02*
X373380Y330200D01*
X660400Y320040D02*
X660400Y300372D01*
X660400Y320040D02*
X645160Y335280D01*
X104140Y337820D02*
X96520Y337820D01*
X104140Y337820D02*
X157480Y284480D01*
D21*
X157480Y284480D03*
X157480Y243840D03*
D20*
X632180Y200940D02*
X641080Y200940D01*
X624840Y208280D02*
X624840Y243840D01*
X624840Y208280D02*
X632180Y200940D01*
X630572Y300372D02*
X660400Y300372D01*
X660400Y279400D01*
X660400Y300372D02*
X669908Y300372D01*
X675640Y294640D01*
X624840Y294640D02*
X624840Y284480D01*
X579120Y238760D02*
X370840Y238760D01*
X579120Y238760D02*
X624840Y284480D01*
X614680Y335280D02*
X609600Y340360D01*
X609600Y365760D01*
X614680Y335280D02*
X645160Y335280D01*
X601980Y373380D02*
X584200Y373380D01*
X601980Y373380D02*
X609600Y365760D01*
X370840Y223520D02*
X365760Y218440D01*
X370840Y223520D02*
X370840Y238760D01*
X121920Y167640D02*
X117950Y163670D01*
X121920Y167640D02*
X330200Y167640D01*
X340360Y167640D01*
X347980Y160020D01*
X36100Y266160D02*
X35560Y266700D01*
X43180Y259080D01*
X157480Y259080D01*
X370840Y259080D01*
X157480Y259080D02*
X157480Y243840D01*
X330200Y213360D02*
X335280Y218440D01*
X330200Y213360D02*
X330200Y167640D01*
X335280Y218440D02*
X365760Y218440D01*
X426720Y157480D02*
X472440Y157480D01*
X426720Y157480D02*
X424180Y160020D01*
X424180Y200660D01*
X472440Y157480D02*
X497840Y157480D01*
X502920Y152400D01*
X502920Y111760D01*
X497840Y106680D01*
X485140Y106680D01*
X482600Y109220D01*
X373380Y205740D02*
X396240Y228600D01*
X462280Y228600D01*
X462280Y200660D01*
X587460Y228600D02*
X641080Y282220D01*
X587460Y228600D02*
X462280Y228600D01*
X373380Y205740D02*
X373380Y200660D01*
X525780Y276860D02*
X528320Y279400D01*
X525780Y276860D02*
X462280Y276860D01*
D21*
X528320Y279400D03*
X528320Y320040D03*
D20*
X462280Y276860D02*
X459740Y276860D01*
X474980Y457200D02*
X474980Y480060D01*
X477520Y482600D01*
X528320Y482600D01*
X533400Y477520D01*
X533400Y325120D01*
X528320Y320040D01*
X398780Y281940D02*
X398780Y276860D01*
X398780Y281940D02*
X406400Y289560D01*
X447040Y289560D01*
X459740Y276860D01*
X568960Y114300D02*
X566420Y111760D01*
X566420Y88900D01*
X543560Y114300D02*
X543560Y127000D01*
X548640Y132080D01*
X579120Y132080D02*
X584200Y127000D01*
X579120Y132080D02*
X548640Y132080D01*
X566420Y63500D02*
X576580Y63500D01*
X584200Y71120D01*
X584200Y127000D01*
X665480Y233680D02*
X663220Y235940D01*
X665480Y233680D02*
X665480Y157480D01*
X663220Y235940D02*
X641080Y235940D01*
X665480Y157480D02*
X660400Y152400D01*
X643340Y152400D01*
X641710Y154030D01*
X641080Y154660D01*
X528320Y137160D02*
X528320Y91440D01*
X533400Y86360D01*
X538480Y86360D01*
X541020Y88900D01*
X528320Y137160D02*
X533400Y142240D01*
X629920Y142240D01*
X641080Y153400D01*
X641710Y154030D01*
X641080Y154660D02*
X641080Y153400D01*
X373380Y109220D02*
X289560Y109220D01*
X373380Y109220D02*
X375920Y106680D01*
X375920Y86360D01*
X373380Y83820D01*
X424180Y83820D02*
X424180Y119380D01*
X297180Y127000D02*
X289560Y134620D01*
X297180Y127000D02*
X416560Y127000D01*
X424180Y119380D01*
X635000Y502920D02*
X635000Y508000D01*
X635000Y502920D02*
X619760Y487680D01*
X619760Y441960D01*
X596900Y436880D02*
X584200Y424180D01*
X596900Y436880D02*
X614680Y436880D01*
X619760Y441960D01*
X607060Y449580D02*
X584200Y449580D01*
X607060Y449580D02*
X609600Y452120D01*
X609600Y508000D01*
X104140Y312420D02*
X96520Y312420D01*
X104140Y312420D02*
X106680Y309880D01*
X111760Y309880D01*
X132080Y289560D01*
X132080Y284480D01*
D21*
X132080Y284480D03*
D20*
X355600Y45720D02*
X355600Y25400D01*
X355600Y45720D02*
X350520Y50800D01*
X187960Y50800D02*
X182880Y45720D01*
D21*
X182880Y45720D03*
D20*
X187960Y50800D02*
X350520Y50800D01*
D21*
X330200Y411480D03*
X330200Y330200D03*
D20*
X106680Y363220D02*
X96520Y363220D01*
X106680Y360680D02*
X182880Y284480D01*
X309880Y284480D01*
X330200Y304800D01*
X330200Y330200D01*
X106680Y360680D02*
X106680Y363220D01*
X347980Y485140D02*
X360680Y497840D01*
X365760Y497840D01*
X365760Y508000D01*
X337820Y485140D02*
X330200Y477520D01*
X337820Y485140D02*
X347980Y485140D01*
X330200Y477520D02*
X330200Y411480D01*
D21*
X309880Y411480D03*
X309880Y330200D03*
D20*
X309880Y304800D01*
X299720Y294640D01*
X104140Y388620D02*
X96520Y388620D01*
X121920Y360680D02*
X187960Y294640D01*
X121920Y370840D02*
X104140Y388620D01*
X121920Y370840D02*
X121920Y360680D01*
X187960Y294640D02*
X299720Y294640D01*
X309880Y411480D02*
X309880Y416560D01*
X320040Y426720D01*
X340360Y502920D02*
X340360Y508000D01*
X320040Y482600D02*
X320040Y426720D01*
X320040Y482600D02*
X340360Y502920D01*
D21*
X269240Y411480D03*
X132080Y401320D03*
D20*
X116840Y416560D01*
X99060Y416560D01*
X96520Y414020D01*
X289560Y508000D02*
X299720Y497840D01*
X299720Y441960D01*
X269240Y411480D01*
X314960Y492760D02*
X314960Y508000D01*
D21*
X289560Y411480D03*
X289560Y330200D03*
D20*
X289560Y309880D01*
X284480Y304800D01*
X142240Y439420D02*
X96520Y439420D01*
X142240Y439420D02*
X147320Y434340D01*
X198120Y304800D02*
X284480Y304800D01*
X198120Y304800D02*
X147320Y355600D01*
X147320Y434340D01*
X289560Y416560D02*
X289560Y411480D01*
X289560Y416560D02*
X299720Y426720D01*
X309880Y436880D01*
X309880Y487680D02*
X314960Y492760D01*
X309880Y487680D02*
X309880Y436880D01*
M02*
