G04 EAGLE Gerber RS-274X export*
G75*
%MOMM*%
%FSLAX34Y34*%
%LPD*%
%INSoldermask Top*%
%IPPOS*%
%AMOC8*
5,1,8,0,0,1.08239X$1,22.5*%
G01*
%ADD10C,3.403200*%
%ADD11C,4.216400*%
%ADD12C,1.727200*%
%ADD13C,1.524000*%
%ADD14C,1.903200*%
%ADD15P,1.649562X8X292.500000*%
%ADD16P,1.649562X8X112.500000*%
%ADD17C,1.524000*%
%ADD18P,1.951982X8X112.500000*%
%ADD19C,1.803400*%
%ADD20P,1.951982X8X292.500000*%
%ADD21C,1.703200*%


D10*
X660400Y355600D03*
X660400Y76200D03*
X152400Y508000D03*
X139700Y25400D03*
D11*
X117950Y80010D03*
X57950Y80010D03*
X87950Y33010D03*
D12*
X279400Y33020D02*
X279400Y17780D01*
X304800Y17780D02*
X304800Y33020D01*
X330200Y33020D02*
X330200Y17780D01*
X355600Y17780D02*
X355600Y33020D01*
X381000Y33020D02*
X381000Y17780D01*
X406400Y17780D02*
X406400Y33020D01*
X431800Y33020D02*
X431800Y17780D01*
X457200Y17780D02*
X457200Y33020D01*
X508000Y33020D02*
X508000Y17780D01*
X533400Y17780D02*
X533400Y33020D01*
X558800Y33020D02*
X558800Y17780D01*
X584200Y17780D02*
X584200Y33020D01*
X609600Y33020D02*
X609600Y17780D01*
X635000Y17780D02*
X635000Y33020D01*
X635000Y500380D02*
X635000Y515620D01*
X609600Y515620D02*
X609600Y500380D01*
X584200Y500380D02*
X584200Y515620D01*
X558800Y515620D02*
X558800Y500380D01*
X533400Y500380D02*
X533400Y515620D01*
X508000Y515620D02*
X508000Y500380D01*
X482600Y500380D02*
X482600Y515620D01*
X457200Y515620D02*
X457200Y500380D01*
X416560Y500380D02*
X416560Y515620D01*
X391160Y515620D02*
X391160Y500380D01*
X365760Y500380D02*
X365760Y515620D01*
X340360Y515620D02*
X340360Y500380D01*
X314960Y500380D02*
X314960Y515620D01*
X289560Y515620D02*
X289560Y500380D01*
X264160Y500380D02*
X264160Y515620D01*
X238760Y515620D02*
X238760Y500380D01*
X213360Y500380D02*
X213360Y515620D01*
X187960Y515620D02*
X187960Y500380D01*
D13*
X347980Y200660D03*
X373380Y200660D03*
X373380Y276860D03*
X347980Y276860D03*
X398780Y200660D03*
X424180Y200660D03*
X398780Y276860D03*
X424180Y276860D03*
D14*
X641080Y282220D03*
X641080Y317220D03*
D15*
X462280Y276860D03*
X462280Y200660D03*
D14*
X641080Y200940D03*
X641080Y235940D03*
X641080Y119660D03*
X641080Y154660D03*
D15*
X568960Y190500D03*
X568960Y114300D03*
D16*
X566420Y63500D03*
X566420Y88900D03*
X541020Y88900D03*
D15*
X543560Y190500D03*
X543560Y114300D03*
D12*
X373380Y449580D02*
X373380Y464820D01*
X398780Y464820D02*
X398780Y449580D01*
X424180Y449580D02*
X424180Y464820D01*
X449580Y464820D02*
X449580Y449580D01*
X474980Y449580D02*
X474980Y464820D01*
X500380Y464820D02*
X500380Y449580D01*
X373380Y337820D02*
X373380Y322580D01*
X398780Y322580D02*
X398780Y337820D01*
X424180Y337820D02*
X424180Y322580D01*
X449580Y322580D02*
X449580Y337820D01*
X474980Y337820D02*
X474980Y322580D01*
X500380Y322580D02*
X500380Y337820D01*
D17*
X347980Y90424D02*
X347980Y77216D01*
X373380Y77216D02*
X373380Y90424D01*
X373380Y153416D02*
X373380Y166624D01*
X347980Y166624D02*
X347980Y153416D01*
X398780Y90424D02*
X398780Y77216D01*
X424180Y77216D02*
X424180Y90424D01*
X398780Y153416D02*
X398780Y166624D01*
X424180Y166624D02*
X424180Y153416D01*
D18*
X289560Y134620D03*
D19*
X289560Y109220D03*
D20*
X482600Y109220D03*
D19*
X482600Y134620D03*
D12*
X576580Y347980D02*
X591820Y347980D01*
X591820Y373380D02*
X576580Y373380D01*
X576580Y398780D02*
X591820Y398780D01*
X591820Y424180D02*
X576580Y424180D01*
X576580Y449580D02*
X591820Y449580D01*
X591820Y474980D02*
X576580Y474980D01*
X104140Y287020D02*
X88900Y287020D01*
X88900Y312420D02*
X104140Y312420D01*
X104140Y337820D02*
X88900Y337820D01*
X88900Y363220D02*
X104140Y363220D01*
X104140Y388620D02*
X88900Y388620D01*
X88900Y414020D02*
X104140Y414020D01*
X104140Y439420D02*
X88900Y439420D01*
X88900Y464820D02*
X104140Y464820D01*
X43180Y266700D02*
X27940Y266700D01*
X27940Y292100D02*
X43180Y292100D01*
X43180Y317500D02*
X27940Y317500D01*
X27940Y342900D02*
X43180Y342900D01*
D21*
X187960Y452120D03*
X553720Y320040D03*
X543560Y208280D03*
X157480Y284480D03*
X157480Y243840D03*
X528320Y279400D03*
X528320Y320040D03*
X132080Y284480D03*
X182880Y45720D03*
X330200Y411480D03*
X330200Y330200D03*
X309880Y411480D03*
X309880Y330200D03*
X269240Y411480D03*
X132080Y401320D03*
X289560Y411480D03*
X289560Y330200D03*
M02*
