M48
;GenerationSoftware,Autodesk,EAGLE,9.6.2*%
;CreationDate,2025-07-07T13:46:03Z*%
FMAT,2
ICI,OFF
METRIC,TZ,000.000
T6C0.813
T5C1.000
T4C1.016
T3C1.100
T2C2.997
T1C3.200
%
G90
M71
T1
X66040Y7620
X66040Y35560
X15240Y50800
X13970Y2540
T2
X11795Y8001
X5795Y8001
X8795Y3301
T3
X64108Y23594
X64108Y20094
X64108Y31722
X64108Y28222
X64108Y11966
X64108Y15466
T4
X41656Y50800
X39116Y50800
X36576Y50800
X34036Y50800
X31496Y50800
X28956Y50800
X43180Y2540
X23876Y50800
X21336Y50800
X18796Y50800
X58420Y39878
X26416Y50800
X27940Y2540
X30480Y2540
X33020Y2540
X35560Y2540
X38100Y2540
X40640Y2540
X45720Y2540
X50800Y2540
X53340Y2540
X55880Y2540
X58420Y2540
X60960Y2540
X63500Y2540
X63500Y50800
X60960Y50800
X58420Y50800
X55880Y50800
X53340Y50800
X50800Y50800
X48260Y50800
X45720Y50800
X37338Y45720
X39878Y45720
X42418Y45720
X44958Y45720
X47498Y45720
X50038Y45720
X37338Y33020
X39878Y33020
X42418Y33020
X44958Y33020
X47498Y33020
X50038Y33020
X58420Y34798
X58420Y37338
X58420Y42418
X58420Y44958
X58420Y47498
X9652Y28702
X9652Y31242
X9652Y33782
X9652Y36322
X9652Y38862
X9652Y41402
X9652Y43942
X9652Y46482
X3556Y26670
X3556Y29210
X3556Y31750
X3556Y34290
T5
X28956Y33020
X28956Y41148
X18796Y45212
X55372Y32004
X54356Y20828
X15748Y28448
X15748Y24384
X52832Y27940
X52832Y32004
X13208Y28448
X18288Y4572
X33020Y41148
X33020Y33020
X30988Y41148
X30988Y33020
X26924Y41148
X13208Y40132
T6
X37338Y8382
X37338Y16002
X34798Y16002
X39878Y8382
X42418Y8382
X39878Y16002
X42418Y16002
X28956Y13462
X28956Y10922
X48260Y10922
X48260Y13462
X56642Y8890
X54102Y8890
X39878Y20066
X54356Y19050
X54356Y11430
X42418Y27686
X34798Y27686
X37338Y27686
X46228Y27686
X46228Y20066
X37338Y20066
X34798Y20066
X42418Y20066
X39878Y27686
X56896Y19050
X56896Y11430
X56642Y6350
X34798Y8382
M30