G04 EAGLE Gerber RS-274X export*
G75*
%MOMM*%
%FSLAX34Y34*%
%LPD*%
%INSilkscreen Top*%
%IPPOS*%
%AMOC8*
5,1,8,0,0,1.08239X$1,22.5*%
G01*
%ADD10C,0.304800*%
%ADD11C,0.203200*%
%ADD12C,0.177800*%
%ADD13C,0.152400*%
%ADD14C,0.101600*%
%ADD15R,0.508000X0.381000*%
%ADD16C,0.127000*%
%ADD17C,0.050800*%

G36*
X662337Y264518D02*
X662337Y264518D01*
X662359Y264516D01*
X662458Y264545D01*
X662511Y264556D01*
X662520Y264563D01*
X662532Y264566D01*
X668882Y267741D01*
X668935Y267783D01*
X668993Y267817D01*
X669013Y267844D01*
X669040Y267865D01*
X669073Y267923D01*
X669113Y267977D01*
X669121Y268010D01*
X669138Y268040D01*
X669145Y268107D01*
X669162Y268172D01*
X669157Y268205D01*
X669160Y268239D01*
X669141Y268304D01*
X669131Y268370D01*
X669113Y268399D01*
X669104Y268431D01*
X669061Y268483D01*
X669026Y268541D01*
X668997Y268563D01*
X668978Y268587D01*
X668934Y268610D01*
X668882Y268649D01*
X662532Y271824D01*
X662510Y271829D01*
X662492Y271842D01*
X662414Y271856D01*
X662338Y271876D01*
X662316Y271873D01*
X662295Y271877D01*
X662218Y271860D01*
X662140Y271850D01*
X662121Y271838D01*
X662099Y271834D01*
X662035Y271788D01*
X661967Y271748D01*
X661954Y271730D01*
X661936Y271718D01*
X661894Y271651D01*
X661847Y271588D01*
X661841Y271566D01*
X661830Y271547D01*
X661811Y271446D01*
X661798Y271393D01*
X661800Y271382D01*
X661798Y271370D01*
X661798Y265020D01*
X661802Y264998D01*
X661800Y264976D01*
X661822Y264901D01*
X661837Y264824D01*
X661850Y264805D01*
X661856Y264784D01*
X661906Y264723D01*
X661950Y264658D01*
X661969Y264646D01*
X661983Y264628D01*
X662052Y264591D01*
X662118Y264548D01*
X662140Y264545D01*
X662159Y264534D01*
X662238Y264527D01*
X662315Y264513D01*
X662337Y264518D01*
G37*
G36*
X662337Y183238D02*
X662337Y183238D01*
X662359Y183236D01*
X662458Y183265D01*
X662511Y183276D01*
X662520Y183283D01*
X662532Y183286D01*
X668882Y186461D01*
X668935Y186503D01*
X668993Y186537D01*
X669013Y186564D01*
X669040Y186585D01*
X669073Y186643D01*
X669113Y186697D01*
X669121Y186730D01*
X669138Y186760D01*
X669145Y186827D01*
X669162Y186892D01*
X669157Y186925D01*
X669160Y186959D01*
X669141Y187024D01*
X669131Y187090D01*
X669113Y187119D01*
X669104Y187151D01*
X669061Y187203D01*
X669026Y187261D01*
X668997Y187283D01*
X668978Y187307D01*
X668934Y187330D01*
X668882Y187369D01*
X662532Y190544D01*
X662510Y190549D01*
X662492Y190562D01*
X662414Y190576D01*
X662338Y190596D01*
X662316Y190593D01*
X662295Y190597D01*
X662218Y190580D01*
X662140Y190570D01*
X662121Y190558D01*
X662099Y190554D01*
X662035Y190508D01*
X661967Y190468D01*
X661954Y190450D01*
X661936Y190438D01*
X661894Y190371D01*
X661847Y190308D01*
X661841Y190286D01*
X661830Y190267D01*
X661811Y190166D01*
X661798Y190113D01*
X661800Y190102D01*
X661798Y190090D01*
X661798Y183740D01*
X661802Y183718D01*
X661800Y183696D01*
X661822Y183621D01*
X661837Y183544D01*
X661850Y183525D01*
X661856Y183504D01*
X661906Y183443D01*
X661950Y183378D01*
X661969Y183366D01*
X661983Y183348D01*
X662052Y183311D01*
X662118Y183268D01*
X662140Y183265D01*
X662159Y183254D01*
X662238Y183247D01*
X662315Y183233D01*
X662337Y183238D01*
G37*
G36*
X662337Y101958D02*
X662337Y101958D01*
X662359Y101956D01*
X662458Y101985D01*
X662511Y101996D01*
X662520Y102003D01*
X662532Y102006D01*
X668882Y105181D01*
X668935Y105223D01*
X668993Y105257D01*
X669013Y105284D01*
X669040Y105305D01*
X669073Y105363D01*
X669113Y105417D01*
X669121Y105450D01*
X669138Y105480D01*
X669145Y105547D01*
X669162Y105612D01*
X669157Y105645D01*
X669160Y105679D01*
X669141Y105744D01*
X669131Y105810D01*
X669113Y105839D01*
X669104Y105871D01*
X669061Y105923D01*
X669026Y105981D01*
X668997Y106003D01*
X668978Y106027D01*
X668934Y106050D01*
X668882Y106089D01*
X662532Y109264D01*
X662510Y109269D01*
X662492Y109282D01*
X662414Y109296D01*
X662338Y109316D01*
X662316Y109313D01*
X662295Y109317D01*
X662218Y109300D01*
X662140Y109290D01*
X662121Y109278D01*
X662099Y109274D01*
X662035Y109228D01*
X661967Y109188D01*
X661954Y109170D01*
X661936Y109158D01*
X661894Y109091D01*
X661847Y109028D01*
X661841Y109006D01*
X661830Y108987D01*
X661811Y108886D01*
X661798Y108833D01*
X661800Y108822D01*
X661798Y108810D01*
X661798Y102460D01*
X661802Y102438D01*
X661800Y102416D01*
X661822Y102341D01*
X661837Y102264D01*
X661850Y102245D01*
X661856Y102224D01*
X661906Y102163D01*
X661950Y102098D01*
X661969Y102086D01*
X661983Y102068D01*
X662052Y102031D01*
X662118Y101988D01*
X662140Y101985D01*
X662159Y101974D01*
X662238Y101967D01*
X662315Y101953D01*
X662337Y101958D01*
G37*
D10*
X637540Y5080D02*
X25400Y5080D01*
X24909Y5086D01*
X24418Y5104D01*
X23928Y5133D01*
X23439Y5175D01*
X22951Y5228D01*
X22464Y5293D01*
X21979Y5370D01*
X21496Y5459D01*
X21015Y5559D01*
X20537Y5670D01*
X20062Y5794D01*
X19590Y5928D01*
X19121Y6075D01*
X18656Y6232D01*
X18194Y6400D01*
X17737Y6580D01*
X17285Y6771D01*
X16837Y6972D01*
X16394Y7185D01*
X15957Y7408D01*
X15525Y7641D01*
X15099Y7885D01*
X14678Y8139D01*
X14264Y8403D01*
X13857Y8677D01*
X13456Y8961D01*
X13062Y9254D01*
X12676Y9557D01*
X12297Y9869D01*
X11925Y10190D01*
X11562Y10520D01*
X11206Y10859D01*
X10859Y11206D01*
X10520Y11562D01*
X10190Y11925D01*
X9869Y12297D01*
X9557Y12676D01*
X9254Y13062D01*
X8961Y13456D01*
X8677Y13857D01*
X8403Y14264D01*
X8139Y14678D01*
X7885Y15099D01*
X7641Y15525D01*
X7408Y15957D01*
X7185Y16394D01*
X6972Y16837D01*
X6771Y17285D01*
X6580Y17737D01*
X6400Y18194D01*
X6232Y18656D01*
X6075Y19121D01*
X5928Y19590D01*
X5794Y20062D01*
X5670Y20537D01*
X5559Y21015D01*
X5459Y21496D01*
X5370Y21979D01*
X5293Y22464D01*
X5228Y22951D01*
X5175Y23439D01*
X5133Y23928D01*
X5104Y24418D01*
X5086Y24909D01*
X5080Y25400D01*
X5080Y508000D01*
X5086Y508491D01*
X5104Y508982D01*
X5133Y509472D01*
X5175Y509961D01*
X5228Y510449D01*
X5293Y510936D01*
X5370Y511421D01*
X5459Y511904D01*
X5559Y512385D01*
X5670Y512863D01*
X5794Y513338D01*
X5928Y513810D01*
X6075Y514279D01*
X6232Y514744D01*
X6400Y515206D01*
X6580Y515663D01*
X6771Y516115D01*
X6972Y516563D01*
X7185Y517006D01*
X7408Y517443D01*
X7641Y517875D01*
X7885Y518301D01*
X8139Y518722D01*
X8403Y519136D01*
X8677Y519543D01*
X8961Y519944D01*
X9254Y520338D01*
X9557Y520724D01*
X9869Y521103D01*
X10190Y521475D01*
X10520Y521838D01*
X10859Y522194D01*
X11206Y522541D01*
X11562Y522880D01*
X11925Y523210D01*
X12297Y523531D01*
X12676Y523843D01*
X13062Y524146D01*
X13456Y524439D01*
X13857Y524723D01*
X14264Y524997D01*
X14678Y525261D01*
X15099Y525515D01*
X15525Y525759D01*
X15957Y525992D01*
X16394Y526215D01*
X16837Y526428D01*
X17285Y526629D01*
X17737Y526820D01*
X18194Y527000D01*
X18656Y527168D01*
X19121Y527325D01*
X19590Y527472D01*
X20062Y527606D01*
X20537Y527730D01*
X21015Y527841D01*
X21496Y527941D01*
X21979Y528030D01*
X22464Y528107D01*
X22951Y528172D01*
X23439Y528225D01*
X23928Y528267D01*
X24418Y528296D01*
X24909Y528314D01*
X25400Y528320D01*
X635000Y528320D01*
X635491Y528314D01*
X635982Y528296D01*
X636472Y528267D01*
X636961Y528225D01*
X637449Y528172D01*
X637936Y528107D01*
X638421Y528030D01*
X638904Y527941D01*
X639385Y527841D01*
X639863Y527730D01*
X640338Y527606D01*
X640810Y527472D01*
X641279Y527325D01*
X641744Y527168D01*
X642206Y527000D01*
X642663Y526820D01*
X643115Y526629D01*
X643563Y526428D01*
X644006Y526215D01*
X644443Y525992D01*
X644875Y525759D01*
X645301Y525515D01*
X645722Y525261D01*
X646136Y524997D01*
X646543Y524723D01*
X646944Y524439D01*
X647338Y524146D01*
X647724Y523843D01*
X648103Y523531D01*
X648475Y523210D01*
X648838Y522880D01*
X649194Y522541D01*
X649541Y522194D01*
X649880Y521838D01*
X650210Y521475D01*
X650531Y521103D01*
X650843Y520724D01*
X651146Y520338D01*
X651439Y519944D01*
X651723Y519543D01*
X651997Y519136D01*
X652261Y518722D01*
X652515Y518301D01*
X652759Y517875D01*
X652992Y517443D01*
X653215Y517006D01*
X653428Y516563D01*
X653629Y516115D01*
X653820Y515663D01*
X654000Y515206D01*
X654168Y514744D01*
X654325Y514279D01*
X654472Y513810D01*
X654606Y513338D01*
X654730Y512863D01*
X654841Y512385D01*
X654941Y511904D01*
X655030Y511421D01*
X655107Y510936D01*
X655172Y510449D01*
X655225Y509961D01*
X655267Y509472D01*
X655296Y508982D01*
X655314Y508491D01*
X655320Y508000D01*
X655320Y403860D01*
X683260Y375920D01*
X683260Y53340D01*
X655320Y25400D01*
X655345Y24939D01*
X655359Y24478D01*
X655362Y24017D01*
X655353Y23555D01*
X655334Y23095D01*
X655303Y22634D01*
X655262Y22175D01*
X655209Y21716D01*
X655145Y21259D01*
X655070Y20804D01*
X654984Y20351D01*
X654887Y19900D01*
X654780Y19451D01*
X654661Y19005D01*
X654532Y18562D01*
X654392Y18123D01*
X654242Y17687D01*
X654081Y17254D01*
X653910Y16826D01*
X653728Y16402D01*
X653536Y15982D01*
X653334Y15567D01*
X653122Y15157D01*
X652900Y14753D01*
X652669Y14354D01*
X652428Y13960D01*
X652178Y13573D01*
X651918Y13192D01*
X651649Y12817D01*
X651371Y12448D01*
X651084Y12087D01*
X650789Y11732D01*
X650485Y11385D01*
X650173Y11045D01*
X649853Y10713D01*
X649525Y10389D01*
X649189Y10073D01*
X648845Y9765D01*
X648495Y9465D01*
X648137Y9174D01*
X647772Y8891D01*
X647400Y8618D01*
X647022Y8354D01*
X646638Y8098D01*
X646247Y7853D01*
X645851Y7616D01*
X645449Y7389D01*
X645042Y7173D01*
X644630Y6966D01*
X644213Y6769D01*
X643791Y6582D01*
X643365Y6405D01*
X642934Y6239D01*
X642500Y6083D01*
X642062Y5938D01*
X641621Y5803D01*
X641176Y5679D01*
X640729Y5566D01*
X640279Y5464D01*
X639827Y5372D01*
X639373Y5292D01*
X638917Y5222D01*
X638459Y5164D01*
X638000Y5117D01*
X637540Y5080D01*
X22860Y20320D02*
X12700Y20320D01*
X17780Y25400D02*
X17780Y15240D01*
X30480Y20320D02*
X40640Y20320D01*
X43180Y20320D01*
X43180Y17780D02*
X43280Y17782D01*
X43379Y17788D01*
X43479Y17798D01*
X43577Y17811D01*
X43676Y17829D01*
X43773Y17850D01*
X43869Y17875D01*
X43965Y17904D01*
X44059Y17937D01*
X44152Y17973D01*
X44243Y18013D01*
X44333Y18057D01*
X44421Y18104D01*
X44507Y18154D01*
X44591Y18208D01*
X44673Y18265D01*
X44752Y18325D01*
X44830Y18389D01*
X44904Y18455D01*
X44976Y18524D01*
X45045Y18596D01*
X45111Y18670D01*
X45175Y18748D01*
X45235Y18827D01*
X45292Y18909D01*
X45346Y18993D01*
X45396Y19079D01*
X45443Y19167D01*
X45487Y19257D01*
X45527Y19348D01*
X45563Y19441D01*
X45596Y19535D01*
X45625Y19631D01*
X45650Y19727D01*
X45671Y19824D01*
X45689Y19923D01*
X45702Y20021D01*
X45712Y20121D01*
X45718Y20220D01*
X45720Y20320D01*
X45718Y20420D01*
X45712Y20519D01*
X45702Y20619D01*
X45689Y20717D01*
X45671Y20816D01*
X45650Y20913D01*
X45625Y21009D01*
X45596Y21105D01*
X45563Y21199D01*
X45527Y21292D01*
X45487Y21383D01*
X45443Y21473D01*
X45396Y21561D01*
X45346Y21647D01*
X45292Y21731D01*
X45235Y21813D01*
X45175Y21892D01*
X45111Y21970D01*
X45045Y22044D01*
X44976Y22116D01*
X44904Y22185D01*
X44830Y22251D01*
X44752Y22315D01*
X44673Y22375D01*
X44591Y22432D01*
X44507Y22486D01*
X44421Y22536D01*
X44333Y22583D01*
X44243Y22627D01*
X44152Y22667D01*
X44059Y22703D01*
X43965Y22736D01*
X43869Y22765D01*
X43773Y22790D01*
X43676Y22811D01*
X43577Y22829D01*
X43479Y22842D01*
X43379Y22852D01*
X43280Y22858D01*
X43180Y22860D01*
X43080Y22858D01*
X42981Y22852D01*
X42881Y22842D01*
X42783Y22829D01*
X42684Y22811D01*
X42587Y22790D01*
X42491Y22765D01*
X42395Y22736D01*
X42301Y22703D01*
X42208Y22667D01*
X42117Y22627D01*
X42027Y22583D01*
X41939Y22536D01*
X41853Y22486D01*
X41769Y22432D01*
X41687Y22375D01*
X41608Y22315D01*
X41530Y22251D01*
X41456Y22185D01*
X41384Y22116D01*
X41315Y22044D01*
X41249Y21970D01*
X41185Y21892D01*
X41125Y21813D01*
X41068Y21731D01*
X41014Y21647D01*
X40964Y21561D01*
X40917Y21473D01*
X40873Y21383D01*
X40833Y21292D01*
X40797Y21199D01*
X40764Y21105D01*
X40735Y21009D01*
X40710Y20913D01*
X40689Y20816D01*
X40671Y20717D01*
X40658Y20619D01*
X40648Y20519D01*
X40642Y20420D01*
X40640Y20320D01*
X40642Y20220D01*
X40648Y20121D01*
X40658Y20021D01*
X40671Y19923D01*
X40689Y19824D01*
X40710Y19727D01*
X40735Y19631D01*
X40764Y19535D01*
X40797Y19441D01*
X40833Y19348D01*
X40873Y19257D01*
X40917Y19167D01*
X40964Y19079D01*
X41014Y18993D01*
X41068Y18909D01*
X41125Y18827D01*
X41185Y18748D01*
X41249Y18670D01*
X41315Y18596D01*
X41384Y18524D01*
X41456Y18455D01*
X41530Y18389D01*
X41608Y18325D01*
X41687Y18265D01*
X41769Y18208D01*
X41853Y18154D01*
X41939Y18104D01*
X42027Y18057D01*
X42117Y18013D01*
X42208Y17973D01*
X42301Y17937D01*
X42395Y17904D01*
X42491Y17875D01*
X42587Y17850D01*
X42684Y17829D01*
X42783Y17811D01*
X42881Y17798D01*
X42981Y17788D01*
X43080Y17782D01*
X43180Y17780D01*
X36830Y13970D02*
X36988Y13816D01*
X37149Y13666D01*
X37315Y13520D01*
X37483Y13378D01*
X37655Y13241D01*
X37831Y13107D01*
X38009Y12978D01*
X38191Y12853D01*
X38376Y12733D01*
X38563Y12618D01*
X38754Y12507D01*
X38947Y12400D01*
X39142Y12299D01*
X39341Y12202D01*
X39541Y12110D01*
X39744Y12024D01*
X39948Y11942D01*
X40155Y11865D01*
X40363Y11793D01*
X40573Y11727D01*
X40785Y11665D01*
X40998Y11609D01*
X41212Y11558D01*
X41428Y11513D01*
X41645Y11472D01*
X41862Y11437D01*
X42081Y11408D01*
X42300Y11383D01*
X42519Y11364D01*
X42739Y11351D01*
X42960Y11343D01*
X43180Y11340D01*
X43400Y11343D01*
X43621Y11351D01*
X43841Y11364D01*
X44060Y11383D01*
X44279Y11408D01*
X44498Y11437D01*
X44715Y11472D01*
X44932Y11513D01*
X45148Y11558D01*
X45362Y11609D01*
X45575Y11665D01*
X45787Y11727D01*
X45997Y11793D01*
X46205Y11865D01*
X46412Y11942D01*
X46616Y12024D01*
X46819Y12110D01*
X47019Y12202D01*
X47218Y12299D01*
X47413Y12400D01*
X47606Y12507D01*
X47797Y12618D01*
X47984Y12733D01*
X48169Y12853D01*
X48351Y12978D01*
X48529Y13107D01*
X48705Y13241D01*
X48877Y13378D01*
X49045Y13520D01*
X49211Y13666D01*
X49372Y13816D01*
X49530Y13970D01*
X49684Y14128D01*
X49834Y14289D01*
X49980Y14455D01*
X50122Y14623D01*
X50259Y14795D01*
X50393Y14971D01*
X50522Y15149D01*
X50647Y15331D01*
X50767Y15516D01*
X50882Y15703D01*
X50993Y15894D01*
X51100Y16087D01*
X51201Y16282D01*
X51298Y16481D01*
X51390Y16681D01*
X51476Y16884D01*
X51558Y17088D01*
X51635Y17295D01*
X51707Y17503D01*
X51773Y17713D01*
X51835Y17925D01*
X51891Y18138D01*
X51942Y18352D01*
X51987Y18568D01*
X52028Y18785D01*
X52063Y19002D01*
X52092Y19221D01*
X52117Y19440D01*
X52136Y19659D01*
X52149Y19879D01*
X52157Y20100D01*
X52160Y20320D01*
X52157Y20540D01*
X52149Y20761D01*
X52136Y20981D01*
X52117Y21200D01*
X52092Y21419D01*
X52063Y21638D01*
X52028Y21855D01*
X51987Y22072D01*
X51942Y22288D01*
X51891Y22502D01*
X51835Y22715D01*
X51773Y22927D01*
X51707Y23137D01*
X51635Y23345D01*
X51558Y23552D01*
X51476Y23756D01*
X51390Y23959D01*
X51298Y24159D01*
X51201Y24358D01*
X51100Y24553D01*
X50993Y24746D01*
X50882Y24937D01*
X50767Y25124D01*
X50647Y25309D01*
X50522Y25491D01*
X50393Y25669D01*
X50259Y25845D01*
X50122Y26017D01*
X49980Y26185D01*
X49834Y26351D01*
X49684Y26512D01*
X49530Y26670D01*
X49372Y26824D01*
X49211Y26974D01*
X49045Y27120D01*
X48877Y27262D01*
X48705Y27399D01*
X48529Y27533D01*
X48351Y27662D01*
X48169Y27787D01*
X47984Y27907D01*
X47797Y28022D01*
X47606Y28133D01*
X47413Y28240D01*
X47218Y28341D01*
X47019Y28438D01*
X46819Y28530D01*
X46616Y28616D01*
X46412Y28698D01*
X46205Y28775D01*
X45997Y28847D01*
X45787Y28913D01*
X45575Y28975D01*
X45362Y29031D01*
X45148Y29082D01*
X44932Y29127D01*
X44715Y29168D01*
X44498Y29203D01*
X44279Y29232D01*
X44060Y29257D01*
X43841Y29276D01*
X43621Y29289D01*
X43400Y29297D01*
X43180Y29300D01*
X42960Y29297D01*
X42739Y29289D01*
X42519Y29276D01*
X42300Y29257D01*
X42081Y29232D01*
X41862Y29203D01*
X41645Y29168D01*
X41428Y29127D01*
X41212Y29082D01*
X40998Y29031D01*
X40785Y28975D01*
X40573Y28913D01*
X40363Y28847D01*
X40155Y28775D01*
X39948Y28698D01*
X39744Y28616D01*
X39541Y28530D01*
X39341Y28438D01*
X39142Y28341D01*
X38947Y28240D01*
X38754Y28133D01*
X38563Y28022D01*
X38376Y27907D01*
X38191Y27787D01*
X38009Y27662D01*
X37831Y27533D01*
X37655Y27399D01*
X37483Y27262D01*
X37315Y27120D01*
X37149Y26974D01*
X36988Y26824D01*
X36830Y26670D01*
X52070Y20320D02*
X54610Y20320D01*
X59690Y20320D02*
X67310Y20320D01*
D11*
X146045Y69596D02*
X146045Y76714D01*
X142486Y73155D02*
X149605Y73155D01*
X140707Y81290D02*
X140707Y88408D01*
X140707Y81290D02*
X146045Y81290D01*
X144266Y84849D01*
X144266Y86629D01*
X146045Y88408D01*
X149605Y88408D01*
X151384Y86629D01*
X151384Y83069D01*
X149605Y81290D01*
X147825Y92984D02*
X140707Y92984D01*
X147825Y92984D02*
X151384Y96543D01*
X147825Y100102D01*
X140707Y100102D01*
D12*
X59822Y348240D02*
X58424Y349638D01*
X55627Y349638D01*
X54229Y348240D01*
X54229Y346842D01*
X55627Y345444D01*
X58424Y345444D01*
X59822Y344045D01*
X59822Y342647D01*
X58424Y341249D01*
X55627Y341249D01*
X54229Y342647D01*
X63584Y341249D02*
X63584Y349638D01*
X63584Y341249D02*
X67779Y341249D01*
X69177Y342647D01*
X69177Y348240D01*
X67779Y349638D01*
X63584Y349638D01*
X72939Y346842D02*
X72939Y341249D01*
X72939Y346842D02*
X75736Y349638D01*
X78532Y346842D01*
X78532Y341249D01*
X78532Y345444D02*
X72939Y345444D01*
X58424Y324238D02*
X59822Y322840D01*
X58424Y324238D02*
X55627Y324238D01*
X54229Y322840D01*
X54229Y321442D01*
X55627Y320044D01*
X58424Y320044D01*
X59822Y318645D01*
X59822Y317247D01*
X58424Y315849D01*
X55627Y315849D01*
X54229Y317247D01*
X67779Y324238D02*
X69177Y322840D01*
X67779Y324238D02*
X64982Y324238D01*
X63584Y322840D01*
X63584Y317247D01*
X64982Y315849D01*
X67779Y315849D01*
X69177Y317247D01*
X72939Y315849D02*
X72939Y324238D01*
X72939Y315849D02*
X78532Y315849D01*
X59822Y297440D02*
X58424Y298838D01*
X55627Y298838D01*
X54229Y297440D01*
X54229Y291847D01*
X55627Y290449D01*
X58424Y290449D01*
X59822Y291847D01*
X59822Y294644D01*
X57025Y294644D01*
X63584Y290449D02*
X63584Y298838D01*
X69177Y290449D01*
X69177Y298838D01*
X72939Y298838D02*
X72939Y290449D01*
X77134Y290449D01*
X78532Y291847D01*
X78532Y297440D01*
X77134Y298838D01*
X72939Y298838D01*
X59822Y269244D02*
X54229Y269244D01*
X57025Y272040D02*
X57025Y266447D01*
X63584Y273438D02*
X69177Y273438D01*
X63584Y273438D02*
X63584Y269244D01*
X66381Y270642D01*
X67779Y270642D01*
X69177Y269244D01*
X69177Y266447D01*
X67779Y265049D01*
X64982Y265049D01*
X63584Y266447D01*
X72939Y267845D02*
X72939Y273438D01*
X72939Y267845D02*
X75736Y265049D01*
X78532Y267845D01*
X78532Y273438D01*
X119384Y288678D02*
X120782Y287280D01*
X119384Y288678D02*
X116587Y288678D01*
X115189Y287280D01*
X115189Y281687D01*
X116587Y280289D01*
X119384Y280289D01*
X120782Y281687D01*
X120782Y284484D01*
X117985Y284484D01*
X124544Y280289D02*
X124544Y288678D01*
X130137Y280289D01*
X130137Y288678D01*
X133899Y288678D02*
X133899Y280289D01*
X138094Y280289D01*
X139492Y281687D01*
X139492Y287280D01*
X138094Y288678D01*
X133899Y288678D01*
X120782Y309884D02*
X115189Y309884D01*
X117985Y312680D02*
X117985Y307087D01*
X124544Y312680D02*
X125942Y314078D01*
X128739Y314078D01*
X130137Y312680D01*
X130137Y311282D01*
X128739Y309884D01*
X127341Y309884D01*
X128739Y309884D02*
X130137Y308485D01*
X130137Y307087D01*
X128739Y305689D01*
X125942Y305689D01*
X124544Y307087D01*
X133899Y307087D02*
X133899Y305689D01*
X133899Y307087D02*
X135298Y307087D01*
X135298Y305689D01*
X133899Y305689D01*
X138577Y312680D02*
X139975Y314078D01*
X142772Y314078D01*
X144170Y312680D01*
X144170Y311282D01*
X142772Y309884D01*
X141373Y309884D01*
X142772Y309884D02*
X144170Y308485D01*
X144170Y307087D01*
X142772Y305689D01*
X139975Y305689D01*
X138577Y307087D01*
X147932Y308485D02*
X147932Y314078D01*
X147932Y308485D02*
X150729Y305689D01*
X153525Y308485D01*
X153525Y314078D01*
X120782Y335284D02*
X115189Y335284D01*
X117985Y338080D02*
X117985Y332487D01*
X124544Y339478D02*
X130137Y339478D01*
X124544Y339478D02*
X124544Y335284D01*
X127341Y336682D01*
X128739Y336682D01*
X130137Y335284D01*
X130137Y332487D01*
X128739Y331089D01*
X125942Y331089D01*
X124544Y332487D01*
X133899Y333885D02*
X133899Y339478D01*
X133899Y333885D02*
X136696Y331089D01*
X139492Y333885D01*
X139492Y339478D01*
X120782Y363480D02*
X119384Y364878D01*
X116587Y364878D01*
X115189Y363480D01*
X115189Y357887D01*
X116587Y356489D01*
X119384Y356489D01*
X120782Y357887D01*
X128739Y364878D02*
X130137Y363480D01*
X128739Y364878D02*
X125942Y364878D01*
X124544Y363480D01*
X124544Y362082D01*
X125942Y360684D01*
X128739Y360684D01*
X130137Y359285D01*
X130137Y357887D01*
X128739Y356489D01*
X125942Y356489D01*
X124544Y357887D01*
X115189Y381889D02*
X115189Y390278D01*
X117985Y387482D01*
X120782Y390278D01*
X120782Y381889D01*
X125942Y390278D02*
X128739Y390278D01*
X125942Y390278D02*
X124544Y388880D01*
X124544Y383287D01*
X125942Y381889D01*
X128739Y381889D01*
X130137Y383287D01*
X130137Y388880D01*
X128739Y390278D01*
X138094Y390278D02*
X139492Y388880D01*
X138094Y390278D02*
X135298Y390278D01*
X133899Y388880D01*
X133899Y387482D01*
X135298Y386084D01*
X138094Y386084D01*
X139492Y384685D01*
X139492Y383287D01*
X138094Y381889D01*
X135298Y381889D01*
X133899Y383287D01*
X143255Y381889D02*
X146051Y381889D01*
X144653Y381889D02*
X144653Y390278D01*
X143255Y390278D02*
X146051Y390278D01*
X120782Y414280D02*
X119384Y415678D01*
X116587Y415678D01*
X115189Y414280D01*
X115189Y412882D01*
X116587Y411484D01*
X119384Y411484D01*
X120782Y410085D01*
X120782Y408687D01*
X119384Y407289D01*
X116587Y407289D01*
X115189Y408687D01*
X128739Y415678D02*
X130137Y414280D01*
X128739Y415678D02*
X125942Y415678D01*
X124544Y414280D01*
X124544Y408687D01*
X125942Y407289D01*
X128739Y407289D01*
X130137Y408687D01*
X133899Y407289D02*
X133899Y415678D01*
X133899Y410085D02*
X139492Y415678D01*
X135298Y411484D02*
X139492Y407289D01*
X115189Y432689D02*
X115189Y441078D01*
X117985Y438282D01*
X120782Y441078D01*
X120782Y432689D01*
X124544Y432689D02*
X127341Y432689D01*
X125942Y432689D02*
X125942Y441078D01*
X124544Y441078D02*
X127341Y441078D01*
X134976Y441078D02*
X136374Y439680D01*
X134976Y441078D02*
X132179Y441078D01*
X130781Y439680D01*
X130781Y438282D01*
X132179Y436884D01*
X134976Y436884D01*
X136374Y435485D01*
X136374Y434087D01*
X134976Y432689D01*
X132179Y432689D01*
X130781Y434087D01*
X141534Y441078D02*
X144331Y441078D01*
X141534Y441078D02*
X140136Y439680D01*
X140136Y434087D01*
X141534Y432689D01*
X144331Y432689D01*
X145729Y434087D01*
X145729Y439680D01*
X144331Y441078D01*
X120782Y465080D02*
X119384Y466478D01*
X116587Y466478D01*
X115189Y465080D01*
X115189Y459487D01*
X116587Y458089D01*
X119384Y458089D01*
X120782Y459487D01*
X120782Y462284D01*
X117985Y462284D01*
X124544Y458089D02*
X124544Y466478D01*
X130137Y458089D01*
X130137Y466478D01*
X133899Y466478D02*
X133899Y458089D01*
X138094Y458089D01*
X139492Y459487D01*
X139492Y465080D01*
X138094Y466478D01*
X133899Y466478D01*
X369438Y421599D02*
X375031Y421599D01*
X369438Y421599D02*
X366642Y424395D01*
X369438Y427191D01*
X375031Y427191D01*
X370836Y427191D02*
X370836Y421599D01*
X370836Y430954D02*
X370836Y436547D01*
X368040Y433750D02*
X373633Y433750D01*
X394838Y421599D02*
X400431Y421599D01*
X394838Y421599D02*
X392042Y424395D01*
X394838Y427191D01*
X400431Y427191D01*
X396236Y427191D02*
X396236Y421599D01*
X393440Y430954D02*
X392042Y432352D01*
X392042Y435148D01*
X393440Y436547D01*
X394838Y436547D01*
X396236Y435148D01*
X396236Y433750D01*
X396236Y435148D02*
X397635Y436547D01*
X399033Y436547D01*
X400431Y435148D01*
X400431Y432352D01*
X399033Y430954D01*
X420238Y421599D02*
X425831Y421599D01*
X420238Y421599D02*
X417442Y424395D01*
X420238Y427191D01*
X425831Y427191D01*
X421636Y427191D02*
X421636Y421599D01*
X425831Y430954D02*
X425831Y436547D01*
X425831Y430954D02*
X420238Y436547D01*
X418840Y436547D01*
X417442Y435148D01*
X417442Y432352D01*
X418840Y430954D01*
X445638Y421599D02*
X451231Y421599D01*
X445638Y421599D02*
X442842Y424395D01*
X445638Y427191D01*
X451231Y427191D01*
X447036Y427191D02*
X447036Y421599D01*
X445638Y430954D02*
X442842Y433750D01*
X451231Y433750D01*
X451231Y430954D02*
X451231Y436547D01*
X471038Y421599D02*
X476631Y421599D01*
X471038Y421599D02*
X468242Y424395D01*
X471038Y427191D01*
X476631Y427191D01*
X472436Y427191D02*
X472436Y421599D01*
X469640Y430954D02*
X475233Y430954D01*
X469640Y430954D02*
X468242Y432352D01*
X468242Y435148D01*
X469640Y436547D01*
X475233Y436547D01*
X476631Y435148D01*
X476631Y432352D01*
X475233Y430954D01*
X469640Y436547D01*
X496438Y421599D02*
X502031Y421599D01*
X496438Y421599D02*
X493642Y424395D01*
X496438Y427191D01*
X502031Y427191D01*
X497836Y427191D02*
X497836Y421599D01*
X497836Y430954D02*
X497836Y436547D01*
X501518Y348869D02*
X507111Y348869D01*
X501518Y348869D02*
X498722Y351665D01*
X501518Y354462D01*
X507111Y354462D01*
X502916Y354462D02*
X502916Y348869D01*
X498722Y358224D02*
X507111Y358224D01*
X507111Y363817D01*
X507111Y367579D02*
X498722Y367579D01*
X498722Y371774D01*
X500120Y373172D01*
X502916Y373172D01*
X504315Y371774D01*
X504315Y367579D01*
X504315Y370376D02*
X507111Y373172D01*
X507111Y379731D02*
X498722Y379731D01*
X498722Y376935D02*
X498722Y382527D01*
X481711Y348869D02*
X476118Y348869D01*
X473322Y351665D01*
X476118Y354462D01*
X481711Y354462D01*
X477516Y354462D02*
X477516Y348869D01*
X473322Y358224D02*
X481711Y358224D01*
X481711Y362419D01*
X480313Y363817D01*
X474720Y363817D01*
X473322Y362419D01*
X473322Y358224D01*
X473322Y367579D02*
X481711Y367579D01*
X481711Y371774D01*
X480313Y373172D01*
X474720Y373172D01*
X473322Y371774D01*
X473322Y367579D01*
X473322Y376935D02*
X481711Y376935D01*
X473322Y376935D02*
X473322Y381129D01*
X474720Y382527D01*
X477516Y382527D01*
X478915Y381129D01*
X478915Y376935D01*
X478915Y379731D02*
X481711Y382527D01*
X449320Y354462D02*
X447922Y353064D01*
X447922Y350267D01*
X449320Y348869D01*
X450718Y348869D01*
X452116Y350267D01*
X452116Y353064D01*
X453515Y354462D01*
X454913Y354462D01*
X456311Y353064D01*
X456311Y350267D01*
X454913Y348869D01*
X456311Y358224D02*
X447922Y358224D01*
X456311Y358224D02*
X456311Y362419D01*
X454913Y363817D01*
X449320Y363817D01*
X447922Y362419D01*
X447922Y358224D01*
X450718Y367579D02*
X456311Y367579D01*
X450718Y367579D02*
X447922Y370376D01*
X450718Y373172D01*
X456311Y373172D01*
X452116Y373172D02*
X452116Y367579D01*
X423920Y354462D02*
X422522Y353064D01*
X422522Y350267D01*
X423920Y348869D01*
X425318Y348869D01*
X426716Y350267D01*
X426716Y353064D01*
X428115Y354462D01*
X429513Y354462D01*
X430911Y353064D01*
X430911Y350267D01*
X429513Y348869D01*
X422522Y362419D02*
X423920Y363817D01*
X422522Y362419D02*
X422522Y359622D01*
X423920Y358224D01*
X429513Y358224D01*
X430911Y359622D01*
X430911Y362419D01*
X429513Y363817D01*
X430911Y367579D02*
X422522Y367579D01*
X430911Y367579D02*
X430911Y373172D01*
X398520Y354462D02*
X397122Y353064D01*
X397122Y350267D01*
X398520Y348869D01*
X404113Y348869D01*
X405511Y350267D01*
X405511Y353064D01*
X404113Y354462D01*
X401316Y354462D01*
X401316Y351665D01*
X405511Y358224D02*
X397122Y358224D01*
X405511Y363817D01*
X397122Y363817D01*
X397122Y367579D02*
X405511Y367579D01*
X405511Y371774D01*
X404113Y373172D01*
X398520Y373172D01*
X397122Y371774D01*
X397122Y367579D01*
X371722Y354462D02*
X371722Y348869D01*
X375916Y348869D01*
X374518Y351665D01*
X374518Y353064D01*
X375916Y354462D01*
X378713Y354462D01*
X380111Y353064D01*
X380111Y350267D01*
X378713Y348869D01*
X377315Y358224D02*
X371722Y358224D01*
X377315Y358224D02*
X380111Y361021D01*
X377315Y363817D01*
X371722Y363817D01*
X602869Y442849D02*
X602869Y451238D01*
X607064Y451238D01*
X608462Y449840D01*
X608462Y447044D01*
X607064Y445645D01*
X602869Y445645D01*
X605665Y445645D02*
X608462Y442849D01*
X612224Y451238D02*
X617817Y442849D01*
X612224Y442849D02*
X617817Y451238D01*
X605665Y425838D02*
X605665Y417449D01*
X602869Y425838D02*
X608462Y425838D01*
X612224Y425838D02*
X617817Y417449D01*
X612224Y417449D02*
X617817Y425838D01*
X607064Y400438D02*
X608462Y399040D01*
X607064Y400438D02*
X604267Y400438D01*
X602869Y399040D01*
X602869Y393447D01*
X604267Y392049D01*
X607064Y392049D01*
X608462Y393447D01*
X608462Y396244D01*
X605665Y396244D01*
X612224Y392049D02*
X612224Y400438D01*
X617817Y392049D01*
X617817Y400438D01*
X621579Y400438D02*
X621579Y392049D01*
X625774Y392049D01*
X627172Y393447D01*
X627172Y399040D01*
X625774Y400438D01*
X621579Y400438D01*
X608462Y375038D02*
X602869Y375038D01*
X602869Y370844D01*
X605665Y372242D01*
X607064Y372242D01*
X608462Y370844D01*
X608462Y368047D01*
X607064Y366649D01*
X604267Y366649D01*
X602869Y368047D01*
X612224Y369445D02*
X612224Y375038D01*
X612224Y369445D02*
X615021Y366649D01*
X617817Y369445D01*
X617817Y375038D01*
X591560Y313822D02*
X590162Y312424D01*
X590162Y309627D01*
X591560Y308229D01*
X597153Y308229D01*
X598551Y309627D01*
X598551Y312424D01*
X597153Y313822D01*
X594356Y313822D01*
X594356Y311025D01*
X598551Y317584D02*
X590162Y317584D01*
X598551Y323177D01*
X590162Y323177D01*
X590162Y326939D02*
X598551Y326939D01*
X598551Y331134D01*
X597153Y332532D01*
X591560Y332532D01*
X590162Y331134D01*
X590162Y326939D01*
X590162Y272669D02*
X598551Y272669D01*
X590162Y272669D02*
X590162Y276864D01*
X591560Y278262D01*
X594356Y278262D01*
X595755Y276864D01*
X595755Y272669D01*
X598551Y282024D02*
X590162Y282024D01*
X594356Y282024D02*
X594356Y287617D01*
X590162Y287617D02*
X598551Y287617D01*
X590162Y292778D02*
X590162Y295574D01*
X590162Y292778D02*
X591560Y291379D01*
X597153Y291379D01*
X598551Y292778D01*
X598551Y295574D01*
X597153Y296972D01*
X591560Y296972D01*
X590162Y295574D01*
X590162Y226949D02*
X598551Y226949D01*
X598551Y232542D01*
X590162Y236304D02*
X590162Y241897D01*
X590162Y236304D02*
X598551Y236304D01*
X598551Y241897D01*
X594356Y239101D02*
X594356Y236304D01*
X590162Y245659D02*
X598551Y245659D01*
X598551Y249854D01*
X597153Y251252D01*
X591560Y251252D01*
X590162Y249854D01*
X590162Y245659D01*
X598551Y255015D02*
X598551Y260607D01*
X598551Y255015D02*
X592958Y260607D01*
X591560Y260607D01*
X590162Y259209D01*
X590162Y256413D01*
X591560Y255015D01*
X594356Y196982D02*
X594356Y191389D01*
X591560Y194185D02*
X597153Y194185D01*
X590162Y200744D02*
X590162Y206337D01*
X590162Y200744D02*
X594356Y200744D01*
X592958Y203541D01*
X592958Y204939D01*
X594356Y206337D01*
X597153Y206337D01*
X598551Y204939D01*
X598551Y202142D01*
X597153Y200744D01*
X595755Y210099D02*
X590162Y210099D01*
X595755Y210099D02*
X598551Y212896D01*
X595755Y215692D01*
X590162Y215692D01*
X590162Y145669D02*
X598551Y145669D01*
X598551Y151262D01*
X590162Y155024D02*
X590162Y160617D01*
X590162Y155024D02*
X598551Y155024D01*
X598551Y160617D01*
X594356Y157821D02*
X594356Y155024D01*
X590162Y164379D02*
X598551Y164379D01*
X598551Y168574D01*
X597153Y169972D01*
X591560Y169972D01*
X590162Y168574D01*
X590162Y164379D01*
X592958Y173735D02*
X590162Y176531D01*
X598551Y176531D01*
X598551Y173735D02*
X598551Y179327D01*
X594356Y115702D02*
X594356Y110109D01*
X591560Y112905D02*
X597153Y112905D01*
X590162Y119464D02*
X590162Y125057D01*
X590162Y119464D02*
X594356Y119464D01*
X592958Y122261D01*
X592958Y123659D01*
X594356Y125057D01*
X597153Y125057D01*
X598551Y123659D01*
X598551Y120862D01*
X597153Y119464D01*
X595755Y128819D02*
X590162Y128819D01*
X595755Y128819D02*
X598551Y131616D01*
X595755Y134412D01*
X590162Y134412D01*
D11*
X18796Y157226D02*
X18796Y167903D01*
X25914Y167903D01*
X22355Y162565D02*
X18796Y162565D01*
X30490Y167903D02*
X32269Y167903D01*
X32269Y157226D01*
X30490Y157226D02*
X34049Y157226D01*
X38286Y159006D02*
X38286Y164344D01*
X38286Y159006D02*
X40065Y157226D01*
X45404Y157226D01*
X45404Y164344D01*
X51759Y157226D02*
X55318Y157226D01*
X57098Y159006D01*
X57098Y162565D01*
X55318Y164344D01*
X51759Y164344D01*
X49980Y162565D01*
X49980Y159006D01*
X51759Y157226D01*
X61674Y157226D02*
X61674Y164344D01*
X61674Y160785D02*
X65233Y164344D01*
X67012Y164344D01*
X71419Y164344D02*
X73198Y164344D01*
X73198Y157226D01*
X71419Y157226D02*
X74978Y157226D01*
X73198Y167903D02*
X73198Y169683D01*
X79215Y164344D02*
X79215Y157226D01*
X79215Y164344D02*
X80994Y164344D01*
X82774Y162565D01*
X82774Y157226D01*
X82774Y162565D02*
X84553Y164344D01*
X86333Y162565D01*
X86333Y157226D01*
X92688Y157226D02*
X96247Y157226D01*
X92688Y157226D02*
X90909Y159006D01*
X90909Y162565D01*
X92688Y164344D01*
X96247Y164344D01*
X98027Y162565D01*
X98027Y160785D01*
X90909Y160785D01*
X104382Y159006D02*
X104382Y166124D01*
X104382Y159006D02*
X106162Y157226D01*
X106162Y164344D02*
X102603Y164344D01*
X112178Y157226D02*
X115737Y157226D01*
X112178Y157226D02*
X110399Y159006D01*
X110399Y162565D01*
X112178Y164344D01*
X115737Y164344D01*
X117517Y162565D01*
X117517Y160785D01*
X110399Y160785D01*
X122093Y157226D02*
X122093Y164344D01*
X122093Y160785D02*
X125652Y164344D01*
X127431Y164344D01*
X148870Y167903D02*
X150650Y166124D01*
X148870Y167903D02*
X145311Y167903D01*
X143532Y166124D01*
X143532Y164344D01*
X145311Y162565D01*
X148870Y162565D01*
X150650Y160785D01*
X150650Y159006D01*
X148870Y157226D01*
X145311Y157226D01*
X143532Y159006D01*
X155226Y157226D02*
X155226Y167903D01*
X157005Y164344D02*
X155226Y162565D01*
X157005Y164344D02*
X160564Y164344D01*
X162344Y162565D01*
X162344Y157226D01*
X166920Y164344D02*
X168699Y164344D01*
X168699Y157226D01*
X166920Y157226D02*
X170479Y157226D01*
X168699Y167903D02*
X168699Y169683D01*
X176495Y157226D02*
X180054Y157226D01*
X176495Y157226D02*
X174716Y159006D01*
X174716Y162565D01*
X176495Y164344D01*
X180054Y164344D01*
X181834Y162565D01*
X181834Y160785D01*
X174716Y160785D01*
X186410Y167903D02*
X188189Y167903D01*
X188189Y157226D01*
X186410Y157226D02*
X189969Y157226D01*
X201324Y157226D02*
X201324Y167903D01*
X201324Y157226D02*
X195985Y157226D01*
X194205Y159006D01*
X194205Y162565D01*
X195985Y164344D01*
X201324Y164344D01*
X18796Y145294D02*
X18796Y138176D01*
X18796Y145294D02*
X22355Y148853D01*
X25914Y145294D01*
X25914Y138176D01*
X25914Y143515D02*
X18796Y143515D01*
X30490Y139956D02*
X30490Y138176D01*
X30490Y139956D02*
X32269Y139956D01*
X32269Y138176D01*
X30490Y138176D01*
X41676Y148853D02*
X43455Y147074D01*
X41676Y148853D02*
X38116Y148853D01*
X36337Y147074D01*
X36337Y139956D01*
X38116Y138176D01*
X41676Y138176D01*
X43455Y139956D01*
X49810Y138176D02*
X53369Y138176D01*
X55149Y139956D01*
X55149Y143515D01*
X53369Y145294D01*
X49810Y145294D01*
X48031Y143515D01*
X48031Y139956D01*
X49810Y138176D01*
X59725Y139956D02*
X59725Y145294D01*
X59725Y139956D02*
X61504Y138176D01*
X66843Y138176D01*
X66843Y145294D01*
X71419Y145294D02*
X71419Y138176D01*
X71419Y141735D02*
X74978Y145294D01*
X76757Y145294D01*
X82943Y147074D02*
X82943Y139956D01*
X84723Y138176D01*
X84723Y145294D02*
X81164Y145294D01*
X90739Y145294D02*
X94298Y145294D01*
X96078Y143515D01*
X96078Y138176D01*
X90739Y138176D01*
X88960Y139956D01*
X90739Y141735D01*
X96078Y141735D01*
X100654Y139956D02*
X100654Y145294D01*
X100654Y139956D02*
X102433Y138176D01*
X107772Y138176D01*
X107772Y136397D02*
X107772Y145294D01*
X107772Y136397D02*
X105992Y134617D01*
X104213Y134617D01*
X117950Y56010D02*
X117950Y35010D01*
X63950Y35010D02*
X10950Y35010D01*
X110950Y35010D02*
X117950Y35010D01*
X117950Y125010D02*
X10950Y125010D01*
X117950Y125010D02*
X117950Y104010D01*
X10950Y125010D02*
X10950Y35010D01*
D13*
X425450Y38100D02*
X438150Y38100D01*
X444500Y31750D01*
X444500Y19050D01*
X438150Y12700D01*
X400050Y38100D02*
X393700Y31750D01*
X400050Y38100D02*
X412750Y38100D01*
X419100Y31750D01*
X419100Y19050D01*
X412750Y12700D01*
X400050Y12700D01*
X393700Y19050D01*
X419100Y31750D02*
X425450Y38100D01*
X419100Y19050D02*
X425450Y12700D01*
X438150Y12700D01*
X361950Y38100D02*
X349250Y38100D01*
X361950Y38100D02*
X368300Y31750D01*
X368300Y19050D01*
X361950Y12700D01*
X368300Y31750D02*
X374650Y38100D01*
X387350Y38100D01*
X393700Y31750D01*
X393700Y19050D01*
X387350Y12700D01*
X374650Y12700D01*
X368300Y19050D01*
X323850Y38100D02*
X317500Y31750D01*
X323850Y38100D02*
X336550Y38100D01*
X342900Y31750D01*
X342900Y19050D01*
X336550Y12700D01*
X323850Y12700D01*
X317500Y19050D01*
X342900Y31750D02*
X349250Y38100D01*
X342900Y19050D02*
X349250Y12700D01*
X361950Y12700D01*
X285750Y38100D02*
X273050Y38100D01*
X285750Y38100D02*
X292100Y31750D01*
X292100Y19050D01*
X285750Y12700D01*
X292100Y31750D02*
X298450Y38100D01*
X311150Y38100D01*
X317500Y31750D01*
X317500Y19050D01*
X311150Y12700D01*
X298450Y12700D01*
X292100Y19050D01*
X266700Y19050D02*
X266700Y31750D01*
X273050Y38100D01*
X266700Y19050D02*
X273050Y12700D01*
X285750Y12700D01*
X450850Y38100D02*
X463550Y38100D01*
X469900Y31750D01*
X469900Y19050D01*
X463550Y12700D01*
X444500Y31750D02*
X450850Y38100D01*
X444500Y19050D02*
X450850Y12700D01*
X463550Y12700D01*
X577850Y38100D02*
X590550Y38100D01*
X596900Y31750D01*
X596900Y19050D01*
X590550Y12700D01*
X596900Y31750D02*
X603250Y38100D01*
X615950Y38100D01*
X622300Y31750D01*
X622300Y19050D01*
X615950Y12700D01*
X603250Y12700D01*
X596900Y19050D01*
X552450Y38100D02*
X546100Y31750D01*
X552450Y38100D02*
X565150Y38100D01*
X571500Y31750D01*
X571500Y19050D01*
X565150Y12700D01*
X552450Y12700D01*
X546100Y19050D01*
X571500Y31750D02*
X577850Y38100D01*
X571500Y19050D02*
X577850Y12700D01*
X590550Y12700D01*
X514350Y38100D02*
X501650Y38100D01*
X514350Y38100D02*
X520700Y31750D01*
X520700Y19050D01*
X514350Y12700D01*
X520700Y31750D02*
X527050Y38100D01*
X539750Y38100D01*
X546100Y31750D01*
X546100Y19050D01*
X539750Y12700D01*
X527050Y12700D01*
X520700Y19050D01*
X495300Y19050D02*
X495300Y31750D01*
X501650Y38100D01*
X495300Y19050D02*
X501650Y12700D01*
X514350Y12700D01*
X628650Y38100D02*
X641350Y38100D01*
X647700Y31750D01*
X647700Y19050D01*
X641350Y12700D01*
X622300Y31750D02*
X628650Y38100D01*
X622300Y19050D02*
X628650Y12700D01*
X641350Y12700D01*
X488950Y495300D02*
X476250Y495300D01*
X469900Y501650D01*
X469900Y514350D01*
X476250Y520700D01*
X514350Y495300D02*
X520700Y501650D01*
X514350Y495300D02*
X501650Y495300D01*
X495300Y501650D01*
X495300Y514350D01*
X501650Y520700D01*
X514350Y520700D01*
X520700Y514350D01*
X495300Y501650D02*
X488950Y495300D01*
X495300Y514350D02*
X488950Y520700D01*
X476250Y520700D01*
X552450Y495300D02*
X565150Y495300D01*
X552450Y495300D02*
X546100Y501650D01*
X546100Y514350D01*
X552450Y520700D01*
X546100Y501650D02*
X539750Y495300D01*
X527050Y495300D01*
X520700Y501650D01*
X520700Y514350D01*
X527050Y520700D01*
X539750Y520700D01*
X546100Y514350D01*
X590550Y495300D02*
X596900Y501650D01*
X590550Y495300D02*
X577850Y495300D01*
X571500Y501650D01*
X571500Y514350D01*
X577850Y520700D01*
X590550Y520700D01*
X596900Y514350D01*
X571500Y501650D02*
X565150Y495300D01*
X571500Y514350D02*
X565150Y520700D01*
X552450Y520700D01*
X628650Y495300D02*
X641350Y495300D01*
X628650Y495300D02*
X622300Y501650D01*
X622300Y514350D01*
X628650Y520700D01*
X622300Y501650D02*
X615950Y495300D01*
X603250Y495300D01*
X596900Y501650D01*
X596900Y514350D01*
X603250Y520700D01*
X615950Y520700D01*
X622300Y514350D01*
X647700Y514350D02*
X647700Y501650D01*
X641350Y495300D01*
X647700Y514350D02*
X641350Y520700D01*
X628650Y520700D01*
X463550Y495300D02*
X450850Y495300D01*
X444500Y501650D01*
X444500Y514350D01*
X450850Y520700D01*
X469900Y501650D02*
X463550Y495300D01*
X469900Y514350D02*
X463550Y520700D01*
X450850Y520700D01*
X226060Y501650D02*
X219710Y495300D01*
X207010Y495300D01*
X200660Y501650D01*
X200660Y514350D01*
X207010Y520700D01*
X219710Y520700D01*
X226060Y514350D01*
X257810Y495300D02*
X270510Y495300D01*
X257810Y495300D02*
X251460Y501650D01*
X251460Y514350D01*
X257810Y520700D01*
X251460Y501650D02*
X245110Y495300D01*
X232410Y495300D01*
X226060Y501650D01*
X226060Y514350D01*
X232410Y520700D01*
X245110Y520700D01*
X251460Y514350D01*
X295910Y495300D02*
X302260Y501650D01*
X295910Y495300D02*
X283210Y495300D01*
X276860Y501650D01*
X276860Y514350D01*
X283210Y520700D01*
X295910Y520700D01*
X302260Y514350D01*
X276860Y501650D02*
X270510Y495300D01*
X276860Y514350D02*
X270510Y520700D01*
X257810Y520700D01*
X334010Y495300D02*
X346710Y495300D01*
X334010Y495300D02*
X327660Y501650D01*
X327660Y514350D01*
X334010Y520700D01*
X327660Y501650D02*
X321310Y495300D01*
X308610Y495300D01*
X302260Y501650D01*
X302260Y514350D01*
X308610Y520700D01*
X321310Y520700D01*
X327660Y514350D01*
X372110Y495300D02*
X378460Y501650D01*
X372110Y495300D02*
X359410Y495300D01*
X353060Y501650D01*
X353060Y514350D01*
X359410Y520700D01*
X372110Y520700D01*
X378460Y514350D01*
X353060Y501650D02*
X346710Y495300D01*
X353060Y514350D02*
X346710Y520700D01*
X334010Y520700D01*
X410210Y495300D02*
X422910Y495300D01*
X410210Y495300D02*
X403860Y501650D01*
X403860Y514350D01*
X410210Y520700D01*
X403860Y501650D02*
X397510Y495300D01*
X384810Y495300D01*
X378460Y501650D01*
X378460Y514350D01*
X384810Y520700D01*
X397510Y520700D01*
X403860Y514350D01*
X429260Y514350D02*
X429260Y501650D01*
X422910Y495300D01*
X429260Y514350D02*
X422910Y520700D01*
X410210Y520700D01*
X194310Y495300D02*
X181610Y495300D01*
X175260Y501650D01*
X175260Y514350D01*
X181610Y520700D01*
X200660Y501650D02*
X194310Y495300D01*
X200660Y514350D02*
X194310Y520700D01*
X181610Y520700D01*
X335280Y267970D02*
X436880Y267970D01*
X436880Y209550D02*
X335280Y209550D01*
X436880Y209550D02*
X436880Y267970D01*
X335280Y267970D02*
X335280Y248920D01*
X335280Y228600D02*
X335280Y209550D01*
X335280Y228600D02*
X335527Y228603D01*
X335775Y228612D01*
X336022Y228627D01*
X336268Y228648D01*
X336514Y228675D01*
X336759Y228708D01*
X337004Y228747D01*
X337247Y228792D01*
X337489Y228843D01*
X337730Y228900D01*
X337969Y228962D01*
X338207Y229031D01*
X338443Y229105D01*
X338677Y229185D01*
X338909Y229270D01*
X339139Y229362D01*
X339367Y229458D01*
X339592Y229561D01*
X339815Y229668D01*
X340035Y229782D01*
X340252Y229900D01*
X340467Y230024D01*
X340678Y230153D01*
X340886Y230287D01*
X341091Y230426D01*
X341292Y230570D01*
X341490Y230718D01*
X341684Y230872D01*
X341874Y231030D01*
X342060Y231193D01*
X342242Y231360D01*
X342420Y231532D01*
X342594Y231708D01*
X342764Y231888D01*
X342929Y232073D01*
X343089Y232261D01*
X343245Y232453D01*
X343397Y232649D01*
X343543Y232848D01*
X343685Y233051D01*
X343821Y233258D01*
X343953Y233467D01*
X344079Y233680D01*
X344200Y233896D01*
X344316Y234114D01*
X344426Y234336D01*
X344531Y234560D01*
X344631Y234786D01*
X344725Y235015D01*
X344813Y235246D01*
X344896Y235480D01*
X344973Y235715D01*
X345044Y235952D01*
X345110Y236190D01*
X345169Y236430D01*
X345223Y236672D01*
X345271Y236915D01*
X345313Y237158D01*
X345349Y237403D01*
X345379Y237649D01*
X345403Y237895D01*
X345421Y238142D01*
X345433Y238389D01*
X345439Y238636D01*
X345439Y238884D01*
X345433Y239131D01*
X345421Y239378D01*
X345403Y239625D01*
X345379Y239871D01*
X345349Y240117D01*
X345313Y240362D01*
X345271Y240605D01*
X345223Y240848D01*
X345169Y241090D01*
X345110Y241330D01*
X345044Y241568D01*
X344973Y241805D01*
X344896Y242040D01*
X344813Y242274D01*
X344725Y242505D01*
X344631Y242734D01*
X344531Y242960D01*
X344426Y243184D01*
X344316Y243406D01*
X344200Y243624D01*
X344079Y243840D01*
X343953Y244053D01*
X343821Y244262D01*
X343685Y244469D01*
X343543Y244672D01*
X343397Y244871D01*
X343245Y245067D01*
X343089Y245259D01*
X342929Y245447D01*
X342764Y245632D01*
X342594Y245812D01*
X342420Y245988D01*
X342242Y246160D01*
X342060Y246327D01*
X341874Y246490D01*
X341684Y246648D01*
X341490Y246802D01*
X341292Y246950D01*
X341091Y247094D01*
X340886Y247233D01*
X340678Y247367D01*
X340467Y247496D01*
X340252Y247620D01*
X340035Y247738D01*
X339815Y247852D01*
X339592Y247959D01*
X339367Y248062D01*
X339139Y248158D01*
X338909Y248250D01*
X338677Y248335D01*
X338443Y248415D01*
X338207Y248489D01*
X337969Y248558D01*
X337730Y248620D01*
X337489Y248677D01*
X337247Y248728D01*
X337004Y248773D01*
X336759Y248812D01*
X336514Y248845D01*
X336268Y248872D01*
X336022Y248893D01*
X335775Y248908D01*
X335527Y248917D01*
X335280Y248920D01*
D14*
X603580Y262220D02*
X603580Y337220D01*
X603580Y262220D02*
X620957Y262220D01*
X661073Y262220D02*
X661073Y337220D01*
X656243Y337220D02*
X625713Y337220D01*
X661073Y337220D02*
X669190Y337220D01*
X661073Y337220D02*
X656243Y337220D01*
X625713Y262220D02*
X620957Y262220D01*
X620957Y337220D01*
X625713Y337220D01*
X625713Y262220D02*
X656243Y262220D01*
X625713Y262220D02*
X625713Y337220D01*
X656243Y337220D02*
X656243Y262220D01*
X620957Y337220D02*
X603580Y337220D01*
X656243Y262220D02*
X661073Y262220D01*
X669190Y262220D01*
X669190Y337220D01*
X676580Y337220D02*
X676580Y262220D01*
X676580Y337220D02*
X673580Y337220D01*
X673580Y262220D01*
X676580Y262220D01*
X673580Y262220D02*
X669190Y262220D01*
X669190Y337220D02*
X673580Y337220D01*
X633970Y294280D02*
X634030Y294220D01*
X634030Y329220D02*
X633970Y329280D01*
X626580Y282220D02*
X626584Y282576D01*
X626597Y282931D01*
X626619Y283287D01*
X626650Y283641D01*
X626689Y283995D01*
X626737Y284348D01*
X626793Y284699D01*
X626859Y285049D01*
X626932Y285397D01*
X627015Y285743D01*
X627105Y286087D01*
X627204Y286429D01*
X627312Y286768D01*
X627428Y287105D01*
X627552Y287438D01*
X627684Y287769D01*
X627824Y288096D01*
X627972Y288420D01*
X628128Y288739D01*
X628292Y289055D01*
X628464Y289367D01*
X628643Y289674D01*
X628830Y289977D01*
X629024Y290276D01*
X629225Y290569D01*
X629433Y290858D01*
X629649Y291141D01*
X629871Y291419D01*
X630100Y291691D01*
X630336Y291958D01*
X630578Y292218D01*
X630827Y292473D01*
X631082Y292722D01*
X631342Y292964D01*
X631609Y293200D01*
X631881Y293429D01*
X632159Y293651D01*
X632442Y293867D01*
X632731Y294075D01*
X633024Y294276D01*
X633323Y294470D01*
X633626Y294657D01*
X633933Y294836D01*
X634245Y295008D01*
X634561Y295172D01*
X634880Y295328D01*
X635204Y295476D01*
X635531Y295616D01*
X635862Y295748D01*
X636195Y295872D01*
X636532Y295988D01*
X636871Y296096D01*
X637213Y296195D01*
X637557Y296285D01*
X637903Y296368D01*
X638251Y296441D01*
X638601Y296507D01*
X638952Y296563D01*
X639305Y296611D01*
X639659Y296650D01*
X640013Y296681D01*
X640369Y296703D01*
X640724Y296716D01*
X641080Y296720D01*
X641436Y296716D01*
X641791Y296703D01*
X642147Y296681D01*
X642501Y296650D01*
X642855Y296611D01*
X643208Y296563D01*
X643559Y296507D01*
X643909Y296441D01*
X644257Y296368D01*
X644603Y296285D01*
X644947Y296195D01*
X645289Y296096D01*
X645628Y295988D01*
X645965Y295872D01*
X646298Y295748D01*
X646629Y295616D01*
X646956Y295476D01*
X647280Y295328D01*
X647599Y295172D01*
X647915Y295008D01*
X648227Y294836D01*
X648534Y294657D01*
X648837Y294470D01*
X649136Y294276D01*
X649429Y294075D01*
X649718Y293867D01*
X650001Y293651D01*
X650279Y293429D01*
X650551Y293200D01*
X650818Y292964D01*
X651078Y292722D01*
X651333Y292473D01*
X651582Y292218D01*
X651824Y291958D01*
X652060Y291691D01*
X652289Y291419D01*
X652511Y291141D01*
X652727Y290858D01*
X652935Y290569D01*
X653136Y290276D01*
X653330Y289977D01*
X653517Y289674D01*
X653696Y289367D01*
X653868Y289055D01*
X654032Y288739D01*
X654188Y288420D01*
X654336Y288096D01*
X654476Y287769D01*
X654608Y287438D01*
X654732Y287105D01*
X654848Y286768D01*
X654956Y286429D01*
X655055Y286087D01*
X655145Y285743D01*
X655228Y285397D01*
X655301Y285049D01*
X655367Y284699D01*
X655423Y284348D01*
X655471Y283995D01*
X655510Y283641D01*
X655541Y283287D01*
X655563Y282931D01*
X655576Y282576D01*
X655580Y282220D01*
X655576Y281864D01*
X655563Y281509D01*
X655541Y281153D01*
X655510Y280799D01*
X655471Y280445D01*
X655423Y280092D01*
X655367Y279741D01*
X655301Y279391D01*
X655228Y279043D01*
X655145Y278697D01*
X655055Y278353D01*
X654956Y278011D01*
X654848Y277672D01*
X654732Y277335D01*
X654608Y277002D01*
X654476Y276671D01*
X654336Y276344D01*
X654188Y276020D01*
X654032Y275701D01*
X653868Y275385D01*
X653696Y275073D01*
X653517Y274766D01*
X653330Y274463D01*
X653136Y274164D01*
X652935Y273871D01*
X652727Y273582D01*
X652511Y273299D01*
X652289Y273021D01*
X652060Y272749D01*
X651824Y272482D01*
X651582Y272222D01*
X651333Y271967D01*
X651078Y271718D01*
X650818Y271476D01*
X650551Y271240D01*
X650279Y271011D01*
X650001Y270789D01*
X649718Y270573D01*
X649429Y270365D01*
X649136Y270164D01*
X648837Y269970D01*
X648534Y269783D01*
X648227Y269604D01*
X647915Y269432D01*
X647599Y269268D01*
X647280Y269112D01*
X646956Y268964D01*
X646629Y268824D01*
X646298Y268692D01*
X645965Y268568D01*
X645628Y268452D01*
X645289Y268344D01*
X644947Y268245D01*
X644603Y268155D01*
X644257Y268072D01*
X643909Y267999D01*
X643559Y267933D01*
X643208Y267877D01*
X642855Y267829D01*
X642501Y267790D01*
X642147Y267759D01*
X641791Y267737D01*
X641436Y267724D01*
X641080Y267720D01*
X640724Y267724D01*
X640369Y267737D01*
X640013Y267759D01*
X639659Y267790D01*
X639305Y267829D01*
X638952Y267877D01*
X638601Y267933D01*
X638251Y267999D01*
X637903Y268072D01*
X637557Y268155D01*
X637213Y268245D01*
X636871Y268344D01*
X636532Y268452D01*
X636195Y268568D01*
X635862Y268692D01*
X635531Y268824D01*
X635204Y268964D01*
X634880Y269112D01*
X634561Y269268D01*
X634245Y269432D01*
X633933Y269604D01*
X633626Y269783D01*
X633323Y269970D01*
X633024Y270164D01*
X632731Y270365D01*
X632442Y270573D01*
X632159Y270789D01*
X631881Y271011D01*
X631609Y271240D01*
X631342Y271476D01*
X631082Y271718D01*
X630827Y271967D01*
X630578Y272222D01*
X630336Y272482D01*
X630100Y272749D01*
X629871Y273021D01*
X629649Y273299D01*
X629433Y273582D01*
X629225Y273871D01*
X629024Y274164D01*
X628830Y274463D01*
X628643Y274766D01*
X628464Y275073D01*
X628292Y275385D01*
X628128Y275701D01*
X627972Y276020D01*
X627824Y276344D01*
X627684Y276671D01*
X627552Y277002D01*
X627428Y277335D01*
X627312Y277672D01*
X627204Y278011D01*
X627105Y278353D01*
X627015Y278697D01*
X626932Y279043D01*
X626859Y279391D01*
X626793Y279741D01*
X626737Y280092D01*
X626689Y280445D01*
X626650Y280799D01*
X626619Y281153D01*
X626597Y281509D01*
X626584Y281864D01*
X626580Y282220D01*
X626580Y317220D02*
X626584Y317576D01*
X626597Y317931D01*
X626619Y318287D01*
X626650Y318641D01*
X626689Y318995D01*
X626737Y319348D01*
X626793Y319699D01*
X626859Y320049D01*
X626932Y320397D01*
X627015Y320743D01*
X627105Y321087D01*
X627204Y321429D01*
X627312Y321768D01*
X627428Y322105D01*
X627552Y322438D01*
X627684Y322769D01*
X627824Y323096D01*
X627972Y323420D01*
X628128Y323739D01*
X628292Y324055D01*
X628464Y324367D01*
X628643Y324674D01*
X628830Y324977D01*
X629024Y325276D01*
X629225Y325569D01*
X629433Y325858D01*
X629649Y326141D01*
X629871Y326419D01*
X630100Y326691D01*
X630336Y326958D01*
X630578Y327218D01*
X630827Y327473D01*
X631082Y327722D01*
X631342Y327964D01*
X631609Y328200D01*
X631881Y328429D01*
X632159Y328651D01*
X632442Y328867D01*
X632731Y329075D01*
X633024Y329276D01*
X633323Y329470D01*
X633626Y329657D01*
X633933Y329836D01*
X634245Y330008D01*
X634561Y330172D01*
X634880Y330328D01*
X635204Y330476D01*
X635531Y330616D01*
X635862Y330748D01*
X636195Y330872D01*
X636532Y330988D01*
X636871Y331096D01*
X637213Y331195D01*
X637557Y331285D01*
X637903Y331368D01*
X638251Y331441D01*
X638601Y331507D01*
X638952Y331563D01*
X639305Y331611D01*
X639659Y331650D01*
X640013Y331681D01*
X640369Y331703D01*
X640724Y331716D01*
X641080Y331720D01*
X641436Y331716D01*
X641791Y331703D01*
X642147Y331681D01*
X642501Y331650D01*
X642855Y331611D01*
X643208Y331563D01*
X643559Y331507D01*
X643909Y331441D01*
X644257Y331368D01*
X644603Y331285D01*
X644947Y331195D01*
X645289Y331096D01*
X645628Y330988D01*
X645965Y330872D01*
X646298Y330748D01*
X646629Y330616D01*
X646956Y330476D01*
X647280Y330328D01*
X647599Y330172D01*
X647915Y330008D01*
X648227Y329836D01*
X648534Y329657D01*
X648837Y329470D01*
X649136Y329276D01*
X649429Y329075D01*
X649718Y328867D01*
X650001Y328651D01*
X650279Y328429D01*
X650551Y328200D01*
X650818Y327964D01*
X651078Y327722D01*
X651333Y327473D01*
X651582Y327218D01*
X651824Y326958D01*
X652060Y326691D01*
X652289Y326419D01*
X652511Y326141D01*
X652727Y325858D01*
X652935Y325569D01*
X653136Y325276D01*
X653330Y324977D01*
X653517Y324674D01*
X653696Y324367D01*
X653868Y324055D01*
X654032Y323739D01*
X654188Y323420D01*
X654336Y323096D01*
X654476Y322769D01*
X654608Y322438D01*
X654732Y322105D01*
X654848Y321768D01*
X654956Y321429D01*
X655055Y321087D01*
X655145Y320743D01*
X655228Y320397D01*
X655301Y320049D01*
X655367Y319699D01*
X655423Y319348D01*
X655471Y318995D01*
X655510Y318641D01*
X655541Y318287D01*
X655563Y317931D01*
X655576Y317576D01*
X655580Y317220D01*
X655576Y316864D01*
X655563Y316509D01*
X655541Y316153D01*
X655510Y315799D01*
X655471Y315445D01*
X655423Y315092D01*
X655367Y314741D01*
X655301Y314391D01*
X655228Y314043D01*
X655145Y313697D01*
X655055Y313353D01*
X654956Y313011D01*
X654848Y312672D01*
X654732Y312335D01*
X654608Y312002D01*
X654476Y311671D01*
X654336Y311344D01*
X654188Y311020D01*
X654032Y310701D01*
X653868Y310385D01*
X653696Y310073D01*
X653517Y309766D01*
X653330Y309463D01*
X653136Y309164D01*
X652935Y308871D01*
X652727Y308582D01*
X652511Y308299D01*
X652289Y308021D01*
X652060Y307749D01*
X651824Y307482D01*
X651582Y307222D01*
X651333Y306967D01*
X651078Y306718D01*
X650818Y306476D01*
X650551Y306240D01*
X650279Y306011D01*
X650001Y305789D01*
X649718Y305573D01*
X649429Y305365D01*
X649136Y305164D01*
X648837Y304970D01*
X648534Y304783D01*
X648227Y304604D01*
X647915Y304432D01*
X647599Y304268D01*
X647280Y304112D01*
X646956Y303964D01*
X646629Y303824D01*
X646298Y303692D01*
X645965Y303568D01*
X645628Y303452D01*
X645289Y303344D01*
X644947Y303245D01*
X644603Y303155D01*
X644257Y303072D01*
X643909Y302999D01*
X643559Y302933D01*
X643208Y302877D01*
X642855Y302829D01*
X642501Y302790D01*
X642147Y302759D01*
X641791Y302737D01*
X641436Y302724D01*
X641080Y302720D01*
X640724Y302724D01*
X640369Y302737D01*
X640013Y302759D01*
X639659Y302790D01*
X639305Y302829D01*
X638952Y302877D01*
X638601Y302933D01*
X638251Y302999D01*
X637903Y303072D01*
X637557Y303155D01*
X637213Y303245D01*
X636871Y303344D01*
X636532Y303452D01*
X636195Y303568D01*
X635862Y303692D01*
X635531Y303824D01*
X635204Y303964D01*
X634880Y304112D01*
X634561Y304268D01*
X634245Y304432D01*
X633933Y304604D01*
X633626Y304783D01*
X633323Y304970D01*
X633024Y305164D01*
X632731Y305365D01*
X632442Y305573D01*
X632159Y305789D01*
X631881Y306011D01*
X631609Y306240D01*
X631342Y306476D01*
X631082Y306718D01*
X630827Y306967D01*
X630578Y307222D01*
X630336Y307482D01*
X630100Y307749D01*
X629871Y308021D01*
X629649Y308299D01*
X629433Y308582D01*
X629225Y308871D01*
X629024Y309164D01*
X628830Y309463D01*
X628643Y309766D01*
X628464Y310073D01*
X628292Y310385D01*
X628128Y310701D01*
X627972Y311020D01*
X627824Y311344D01*
X627684Y311671D01*
X627552Y312002D01*
X627428Y312335D01*
X627312Y312672D01*
X627204Y313011D01*
X627105Y313353D01*
X627015Y313697D01*
X626932Y314043D01*
X626859Y314391D01*
X626793Y314741D01*
X626737Y315092D01*
X626689Y315445D01*
X626650Y315799D01*
X626619Y316153D01*
X626597Y316509D01*
X626584Y316864D01*
X626580Y317220D01*
X605653Y282126D02*
X609551Y278228D01*
X605653Y282126D02*
X617347Y282126D01*
X617347Y278228D02*
X617347Y286024D01*
X617347Y313153D02*
X617347Y320949D01*
X617347Y313153D02*
X609551Y320949D01*
X607602Y320949D01*
X605653Y319000D01*
X605653Y315102D01*
X607602Y313153D01*
D13*
X472440Y261620D02*
X472438Y261720D01*
X472432Y261819D01*
X472422Y261919D01*
X472409Y262017D01*
X472391Y262116D01*
X472370Y262213D01*
X472345Y262309D01*
X472316Y262405D01*
X472283Y262499D01*
X472247Y262592D01*
X472207Y262683D01*
X472163Y262773D01*
X472116Y262861D01*
X472066Y262947D01*
X472012Y263031D01*
X471955Y263113D01*
X471895Y263192D01*
X471831Y263270D01*
X471765Y263344D01*
X471696Y263416D01*
X471624Y263485D01*
X471550Y263551D01*
X471472Y263615D01*
X471393Y263675D01*
X471311Y263732D01*
X471227Y263786D01*
X471141Y263836D01*
X471053Y263883D01*
X470963Y263927D01*
X470872Y263967D01*
X470779Y264003D01*
X470685Y264036D01*
X470589Y264065D01*
X470493Y264090D01*
X470396Y264111D01*
X470297Y264129D01*
X470199Y264142D01*
X470099Y264152D01*
X470000Y264158D01*
X469900Y264160D01*
X454660Y264160D02*
X454560Y264158D01*
X454461Y264152D01*
X454361Y264142D01*
X454263Y264129D01*
X454164Y264111D01*
X454067Y264090D01*
X453971Y264065D01*
X453875Y264036D01*
X453781Y264003D01*
X453688Y263967D01*
X453597Y263927D01*
X453507Y263883D01*
X453419Y263836D01*
X453333Y263786D01*
X453249Y263732D01*
X453167Y263675D01*
X453088Y263615D01*
X453010Y263551D01*
X452936Y263485D01*
X452864Y263416D01*
X452795Y263344D01*
X452729Y263270D01*
X452665Y263192D01*
X452605Y263113D01*
X452548Y263031D01*
X452494Y262947D01*
X452444Y262861D01*
X452397Y262773D01*
X452353Y262683D01*
X452313Y262592D01*
X452277Y262499D01*
X452244Y262405D01*
X452215Y262309D01*
X452190Y262213D01*
X452169Y262116D01*
X452151Y262017D01*
X452138Y261919D01*
X452128Y261819D01*
X452122Y261720D01*
X452120Y261620D01*
X452120Y215900D02*
X452122Y215800D01*
X452128Y215701D01*
X452138Y215601D01*
X452151Y215503D01*
X452169Y215404D01*
X452190Y215307D01*
X452215Y215211D01*
X452244Y215115D01*
X452277Y215021D01*
X452313Y214928D01*
X452353Y214837D01*
X452397Y214747D01*
X452444Y214659D01*
X452494Y214573D01*
X452548Y214489D01*
X452605Y214407D01*
X452665Y214328D01*
X452729Y214250D01*
X452795Y214176D01*
X452864Y214104D01*
X452936Y214035D01*
X453010Y213969D01*
X453088Y213905D01*
X453167Y213845D01*
X453249Y213788D01*
X453333Y213734D01*
X453419Y213684D01*
X453507Y213637D01*
X453597Y213593D01*
X453688Y213553D01*
X453781Y213517D01*
X453875Y213484D01*
X453971Y213455D01*
X454067Y213430D01*
X454164Y213409D01*
X454263Y213391D01*
X454361Y213378D01*
X454461Y213368D01*
X454560Y213362D01*
X454660Y213360D01*
X469900Y213360D02*
X470000Y213362D01*
X470099Y213368D01*
X470199Y213378D01*
X470297Y213391D01*
X470396Y213409D01*
X470493Y213430D01*
X470589Y213455D01*
X470685Y213484D01*
X470779Y213517D01*
X470872Y213553D01*
X470963Y213593D01*
X471053Y213637D01*
X471141Y213684D01*
X471227Y213734D01*
X471311Y213788D01*
X471393Y213845D01*
X471472Y213905D01*
X471550Y213969D01*
X471624Y214035D01*
X471696Y214104D01*
X471765Y214176D01*
X471831Y214250D01*
X471895Y214328D01*
X471955Y214407D01*
X472012Y214489D01*
X472066Y214573D01*
X472116Y214659D01*
X472163Y214747D01*
X472207Y214837D01*
X472247Y214928D01*
X472283Y215021D01*
X472316Y215115D01*
X472345Y215211D01*
X472370Y215307D01*
X472391Y215404D01*
X472409Y215503D01*
X472422Y215601D01*
X472432Y215701D01*
X472438Y215800D01*
X472440Y215900D01*
X469900Y264160D02*
X454660Y264160D01*
X472440Y261620D02*
X472440Y257810D01*
X471170Y256540D01*
X452120Y257810D02*
X452120Y261620D01*
X452120Y257810D02*
X453390Y256540D01*
X471170Y220980D02*
X472440Y219710D01*
X471170Y220980D02*
X471170Y256540D01*
X453390Y220980D02*
X452120Y219710D01*
X453390Y220980D02*
X453390Y256540D01*
X472440Y219710D02*
X472440Y215900D01*
X452120Y215900D02*
X452120Y219710D01*
X454660Y213360D02*
X469900Y213360D01*
D15*
X462280Y211455D03*
X462280Y266065D03*
D14*
X603580Y255940D02*
X603580Y180940D01*
X620957Y180940D01*
X661073Y180940D02*
X661073Y255940D01*
X656243Y255940D02*
X625713Y255940D01*
X661073Y255940D02*
X669190Y255940D01*
X661073Y255940D02*
X656243Y255940D01*
X625713Y180940D02*
X620957Y180940D01*
X620957Y255940D01*
X625713Y255940D01*
X625713Y180940D02*
X656243Y180940D01*
X625713Y180940D02*
X625713Y255940D01*
X656243Y255940D02*
X656243Y180940D01*
X620957Y255940D02*
X603580Y255940D01*
X656243Y180940D02*
X661073Y180940D01*
X669190Y180940D01*
X669190Y255940D01*
X676580Y255940D02*
X676580Y180940D01*
X676580Y255940D02*
X673580Y255940D01*
X673580Y180940D01*
X676580Y180940D01*
X673580Y180940D02*
X669190Y180940D01*
X669190Y255940D02*
X673580Y255940D01*
X633970Y213000D02*
X634030Y212940D01*
X634030Y247940D02*
X633970Y248000D01*
X626580Y200940D02*
X626584Y201296D01*
X626597Y201651D01*
X626619Y202007D01*
X626650Y202361D01*
X626689Y202715D01*
X626737Y203068D01*
X626793Y203419D01*
X626859Y203769D01*
X626932Y204117D01*
X627015Y204463D01*
X627105Y204807D01*
X627204Y205149D01*
X627312Y205488D01*
X627428Y205825D01*
X627552Y206158D01*
X627684Y206489D01*
X627824Y206816D01*
X627972Y207140D01*
X628128Y207459D01*
X628292Y207775D01*
X628464Y208087D01*
X628643Y208394D01*
X628830Y208697D01*
X629024Y208996D01*
X629225Y209289D01*
X629433Y209578D01*
X629649Y209861D01*
X629871Y210139D01*
X630100Y210411D01*
X630336Y210678D01*
X630578Y210938D01*
X630827Y211193D01*
X631082Y211442D01*
X631342Y211684D01*
X631609Y211920D01*
X631881Y212149D01*
X632159Y212371D01*
X632442Y212587D01*
X632731Y212795D01*
X633024Y212996D01*
X633323Y213190D01*
X633626Y213377D01*
X633933Y213556D01*
X634245Y213728D01*
X634561Y213892D01*
X634880Y214048D01*
X635204Y214196D01*
X635531Y214336D01*
X635862Y214468D01*
X636195Y214592D01*
X636532Y214708D01*
X636871Y214816D01*
X637213Y214915D01*
X637557Y215005D01*
X637903Y215088D01*
X638251Y215161D01*
X638601Y215227D01*
X638952Y215283D01*
X639305Y215331D01*
X639659Y215370D01*
X640013Y215401D01*
X640369Y215423D01*
X640724Y215436D01*
X641080Y215440D01*
X641436Y215436D01*
X641791Y215423D01*
X642147Y215401D01*
X642501Y215370D01*
X642855Y215331D01*
X643208Y215283D01*
X643559Y215227D01*
X643909Y215161D01*
X644257Y215088D01*
X644603Y215005D01*
X644947Y214915D01*
X645289Y214816D01*
X645628Y214708D01*
X645965Y214592D01*
X646298Y214468D01*
X646629Y214336D01*
X646956Y214196D01*
X647280Y214048D01*
X647599Y213892D01*
X647915Y213728D01*
X648227Y213556D01*
X648534Y213377D01*
X648837Y213190D01*
X649136Y212996D01*
X649429Y212795D01*
X649718Y212587D01*
X650001Y212371D01*
X650279Y212149D01*
X650551Y211920D01*
X650818Y211684D01*
X651078Y211442D01*
X651333Y211193D01*
X651582Y210938D01*
X651824Y210678D01*
X652060Y210411D01*
X652289Y210139D01*
X652511Y209861D01*
X652727Y209578D01*
X652935Y209289D01*
X653136Y208996D01*
X653330Y208697D01*
X653517Y208394D01*
X653696Y208087D01*
X653868Y207775D01*
X654032Y207459D01*
X654188Y207140D01*
X654336Y206816D01*
X654476Y206489D01*
X654608Y206158D01*
X654732Y205825D01*
X654848Y205488D01*
X654956Y205149D01*
X655055Y204807D01*
X655145Y204463D01*
X655228Y204117D01*
X655301Y203769D01*
X655367Y203419D01*
X655423Y203068D01*
X655471Y202715D01*
X655510Y202361D01*
X655541Y202007D01*
X655563Y201651D01*
X655576Y201296D01*
X655580Y200940D01*
X655576Y200584D01*
X655563Y200229D01*
X655541Y199873D01*
X655510Y199519D01*
X655471Y199165D01*
X655423Y198812D01*
X655367Y198461D01*
X655301Y198111D01*
X655228Y197763D01*
X655145Y197417D01*
X655055Y197073D01*
X654956Y196731D01*
X654848Y196392D01*
X654732Y196055D01*
X654608Y195722D01*
X654476Y195391D01*
X654336Y195064D01*
X654188Y194740D01*
X654032Y194421D01*
X653868Y194105D01*
X653696Y193793D01*
X653517Y193486D01*
X653330Y193183D01*
X653136Y192884D01*
X652935Y192591D01*
X652727Y192302D01*
X652511Y192019D01*
X652289Y191741D01*
X652060Y191469D01*
X651824Y191202D01*
X651582Y190942D01*
X651333Y190687D01*
X651078Y190438D01*
X650818Y190196D01*
X650551Y189960D01*
X650279Y189731D01*
X650001Y189509D01*
X649718Y189293D01*
X649429Y189085D01*
X649136Y188884D01*
X648837Y188690D01*
X648534Y188503D01*
X648227Y188324D01*
X647915Y188152D01*
X647599Y187988D01*
X647280Y187832D01*
X646956Y187684D01*
X646629Y187544D01*
X646298Y187412D01*
X645965Y187288D01*
X645628Y187172D01*
X645289Y187064D01*
X644947Y186965D01*
X644603Y186875D01*
X644257Y186792D01*
X643909Y186719D01*
X643559Y186653D01*
X643208Y186597D01*
X642855Y186549D01*
X642501Y186510D01*
X642147Y186479D01*
X641791Y186457D01*
X641436Y186444D01*
X641080Y186440D01*
X640724Y186444D01*
X640369Y186457D01*
X640013Y186479D01*
X639659Y186510D01*
X639305Y186549D01*
X638952Y186597D01*
X638601Y186653D01*
X638251Y186719D01*
X637903Y186792D01*
X637557Y186875D01*
X637213Y186965D01*
X636871Y187064D01*
X636532Y187172D01*
X636195Y187288D01*
X635862Y187412D01*
X635531Y187544D01*
X635204Y187684D01*
X634880Y187832D01*
X634561Y187988D01*
X634245Y188152D01*
X633933Y188324D01*
X633626Y188503D01*
X633323Y188690D01*
X633024Y188884D01*
X632731Y189085D01*
X632442Y189293D01*
X632159Y189509D01*
X631881Y189731D01*
X631609Y189960D01*
X631342Y190196D01*
X631082Y190438D01*
X630827Y190687D01*
X630578Y190942D01*
X630336Y191202D01*
X630100Y191469D01*
X629871Y191741D01*
X629649Y192019D01*
X629433Y192302D01*
X629225Y192591D01*
X629024Y192884D01*
X628830Y193183D01*
X628643Y193486D01*
X628464Y193793D01*
X628292Y194105D01*
X628128Y194421D01*
X627972Y194740D01*
X627824Y195064D01*
X627684Y195391D01*
X627552Y195722D01*
X627428Y196055D01*
X627312Y196392D01*
X627204Y196731D01*
X627105Y197073D01*
X627015Y197417D01*
X626932Y197763D01*
X626859Y198111D01*
X626793Y198461D01*
X626737Y198812D01*
X626689Y199165D01*
X626650Y199519D01*
X626619Y199873D01*
X626597Y200229D01*
X626584Y200584D01*
X626580Y200940D01*
X626580Y235940D02*
X626584Y236296D01*
X626597Y236651D01*
X626619Y237007D01*
X626650Y237361D01*
X626689Y237715D01*
X626737Y238068D01*
X626793Y238419D01*
X626859Y238769D01*
X626932Y239117D01*
X627015Y239463D01*
X627105Y239807D01*
X627204Y240149D01*
X627312Y240488D01*
X627428Y240825D01*
X627552Y241158D01*
X627684Y241489D01*
X627824Y241816D01*
X627972Y242140D01*
X628128Y242459D01*
X628292Y242775D01*
X628464Y243087D01*
X628643Y243394D01*
X628830Y243697D01*
X629024Y243996D01*
X629225Y244289D01*
X629433Y244578D01*
X629649Y244861D01*
X629871Y245139D01*
X630100Y245411D01*
X630336Y245678D01*
X630578Y245938D01*
X630827Y246193D01*
X631082Y246442D01*
X631342Y246684D01*
X631609Y246920D01*
X631881Y247149D01*
X632159Y247371D01*
X632442Y247587D01*
X632731Y247795D01*
X633024Y247996D01*
X633323Y248190D01*
X633626Y248377D01*
X633933Y248556D01*
X634245Y248728D01*
X634561Y248892D01*
X634880Y249048D01*
X635204Y249196D01*
X635531Y249336D01*
X635862Y249468D01*
X636195Y249592D01*
X636532Y249708D01*
X636871Y249816D01*
X637213Y249915D01*
X637557Y250005D01*
X637903Y250088D01*
X638251Y250161D01*
X638601Y250227D01*
X638952Y250283D01*
X639305Y250331D01*
X639659Y250370D01*
X640013Y250401D01*
X640369Y250423D01*
X640724Y250436D01*
X641080Y250440D01*
X641436Y250436D01*
X641791Y250423D01*
X642147Y250401D01*
X642501Y250370D01*
X642855Y250331D01*
X643208Y250283D01*
X643559Y250227D01*
X643909Y250161D01*
X644257Y250088D01*
X644603Y250005D01*
X644947Y249915D01*
X645289Y249816D01*
X645628Y249708D01*
X645965Y249592D01*
X646298Y249468D01*
X646629Y249336D01*
X646956Y249196D01*
X647280Y249048D01*
X647599Y248892D01*
X647915Y248728D01*
X648227Y248556D01*
X648534Y248377D01*
X648837Y248190D01*
X649136Y247996D01*
X649429Y247795D01*
X649718Y247587D01*
X650001Y247371D01*
X650279Y247149D01*
X650551Y246920D01*
X650818Y246684D01*
X651078Y246442D01*
X651333Y246193D01*
X651582Y245938D01*
X651824Y245678D01*
X652060Y245411D01*
X652289Y245139D01*
X652511Y244861D01*
X652727Y244578D01*
X652935Y244289D01*
X653136Y243996D01*
X653330Y243697D01*
X653517Y243394D01*
X653696Y243087D01*
X653868Y242775D01*
X654032Y242459D01*
X654188Y242140D01*
X654336Y241816D01*
X654476Y241489D01*
X654608Y241158D01*
X654732Y240825D01*
X654848Y240488D01*
X654956Y240149D01*
X655055Y239807D01*
X655145Y239463D01*
X655228Y239117D01*
X655301Y238769D01*
X655367Y238419D01*
X655423Y238068D01*
X655471Y237715D01*
X655510Y237361D01*
X655541Y237007D01*
X655563Y236651D01*
X655576Y236296D01*
X655580Y235940D01*
X655576Y235584D01*
X655563Y235229D01*
X655541Y234873D01*
X655510Y234519D01*
X655471Y234165D01*
X655423Y233812D01*
X655367Y233461D01*
X655301Y233111D01*
X655228Y232763D01*
X655145Y232417D01*
X655055Y232073D01*
X654956Y231731D01*
X654848Y231392D01*
X654732Y231055D01*
X654608Y230722D01*
X654476Y230391D01*
X654336Y230064D01*
X654188Y229740D01*
X654032Y229421D01*
X653868Y229105D01*
X653696Y228793D01*
X653517Y228486D01*
X653330Y228183D01*
X653136Y227884D01*
X652935Y227591D01*
X652727Y227302D01*
X652511Y227019D01*
X652289Y226741D01*
X652060Y226469D01*
X651824Y226202D01*
X651582Y225942D01*
X651333Y225687D01*
X651078Y225438D01*
X650818Y225196D01*
X650551Y224960D01*
X650279Y224731D01*
X650001Y224509D01*
X649718Y224293D01*
X649429Y224085D01*
X649136Y223884D01*
X648837Y223690D01*
X648534Y223503D01*
X648227Y223324D01*
X647915Y223152D01*
X647599Y222988D01*
X647280Y222832D01*
X646956Y222684D01*
X646629Y222544D01*
X646298Y222412D01*
X645965Y222288D01*
X645628Y222172D01*
X645289Y222064D01*
X644947Y221965D01*
X644603Y221875D01*
X644257Y221792D01*
X643909Y221719D01*
X643559Y221653D01*
X643208Y221597D01*
X642855Y221549D01*
X642501Y221510D01*
X642147Y221479D01*
X641791Y221457D01*
X641436Y221444D01*
X641080Y221440D01*
X640724Y221444D01*
X640369Y221457D01*
X640013Y221479D01*
X639659Y221510D01*
X639305Y221549D01*
X638952Y221597D01*
X638601Y221653D01*
X638251Y221719D01*
X637903Y221792D01*
X637557Y221875D01*
X637213Y221965D01*
X636871Y222064D01*
X636532Y222172D01*
X636195Y222288D01*
X635862Y222412D01*
X635531Y222544D01*
X635204Y222684D01*
X634880Y222832D01*
X634561Y222988D01*
X634245Y223152D01*
X633933Y223324D01*
X633626Y223503D01*
X633323Y223690D01*
X633024Y223884D01*
X632731Y224085D01*
X632442Y224293D01*
X632159Y224509D01*
X631881Y224731D01*
X631609Y224960D01*
X631342Y225196D01*
X631082Y225438D01*
X630827Y225687D01*
X630578Y225942D01*
X630336Y226202D01*
X630100Y226469D01*
X629871Y226741D01*
X629649Y227019D01*
X629433Y227302D01*
X629225Y227591D01*
X629024Y227884D01*
X628830Y228183D01*
X628643Y228486D01*
X628464Y228793D01*
X628292Y229105D01*
X628128Y229421D01*
X627972Y229740D01*
X627824Y230064D01*
X627684Y230391D01*
X627552Y230722D01*
X627428Y231055D01*
X627312Y231392D01*
X627204Y231731D01*
X627105Y232073D01*
X627015Y232417D01*
X626932Y232763D01*
X626859Y233111D01*
X626793Y233461D01*
X626737Y233812D01*
X626689Y234165D01*
X626650Y234519D01*
X626619Y234873D01*
X626597Y235229D01*
X626584Y235584D01*
X626580Y235940D01*
X605653Y200846D02*
X609551Y196948D01*
X605653Y200846D02*
X617347Y200846D01*
X617347Y196948D02*
X617347Y204744D01*
X617347Y231873D02*
X617347Y239669D01*
X617347Y231873D02*
X609551Y239669D01*
X607602Y239669D01*
X605653Y237720D01*
X605653Y233822D01*
X607602Y231873D01*
X603580Y174660D02*
X603580Y99660D01*
X620957Y99660D01*
X661073Y99660D02*
X661073Y174660D01*
X656243Y174660D02*
X625713Y174660D01*
X661073Y174660D02*
X669190Y174660D01*
X661073Y174660D02*
X656243Y174660D01*
X625713Y99660D02*
X620957Y99660D01*
X620957Y174660D01*
X625713Y174660D01*
X625713Y99660D02*
X656243Y99660D01*
X625713Y99660D02*
X625713Y174660D01*
X656243Y174660D02*
X656243Y99660D01*
X620957Y174660D02*
X603580Y174660D01*
X656243Y99660D02*
X661073Y99660D01*
X669190Y99660D01*
X669190Y174660D01*
X676580Y174660D02*
X676580Y99660D01*
X676580Y174660D02*
X673580Y174660D01*
X673580Y99660D01*
X676580Y99660D01*
X673580Y99660D02*
X669190Y99660D01*
X669190Y174660D02*
X673580Y174660D01*
X633970Y131720D02*
X634030Y131660D01*
X634030Y166660D02*
X633970Y166720D01*
X626580Y119660D02*
X626584Y120016D01*
X626597Y120371D01*
X626619Y120727D01*
X626650Y121081D01*
X626689Y121435D01*
X626737Y121788D01*
X626793Y122139D01*
X626859Y122489D01*
X626932Y122837D01*
X627015Y123183D01*
X627105Y123527D01*
X627204Y123869D01*
X627312Y124208D01*
X627428Y124545D01*
X627552Y124878D01*
X627684Y125209D01*
X627824Y125536D01*
X627972Y125860D01*
X628128Y126179D01*
X628292Y126495D01*
X628464Y126807D01*
X628643Y127114D01*
X628830Y127417D01*
X629024Y127716D01*
X629225Y128009D01*
X629433Y128298D01*
X629649Y128581D01*
X629871Y128859D01*
X630100Y129131D01*
X630336Y129398D01*
X630578Y129658D01*
X630827Y129913D01*
X631082Y130162D01*
X631342Y130404D01*
X631609Y130640D01*
X631881Y130869D01*
X632159Y131091D01*
X632442Y131307D01*
X632731Y131515D01*
X633024Y131716D01*
X633323Y131910D01*
X633626Y132097D01*
X633933Y132276D01*
X634245Y132448D01*
X634561Y132612D01*
X634880Y132768D01*
X635204Y132916D01*
X635531Y133056D01*
X635862Y133188D01*
X636195Y133312D01*
X636532Y133428D01*
X636871Y133536D01*
X637213Y133635D01*
X637557Y133725D01*
X637903Y133808D01*
X638251Y133881D01*
X638601Y133947D01*
X638952Y134003D01*
X639305Y134051D01*
X639659Y134090D01*
X640013Y134121D01*
X640369Y134143D01*
X640724Y134156D01*
X641080Y134160D01*
X641436Y134156D01*
X641791Y134143D01*
X642147Y134121D01*
X642501Y134090D01*
X642855Y134051D01*
X643208Y134003D01*
X643559Y133947D01*
X643909Y133881D01*
X644257Y133808D01*
X644603Y133725D01*
X644947Y133635D01*
X645289Y133536D01*
X645628Y133428D01*
X645965Y133312D01*
X646298Y133188D01*
X646629Y133056D01*
X646956Y132916D01*
X647280Y132768D01*
X647599Y132612D01*
X647915Y132448D01*
X648227Y132276D01*
X648534Y132097D01*
X648837Y131910D01*
X649136Y131716D01*
X649429Y131515D01*
X649718Y131307D01*
X650001Y131091D01*
X650279Y130869D01*
X650551Y130640D01*
X650818Y130404D01*
X651078Y130162D01*
X651333Y129913D01*
X651582Y129658D01*
X651824Y129398D01*
X652060Y129131D01*
X652289Y128859D01*
X652511Y128581D01*
X652727Y128298D01*
X652935Y128009D01*
X653136Y127716D01*
X653330Y127417D01*
X653517Y127114D01*
X653696Y126807D01*
X653868Y126495D01*
X654032Y126179D01*
X654188Y125860D01*
X654336Y125536D01*
X654476Y125209D01*
X654608Y124878D01*
X654732Y124545D01*
X654848Y124208D01*
X654956Y123869D01*
X655055Y123527D01*
X655145Y123183D01*
X655228Y122837D01*
X655301Y122489D01*
X655367Y122139D01*
X655423Y121788D01*
X655471Y121435D01*
X655510Y121081D01*
X655541Y120727D01*
X655563Y120371D01*
X655576Y120016D01*
X655580Y119660D01*
X655576Y119304D01*
X655563Y118949D01*
X655541Y118593D01*
X655510Y118239D01*
X655471Y117885D01*
X655423Y117532D01*
X655367Y117181D01*
X655301Y116831D01*
X655228Y116483D01*
X655145Y116137D01*
X655055Y115793D01*
X654956Y115451D01*
X654848Y115112D01*
X654732Y114775D01*
X654608Y114442D01*
X654476Y114111D01*
X654336Y113784D01*
X654188Y113460D01*
X654032Y113141D01*
X653868Y112825D01*
X653696Y112513D01*
X653517Y112206D01*
X653330Y111903D01*
X653136Y111604D01*
X652935Y111311D01*
X652727Y111022D01*
X652511Y110739D01*
X652289Y110461D01*
X652060Y110189D01*
X651824Y109922D01*
X651582Y109662D01*
X651333Y109407D01*
X651078Y109158D01*
X650818Y108916D01*
X650551Y108680D01*
X650279Y108451D01*
X650001Y108229D01*
X649718Y108013D01*
X649429Y107805D01*
X649136Y107604D01*
X648837Y107410D01*
X648534Y107223D01*
X648227Y107044D01*
X647915Y106872D01*
X647599Y106708D01*
X647280Y106552D01*
X646956Y106404D01*
X646629Y106264D01*
X646298Y106132D01*
X645965Y106008D01*
X645628Y105892D01*
X645289Y105784D01*
X644947Y105685D01*
X644603Y105595D01*
X644257Y105512D01*
X643909Y105439D01*
X643559Y105373D01*
X643208Y105317D01*
X642855Y105269D01*
X642501Y105230D01*
X642147Y105199D01*
X641791Y105177D01*
X641436Y105164D01*
X641080Y105160D01*
X640724Y105164D01*
X640369Y105177D01*
X640013Y105199D01*
X639659Y105230D01*
X639305Y105269D01*
X638952Y105317D01*
X638601Y105373D01*
X638251Y105439D01*
X637903Y105512D01*
X637557Y105595D01*
X637213Y105685D01*
X636871Y105784D01*
X636532Y105892D01*
X636195Y106008D01*
X635862Y106132D01*
X635531Y106264D01*
X635204Y106404D01*
X634880Y106552D01*
X634561Y106708D01*
X634245Y106872D01*
X633933Y107044D01*
X633626Y107223D01*
X633323Y107410D01*
X633024Y107604D01*
X632731Y107805D01*
X632442Y108013D01*
X632159Y108229D01*
X631881Y108451D01*
X631609Y108680D01*
X631342Y108916D01*
X631082Y109158D01*
X630827Y109407D01*
X630578Y109662D01*
X630336Y109922D01*
X630100Y110189D01*
X629871Y110461D01*
X629649Y110739D01*
X629433Y111022D01*
X629225Y111311D01*
X629024Y111604D01*
X628830Y111903D01*
X628643Y112206D01*
X628464Y112513D01*
X628292Y112825D01*
X628128Y113141D01*
X627972Y113460D01*
X627824Y113784D01*
X627684Y114111D01*
X627552Y114442D01*
X627428Y114775D01*
X627312Y115112D01*
X627204Y115451D01*
X627105Y115793D01*
X627015Y116137D01*
X626932Y116483D01*
X626859Y116831D01*
X626793Y117181D01*
X626737Y117532D01*
X626689Y117885D01*
X626650Y118239D01*
X626619Y118593D01*
X626597Y118949D01*
X626584Y119304D01*
X626580Y119660D01*
X626580Y154660D02*
X626584Y155016D01*
X626597Y155371D01*
X626619Y155727D01*
X626650Y156081D01*
X626689Y156435D01*
X626737Y156788D01*
X626793Y157139D01*
X626859Y157489D01*
X626932Y157837D01*
X627015Y158183D01*
X627105Y158527D01*
X627204Y158869D01*
X627312Y159208D01*
X627428Y159545D01*
X627552Y159878D01*
X627684Y160209D01*
X627824Y160536D01*
X627972Y160860D01*
X628128Y161179D01*
X628292Y161495D01*
X628464Y161807D01*
X628643Y162114D01*
X628830Y162417D01*
X629024Y162716D01*
X629225Y163009D01*
X629433Y163298D01*
X629649Y163581D01*
X629871Y163859D01*
X630100Y164131D01*
X630336Y164398D01*
X630578Y164658D01*
X630827Y164913D01*
X631082Y165162D01*
X631342Y165404D01*
X631609Y165640D01*
X631881Y165869D01*
X632159Y166091D01*
X632442Y166307D01*
X632731Y166515D01*
X633024Y166716D01*
X633323Y166910D01*
X633626Y167097D01*
X633933Y167276D01*
X634245Y167448D01*
X634561Y167612D01*
X634880Y167768D01*
X635204Y167916D01*
X635531Y168056D01*
X635862Y168188D01*
X636195Y168312D01*
X636532Y168428D01*
X636871Y168536D01*
X637213Y168635D01*
X637557Y168725D01*
X637903Y168808D01*
X638251Y168881D01*
X638601Y168947D01*
X638952Y169003D01*
X639305Y169051D01*
X639659Y169090D01*
X640013Y169121D01*
X640369Y169143D01*
X640724Y169156D01*
X641080Y169160D01*
X641436Y169156D01*
X641791Y169143D01*
X642147Y169121D01*
X642501Y169090D01*
X642855Y169051D01*
X643208Y169003D01*
X643559Y168947D01*
X643909Y168881D01*
X644257Y168808D01*
X644603Y168725D01*
X644947Y168635D01*
X645289Y168536D01*
X645628Y168428D01*
X645965Y168312D01*
X646298Y168188D01*
X646629Y168056D01*
X646956Y167916D01*
X647280Y167768D01*
X647599Y167612D01*
X647915Y167448D01*
X648227Y167276D01*
X648534Y167097D01*
X648837Y166910D01*
X649136Y166716D01*
X649429Y166515D01*
X649718Y166307D01*
X650001Y166091D01*
X650279Y165869D01*
X650551Y165640D01*
X650818Y165404D01*
X651078Y165162D01*
X651333Y164913D01*
X651582Y164658D01*
X651824Y164398D01*
X652060Y164131D01*
X652289Y163859D01*
X652511Y163581D01*
X652727Y163298D01*
X652935Y163009D01*
X653136Y162716D01*
X653330Y162417D01*
X653517Y162114D01*
X653696Y161807D01*
X653868Y161495D01*
X654032Y161179D01*
X654188Y160860D01*
X654336Y160536D01*
X654476Y160209D01*
X654608Y159878D01*
X654732Y159545D01*
X654848Y159208D01*
X654956Y158869D01*
X655055Y158527D01*
X655145Y158183D01*
X655228Y157837D01*
X655301Y157489D01*
X655367Y157139D01*
X655423Y156788D01*
X655471Y156435D01*
X655510Y156081D01*
X655541Y155727D01*
X655563Y155371D01*
X655576Y155016D01*
X655580Y154660D01*
X655576Y154304D01*
X655563Y153949D01*
X655541Y153593D01*
X655510Y153239D01*
X655471Y152885D01*
X655423Y152532D01*
X655367Y152181D01*
X655301Y151831D01*
X655228Y151483D01*
X655145Y151137D01*
X655055Y150793D01*
X654956Y150451D01*
X654848Y150112D01*
X654732Y149775D01*
X654608Y149442D01*
X654476Y149111D01*
X654336Y148784D01*
X654188Y148460D01*
X654032Y148141D01*
X653868Y147825D01*
X653696Y147513D01*
X653517Y147206D01*
X653330Y146903D01*
X653136Y146604D01*
X652935Y146311D01*
X652727Y146022D01*
X652511Y145739D01*
X652289Y145461D01*
X652060Y145189D01*
X651824Y144922D01*
X651582Y144662D01*
X651333Y144407D01*
X651078Y144158D01*
X650818Y143916D01*
X650551Y143680D01*
X650279Y143451D01*
X650001Y143229D01*
X649718Y143013D01*
X649429Y142805D01*
X649136Y142604D01*
X648837Y142410D01*
X648534Y142223D01*
X648227Y142044D01*
X647915Y141872D01*
X647599Y141708D01*
X647280Y141552D01*
X646956Y141404D01*
X646629Y141264D01*
X646298Y141132D01*
X645965Y141008D01*
X645628Y140892D01*
X645289Y140784D01*
X644947Y140685D01*
X644603Y140595D01*
X644257Y140512D01*
X643909Y140439D01*
X643559Y140373D01*
X643208Y140317D01*
X642855Y140269D01*
X642501Y140230D01*
X642147Y140199D01*
X641791Y140177D01*
X641436Y140164D01*
X641080Y140160D01*
X640724Y140164D01*
X640369Y140177D01*
X640013Y140199D01*
X639659Y140230D01*
X639305Y140269D01*
X638952Y140317D01*
X638601Y140373D01*
X638251Y140439D01*
X637903Y140512D01*
X637557Y140595D01*
X637213Y140685D01*
X636871Y140784D01*
X636532Y140892D01*
X636195Y141008D01*
X635862Y141132D01*
X635531Y141264D01*
X635204Y141404D01*
X634880Y141552D01*
X634561Y141708D01*
X634245Y141872D01*
X633933Y142044D01*
X633626Y142223D01*
X633323Y142410D01*
X633024Y142604D01*
X632731Y142805D01*
X632442Y143013D01*
X632159Y143229D01*
X631881Y143451D01*
X631609Y143680D01*
X631342Y143916D01*
X631082Y144158D01*
X630827Y144407D01*
X630578Y144662D01*
X630336Y144922D01*
X630100Y145189D01*
X629871Y145461D01*
X629649Y145739D01*
X629433Y146022D01*
X629225Y146311D01*
X629024Y146604D01*
X628830Y146903D01*
X628643Y147206D01*
X628464Y147513D01*
X628292Y147825D01*
X628128Y148141D01*
X627972Y148460D01*
X627824Y148784D01*
X627684Y149111D01*
X627552Y149442D01*
X627428Y149775D01*
X627312Y150112D01*
X627204Y150451D01*
X627105Y150793D01*
X627015Y151137D01*
X626932Y151483D01*
X626859Y151831D01*
X626793Y152181D01*
X626737Y152532D01*
X626689Y152885D01*
X626650Y153239D01*
X626619Y153593D01*
X626597Y153949D01*
X626584Y154304D01*
X626580Y154660D01*
X605653Y119566D02*
X609551Y115668D01*
X605653Y119566D02*
X617347Y119566D01*
X617347Y115668D02*
X617347Y123464D01*
X617347Y150593D02*
X617347Y158389D01*
X617347Y150593D02*
X609551Y158389D01*
X607602Y158389D01*
X605653Y156440D01*
X605653Y152542D01*
X607602Y150593D01*
D13*
X579120Y175260D02*
X579118Y175360D01*
X579112Y175459D01*
X579102Y175559D01*
X579089Y175657D01*
X579071Y175756D01*
X579050Y175853D01*
X579025Y175949D01*
X578996Y176045D01*
X578963Y176139D01*
X578927Y176232D01*
X578887Y176323D01*
X578843Y176413D01*
X578796Y176501D01*
X578746Y176587D01*
X578692Y176671D01*
X578635Y176753D01*
X578575Y176832D01*
X578511Y176910D01*
X578445Y176984D01*
X578376Y177056D01*
X578304Y177125D01*
X578230Y177191D01*
X578152Y177255D01*
X578073Y177315D01*
X577991Y177372D01*
X577907Y177426D01*
X577821Y177476D01*
X577733Y177523D01*
X577643Y177567D01*
X577552Y177607D01*
X577459Y177643D01*
X577365Y177676D01*
X577269Y177705D01*
X577173Y177730D01*
X577076Y177751D01*
X576977Y177769D01*
X576879Y177782D01*
X576779Y177792D01*
X576680Y177798D01*
X576580Y177800D01*
X561340Y177800D02*
X561240Y177798D01*
X561141Y177792D01*
X561041Y177782D01*
X560943Y177769D01*
X560844Y177751D01*
X560747Y177730D01*
X560651Y177705D01*
X560555Y177676D01*
X560461Y177643D01*
X560368Y177607D01*
X560277Y177567D01*
X560187Y177523D01*
X560099Y177476D01*
X560013Y177426D01*
X559929Y177372D01*
X559847Y177315D01*
X559768Y177255D01*
X559690Y177191D01*
X559616Y177125D01*
X559544Y177056D01*
X559475Y176984D01*
X559409Y176910D01*
X559345Y176832D01*
X559285Y176753D01*
X559228Y176671D01*
X559174Y176587D01*
X559124Y176501D01*
X559077Y176413D01*
X559033Y176323D01*
X558993Y176232D01*
X558957Y176139D01*
X558924Y176045D01*
X558895Y175949D01*
X558870Y175853D01*
X558849Y175756D01*
X558831Y175657D01*
X558818Y175559D01*
X558808Y175459D01*
X558802Y175360D01*
X558800Y175260D01*
X558800Y129540D02*
X558802Y129440D01*
X558808Y129341D01*
X558818Y129241D01*
X558831Y129143D01*
X558849Y129044D01*
X558870Y128947D01*
X558895Y128851D01*
X558924Y128755D01*
X558957Y128661D01*
X558993Y128568D01*
X559033Y128477D01*
X559077Y128387D01*
X559124Y128299D01*
X559174Y128213D01*
X559228Y128129D01*
X559285Y128047D01*
X559345Y127968D01*
X559409Y127890D01*
X559475Y127816D01*
X559544Y127744D01*
X559616Y127675D01*
X559690Y127609D01*
X559768Y127545D01*
X559847Y127485D01*
X559929Y127428D01*
X560013Y127374D01*
X560099Y127324D01*
X560187Y127277D01*
X560277Y127233D01*
X560368Y127193D01*
X560461Y127157D01*
X560555Y127124D01*
X560651Y127095D01*
X560747Y127070D01*
X560844Y127049D01*
X560943Y127031D01*
X561041Y127018D01*
X561141Y127008D01*
X561240Y127002D01*
X561340Y127000D01*
X576580Y127000D02*
X576680Y127002D01*
X576779Y127008D01*
X576879Y127018D01*
X576977Y127031D01*
X577076Y127049D01*
X577173Y127070D01*
X577269Y127095D01*
X577365Y127124D01*
X577459Y127157D01*
X577552Y127193D01*
X577643Y127233D01*
X577733Y127277D01*
X577821Y127324D01*
X577907Y127374D01*
X577991Y127428D01*
X578073Y127485D01*
X578152Y127545D01*
X578230Y127609D01*
X578304Y127675D01*
X578376Y127744D01*
X578445Y127816D01*
X578511Y127890D01*
X578575Y127968D01*
X578635Y128047D01*
X578692Y128129D01*
X578746Y128213D01*
X578796Y128299D01*
X578843Y128387D01*
X578887Y128477D01*
X578927Y128568D01*
X578963Y128661D01*
X578996Y128755D01*
X579025Y128851D01*
X579050Y128947D01*
X579071Y129044D01*
X579089Y129143D01*
X579102Y129241D01*
X579112Y129341D01*
X579118Y129440D01*
X579120Y129540D01*
X576580Y177800D02*
X561340Y177800D01*
X579120Y175260D02*
X579120Y171450D01*
X577850Y170180D01*
X558800Y171450D02*
X558800Y175260D01*
X558800Y171450D02*
X560070Y170180D01*
X577850Y134620D02*
X579120Y133350D01*
X577850Y134620D02*
X577850Y170180D01*
X560070Y134620D02*
X558800Y133350D01*
X560070Y134620D02*
X560070Y170180D01*
X579120Y133350D02*
X579120Y129540D01*
X558800Y129540D02*
X558800Y133350D01*
X561340Y127000D02*
X576580Y127000D01*
D15*
X568960Y125095D03*
X568960Y179705D03*
D16*
X558800Y36830D02*
X548640Y36830D01*
D17*
X563009Y53930D02*
X562464Y53710D01*
X561914Y53504D01*
X561360Y53311D01*
X560800Y53132D01*
X560237Y52967D01*
X559669Y52815D01*
X559098Y52677D01*
X558524Y52553D01*
X557947Y52443D01*
X557368Y52347D01*
X556786Y52266D01*
X556202Y52198D01*
X555618Y52145D01*
X555031Y52106D01*
X554445Y52081D01*
X553857Y52070D01*
X553270Y52074D01*
X552683Y52092D01*
X552096Y52125D01*
X551511Y52171D01*
X550927Y52232D01*
X550344Y52307D01*
X549764Y52397D01*
X549185Y52500D01*
X548610Y52617D01*
X548037Y52749D01*
X547468Y52894D01*
X546903Y53053D01*
X546342Y53226D01*
X545785Y53412D01*
X545232Y53612D01*
X544685Y53825D01*
X544143Y54052D01*
X543607Y54291D01*
X543077Y54544D01*
X542553Y54810D01*
X542035Y55088D01*
X541525Y55378D01*
X541022Y55681D01*
X540526Y55996D01*
X540038Y56324D01*
X539558Y56662D01*
X539087Y57013D01*
X538624Y57375D01*
X538171Y57748D01*
X537726Y58132D01*
X537291Y58526D01*
X536866Y58931D01*
X536450Y59347D01*
X536045Y59772D01*
X535651Y60207D01*
X535267Y60652D01*
X534894Y61105D01*
X534532Y61568D01*
X534181Y62039D01*
X533843Y62519D01*
X533515Y63007D01*
X533200Y63503D01*
X532897Y64006D01*
X532607Y64516D01*
X532329Y65034D01*
X532063Y65558D01*
X531810Y66088D01*
X531571Y66624D01*
X531344Y67166D01*
X531131Y67713D01*
X530931Y68266D01*
X530745Y68823D01*
X530572Y69384D01*
X530413Y69949D01*
X530268Y70518D01*
X530136Y71091D01*
X530019Y71666D01*
X529916Y72245D01*
X529826Y72825D01*
X529751Y73408D01*
X529690Y73992D01*
X529644Y74577D01*
X529611Y75164D01*
X529593Y75751D01*
X529589Y76338D01*
X529600Y76926D01*
X529625Y77512D01*
X529664Y78099D01*
X529717Y78683D01*
X529785Y79267D01*
X529866Y79849D01*
X529962Y80428D01*
X530072Y81005D01*
X530196Y81579D01*
X530334Y82150D01*
X530486Y82718D01*
X530651Y83281D01*
X530830Y83841D01*
X531023Y84395D01*
X531229Y84945D01*
X531449Y85490D01*
D16*
X558800Y47435D02*
X558800Y36830D01*
D17*
X575990Y66911D02*
X576206Y67447D01*
X576410Y67988D01*
X576600Y68534D01*
X576777Y69084D01*
X576941Y69638D01*
X577091Y70196D01*
X577228Y70757D01*
X577352Y71322D01*
X577462Y71889D01*
X577558Y72459D01*
X577641Y73031D01*
X577710Y73604D01*
X577765Y74180D01*
X577807Y74756D01*
X577834Y75333D01*
X577848Y75911D01*
X577848Y76489D01*
X577834Y77067D01*
X577807Y77644D01*
X577765Y78220D01*
X577710Y78796D01*
X577641Y79369D01*
X577558Y79941D01*
X577462Y80511D01*
X577352Y81078D01*
X577228Y81643D01*
X577091Y82204D01*
X576941Y82762D01*
X576777Y83316D01*
X576600Y83866D01*
X576410Y84412D01*
X576206Y84953D01*
X575990Y85489D01*
D16*
X548640Y47435D02*
X548640Y36830D01*
D17*
X544431Y98470D02*
X544967Y98686D01*
X545508Y98890D01*
X546054Y99080D01*
X546604Y99257D01*
X547158Y99421D01*
X547716Y99571D01*
X548277Y99708D01*
X548842Y99832D01*
X549409Y99942D01*
X549979Y100038D01*
X550551Y100121D01*
X551124Y100190D01*
X551700Y100245D01*
X552276Y100287D01*
X552853Y100314D01*
X553431Y100328D01*
X554009Y100328D01*
X554587Y100314D01*
X555164Y100287D01*
X555740Y100245D01*
X556316Y100190D01*
X556889Y100121D01*
X557461Y100038D01*
X558031Y99942D01*
X558598Y99832D01*
X559163Y99708D01*
X559724Y99571D01*
X560282Y99421D01*
X560836Y99257D01*
X561386Y99080D01*
X561932Y98890D01*
X562473Y98686D01*
X563009Y98470D01*
D16*
X524510Y76200D02*
X524519Y76917D01*
X524545Y77633D01*
X524589Y78349D01*
X524651Y79063D01*
X524730Y79776D01*
X524826Y80486D01*
X524940Y81194D01*
X525071Y81899D01*
X525220Y82600D01*
X525385Y83297D01*
X525568Y83991D01*
X525768Y84679D01*
X525984Y85363D01*
X526217Y86041D01*
X526467Y86713D01*
X526733Y87378D01*
X527016Y88037D01*
X527314Y88689D01*
X527629Y89333D01*
X527959Y89969D01*
X528305Y90598D01*
X528666Y91217D01*
X529042Y91827D01*
X529433Y92428D01*
X529838Y93019D01*
X530258Y93600D01*
X530692Y94171D01*
X531140Y94731D01*
X531602Y95279D01*
X532077Y95816D01*
X532565Y96341D01*
X533065Y96855D01*
X533579Y97355D01*
X534104Y97843D01*
X534641Y98318D01*
X535189Y98780D01*
X535749Y99228D01*
X536320Y99662D01*
X536901Y100082D01*
X537492Y100487D01*
X538093Y100878D01*
X538703Y101254D01*
X539322Y101615D01*
X539951Y101961D01*
X540587Y102291D01*
X541231Y102606D01*
X541883Y102904D01*
X542542Y103187D01*
X543207Y103453D01*
X543879Y103703D01*
X544557Y103936D01*
X545241Y104152D01*
X545929Y104352D01*
X546623Y104535D01*
X547320Y104700D01*
X548021Y104849D01*
X548726Y104980D01*
X549434Y105094D01*
X550144Y105190D01*
X550857Y105269D01*
X551571Y105331D01*
X552287Y105375D01*
X553003Y105401D01*
X553720Y105410D01*
X554437Y105401D01*
X555153Y105375D01*
X555869Y105331D01*
X556583Y105269D01*
X557296Y105190D01*
X558006Y105094D01*
X558714Y104980D01*
X559419Y104849D01*
X560120Y104700D01*
X560817Y104535D01*
X561511Y104352D01*
X562199Y104152D01*
X562883Y103936D01*
X563561Y103703D01*
X564233Y103453D01*
X564898Y103187D01*
X565557Y102904D01*
X566209Y102606D01*
X566853Y102291D01*
X567489Y101961D01*
X568118Y101615D01*
X568737Y101254D01*
X569347Y100878D01*
X569948Y100487D01*
X570539Y100082D01*
X571120Y99662D01*
X571691Y99228D01*
X572251Y98780D01*
X572799Y98318D01*
X573336Y97843D01*
X573861Y97355D01*
X574375Y96855D01*
X574875Y96341D01*
X575363Y95816D01*
X575838Y95279D01*
X576300Y94731D01*
X576748Y94171D01*
X577182Y93600D01*
X577602Y93019D01*
X578007Y92428D01*
X578398Y91827D01*
X578774Y91217D01*
X579135Y90598D01*
X579481Y89969D01*
X579811Y89333D01*
X580126Y88689D01*
X580424Y88037D01*
X580707Y87378D01*
X580973Y86713D01*
X581223Y86041D01*
X581456Y85363D01*
X581672Y84679D01*
X581872Y83991D01*
X582055Y83297D01*
X582220Y82600D01*
X582369Y81899D01*
X582500Y81194D01*
X582614Y80486D01*
X582710Y79776D01*
X582789Y79063D01*
X582851Y78349D01*
X582895Y77633D01*
X582921Y76917D01*
X582930Y76200D01*
X582921Y75483D01*
X582895Y74767D01*
X582851Y74051D01*
X582789Y73337D01*
X582710Y72624D01*
X582614Y71914D01*
X582500Y71206D01*
X582369Y70501D01*
X582220Y69800D01*
X582055Y69103D01*
X581872Y68409D01*
X581672Y67721D01*
X581456Y67037D01*
X581223Y66359D01*
X580973Y65687D01*
X580707Y65022D01*
X580424Y64363D01*
X580126Y63711D01*
X579811Y63067D01*
X579481Y62431D01*
X579135Y61802D01*
X578774Y61183D01*
X578398Y60573D01*
X578007Y59972D01*
X577602Y59381D01*
X577182Y58800D01*
X576748Y58229D01*
X576300Y57669D01*
X575838Y57121D01*
X575363Y56584D01*
X574875Y56059D01*
X574375Y55545D01*
X573861Y55045D01*
X573336Y54557D01*
X572799Y54082D01*
X572251Y53620D01*
X571691Y53172D01*
X571120Y52738D01*
X570539Y52318D01*
X569948Y51913D01*
X569347Y51522D01*
X568737Y51146D01*
X568118Y50785D01*
X567489Y50439D01*
X566853Y50109D01*
X566209Y49794D01*
X565557Y49496D01*
X564898Y49213D01*
X564233Y48947D01*
X563561Y48697D01*
X562883Y48464D01*
X562199Y48248D01*
X561511Y48048D01*
X560817Y47865D01*
X560120Y47700D01*
X559419Y47551D01*
X558714Y47420D01*
X558006Y47306D01*
X557296Y47210D01*
X556583Y47131D01*
X555869Y47069D01*
X555153Y47025D01*
X554437Y46999D01*
X553720Y46990D01*
X553003Y46999D01*
X552287Y47025D01*
X551571Y47069D01*
X550857Y47131D01*
X550144Y47210D01*
X549434Y47306D01*
X548726Y47420D01*
X548021Y47551D01*
X547320Y47700D01*
X546623Y47865D01*
X545929Y48048D01*
X545241Y48248D01*
X544557Y48464D01*
X543879Y48697D01*
X543207Y48947D01*
X542542Y49213D01*
X541883Y49496D01*
X541231Y49794D01*
X540587Y50109D01*
X539951Y50439D01*
X539322Y50785D01*
X538703Y51146D01*
X538093Y51522D01*
X537492Y51913D01*
X536901Y52318D01*
X536320Y52738D01*
X535749Y53172D01*
X535189Y53620D01*
X534641Y54082D01*
X534104Y54557D01*
X533579Y55045D01*
X533065Y55545D01*
X532565Y56059D01*
X532077Y56584D01*
X531602Y57121D01*
X531140Y57669D01*
X530692Y58229D01*
X530258Y58800D01*
X529838Y59381D01*
X529433Y59972D01*
X529042Y60573D01*
X528666Y61183D01*
X528305Y61802D01*
X527959Y62431D01*
X527629Y63067D01*
X527314Y63711D01*
X527016Y64363D01*
X526733Y65022D01*
X526467Y65687D01*
X526217Y66359D01*
X525984Y67037D01*
X525768Y67721D01*
X525568Y68409D01*
X525385Y69103D01*
X525220Y69800D01*
X525071Y70501D01*
X524940Y71206D01*
X524826Y71914D01*
X524730Y72624D01*
X524651Y73337D01*
X524589Y74051D01*
X524545Y74767D01*
X524519Y75483D01*
X524510Y76200D01*
D13*
X553720Y175260D02*
X553718Y175360D01*
X553712Y175459D01*
X553702Y175559D01*
X553689Y175657D01*
X553671Y175756D01*
X553650Y175853D01*
X553625Y175949D01*
X553596Y176045D01*
X553563Y176139D01*
X553527Y176232D01*
X553487Y176323D01*
X553443Y176413D01*
X553396Y176501D01*
X553346Y176587D01*
X553292Y176671D01*
X553235Y176753D01*
X553175Y176832D01*
X553111Y176910D01*
X553045Y176984D01*
X552976Y177056D01*
X552904Y177125D01*
X552830Y177191D01*
X552752Y177255D01*
X552673Y177315D01*
X552591Y177372D01*
X552507Y177426D01*
X552421Y177476D01*
X552333Y177523D01*
X552243Y177567D01*
X552152Y177607D01*
X552059Y177643D01*
X551965Y177676D01*
X551869Y177705D01*
X551773Y177730D01*
X551676Y177751D01*
X551577Y177769D01*
X551479Y177782D01*
X551379Y177792D01*
X551280Y177798D01*
X551180Y177800D01*
X535940Y177800D02*
X535840Y177798D01*
X535741Y177792D01*
X535641Y177782D01*
X535543Y177769D01*
X535444Y177751D01*
X535347Y177730D01*
X535251Y177705D01*
X535155Y177676D01*
X535061Y177643D01*
X534968Y177607D01*
X534877Y177567D01*
X534787Y177523D01*
X534699Y177476D01*
X534613Y177426D01*
X534529Y177372D01*
X534447Y177315D01*
X534368Y177255D01*
X534290Y177191D01*
X534216Y177125D01*
X534144Y177056D01*
X534075Y176984D01*
X534009Y176910D01*
X533945Y176832D01*
X533885Y176753D01*
X533828Y176671D01*
X533774Y176587D01*
X533724Y176501D01*
X533677Y176413D01*
X533633Y176323D01*
X533593Y176232D01*
X533557Y176139D01*
X533524Y176045D01*
X533495Y175949D01*
X533470Y175853D01*
X533449Y175756D01*
X533431Y175657D01*
X533418Y175559D01*
X533408Y175459D01*
X533402Y175360D01*
X533400Y175260D01*
X533400Y129540D02*
X533402Y129440D01*
X533408Y129341D01*
X533418Y129241D01*
X533431Y129143D01*
X533449Y129044D01*
X533470Y128947D01*
X533495Y128851D01*
X533524Y128755D01*
X533557Y128661D01*
X533593Y128568D01*
X533633Y128477D01*
X533677Y128387D01*
X533724Y128299D01*
X533774Y128213D01*
X533828Y128129D01*
X533885Y128047D01*
X533945Y127968D01*
X534009Y127890D01*
X534075Y127816D01*
X534144Y127744D01*
X534216Y127675D01*
X534290Y127609D01*
X534368Y127545D01*
X534447Y127485D01*
X534529Y127428D01*
X534613Y127374D01*
X534699Y127324D01*
X534787Y127277D01*
X534877Y127233D01*
X534968Y127193D01*
X535061Y127157D01*
X535155Y127124D01*
X535251Y127095D01*
X535347Y127070D01*
X535444Y127049D01*
X535543Y127031D01*
X535641Y127018D01*
X535741Y127008D01*
X535840Y127002D01*
X535940Y127000D01*
X551180Y127000D02*
X551280Y127002D01*
X551379Y127008D01*
X551479Y127018D01*
X551577Y127031D01*
X551676Y127049D01*
X551773Y127070D01*
X551869Y127095D01*
X551965Y127124D01*
X552059Y127157D01*
X552152Y127193D01*
X552243Y127233D01*
X552333Y127277D01*
X552421Y127324D01*
X552507Y127374D01*
X552591Y127428D01*
X552673Y127485D01*
X552752Y127545D01*
X552830Y127609D01*
X552904Y127675D01*
X552976Y127744D01*
X553045Y127816D01*
X553111Y127890D01*
X553175Y127968D01*
X553235Y128047D01*
X553292Y128129D01*
X553346Y128213D01*
X553396Y128299D01*
X553443Y128387D01*
X553487Y128477D01*
X553527Y128568D01*
X553563Y128661D01*
X553596Y128755D01*
X553625Y128851D01*
X553650Y128947D01*
X553671Y129044D01*
X553689Y129143D01*
X553702Y129241D01*
X553712Y129341D01*
X553718Y129440D01*
X553720Y129540D01*
X551180Y177800D02*
X535940Y177800D01*
X553720Y175260D02*
X553720Y171450D01*
X552450Y170180D01*
X533400Y171450D02*
X533400Y175260D01*
X533400Y171450D02*
X534670Y170180D01*
X552450Y134620D02*
X553720Y133350D01*
X552450Y134620D02*
X552450Y170180D01*
X534670Y134620D02*
X533400Y133350D01*
X534670Y134620D02*
X534670Y170180D01*
X553720Y133350D02*
X553720Y129540D01*
X533400Y129540D02*
X533400Y133350D01*
X535940Y127000D02*
X551180Y127000D01*
D15*
X543560Y125095D03*
X543560Y179705D03*
D13*
X455930Y469900D02*
X443230Y469900D01*
X455930Y469900D02*
X462280Y463550D01*
X462280Y450850D01*
X455930Y444500D01*
X462280Y463550D02*
X468630Y469900D01*
X481330Y469900D01*
X487680Y463550D01*
X487680Y450850D01*
X481330Y444500D01*
X468630Y444500D01*
X462280Y450850D01*
X417830Y469900D02*
X411480Y463550D01*
X417830Y469900D02*
X430530Y469900D01*
X436880Y463550D01*
X436880Y450850D01*
X430530Y444500D01*
X417830Y444500D01*
X411480Y450850D01*
X436880Y463550D02*
X443230Y469900D01*
X436880Y450850D02*
X443230Y444500D01*
X455930Y444500D01*
X379730Y469900D02*
X367030Y469900D01*
X379730Y469900D02*
X386080Y463550D01*
X386080Y450850D01*
X379730Y444500D01*
X386080Y463550D02*
X392430Y469900D01*
X405130Y469900D01*
X411480Y463550D01*
X411480Y450850D01*
X405130Y444500D01*
X392430Y444500D01*
X386080Y450850D01*
X360680Y450850D02*
X360680Y463550D01*
X367030Y469900D01*
X360680Y450850D02*
X367030Y444500D01*
X379730Y444500D01*
X494030Y469900D02*
X506730Y469900D01*
X513080Y463550D01*
X513080Y450850D01*
X506730Y444500D01*
X487680Y463550D02*
X494030Y469900D01*
X487680Y450850D02*
X494030Y444500D01*
X506730Y444500D01*
X455930Y342900D02*
X443230Y342900D01*
X455930Y342900D02*
X462280Y336550D01*
X462280Y323850D01*
X455930Y317500D01*
X462280Y336550D02*
X468630Y342900D01*
X481330Y342900D01*
X487680Y336550D01*
X487680Y323850D01*
X481330Y317500D01*
X468630Y317500D01*
X462280Y323850D01*
X417830Y342900D02*
X411480Y336550D01*
X417830Y342900D02*
X430530Y342900D01*
X436880Y336550D01*
X436880Y323850D01*
X430530Y317500D01*
X417830Y317500D01*
X411480Y323850D01*
X436880Y336550D02*
X443230Y342900D01*
X436880Y323850D02*
X443230Y317500D01*
X455930Y317500D01*
X379730Y342900D02*
X367030Y342900D01*
X379730Y342900D02*
X386080Y336550D01*
X386080Y323850D01*
X379730Y317500D01*
X386080Y336550D02*
X392430Y342900D01*
X405130Y342900D01*
X411480Y336550D01*
X411480Y323850D01*
X405130Y317500D01*
X392430Y317500D01*
X386080Y323850D01*
X360680Y323850D02*
X360680Y336550D01*
X367030Y342900D01*
X360680Y323850D02*
X367030Y317500D01*
X379730Y317500D01*
X494030Y342900D02*
X506730Y342900D01*
X513080Y336550D01*
X513080Y323850D01*
X506730Y317500D01*
X487680Y336550D02*
X494030Y342900D01*
X487680Y323850D02*
X494030Y317500D01*
X506730Y317500D01*
X436880Y151130D02*
X335280Y151130D01*
X335280Y92710D02*
X436880Y92710D01*
X436880Y151130D01*
X335280Y151130D02*
X335280Y132080D01*
X335280Y111760D02*
X335280Y92710D01*
X335280Y111760D02*
X335527Y111763D01*
X335775Y111772D01*
X336022Y111787D01*
X336268Y111808D01*
X336514Y111835D01*
X336759Y111868D01*
X337004Y111907D01*
X337247Y111952D01*
X337489Y112003D01*
X337730Y112060D01*
X337969Y112122D01*
X338207Y112191D01*
X338443Y112265D01*
X338677Y112345D01*
X338909Y112430D01*
X339139Y112522D01*
X339367Y112618D01*
X339592Y112721D01*
X339815Y112828D01*
X340035Y112942D01*
X340252Y113060D01*
X340467Y113184D01*
X340678Y113313D01*
X340886Y113447D01*
X341091Y113586D01*
X341292Y113730D01*
X341490Y113878D01*
X341684Y114032D01*
X341874Y114190D01*
X342060Y114353D01*
X342242Y114520D01*
X342420Y114692D01*
X342594Y114868D01*
X342764Y115048D01*
X342929Y115233D01*
X343089Y115421D01*
X343245Y115613D01*
X343397Y115809D01*
X343543Y116008D01*
X343685Y116211D01*
X343821Y116418D01*
X343953Y116627D01*
X344079Y116840D01*
X344200Y117056D01*
X344316Y117274D01*
X344426Y117496D01*
X344531Y117720D01*
X344631Y117946D01*
X344725Y118175D01*
X344813Y118406D01*
X344896Y118640D01*
X344973Y118875D01*
X345044Y119112D01*
X345110Y119350D01*
X345169Y119590D01*
X345223Y119832D01*
X345271Y120075D01*
X345313Y120318D01*
X345349Y120563D01*
X345379Y120809D01*
X345403Y121055D01*
X345421Y121302D01*
X345433Y121549D01*
X345439Y121796D01*
X345439Y122044D01*
X345433Y122291D01*
X345421Y122538D01*
X345403Y122785D01*
X345379Y123031D01*
X345349Y123277D01*
X345313Y123522D01*
X345271Y123765D01*
X345223Y124008D01*
X345169Y124250D01*
X345110Y124490D01*
X345044Y124728D01*
X344973Y124965D01*
X344896Y125200D01*
X344813Y125434D01*
X344725Y125665D01*
X344631Y125894D01*
X344531Y126120D01*
X344426Y126344D01*
X344316Y126566D01*
X344200Y126784D01*
X344079Y127000D01*
X343953Y127213D01*
X343821Y127422D01*
X343685Y127629D01*
X343543Y127832D01*
X343397Y128031D01*
X343245Y128227D01*
X343089Y128419D01*
X342929Y128607D01*
X342764Y128792D01*
X342594Y128972D01*
X342420Y129148D01*
X342242Y129320D01*
X342060Y129487D01*
X341874Y129650D01*
X341684Y129808D01*
X341490Y129962D01*
X341292Y130110D01*
X341091Y130254D01*
X340886Y130393D01*
X340678Y130527D01*
X340467Y130656D01*
X340252Y130780D01*
X340035Y130898D01*
X339815Y131012D01*
X339592Y131119D01*
X339367Y131222D01*
X339139Y131318D01*
X338909Y131410D01*
X338677Y131495D01*
X338443Y131575D01*
X338207Y131649D01*
X337969Y131718D01*
X337730Y131780D01*
X337489Y131837D01*
X337247Y131888D01*
X337004Y131933D01*
X336759Y131972D01*
X336514Y132005D01*
X336268Y132032D01*
X336022Y132053D01*
X335775Y132068D01*
X335527Y132077D01*
X335280Y132080D01*
X289560Y99060D02*
X289560Y91440D01*
X293370Y95250D02*
X285750Y95250D01*
X255270Y121920D02*
X255280Y122762D01*
X255311Y123603D01*
X255363Y124443D01*
X255435Y125281D01*
X255528Y126117D01*
X255641Y126951D01*
X255775Y127782D01*
X255929Y128610D01*
X256103Y129433D01*
X256298Y130252D01*
X256512Y131066D01*
X256747Y131874D01*
X257001Y132676D01*
X257274Y133472D01*
X257568Y134261D01*
X257880Y135042D01*
X258212Y135816D01*
X258562Y136581D01*
X258931Y137337D01*
X259319Y138084D01*
X259725Y138821D01*
X260148Y139549D01*
X260590Y140265D01*
X261049Y140971D01*
X261525Y141664D01*
X262018Y142347D01*
X262528Y143016D01*
X263053Y143673D01*
X263595Y144317D01*
X264153Y144948D01*
X264726Y145564D01*
X265313Y146167D01*
X265916Y146754D01*
X266532Y147327D01*
X267163Y147885D01*
X267807Y148427D01*
X268464Y148952D01*
X269133Y149462D01*
X269816Y149955D01*
X270509Y150431D01*
X271215Y150890D01*
X271931Y151332D01*
X272659Y151755D01*
X273396Y152161D01*
X274143Y152549D01*
X274899Y152918D01*
X275664Y153268D01*
X276438Y153600D01*
X277219Y153912D01*
X278008Y154206D01*
X278804Y154479D01*
X279606Y154733D01*
X280414Y154968D01*
X281228Y155182D01*
X282047Y155377D01*
X282870Y155551D01*
X283698Y155705D01*
X284529Y155839D01*
X285363Y155952D01*
X286199Y156045D01*
X287037Y156117D01*
X287877Y156169D01*
X288718Y156200D01*
X289560Y156210D01*
X290402Y156200D01*
X291243Y156169D01*
X292083Y156117D01*
X292921Y156045D01*
X293757Y155952D01*
X294591Y155839D01*
X295422Y155705D01*
X296250Y155551D01*
X297073Y155377D01*
X297892Y155182D01*
X298706Y154968D01*
X299514Y154733D01*
X300316Y154479D01*
X301112Y154206D01*
X301901Y153912D01*
X302682Y153600D01*
X303456Y153268D01*
X304221Y152918D01*
X304977Y152549D01*
X305724Y152161D01*
X306461Y151755D01*
X307189Y151332D01*
X307905Y150890D01*
X308611Y150431D01*
X309304Y149955D01*
X309987Y149462D01*
X310656Y148952D01*
X311313Y148427D01*
X311957Y147885D01*
X312588Y147327D01*
X313204Y146754D01*
X313807Y146167D01*
X314394Y145564D01*
X314967Y144948D01*
X315525Y144317D01*
X316067Y143673D01*
X316592Y143016D01*
X317102Y142347D01*
X317595Y141664D01*
X318071Y140971D01*
X318530Y140265D01*
X318972Y139549D01*
X319395Y138821D01*
X319801Y138084D01*
X320189Y137337D01*
X320558Y136581D01*
X320908Y135816D01*
X321240Y135042D01*
X321552Y134261D01*
X321846Y133472D01*
X322119Y132676D01*
X322373Y131874D01*
X322608Y131066D01*
X322822Y130252D01*
X323017Y129433D01*
X323191Y128610D01*
X323345Y127782D01*
X323479Y126951D01*
X323592Y126117D01*
X323685Y125281D01*
X323757Y124443D01*
X323809Y123603D01*
X323840Y122762D01*
X323850Y121920D01*
X323840Y121078D01*
X323809Y120237D01*
X323757Y119397D01*
X323685Y118559D01*
X323592Y117723D01*
X323479Y116889D01*
X323345Y116058D01*
X323191Y115230D01*
X323017Y114407D01*
X322822Y113588D01*
X322608Y112774D01*
X322373Y111966D01*
X322119Y111164D01*
X321846Y110368D01*
X321552Y109579D01*
X321240Y108798D01*
X320908Y108024D01*
X320558Y107259D01*
X320189Y106503D01*
X319801Y105756D01*
X319395Y105019D01*
X318972Y104291D01*
X318530Y103575D01*
X318071Y102869D01*
X317595Y102176D01*
X317102Y101493D01*
X316592Y100824D01*
X316067Y100167D01*
X315525Y99523D01*
X314967Y98892D01*
X314394Y98276D01*
X313807Y97673D01*
X313204Y97086D01*
X312588Y96513D01*
X311957Y95955D01*
X311313Y95413D01*
X310656Y94888D01*
X309987Y94378D01*
X309304Y93885D01*
X308611Y93409D01*
X307905Y92950D01*
X307189Y92508D01*
X306461Y92085D01*
X305724Y91679D01*
X304977Y91291D01*
X304221Y90922D01*
X303456Y90572D01*
X302682Y90240D01*
X301901Y89928D01*
X301112Y89634D01*
X300316Y89361D01*
X299514Y89107D01*
X298706Y88872D01*
X297892Y88658D01*
X297073Y88463D01*
X296250Y88289D01*
X295422Y88135D01*
X294591Y88001D01*
X293757Y87888D01*
X292921Y87795D01*
X292083Y87723D01*
X291243Y87671D01*
X290402Y87640D01*
X289560Y87630D01*
X288718Y87640D01*
X287877Y87671D01*
X287037Y87723D01*
X286199Y87795D01*
X285363Y87888D01*
X284529Y88001D01*
X283698Y88135D01*
X282870Y88289D01*
X282047Y88463D01*
X281228Y88658D01*
X280414Y88872D01*
X279606Y89107D01*
X278804Y89361D01*
X278008Y89634D01*
X277219Y89928D01*
X276438Y90240D01*
X275664Y90572D01*
X274899Y90922D01*
X274143Y91291D01*
X273396Y91679D01*
X272659Y92085D01*
X271931Y92508D01*
X271215Y92950D01*
X270509Y93409D01*
X269816Y93885D01*
X269133Y94378D01*
X268464Y94888D01*
X267807Y95413D01*
X267163Y95955D01*
X266532Y96513D01*
X265916Y97086D01*
X265313Y97673D01*
X264726Y98276D01*
X264153Y98892D01*
X263595Y99523D01*
X263053Y100167D01*
X262528Y100824D01*
X262018Y101493D01*
X261525Y102176D01*
X261049Y102869D01*
X260590Y103575D01*
X260148Y104291D01*
X259725Y105019D01*
X259319Y105756D01*
X258931Y106503D01*
X258562Y107259D01*
X258212Y108024D01*
X257880Y108798D01*
X257568Y109579D01*
X257274Y110368D01*
X257001Y111164D01*
X256747Y111966D01*
X256512Y112774D01*
X256298Y113588D01*
X256103Y114407D01*
X255929Y115230D01*
X255775Y116058D01*
X255641Y116889D01*
X255528Y117723D01*
X255435Y118559D01*
X255363Y119397D01*
X255311Y120237D01*
X255280Y121078D01*
X255270Y121920D01*
X482600Y144780D02*
X482600Y152400D01*
X478790Y148590D02*
X486410Y148590D01*
X448310Y121920D02*
X448320Y122762D01*
X448351Y123603D01*
X448403Y124443D01*
X448475Y125281D01*
X448568Y126117D01*
X448681Y126951D01*
X448815Y127782D01*
X448969Y128610D01*
X449143Y129433D01*
X449338Y130252D01*
X449552Y131066D01*
X449787Y131874D01*
X450041Y132676D01*
X450314Y133472D01*
X450608Y134261D01*
X450920Y135042D01*
X451252Y135816D01*
X451602Y136581D01*
X451971Y137337D01*
X452359Y138084D01*
X452765Y138821D01*
X453188Y139549D01*
X453630Y140265D01*
X454089Y140971D01*
X454565Y141664D01*
X455058Y142347D01*
X455568Y143016D01*
X456093Y143673D01*
X456635Y144317D01*
X457193Y144948D01*
X457766Y145564D01*
X458353Y146167D01*
X458956Y146754D01*
X459572Y147327D01*
X460203Y147885D01*
X460847Y148427D01*
X461504Y148952D01*
X462173Y149462D01*
X462856Y149955D01*
X463549Y150431D01*
X464255Y150890D01*
X464971Y151332D01*
X465699Y151755D01*
X466436Y152161D01*
X467183Y152549D01*
X467939Y152918D01*
X468704Y153268D01*
X469478Y153600D01*
X470259Y153912D01*
X471048Y154206D01*
X471844Y154479D01*
X472646Y154733D01*
X473454Y154968D01*
X474268Y155182D01*
X475087Y155377D01*
X475910Y155551D01*
X476738Y155705D01*
X477569Y155839D01*
X478403Y155952D01*
X479239Y156045D01*
X480077Y156117D01*
X480917Y156169D01*
X481758Y156200D01*
X482600Y156210D01*
X483442Y156200D01*
X484283Y156169D01*
X485123Y156117D01*
X485961Y156045D01*
X486797Y155952D01*
X487631Y155839D01*
X488462Y155705D01*
X489290Y155551D01*
X490113Y155377D01*
X490932Y155182D01*
X491746Y154968D01*
X492554Y154733D01*
X493356Y154479D01*
X494152Y154206D01*
X494941Y153912D01*
X495722Y153600D01*
X496496Y153268D01*
X497261Y152918D01*
X498017Y152549D01*
X498764Y152161D01*
X499501Y151755D01*
X500229Y151332D01*
X500945Y150890D01*
X501651Y150431D01*
X502344Y149955D01*
X503027Y149462D01*
X503696Y148952D01*
X504353Y148427D01*
X504997Y147885D01*
X505628Y147327D01*
X506244Y146754D01*
X506847Y146167D01*
X507434Y145564D01*
X508007Y144948D01*
X508565Y144317D01*
X509107Y143673D01*
X509632Y143016D01*
X510142Y142347D01*
X510635Y141664D01*
X511111Y140971D01*
X511570Y140265D01*
X512012Y139549D01*
X512435Y138821D01*
X512841Y138084D01*
X513229Y137337D01*
X513598Y136581D01*
X513948Y135816D01*
X514280Y135042D01*
X514592Y134261D01*
X514886Y133472D01*
X515159Y132676D01*
X515413Y131874D01*
X515648Y131066D01*
X515862Y130252D01*
X516057Y129433D01*
X516231Y128610D01*
X516385Y127782D01*
X516519Y126951D01*
X516632Y126117D01*
X516725Y125281D01*
X516797Y124443D01*
X516849Y123603D01*
X516880Y122762D01*
X516890Y121920D01*
X516880Y121078D01*
X516849Y120237D01*
X516797Y119397D01*
X516725Y118559D01*
X516632Y117723D01*
X516519Y116889D01*
X516385Y116058D01*
X516231Y115230D01*
X516057Y114407D01*
X515862Y113588D01*
X515648Y112774D01*
X515413Y111966D01*
X515159Y111164D01*
X514886Y110368D01*
X514592Y109579D01*
X514280Y108798D01*
X513948Y108024D01*
X513598Y107259D01*
X513229Y106503D01*
X512841Y105756D01*
X512435Y105019D01*
X512012Y104291D01*
X511570Y103575D01*
X511111Y102869D01*
X510635Y102176D01*
X510142Y101493D01*
X509632Y100824D01*
X509107Y100167D01*
X508565Y99523D01*
X508007Y98892D01*
X507434Y98276D01*
X506847Y97673D01*
X506244Y97086D01*
X505628Y96513D01*
X504997Y95955D01*
X504353Y95413D01*
X503696Y94888D01*
X503027Y94378D01*
X502344Y93885D01*
X501651Y93409D01*
X500945Y92950D01*
X500229Y92508D01*
X499501Y92085D01*
X498764Y91679D01*
X498017Y91291D01*
X497261Y90922D01*
X496496Y90572D01*
X495722Y90240D01*
X494941Y89928D01*
X494152Y89634D01*
X493356Y89361D01*
X492554Y89107D01*
X491746Y88872D01*
X490932Y88658D01*
X490113Y88463D01*
X489290Y88289D01*
X488462Y88135D01*
X487631Y88001D01*
X486797Y87888D01*
X485961Y87795D01*
X485123Y87723D01*
X484283Y87671D01*
X483442Y87640D01*
X482600Y87630D01*
X481758Y87640D01*
X480917Y87671D01*
X480077Y87723D01*
X479239Y87795D01*
X478403Y87888D01*
X477569Y88001D01*
X476738Y88135D01*
X475910Y88289D01*
X475087Y88463D01*
X474268Y88658D01*
X473454Y88872D01*
X472646Y89107D01*
X471844Y89361D01*
X471048Y89634D01*
X470259Y89928D01*
X469478Y90240D01*
X468704Y90572D01*
X467939Y90922D01*
X467183Y91291D01*
X466436Y91679D01*
X465699Y92085D01*
X464971Y92508D01*
X464255Y92950D01*
X463549Y93409D01*
X462856Y93885D01*
X462173Y94378D01*
X461504Y94888D01*
X460847Y95413D01*
X460203Y95955D01*
X459572Y96513D01*
X458956Y97086D01*
X458353Y97673D01*
X457766Y98276D01*
X457193Y98892D01*
X456635Y99523D01*
X456093Y100167D01*
X455568Y100824D01*
X455058Y101493D01*
X454565Y102176D01*
X454089Y102869D01*
X453630Y103575D01*
X453188Y104291D01*
X452765Y105019D01*
X452359Y105756D01*
X451971Y106503D01*
X451602Y107259D01*
X451252Y108024D01*
X450920Y108798D01*
X450608Y109579D01*
X450314Y110368D01*
X450041Y111164D01*
X449787Y111966D01*
X449552Y112774D01*
X449338Y113588D01*
X449143Y114407D01*
X448969Y115230D01*
X448815Y116058D01*
X448681Y116889D01*
X448568Y117723D01*
X448475Y118559D01*
X448403Y119397D01*
X448351Y120237D01*
X448320Y121078D01*
X448310Y121920D01*
X571500Y417830D02*
X571500Y430530D01*
X577850Y436880D01*
X590550Y436880D01*
X596900Y430530D01*
X577850Y436880D02*
X571500Y443230D01*
X571500Y455930D01*
X577850Y462280D01*
X590550Y462280D01*
X596900Y455930D01*
X596900Y443230D01*
X590550Y436880D01*
X571500Y392430D02*
X577850Y386080D01*
X571500Y392430D02*
X571500Y405130D01*
X577850Y411480D01*
X590550Y411480D01*
X596900Y405130D01*
X596900Y392430D01*
X590550Y386080D01*
X577850Y411480D02*
X571500Y417830D01*
X590550Y411480D02*
X596900Y417830D01*
X596900Y430530D01*
X571500Y354330D02*
X571500Y341630D01*
X571500Y354330D02*
X577850Y360680D01*
X590550Y360680D01*
X596900Y354330D01*
X577850Y360680D02*
X571500Y367030D01*
X571500Y379730D01*
X577850Y386080D01*
X590550Y386080D01*
X596900Y379730D01*
X596900Y367030D01*
X590550Y360680D01*
X590550Y335280D02*
X577850Y335280D01*
X571500Y341630D01*
X590550Y335280D02*
X596900Y341630D01*
X596900Y354330D01*
X571500Y468630D02*
X571500Y481330D01*
X577850Y487680D01*
X590550Y487680D01*
X596900Y481330D01*
X577850Y462280D02*
X571500Y468630D01*
X590550Y462280D02*
X596900Y468630D01*
X596900Y481330D01*
X83820Y445770D02*
X83820Y433070D01*
X83820Y445770D02*
X90170Y452120D01*
X102870Y452120D01*
X109220Y445770D01*
X83820Y407670D02*
X90170Y401320D01*
X83820Y407670D02*
X83820Y420370D01*
X90170Y426720D01*
X102870Y426720D01*
X109220Y420370D01*
X109220Y407670D01*
X102870Y401320D01*
X90170Y426720D02*
X83820Y433070D01*
X102870Y426720D02*
X109220Y433070D01*
X109220Y445770D01*
X83820Y369570D02*
X83820Y356870D01*
X83820Y369570D02*
X90170Y375920D01*
X102870Y375920D01*
X109220Y369570D01*
X90170Y375920D02*
X83820Y382270D01*
X83820Y394970D01*
X90170Y401320D01*
X102870Y401320D01*
X109220Y394970D01*
X109220Y382270D01*
X102870Y375920D01*
X83820Y331470D02*
X90170Y325120D01*
X83820Y331470D02*
X83820Y344170D01*
X90170Y350520D01*
X102870Y350520D01*
X109220Y344170D01*
X109220Y331470D01*
X102870Y325120D01*
X90170Y350520D02*
X83820Y356870D01*
X102870Y350520D02*
X109220Y356870D01*
X109220Y369570D01*
X83820Y293370D02*
X83820Y280670D01*
X83820Y293370D02*
X90170Y299720D01*
X102870Y299720D01*
X109220Y293370D01*
X90170Y299720D02*
X83820Y306070D01*
X83820Y318770D01*
X90170Y325120D01*
X102870Y325120D01*
X109220Y318770D01*
X109220Y306070D01*
X102870Y299720D01*
X102870Y274320D02*
X90170Y274320D01*
X83820Y280670D01*
X102870Y274320D02*
X109220Y280670D01*
X109220Y293370D01*
X83820Y458470D02*
X83820Y471170D01*
X90170Y477520D01*
X102870Y477520D01*
X109220Y471170D01*
X90170Y452120D02*
X83820Y458470D01*
X102870Y452120D02*
X109220Y458470D01*
X109220Y471170D01*
X22860Y311150D02*
X29210Y304800D01*
X22860Y311150D02*
X22860Y323850D01*
X29210Y330200D01*
X41910Y330200D01*
X48260Y323850D01*
X48260Y311150D01*
X41910Y304800D01*
X22860Y273050D02*
X22860Y260350D01*
X22860Y273050D02*
X29210Y279400D01*
X41910Y279400D01*
X48260Y273050D01*
X29210Y279400D02*
X22860Y285750D01*
X22860Y298450D01*
X29210Y304800D01*
X41910Y304800D01*
X48260Y298450D01*
X48260Y285750D01*
X41910Y279400D01*
X41910Y254000D02*
X29210Y254000D01*
X22860Y260350D01*
X41910Y254000D02*
X48260Y260350D01*
X48260Y273050D01*
X22860Y336550D02*
X22860Y349250D01*
X29210Y355600D01*
X41910Y355600D01*
X48260Y349250D01*
X29210Y330200D02*
X22860Y336550D01*
X41910Y330200D02*
X48260Y336550D01*
X48260Y349250D01*
M02*
